<?xml version="1.0" encoding="UTF-8" standalone="no"?>
<svg xmlns:dc="http://purl.org/dc/elements/1.1/" xmlns:cc="http://creativecommons.org/ns#" xmlns:rdf="http://www.w3.org/1999/02/22-rdf-syntax-ns#" xmlns:svg="http://www.w3.org/2000/svg" xmlns="http://www.w3.org/2000/svg" width="197.72" height="257.48" viewBox="0 0 52.312 68.126" version="1.1" id="svg78">
  <defs id="defs72" />
  <metadata id="metadata75">
    <rdf:RDF>
      <cc:Work rdf:about="">
        <dc:format>image/svg+xml</dc:format>
        <dc:type rdf:resource="http://purl.org/dc/dcmitype/StillImage" />
        <dc:title></dc:title>
      </cc:Work>
    </rdf:RDF>
  </metadata>
  <g id="layer1">
    <g transform="matrix(0.99999,0,0,0.99999,-283.76,-296.52)" id="g14570">
      <path id="pArrowDownShadow" style="opacity:0.983902;fill:#a2a2a2;fill-opacity:1;fill-rule:nonzero;stroke:none;stroke-width:0.352777" d="m 319.15,298.99 c -2.65,0.81 -1.25,4.55 -1.63,6.68 -0.28,6.36 1.42,12.57 1.72,18.9 0.41,1.69 -0.4,5.19 2.19,5.02 2.11,-1.22 0.3,-4.07 0.57,-6.01 -0.35,-6.19 -1.98,-12.27 -1.62,-18.5 -0.55,-1.86 1.41,-5.58 -1.23,-6.09 z m 15.51,32.81 c -2.21,0.84 -2.71,3.87 -4.43,5.44 -2.94,4.05 -6.23,7.81 -8.96,12 -3.38,4.4 -5.91,9.4 -9.55,13.61 1.08,1.3 2.13,2.93 3.11,0.7 3.49,-4.37 6.14,-9.34 9.54,-13.78 3.63,-5.43 8.19,-10.18 11.51,-15.82 0.57,-0.9 -0.17,-2.18 -1.22,-2.15 z" />
      <path id="pArrowDownStroke" style="fill:#000000;fill-opacity:0.966507;fill-rule:nonzero;stroke:none;stroke-width:0.352778" d="m 315.45,298.4 c -0.1,9.57 0.21,19.14 1.09,28.67 -0.82,3.3 1.57,6.25 5.03,5.22 2.69,0.18 7.17,-0.33 8.82,0.74 -6.38,7.93 -12.33,16.19 -18.16,24.53 -1.39,2.04 -3.11,-2.49 -4.72,-3.4 -3.6,-3.73 -7.34,-7.32 -10.95,-11.02 -2.43,-2.6 -4.78,-5.27 -7.17,-7.9 4.27,-0.12 8.63,0.28 12.84,-0.54 2.71,-1.55 0.88,-5.17 1.12,-7.69 -0.48,-7.71 -1.84,-15.43 -1.32,-23.18 1.95,-2.9 -3.09,-5.44 -3.56,-1.8 -0.91,5.49 -0.1,11.07 0.29,16.58 0.48,4.2 0.77,8.42 1.06,12.64 -4.8,0.3 -9.62,0.1 -14.42,0.23 -4.03,1.72 0.45,5.43 2.08,7.38 3.9,4.28 7.74,8.62 11.98,12.57 3.17,3.46 6.86,6.49 9.55,10.36 1.71,3.49 4.99,0.26 6.17,-1.83 5.06,-7.1 10.03,-14.26 15.43,-21.12 1.19,-1.54 3.56,-4.44 3.8,-4.78 3.5,-2.91 -1.19,-5.63 -4.19,-5.2 -3.26,-0.44 -6.56,-0.4 -9.84,-0.38 -0.1,-4.89 -0.85,-9.75 -0.88,-14.65 -0.3,-5.27 -0.18,-10.54 -0.27,-15.81 -0.42,-2.21 -3.81,-1.87 -3.78,0.38 m 5.01,31.09 0.1,0.12 z" />
    </g>
  </g>
</svg>
