<?xml version="1.0" encoding="UTF-8" standalone="no"?>
<svg xmlns:dc="http://purl.org/dc/elements/1.1/" xmlns:cc="http://creativecommons.org/ns#" xmlns:rdf="http://www.w3.org/1999/02/22-rdf-syntax-ns#" xmlns:svg="http://www.w3.org/2000/svg" xmlns="http://www.w3.org/2000/svg" width="368.04" height="210.47" viewBox="0 0 97.376 55.69" version="1.1" id="svg78">
  <defs id="defs72" />
  <metadata id="metadata75">
    <rdf:RDF>
      <cc:Work rdf:about="">
        <dc:format>image/svg+xml</dc:format>
        <dc:type rdf:resource="http://purl.org/dc/dcmitype/StillImage" />
        <dc:title></dc:title>
      </cc:Work>
    </rdf:RDF>
  </metadata>
  <g id="layer1">
    <g transform="matrix(0.99999,0,0,0.99999,-182.77,-178.14)" id="gArrowRight">
      <path id="pArrowRightShadow" style="opacity:0.983902;fill:#a2a2a2;fill-opacity:1;fill-rule:nonzero;stroke:none;stroke-width:0.352777" d="m 278.78,201.29 c -3,1.37 -4.95,4.41 -7.27,6.71 -5.18,5.82 -10.72,11.33 -15.31,17.64 -0.58,3.76 3.54,1.39 4.12,-0.76 4.73,-5.93 10.11,-11.28 15.13,-16.95 0.9,-1.99 7.5,-4.92 3.33,-6.64 z m -26.04,9.94 c -6.16,2.01 -12.29,4.23 -18.52,6.08 -14.02,4.67 -28.19,8.87 -42.3,13.28 -2.45,-0.62 -5.6,2.86 -1.91,3.24 5.95,-1.05 11.57,-3.45 17.38,-5.07 13.35,-3.96 26.56,-8.36 39.8,-12.63 1.46,-0.95 10.48,-2.24 5.55,-4.9 z" />
      <path id="pArrowRightStroke" style="fill:#000000;fill-opacity:0.966507;fill-rule:nonzero;stroke:none;stroke-width:0.352777" d="m 251.39,178.14 c -3.33,2.79 -0.41,9.05 -1.03,13.18 1.69,5.07 -6.25,3.36 -9.09,5.3 -8.96,2.91 -18.23,4.77 -27.07,8.06 -4.94,1.51 -9.89,2.95 -15,3.68 -4.78,1.43 -9.95,1.4 -14.6,3.23 -3.41,0.78 -1.47,5.69 1.08,2.71 4.22,-1.8 9.04,-1.69 13.44,-2.98 4.3,-0.88 8.63,-1.55 12.79,-2.98 7.09,-2.2 14.1,-4.67 21.34,-6.36 6.58,-1.92 13.18,-3.89 19.78,-5.6 1.04,-3.81 -0.39,-8.36 -0.17,-12.47 1.97,0.63 5.83,5.37 8.35,7.65 4,3.81 7.92,8.09 13.18,10.14 -5.03,5.27 -9.84,10.75 -14.07,16.69 -1.52,1.21 -5.28,7.04 -4.71,2.63 -0.43,-3.53 1.74,-11.68 -4.49,-9.84 -9.74,1.7 -19.38,4.02 -28.64,7.54 -9.71,3.15 -19.31,6.63 -29.07,9.62 -2.27,0.85 -8.7,0.39 -6.92,4.08 4.14,-0.1 8.68,-1.64 12.8,-2.91 10.73,-3.61 21.46,-7.23 32.2,-10.82 6.89,-2.25 14.05,-3.57 21.17,-4.87 0.45,4.4 -0.82,9.33 1.16,13.37 4.05,0.32 6.62,-5.47 9.52,-8.06 4.4,-6.52 10.3,-11.8 15.54,-17.59 -1.75,-3.1 -6.73,-3.98 -9.45,-6.62 -5.19,-3.57 -9.21,-8.57 -13.42,-13.2 -1.26,-1.82 -2.44,-3.28 -4.62,-3.58 z" />
    </g>
  </g>
</svg>
