<?xml version="1.0" encoding="UTF-8" standalone="no"?>
<svg xmlns:dc="http://purl.org/dc/elements/1.1/" xmlns:cc="http://creativecommons.org/ns#" xmlns:rdf="http://www.w3.org/1999/02/22-rdf-syntax-ns#" xmlns:svg="http://www.w3.org/2000/svg" xmlns="http://www.w3.org/2000/svg" xmlns:sodipodi="http://sodipodi.sourceforge.net/DTD/sodipodi-0.dtd" xmlns:inkscape="http://www.inkscape.org/namespaces/inkscape" inkscape:version="1.0rc1 (09960d6f05, 2020-04-09)" sodipodi:docname="data.svg" width="735.81" height="921.14" viewBox="0 0 194.67 243.73" version="1.1" id="svg78">
  <sodipodi:namedview inkscape:current-layer="svg78" inkscape:cy="452.67" inkscape:cx="195.96" inkscape:zoom="0.73674" units="px" showgrid="false" id="namedview14" inkscape:window-height="480" inkscape:window-width="640" inkscape:pageshadow="2" inkscape:pageopacity="0" guidetolerance="10" gridtolerance="10" objecttolerance="10" borderopacity="1" bordercolor="#666666" pagecolor="#ffffff" inkscape:document-rotation="0" />
  <defs id="defs72" />
  <metadata id="metadata75">
    <rdf:RDF>
      <cc:Work rdf:about="">
        <dc:format>image/svg+xml</dc:format>
        <dc:type rdf:resource="http://purl.org/dc/dcmitype/StillImage" />
        <dc:title></dc:title>
      </cc:Work>
    </rdf:RDF>
  </metadata>
  <g transform="translate(23.492,0.52993)" id="layer1">
    <g transform="matrix(0.99999,0,0,0.99999,-216.65,-326.64)" id="gData">
      <g id="gDataBox">
        <path inkscape:connector-curvature="0" id="pDataShadow" style="opacity:0.983902;fill:#a2a2a2;fill-opacity:1;fill-rule:nonzero;stroke:none;stroke-width:0.352777" d="m 386.38,332.24 c -3.89,5.97 0.1,15.42 -2.69,22.49 -3.57,18.94 -1.05,38.31 -3.08,57.4 -0.85,37.96 -0.25,75.95 -0.44,113.93 0.21,11.56 0.89,23.06 0.38,34.63 0.13,8.15 -13.46,2.56 -19.66,4.17 -14.72,0.63 -29.33,-1.54 -44.01,-1.88 -11.62,-0.1 -23.54,0.21 -34.93,0.21 -7.51,-1.93 -15.89,-0.85 -23.78,-1.15 -10.24,-0.1 -21.13,0.49 -30.92,0.1 0.16,4.12 2.59,5.66 7.42,4.42 21.76,-0.42 43.49,0.43 65.23,1.07 26.17,0 52.38,-0.33 78.45,2.21 8.73,0.18 4.57,-10.92 6.07,-16.62 -0.56,-13.38 0.92,-26.76 0.67,-40.12 -1.5,-16.72 -0.47,-33.7 -0.79,-50.52 0,-15.93 0.4,-31.89 -0.64,-47.75 -0.1,-11.21 1.21,-22.85 0.84,-34.27 -0.77,-11.88 2.26,-23.47 3.06,-35.21 -0.99,-3.68 1.9,-10.87 -1.18,-13.06 z" />
        <path inkscape:connector-curvature="0" id="pDataBorder" style="fill:#000000;fill-opacity:0.966507;fill-rule:nonzero;stroke:none;stroke-width:0.352777" d="m 383.34,326.14 c -12.6,-0.44 -24.63,4.72 -37.23,3.98 -3.07,7.28 13.04,2.49 17.3,2.31 6.82,-0.57 24.68,-8.08 19.47,5.33 -5.16,34.27 -6.82,69.07 -6.19,103.71 2.35,35.13 0.78,70.36 1.5,105.54 -0.22,7.73 2.84,19.67 -8.99,15.92 -26.41,1.08 -52.53,-4.44 -78.94,-3.41 -18.16,1.09 -36.35,1.54 -54.55,1.29 -10.88,2.78 -5.09,-11.72 -6.53,-18.23 -0.1,-20.47 0.57,-40.99 -1.88,-61.38 -0.94,-18.76 -0.32,-37.62 -3.35,-56.24 -2.57,-6.76 1.43,-19.24 -4.45,-22.58 -3.06,9.78 1.52,21.55 1.76,32.02 2.6,21.09 0.77,42.43 3.63,63.52 1.38,21.47 -0.55,43.11 1.1,64.54 2.76,4.11 8.96,1.41 13.27,2.17 17.21,0.4 34.39,-0.47 51.56,-1.28 25.85,-0.97 51.44,4.32 77.29,3.41 8.82,2.06 16.67,-1.62 13.88,-11.79 -0.34,-33.16 0.25,-66.34 -0.69,-99.48 -2.44,-37.99 -0.1,-76.22 4.74,-113.93 0.33,-4.48 4.49,-14.52 -2.7,-15.42 z m 0.1,3.82 c 0.16,0.23 -0.1,0 0,0 z M 277.5,342.64 c -9.89,0.54 -19.63,3.34 -29.11,5.99 -2.49,8.36 13.35,-1.41 18.6,-0.71 4.62,-3.74 17.87,2.38 17.26,-4.55 -2.04,-0.91 -4.55,-0.62 -6.75,-0.73 z" />
      </g>
      <g id="gDataIcon">
        <path inkscape:connector-curvature="0" id="pDataIconBG" style="fill:#fdd757;fill-opacity:1;fill-rule:nonzero;stroke:none;stroke-width:0.352777" d="m 238.68,356.7 c -1.76,-0.1 -2.87,1.16 -4.45,0.43 -2.33,1.25 -1.2,4.43 -2.34,6.16 -2.08,0.55 -2.12,3.49 0.24,3.92 1.91,0.9 5.21,1.21 5.24,3.71 1.52,1.71 2.73,-0.92 3.72,-1.78 1.17,-1.4 1.94,-3.93 3.18,-4.81 2.02,-1.81 -1.27,-4.44 -2.32,-6.11 -0.94,-0.83 -1.93,-1.61 -3.27,-1.52 z m -0.23,2.46 c 0.25,1.65 0.99,3.78 2.26,4.33 -0.24,2.48 -2.41,4.18 -4.47,2.2 -1.4,-0.37 0.39,-3.01 -1.39,-3.68 -0.12,-0.89 1.1,-2.5 1.61,-2.65 0.67,0.18 1.34,-0.1 1.99,-0.2 z m -23.23,12.71 c -3.33,-0.1 -1.8,5.46 1.02,3.85 1.62,-0.99 0.95,-3.85 -1.02,-3.85 z m 9.94,8.73 c -3.57,0 -1.66,6.33 0.86,3.33 1.09,-0.94 0.87,-3.31 -0.86,-3.33 z m -12.55,2.55 c -2.78,-0.45 -2.77,4.52 0,4.01 1.89,-0.4 2.29,-3.93 0,-4.01 z m -7.97,1.16 c -3.06,-0.1 -2.16,5.58 0.69,3.97 1.56,-1.04 1.7,-3.98 -0.69,-3.97 z m 46.39,0.62 c -1.95,0.96 -4.1,1.56 -6.17,2.33 -3.49,1.46 -7.18,2.27 -10.78,3.4 -4.17,1.62 -8.57,2.56 -12.7,4.28 -3.38,0.96 -6.81,1.74 -10.06,3.08 -3.17,0.56 -6.31,1.28 -9.38,2.25 -1.52,-0.65 -4.45,0.64 -2.36,2.2 3.13,0.82 5.99,-1.16 9.04,-1.49 2.17,-0.37 4.31,-0.84 6.32,-1.77 3.54,-1.09 7.19,-1.82 10.6,-3.28 3.3,-1.06 6.63,-1.97 9.86,-3.21 3.53,-0.98 7.07,-1.91 10.46,-3.31 1.99,-1.15 6.43,-0.94 6.21,-3.89 -0.21,-0.37 -0.62,-0.59 -1.04,-0.59 z" />
        <path inkscape:connector-curvature="0" d="m 234.68,355.38 c -2.2,0.22 -3.89,2.26 -2.86,4.08 -1.92,1.57 -0.37,4.49 -2.9,5.35 -0.11,1.7 1.65,6.05 3.77,3.62 1.53,1.58 4.28,1.27 4.26,3.88 2,1.06 5.94,-0.31 4.4,-3.13 1.79,-0.44 2.42,-2.84 3.36,-3.43 2.66,0.42 1.89,-5.44 -0.92,-4.21 -0.37,-2.1 -2.55,-3.18 -1.33,-5.38 -1.26,-1.57 -3.49,-0.49 -4.1,0.55 -1.5,0.11 -2.5,0.25 -3.22,-1.22 z m 5.65,1.59 c 0.87,0.28 -0.59,2.62 1.22,3.08 0.89,1.09 0.4,3.94 3.06,2.99 0.75,1.9 -2.73,0.75 -2.09,3.2 -1.38,1.59 -3.94,1.73 -2.43,4.45 -1.1,0.84 -2.64,0.41 -2.48,-1.6 -1.98,-0.22 -3.62,-1.98 -5.18,-2.51 -1.04,2.21 -3.23,-1.88 -0.61,-1.79 0.43,-1.73 0.27,-3.95 1.86,-5.38 -0.51,-1.16 -0.97,-2.02 0.76,-2.4 0.65,2.34 3.89,1.37 5.23,0.74 0.38,-0.1 0.59,-0.44 0.66,-0.78 z m -7.41,0.98 c 0,0 0,0 0,0 z m 4.25,1.1 c -2.92,0.24 -3.99,4.36 -2.4,6.53 1.25,2.55 5.7,2.39 6.09,-0.68 0.41,-2.33 -0.91,-5.88 -3.69,-5.85 z m -0.32,1.57 c 2.13,-0.25 2.94,2.78 2.4,4.41 -1.83,2.55 -4.85,-1.35 -3.35,-3.39 0.2,-0.42 0.58,-0.75 0.95,-1.02 z m -40.72,8.58 c -2.06,1.27 1.33,5.66 -0.24,6.73 -1.01,-0.6 -3.91,-0.52 -2.22,1.05 2.05,0.33 3.66,0.41 3.33,2.95 0,0.82 -4.37,-0.52 -2.32,1.62 1.35,0.51 3.31,-0.31 2.69,1.99 1.15,1.74 -3.34,0.52 -1.44,2.48 2.57,-0.55 1.69,2.59 1.98,4.07 -1.45,-0.69 -4.25,1.42 -1.62,1.66 0.94,-0.46 2.49,-0.1 2.11,1.81 -0.14,2.31 2.27,6.42 -1.64,5.95 -1.96,2.36 2.59,0.67 3,1.4 -0.1,1.13 0.71,4.37 1.87,2.23 -0.35,-1.85 -0.92,-3.49 1.54,-3.14 3.39,-0.34 6.58,-1.53 9.72,-2.77 0.32,1.11 0.41,5.46 2.05,3.15 -0.1,-1.98 -1.53,-4.35 1.47,-4.34 1.99,0 6.01,-3.11 5.72,0.48 0.34,2.39 2.56,0.2 1.31,-1.25 -0.37,-2.3 4.03,-1.34 5.53,-2.46 2.11,0 5.92,-3.35 5.82,0.37 -0.39,2.2 2.69,2.13 1.56,0 -1.11,-2.15 -0.1,-3.13 2.14,-3.35 1.79,-0.44 4.2,-1.96 4.18,1 -0.1,1.22 1.71,3.87 2.15,1.57 -0.57,-1.93 -2.48,-4.7 0.86,-4.61 1.23,-0.59 6.37,-0.69 4.27,-2.66 -6.42,1.6 -12.81,3.42 -19.08,5.56 -4.09,1.29 -8.26,2.02 -12.35,3.2 -5.52,1.25 -10.54,4.27 -16.25,4.73 -2.54,0.62 0.92,-2.32 0.56,-3.57 0.57,-2.11 0.99,-4.25 1.48,-6.38 0.92,1.49 3.33,6.53 4.52,2.7 0.54,-1.49 0.11,-4.78 1.16,-5.16 2.74,0.84 2.77,-3.33 3.22,-5.12 0.43,-1.14 0.85,-6.52 2,-3.3 1.18,2.62 2.21,5.33 3.66,7.8 2.32,2.95 3.59,-1.02 3.21,-3.13 0,-1.41 0,-2.13 0.66,-0.35 1.16,3.05 3.25,-0.11 2.81,-1.86 0.33,-3.23 0,-6.53 0.48,-9.72 -2.41,-2.02 -1.66,3.7 -1.81,5.14 -0.17,1.38 0.13,5.07 -0.47,5.06 -0.12,-1.79 -3.01,-4.8 -3.14,-1.46 -0.25,1.49 0.47,5.12 -0.66,5.25 -1.49,-2.81 -2.55,-5.84 -4.06,-8.64 -2.23,-3.36 -3.72,1.7 -3.92,3.67 -0.72,1.64 -0.11,6.52 -2.75,4.51 -2.17,0.89 -0.89,5.9 -2.03,6.36 -1.07,-1.27 -1.67,-4.12 -3.67,-3.87 -1.15,2.22 -1.19,4.99 -1.98,7.42 -0.28,1.44 -1.45,4.48 -1.39,1.37 -0.37,-2.73 -0.38,-4.88 -0.87,-7.46 -0.13,-2.38 -0.61,-4.86 -0.44,-7.14 -0.8,-2.32 -0.83,-5.05 -1.35,-7.52 -0.48,-1.16 0.1,-3.57 -1.36,-4 z m 14.49,15.67 c 0,0 0,0 0,0 z m 0.2,0 c 0,0 -0.1,0 0,0 z m -14.64,5.37 H 196 Z" style="fill:#000000;fill-opacity:1;fill-rule:nonzero;stroke:none;stroke-width:0.352777" id="pDataIconStroke" />
      </g>
      <path inkscape:connector-curvature="0" id="pDataLabel" style="fill:#000000;fill-opacity:1;fill-rule:nonzero;stroke:none;stroke-width:0.352777" d="m 332.98,360.04 c -0.1,0 -0.1,0 -0.15,0 -0.1,0 -0.11,0 -0.16,0 v 0 c -0.3,0.1 -0.59,0.18 -0.84,0.36 -0.45,0.32 -0.78,0.8 -1.03,1.28 -0.13,0.25 -0.23,0.52 -0.33,0.78 -0.1,0.3 -0.2,0.6 -0.28,0.9 -0.15,0.55 -0.23,1.12 -0.3,1.69 -0.1,0.62 -0.1,1.24 -0.1,1.85 0,0.55 0.12,1.1 0.27,1.63 -0.49,0.6 -1.03,1.17 -1.6,1.69 -0.35,0.32 -0.71,0.64 -1.06,0.96 -0.39,0.37 -0.78,0.75 -1.12,1.17 -0.17,0.21 -0.34,0.43 -0.49,0.66 -0.18,0.25 -0.29,0.54 -0.39,0.83 0,0.11 -0.1,0.22 -0.1,0.34 0,0.15 0,0.27 0,0.42 0,0.17 0,0.33 0.14,0.49 0.1,0.12 0.17,0.23 0.26,0.35 0.1,0.1 0.21,0.17 0.32,0.24 0.11,0.1 0.24,0.1 0.36,0.12 0.35,0.1 0.69,0 1.04,0 1.09,-0.17 2.15,-0.52 3.09,-1.13 0.66,-0.44 1.22,-1.01 1.69,-1.65 0.16,0.28 0.32,0.56 0.49,0.84 0.43,0.75 0.82,1.53 1.23,2.29 0.2,0.37 0.7,0.48 1.04,0.27 0.37,-0.21 0.47,-0.67 0.28,-1.04 -0.38,-0.7 -0.74,-1.42 -1.14,-2.12 -0.17,-0.28 -0.33,-0.57 -0.5,-0.86 -0.15,-0.27 -0.31,-0.54 -0.46,-0.8 0,0 0,-0.1 -0.1,-0.11 0.15,-0.35 0.29,-0.71 0.42,-1.07 0.15,-0.4 0.3,-0.79 0.45,-1.19 0,-0.11 0.1,-0.21 0.12,-0.32 0.1,-0.19 0,-0.43 -0.1,-0.59 -0.1,-0.17 -0.27,-0.3 -0.46,-0.35 -0.2,-0.1 -0.41,0 -0.59,0.1 -0.18,0.1 -0.27,0.26 -0.35,0.45 -0.15,0.41 -0.31,0.82 -0.46,1.23 -0.1,-0.1 -0.1,-0.21 -0.15,-0.32 -0.1,-0.19 -0.16,-0.39 -0.24,-0.59 0.2,-0.27 0.39,-0.55 0.58,-0.82 0.67,-0.99 1.27,-2.05 1.7,-3.18 0.19,-0.52 0.34,-1.06 0.45,-1.61 0.1,-0.3 0.11,-0.61 0.15,-0.92 0,-0.33 0,-0.64 -0.1,-0.97 0,0 0,-0.1 0,-0.1 0,-0.1 -0.1,-0.19 -0.12,-0.28 -0.1,-0.13 -0.15,-0.26 -0.25,-0.36 -0.2,-0.21 -0.43,-0.37 -0.71,-0.46 -0.18,-0.1 -0.36,-0.1 -0.54,-0.1 z m 0,1.48 c 0,0 0,0 0,0 v 0 c 0,0 0,0 0,0 z m 0,0 c 0,0 0,0 0,0 v 0 c 0,0 0,0 0,0 z m 0.1,0 v 0 c 0,0 0,0 0,0 0,0 0,0 0,0 0,0 0,0 0,0 v 0 c 0,0 0,0 0,0 0,0 0,0 0,0 z m 0,0 v 0 c 0,0 0,0 0,0 0,0 0,0 0,0 z m 0,0 v 0 0 c 0,0 0,0 0,0 0,0 0,0 0.1,0 0,0 0,0 0,0 0,0 0,0 0,0 0,0.1 0,0.11 0.1,0.17 0,0.13 0,0.25 0,0.38 -0.14,0.86 -0.35,1.7 -0.68,2.5 -0.32,0.73 -0.71,1.42 -1.13,2.09 0,-0.62 0,-1.25 0.1,-1.87 0.12,-0.79 0.32,-1.55 0.61,-2.29 0.12,-0.26 0.25,-0.5 0.42,-0.73 0.1,-0.1 0.14,-0.16 0.23,-0.24 0,0 0.1,-0.1 0.13,-0.1 0.1,0 0.1,0 0.16,0 z m -15.72,4.02 c -0.1,0 -0.2,0 -0.29,0.1 0,0 -0.1,0 -0.1,0 v 0 c -0.16,0.1 -0.31,0.27 -0.35,0.46 -0.16,0.83 -0.34,1.67 -0.48,2.51 -0.1,0.3 -0.1,0.6 -0.13,0.91 -0.1,0.62 -0.16,1.25 -0.24,1.88 -0.1,0.53 -0.11,1.06 -0.17,1.59 -0.1,0.53 -0.12,1.06 -0.18,1.58 0,0.1 0,0.1 0,0.14 0,0.1 0,0.1 0,0.15 0,0 0,0 0,0 0,0.13 0,0.26 -0.1,0.39 -0.3,-0.48 -0.6,-0.97 -0.89,-1.46 -0.39,-0.66 -0.77,-1.33 -1.11,-2.03 -0.19,-0.38 -0.37,-0.77 -0.56,-1.15 -0.11,-0.21 -0.22,-0.43 -0.32,-0.64 -0.1,-0.16 -0.17,-0.31 -0.26,-0.46 -0.1,-0.11 -0.13,-0.2 -0.2,-0.3 -0.1,-0.14 -0.2,-0.27 -0.33,-0.38 -0.25,-0.2 -0.58,-0.34 -0.91,-0.25 -0.29,0.1 -0.51,0.32 -0.63,0.58 -0.16,0.34 -0.23,0.73 -0.31,1.09 -0.1,0.35 -0.16,0.7 -0.22,1.05 -0.16,0.84 -0.32,1.68 -0.44,2.53 -0.13,0.96 -0.26,1.92 -0.39,2.88 0,-0.1 0,-0.13 0,-0.2 0,0.18 -0.1,0.36 -0.1,0.54 0,0.1 0,0.14 0,0.21 0,0.13 0,0.26 0.1,0.38 0.1,0.17 0.26,0.3 0.45,0.35 0.2,0.1 0.42,0 0.59,-0.1 0.15,-0.1 0.33,-0.27 0.35,-0.45 0.1,-0.7 0.19,-1.41 0.28,-2.11 0.1,-0.44 0.13,-0.88 0.19,-1.32 0.1,-0.47 0.15,-0.93 0.23,-1.39 0.1,-0.4 0.14,-0.8 0.23,-1.2 0,-0.18 0.1,-0.35 0.11,-0.53 0.11,0.21 0.21,0.42 0.31,0.64 0.19,0.36 0.36,0.73 0.54,1.1 0.35,0.72 0.76,1.4 1.16,2.09 0.21,0.35 0.42,0.7 0.63,1.04 0.11,0.18 0.23,0.36 0.34,0.54 0.17,0.27 0.34,0.55 0.56,0.77 0.21,0.2 0.49,0.33 0.78,0.3 0.1,0 0.13,0 0.2,0 0.1,0 0.19,-0.1 0.28,-0.12 0.11,-0.1 0.21,-0.15 0.29,-0.25 0.12,-0.15 0.18,-0.26 0.25,-0.43 0,-0.11 0.1,-0.22 0.11,-0.34 0,-0.14 0.1,-0.29 0.1,-0.44 0,-0.15 0.1,-0.3 0.1,-0.45 0,-0.1 0,-0.19 0,-0.29 0,-0.14 0,-0.3 0.1,-0.44 0,-0.1 0,-0.12 0,-0.18 0,-0.27 0.1,-0.54 0.1,-0.81 0,-0.34 0.1,-0.67 0.11,-1.01 0,-0.39 0.1,-0.79 0.13,-1.19 0.1,-0.4 0.1,-0.8 0.15,-1.2 0.1,-0.37 0.1,-0.73 0.15,-1.1 0.12,-0.88 0.33,-1.75 0.5,-2.63 0,-0.21 0,-0.4 -0.1,-0.59 -0.1,-0.17 -0.27,-0.29 -0.46,-0.35 -0.1,0 -0.13,0 -0.2,0 z M 306,368.11 c -1.23,0 -2.46,0.1 -3.7,0.1 -0.99,0 -1.98,0.1 -2.98,0.1 -0.41,0 -0.76,0.33 -0.76,0.76 0,0 0,0 0,0.1 -0.28,0.12 -0.48,0.39 -0.49,0.71 0,0.62 -0.1,1.24 -0.13,1.85 -0.1,0.54 -0.18,1.07 -0.3,1.59 -0.39,0 -0.71,0.36 -0.71,0.76 0,0.29 0.17,0.54 0.41,0.67 -0.1,0.34 -0.12,0.68 -0.16,1.02 0,0.38 0,0.75 0,1.13 0,0.18 0.13,0.36 0.2,0.53 0.1,0.17 0.19,0.32 0.31,0.46 0.46,0.57 1.19,0.88 1.89,1.06 0.36,0.1 0.74,0.13 1.11,0.15 0.37,0 0.74,0 1.1,-0.1 0.35,-0.1 0.7,-0.22 1.02,-0.38 0.36,-0.17 0.69,-0.38 1.04,-0.56 0.38,-0.19 0.48,-0.7 0.28,-1.04 -0.1,-0.17 -0.27,-0.3 -0.46,-0.35 -0.2,-0.1 -0.4,0 -0.58,0.1 -0.41,0.21 -0.8,0.45 -1.22,0.64 -0.18,0.1 -0.35,0.12 -0.54,0.16 -0.32,0 -0.64,0 -0.95,0 -0.32,-0.1 -0.62,-0.12 -0.92,-0.23 -0.16,-0.1 -0.31,-0.16 -0.46,-0.26 -0.1,-0.1 -0.11,-0.1 -0.16,-0.16 -0.1,-0.1 -0.1,-0.15 -0.13,-0.23 0,-0.1 -0.1,-0.15 -0.1,-0.22 0,-0.21 0,-0.42 0,-0.63 0,-0.3 0.1,-0.6 0.15,-0.89 0,0 0,-0.1 0,-0.11 0.23,0 0.46,0 0.69,-0.1 0.69,-0.1 1.39,-0.19 2.07,-0.33 0.64,-0.13 1.27,-0.32 1.9,-0.48 0.66,-0.16 1.33,-0.32 1.99,-0.48 0.4,-0.1 0.64,-0.55 0.53,-0.94 -0.1,-0.34 -0.41,-0.55 -0.75,-0.55 -0.1,0 -0.12,0 -0.19,0 -0.89,0.22 -1.78,0.42 -2.67,0.66 -0.85,0.23 -1.7,0.42 -2.57,0.54 -0.22,0 -0.45,0.1 -0.67,0.1 0,-0.18 0.1,-0.35 0.1,-0.53 0.17,-0.95 0.25,-1.91 0.29,-2.87 0,0 0,0 0,0 0.87,0 1.75,-0.1 2.63,-0.1 1.25,0 2.51,-0.1 3.76,-0.1 0.42,0 0.76,-0.34 0.76,-0.76 0,-0.41 -0.34,-0.77 -0.74,-0.77 z m -11.08,0.86 c -0.1,0 -0.13,0 -0.19,0 -0.57,0.21 -1.13,0.44 -1.7,0.63 -0.6,0.21 -1.2,0.33 -1.82,0.44 -0.26,0.1 -0.52,0.1 -0.77,0.15 0,0 0,0 0,0 0,-0.1 -0.1,-0.1 -0.1,-0.12 -0.15,-0.15 -0.34,-0.23 -0.54,-0.23 -0.2,0 -0.4,0.1 -0.54,0.23 -0.11,0.11 -0.21,0.28 -0.22,0.45 -0.81,0.18 -1.61,0.38 -2.4,0.59 -0.41,0.1 -0.65,0.54 -0.54,0.94 0.12,0.4 0.54,0.63 0.94,0.53 0.71,-0.18 1.42,-0.37 2.13,-0.53 0,0.26 0,0.51 0.1,0.77 0,0.75 0.1,1.5 0.1,2.25 0,1.6 0,3.19 0,4.79 0,0.42 0.35,0.76 0.76,0.76 0.1,0 0.11,0 0.15,0 0.35,-0.1 0.62,-0.39 0.61,-0.75 0,-1.6 0,-3.19 0,-4.79 0,-0.75 0,-1.5 -0.1,-2.25 0,-0.36 0,-0.72 -0.1,-1.08 0.27,0 0.55,-0.11 0.82,-0.16 0.29,-0.1 0.58,-0.11 0.86,-0.17 0.33,-0.1 0.65,-0.15 0.97,-0.25 0.62,-0.2 1.22,-0.46 1.83,-0.68 0.2,-0.1 0.35,-0.17 0.46,-0.35 0.1,-0.18 0.13,-0.39 0.1,-0.59 -0.1,-0.19 -0.19,-0.35 -0.36,-0.45 -0.11,-0.1 -0.25,-0.11 -0.39,-0.11 z m -13.24,0.56 c -0.1,0 -0.19,0 -0.3,0 -0.11,0 -0.25,0.11 -0.34,0.18 -0.14,0.11 -0.24,0.19 -0.34,0.34 -0.15,0.23 -0.27,0.47 -0.39,0.72 -0.2,0.42 -0.38,0.86 -0.56,1.3 -0.16,0.4 -0.29,0.8 -0.43,1.2 -0.13,0.4 -0.24,0.8 -0.36,1.21 -0.12,0.4 -0.23,0.8 -0.34,1.2 -0.1,0.34 -0.18,0.68 -0.26,1.02 -0.1,0.27 -0.14,0.55 -0.2,0.83 0,0.12 -0.1,0.24 -0.1,0.36 -0.1,0.5 -0.16,0.99 -0.25,1.49 -0.1,0.44 -0.12,0.89 -0.18,1.34 0,0.21 -0.1,0.42 -0.1,0.63 0,0.19 0.1,0.41 0.23,0.54 0.14,0.14 0.33,0.22 0.53,0.22 0,0 0.1,0 0.15,0 0.15,0 0.29,-0.11 0.39,-0.21 0,0 0.1,-0.11 0.12,-0.16 0.1,-0.12 0.11,-0.24 0.11,-0.38 0.1,-0.49 0.12,-0.97 0.18,-1.46 0.1,-0.34 0.12,-0.68 0.18,-1.02 0,-0.26 0.1,-0.52 0.14,-0.78 0,-0.12 0.1,-0.25 0.1,-0.37 0.17,0.1 0.37,0.12 0.56,0.1 0.89,-0.22 1.78,-0.46 2.66,-0.7 0.1,0.36 0.16,0.73 0.23,1.1 0.1,0.33 0.14,0.66 0.21,1 0.13,0.67 0.35,1.32 0.55,1.98 0.12,0.4 0.53,0.64 0.94,0.53 0.39,-0.11 0.65,-0.54 0.53,-0.94 -0.21,-0.68 -0.43,-1.36 -0.57,-2.05 -0.1,-0.45 -0.18,-0.9 -0.27,-1.35 -0.1,-0.23 -0.1,-0.46 -0.15,-0.69 0.37,-0.1 0.75,-0.21 1.12,-0.31 0.4,-0.12 0.65,-0.54 0.54,-0.94 -0.1,-0.33 -0.41,-0.56 -0.74,-0.56 -0.1,0 -0.14,0 -0.2,0 -0.37,0.1 -0.73,0.2 -1.1,0.31 0,-0.1 0,-0.18 -0.1,-0.27 -0.2,-0.77 -0.41,-1.54 -0.6,-2.31 -0.1,-0.19 -0.1,-0.37 -0.14,-0.56 -0.14,-0.58 -0.24,-1.17 -0.49,-1.71 -0.1,-0.22 -0.24,-0.43 -0.42,-0.6 -0.11,-0.1 -0.26,-0.19 -0.41,-0.23 -0.1,0 -0.12,0 -0.18,0 z m 49.14,0.62 c 0,0 0,0.1 0,0.1 0.19,0.44 0.42,0.86 0.65,1.28 -0.14,0.25 -0.3,0.49 -0.47,0.72 -0.28,0.35 -0.59,0.67 -0.94,0.95 -0.35,0.27 -0.73,0.48 -1.14,0.66 -0.54,0.22 -1.11,0.36 -1.69,0.45 -0.1,0 -0.18,0 -0.27,0 0,-0.1 0.1,-0.13 0.1,-0.2 0.11,-0.22 0.23,-0.41 0.37,-0.6 0.14,-0.17 0.28,-0.33 0.42,-0.49 0.19,-0.2 0.39,-0.39 0.58,-0.58 0.17,-0.16 0.35,-0.32 0.52,-0.48 0.41,-0.38 0.83,-0.75 1.22,-1.14 0.22,-0.22 0.44,-0.45 0.65,-0.67 z m -63.82,0.2 c -0.3,0 -0.6,0.19 -0.71,0.47 0,0 0,0 -0.1,0 -0.55,0 -1.1,0 -1.64,0.1 -0.4,0 -0.8,0 -1.19,0.1 -0.21,0 -0.39,0.1 -0.54,0.22 -0.14,0.14 -0.22,0.34 -0.22,0.54 0,0.4 0.34,0.78 0.76,0.76 0.96,-0.1 1.93,-0.12 2.89,-0.11 0,0.57 0.1,1.13 0.1,1.7 0,0.85 0,1.7 0.1,2.55 0,0.46 0,0.93 0,1.39 0,0.44 0,0.88 0.1,1.32 0,0.86 0.1,1.72 0.11,2.58 0,0.15 0,0.3 0,0.46 0,0 -0.1,0 -0.11,0 -0.48,0 -0.96,0 -1.43,-0.1 -0.42,0 -0.77,0.37 -0.77,0.76 0,0.2 0.1,0.4 0.23,0.54 0.15,0.15 0.33,0.21 0.54,0.22 0.58,0.1 1.14,0.14 1.72,0.1 0,0 0,0 0.1,0 0.13,0.15 0.33,0.25 0.55,0.25 0.1,0 0.11,0 0.15,0 0.28,-0.1 0.51,-0.27 0.58,-0.53 0.13,0 0.26,-0.1 0.39,-0.1 1.17,-0.31 2.32,-0.77 3.4,-1.33 1.02,-0.53 1.98,-1.21 2.79,-2.03 0.36,-0.37 0.68,-0.8 0.9,-1.27 0.25,-0.53 0.39,-1.12 0.39,-1.71 0,-0.15 0,-0.32 -0.1,-0.46 0,-0.14 -0.1,-0.26 -0.1,-0.39 -0.1,-0.27 -0.19,-0.53 -0.3,-0.79 -0.22,-0.53 -0.58,-1.01 -0.97,-1.43 -0.37,-0.42 -0.83,-0.77 -1.29,-1.08 -0.48,-0.34 -1.02,-0.61 -1.55,-0.87 -1.08,-0.53 -2.25,-0.92 -3.44,-1.12 -0.19,0 -0.38,-0.1 -0.57,-0.1 0,-0.12 -0.1,-0.23 -0.19,-0.32 -0.14,-0.14 -0.33,-0.22 -0.53,-0.22 z m 14.54,1.4 c 0.1,0.36 0.17,0.73 0.26,1.1 0.1,0.33 0.16,0.66 0.25,1 0.16,0.59 0.32,1.19 0.48,1.79 -0.83,0.23 -1.66,0.45 -2.49,0.66 0,-0.11 0.1,-0.21 0.1,-0.32 0.21,-0.71 0.42,-1.43 0.63,-2.14 0.17,-0.58 0.4,-1.15 0.62,-1.72 0.1,-0.12 0.12,-0.25 0.17,-0.37 z m -13.71,0.68 c 0.91,0.14 1.81,0.41 2.66,0.76 0.8,0.35 1.59,0.76 2.29,1.27 0.34,0.28 0.66,0.58 0.94,0.92 0.19,0.26 0.36,0.55 0.5,0.85 0.1,0.25 0.17,0.5 0.22,0.75 0,0.14 0,0.28 0,0.42 0,0.23 -0.1,0.45 -0.18,0.66 -0.1,0.22 -0.22,0.43 -0.36,0.62 -0.34,0.41 -0.73,0.78 -1.15,1.11 -0.84,0.62 -1.75,1.11 -2.71,1.52 -0.59,0.25 -1.2,0.45 -1.81,0.64 0,0 -0.1,0 -0.12,0 0,-0.18 0,-0.36 0,-0.54 0,-0.63 -0.1,-1.26 -0.1,-1.89 0,-0.83 -0.1,-1.65 -0.1,-2.48 0,-0.77 0,-1.54 0,-2.31 0,-0.43 0,-0.86 0,-1.29 0,-0.34 0,-0.69 0,-1.04 z m 101.74,4.18 c -0.33,0 -0.65,0.22 -0.74,0.56 v 0 c -0.42,1.52 -0.84,3.05 -1.26,4.57 -0.11,0.42 -0.22,0.83 -0.34,1.24 -0.17,0.64 -0.33,1.29 -0.57,1.91 0,-0.1 0,-0.12 -0.1,-0.18 -0.1,-0.35 -0.2,-0.7 -0.31,-1.05 -0.16,-0.54 -0.32,-1.07 -0.5,-1.61 -0.1,-0.23 -0.17,-0.46 -0.26,-0.68 -0.1,-0.24 -0.18,-0.49 -0.28,-0.72 -0.1,-0.23 -0.23,-0.43 -0.4,-0.61 -0.18,-0.19 -0.44,-0.25 -0.67,-0.32 -0.14,0 -0.27,0 -0.41,0 -0.17,0 -0.38,0.18 -0.45,0.35 -0.1,0.22 -0.2,0.45 -0.28,0.69 -0.1,0.16 -0.1,0.33 -0.13,0.49 -0.1,0.21 -0.1,0.43 -0.15,0.64 -0.1,0.35 -0.17,0.7 -0.25,1.06 -0.16,0.68 -0.29,1.36 -0.39,2.05 -0.1,0.52 -0.12,1.04 -0.13,1.56 0,0.5 0.1,1.01 0.15,1.51 0,0.18 0.2,0.37 0.35,0.46 0.17,0.1 0.39,0.13 0.59,0.1 0.19,-0.1 0.35,-0.18 0.45,-0.35 0,-0.1 0.1,-0.12 0.1,-0.18 0,0 0,-0.1 0,-0.1 0,-0.1 0,-0.2 0,-0.3 0,0 0,-0.1 0,-0.12 0,-0.38 -0.1,-0.75 -0.1,-1.13 0,-0.42 0.1,-0.83 0.1,-1.24 0.13,-0.82 0.31,-1.62 0.49,-2.43 0,-0.17 0.1,-0.34 0.13,-0.51 0.15,0.44 0.3,0.88 0.43,1.33 0.13,0.42 0.26,0.85 0.38,1.27 0.13,0.44 0.26,0.88 0.39,1.31 0.1,0.28 0.23,0.5 0.42,0.71 0.1,0.1 0.29,0.2 0.42,0.24 0.22,0.1 0.47,0 0.67,-0.1 0.26,-0.12 0.46,-0.31 0.62,-0.54 0.17,-0.24 0.27,-0.51 0.39,-0.78 0,0 0,0 0,0 0.1,-0.21 0.18,-0.42 0.25,-0.64 0.11,-0.31 0.2,-0.63 0.29,-0.95 0.1,-0.19 0.1,-0.38 0.16,-0.57 0.12,-0.44 0.24,-0.88 0.36,-1.32 0.42,-1.54 0.84,-3.08 1.27,-4.63 0.11,-0.4 -0.13,-0.82 -0.53,-0.93 -0.1,0 -0.13,0 -0.2,0 z m -11.03,3.72 c 0,0 0,0 -0.1,0 v 0 c -0.46,0.1 -0.93,0.1 -1.4,0.16 -0.48,0.1 -0.96,0.15 -1.43,0.27 -0.45,0.11 -0.9,0.25 -1.34,0.39 -0.32,0.11 -0.65,0.21 -0.97,0.35 -0.58,0.24 -1.16,0.48 -1.74,0.73 0,0 0,-0.1 0,-0.14 0,-0.1 0,-0.1 -0.1,-0.14 -0.1,-0.17 -0.27,-0.3 -0.46,-0.35 -0.1,0 -0.13,0 -0.2,0 -0.13,0 -0.27,0 -0.39,0.1 v 0 c -0.15,0.1 -0.32,0.28 -0.35,0.46 -0.13,0.83 -0.26,1.66 -0.43,2.49 -0.17,0.83 -0.35,1.66 -0.54,2.5 0,0.17 -0.1,0.34 -0.13,0.51 0,0.13 -0.1,0.25 -0.1,0.38 0,0.14 -0.1,0.29 -0.1,0.44 0,0.15 0,0.28 0,0.43 0,0 0,0.1 0,0.1 0,0.1 0.1,0.19 0.13,0.28 0.1,0.12 0.17,0.23 0.25,0.33 0.1,0.1 0.22,0.2 0.31,0.26 0.39,0.25 0.83,0.34 1.28,0.42 0.58,0.1 1.15,0.12 1.73,0.1 0.54,0 1.07,-0.13 1.59,-0.26 0.56,-0.13 1.1,-0.34 1.62,-0.57 1.02,-0.46 1.91,-1.14 2.84,-1.76 0.34,-0.22 0.49,-0.67 0.27,-1.04 -0.2,-0.34 -0.7,-0.5 -1.04,-0.27 -0.51,0.33 -1,0.69 -1.51,1.02 -0.46,0.3 -0.95,0.56 -1.46,0.79 -0.63,0.25 -1.28,0.43 -1.96,0.53 -0.54,0.1 -1.08,0.1 -1.62,0 -0.28,0 -0.57,-0.1 -0.84,-0.19 0,0 0,0 -0.1,0 0,0 -0.1,0 -0.1,-0.1 0.11,-0.61 0.27,-1.22 0.41,-1.83 0.1,-0.21 0.1,-0.42 0.13,-0.62 0,0 0.1,0 0.11,0 0.7,-0.1 1.39,-0.2 2.07,-0.36 0.75,-0.18 1.49,-0.41 2.24,-0.62 0.4,-0.11 0.64,-0.54 0.53,-0.93 -0.1,-0.34 -0.41,-0.56 -0.74,-0.56 -0.1,0 -0.13,0 -0.2,0 v 0 c -0.65,0.18 -1.3,0.38 -1.95,0.55 -0.58,0.15 -1.16,0.26 -1.75,0.35 0,-0.17 0.1,-0.34 0.1,-0.52 0,0 0,0 0,0 0,0 0.1,0 0.1,0 0.22,-0.1 0.45,-0.19 0.67,-0.29 0.52,-0.21 1.04,-0.43 1.56,-0.64 0.43,-0.18 0.88,-0.33 1.33,-0.47 0.73,-0.23 1.46,-0.42 2.21,-0.54 0.43,-0.1 0.86,-0.1 1.29,-0.15 0.1,0 0.14,0 0.21,0 0.12,0 0.24,-0.1 0.33,-0.2 0.14,-0.14 0.22,-0.34 0.22,-0.54 0,-0.2 -0.1,-0.39 -0.22,-0.54 -0.12,-0.11 -0.31,-0.22 -0.49,-0.22 z m -11.79,1.05 c -0.42,0 -0.74,0.35 -0.76,0.76 -0.1,2.61 -0.1,5.22 -0.1,7.83 0,0.41 0.34,0.76 0.76,0.76 0.1,0 0.1,0 0.15,0 0.35,-0.1 0.61,-0.38 0.61,-0.74 0,-1.96 0,-3.92 0,-5.87 0,-0.65 0,-1.31 0.1,-1.96 0,-0.41 -0.36,-0.76 -0.77,-0.76 z m -4.57,0.21 c -0.14,0 -0.29,0 -0.43,0 -0.1,0 -0.15,0 -0.22,0.1 -0.1,0 -0.14,0 -0.21,0.1 v 0 c -0.73,0.27 -1.3,0.83 -1.75,1.44 -0.45,0.61 -0.76,1.31 -0.96,2.03 -0.1,0.34 -0.16,0.69 -0.21,1.04 -0.1,0.41 -0.12,0.83 -0.11,1.25 0,0.4 0.13,0.78 0.3,1.14 0,0.1 0.1,0.14 0.14,0.21 0.1,0.1 0.13,0.17 0.2,0.25 0.15,0.17 0.36,0.31 0.56,0.42 0.16,0.1 0.36,0.17 0.54,0.24 0.19,0.1 0.38,0.1 0.58,0.12 0.41,0.1 0.83,0 1.21,-0.17 0.3,-0.13 0.57,-0.3 0.81,-0.51 0,0.29 0,0.58 0,0.86 0,0.42 0.34,0.77 0.76,0.77 0.41,0 0.78,-0.35 0.77,-0.77 0,-0.65 0,-1.32 -0.1,-1.97 -0.1,-0.56 -0.1,-1.12 -0.23,-1.66 -0.1,-0.19 -0.12,-0.35 -0.19,-0.53 -0.1,-0.1 -0.11,-0.18 -0.18,-0.25 -0.1,-0.11 -0.19,-0.23 -0.31,-0.29 -0.1,0 -0.19,-0.1 -0.28,-0.13 -0.1,0 -0.2,0 -0.3,0 -0.24,0 -0.48,0.11 -0.69,0.21 -0.17,0.1 -0.31,0.17 -0.46,0.28 -0.18,0.14 -0.33,0.31 -0.39,0.54 -0.1,0.2 0,0.46 0.1,0.64 0.1,0.14 0.19,0.23 0.31,0.33 0.1,0.1 0.17,0.16 0.25,0.25 0.1,0.1 0.11,0.17 0.16,0.26 0,0 0,0 0,0.1 0,0 0,0 0,0 0,0 0,0 0,0.1 -0.1,0.1 -0.17,0.18 -0.26,0.26 -0.1,0.1 -0.19,0.13 -0.29,0.18 -0.1,0 -0.19,0.1 -0.29,0.1 -0.1,0 -0.16,0 -0.24,0 -0.12,0 -0.24,-0.1 -0.37,-0.11 -0.1,-0.1 -0.17,-0.1 -0.26,-0.15 0,-0.1 -0.1,-0.1 -0.15,-0.15 0,0 -0.1,-0.1 -0.1,-0.12 0,-0.1 -0.1,-0.19 -0.1,-0.29 0,-0.31 0,-0.61 0,-0.91 0.1,-0.58 0.22,-1.16 0.44,-1.71 0.14,-0.32 0.32,-0.63 0.52,-0.92 0.19,-0.23 0.4,-0.44 0.63,-0.64 0.11,-0.1 0.21,-0.13 0.33,-0.19 0.1,0 0.2,-0.1 0.3,-0.1 0.1,0 0.13,0 0.19,0 0.31,0.1 0.62,0.15 0.93,0.24 0.4,0.13 0.83,-0.14 0.94,-0.53 0.11,-0.41 -0.14,-0.81 -0.53,-0.93 -0.35,-0.11 -0.69,-0.21 -1.04,-0.27 -0.14,0 -0.27,0 -0.4,0 z m -10.37,0.89 c -0.22,0 -0.43,0.1 -0.63,0.12 -0.1,0 -0.13,0.1 -0.2,0.1 v 0 c -0.25,0.11 -0.45,0.27 -0.67,0.44 -0.43,0.35 -0.76,0.82 -1.03,1.3 -0.26,0.49 -0.48,1 -0.65,1.52 -0.2,0.6 -0.32,1.21 -0.44,1.82 0,0.19 -0.1,0.38 -0.11,0.57 -0.1,0.21 0,0.41 0.1,0.59 0.1,0.17 0.27,0.3 0.46,0.35 0,0 0.1,0 0.12,0 0,0.1 0.1,0.19 0.1,0.27 0.11,0.32 0.29,0.58 0.51,0.83 0.17,0.19 0.4,0.35 0.63,0.47 0.25,0.13 0.52,0.21 0.8,0.25 0.15,0 0.29,0 0.44,0 0.14,0 0.29,0 0.43,-0.1 0.12,0 0.23,-0.1 0.34,-0.11 0.17,-0.1 0.34,-0.16 0.51,-0.25 0.23,-0.13 0.44,-0.3 0.63,-0.48 0.21,-0.19 0.38,-0.42 0.54,-0.64 0.35,-0.47 0.58,-1.02 0.76,-1.57 0.16,-0.53 0.25,-1.09 0.28,-1.64 0.1,-0.61 -0.1,-1.23 -0.25,-1.81 -0.19,-0.55 -0.51,-1.05 -0.93,-1.44 -0.23,-0.21 -0.49,-0.39 -0.78,-0.5 -0.29,-0.1 -0.6,-0.14 -0.9,-0.15 z m -9.3,0.1 c -0.2,0 -0.39,0.1 -0.54,0.22 0,0 -0.1,0.1 -0.12,0.15 -0.1,0.12 -0.1,0.25 -0.1,0.39 0,0.1 0,0.18 0,0.27 -0.1,0.7 -0.19,1.39 -0.32,2.09 -0.13,0.74 -0.27,1.48 -0.4,2.22 -0.1,0.45 -0.17,0.9 -0.26,1.35 0,0.24 -0.1,0.48 -0.1,0.72 0,0.14 0,0.31 0,0.44 0,0.14 0.1,0.27 0.15,0.4 0.1,0.1 0.12,0.17 0.19,0.25 0.1,0.1 0.17,0.18 0.27,0.26 0.11,0.1 0.22,0.17 0.35,0.24 0.13,0.1 0.27,0.12 0.41,0.17 0.19,0.1 0.4,0.11 0.6,0.14 0.28,0.1 0.57,0.1 0.85,0.13 0.51,0.1 1.02,0 1.53,0 0.54,0 1.07,-0.11 1.59,-0.23 0.52,-0.11 1.02,-0.26 1.54,-0.39 0.4,-0.1 0.63,-0.54 0.53,-0.94 -0.12,-0.4 -0.54,-0.63 -0.94,-0.53 -0.73,0.18 -1.44,0.4 -2.19,0.51 -0.73,0.1 -1.48,0.1 -2.21,0 -0.31,0 -0.62,-0.1 -0.92,-0.2 -0.1,0 -0.1,-0.1 -0.15,-0.1 0,0 -0.1,-0.1 -0.11,-0.1 0,-0.13 0,-0.26 0,-0.39 0.1,-0.5 0.19,-1.01 0.28,-1.51 0.1,-0.46 0.18,-0.91 0.26,-1.38 0.1,-0.45 0.17,-0.91 0.24,-1.38 0.1,-0.69 0.2,-1.39 0.29,-2.08 0,-0.19 -0.1,-0.41 -0.22,-0.54 -0.14,-0.14 -0.34,-0.22 -0.54,-0.22 z m -6.89,1.18 c -0.21,0 -0.43,0 -0.65,0.1 -0.26,0.1 -0.52,0.18 -0.75,0.31 -0.24,0.13 -0.46,0.31 -0.68,0.48 -0.47,0.37 -0.84,0.85 -1.18,1.34 -0.16,0.22 -0.29,0.47 -0.42,0.71 -0.13,0.25 -0.25,0.5 -0.36,0.76 -0.21,0.54 -0.27,1.12 -0.37,1.69 0,0 0,0.1 0,0.13 0,0.21 0,0.4 0.1,0.59 0.1,0.17 0.27,0.3 0.46,0.35 0,0 0.1,0 0.1,0 0,0.1 0.1,0.2 0.11,0.3 0.1,0.14 0.11,0.26 0.19,0.38 0.17,0.27 0.42,0.5 0.68,0.69 0.44,0.31 0.96,0.45 1.49,0.48 0.26,0 0.53,0 0.78,-0.12 0.3,-0.1 0.58,-0.25 0.83,-0.43 0.44,-0.31 0.77,-0.73 1.05,-1.18 0.31,-0.5 0.53,-1.05 0.7,-1.61 0.17,-0.56 0.29,-1.14 0.36,-1.72 0,-0.27 0,-0.55 0,-0.82 0,-0.35 -0.1,-0.68 -0.24,-1 -0.11,-0.25 -0.25,-0.45 -0.42,-0.67 -0.1,-0.11 -0.21,-0.19 -0.32,-0.28 -0.1,-0.1 -0.19,-0.13 -0.29,-0.19 -0.26,-0.15 -0.54,-0.22 -0.83,-0.25 -0.1,0 -0.2,0 -0.31,0 z m -6.47,0.25 c -0.13,0 -0.27,0 -0.38,0.1 v 0 c -0.16,0.1 -0.32,0.27 -0.35,0.46 -0.11,0.58 -0.23,1.17 -0.3,1.76 0,0.22 0,0.43 -0.1,0.64 -0.1,0.42 -0.1,0.84 -0.14,1.26 -0.1,0.88 -0.16,1.76 -0.26,2.63 -0.12,-0.39 -0.23,-0.78 -0.34,-1.17 -0.11,-0.36 -0.2,-0.73 -0.29,-1.09 -0.1,-0.27 -0.14,-0.54 -0.22,-0.81 -0.1,-0.27 -0.16,-0.55 -0.29,-0.8 -0.1,-0.22 -0.24,-0.42 -0.36,-0.63 -0.22,-0.36 -0.68,-0.47 -1.04,-0.27 -0.25,0.13 -0.44,0.27 -0.57,0.53 -0.1,0.14 -0.1,0.25 -0.12,0.41 0,0.1 0,0.1 0,0.15 -0.1,0.21 -0.1,0.42 -0.13,0.63 -0.1,0.37 -0.14,0.74 -0.21,1.12 -0.1,0.4 -0.15,0.81 -0.23,1.21 -0.11,0.47 -0.21,0.93 -0.31,1.4 -0.1,0.43 -0.18,0.86 -0.27,1.29 0,0.1 0,0.12 0,0.18 0,0.1 0,0.1 0,0.16 0,0 0,0 0,0 0,0.1 0,0.12 0,0.17 0,0.13 0,0.26 -0.1,0.39 0,0 0,0 0,0.1 0,0 0,0.1 0,0.14 0,0 0,0.1 0,0.1 0,0 0,0 0,0.1 0,0 0,0 0,0 0,0.1 0,0.13 0,0.2 0,0 0,0 0,0 0,0 0,0.1 0,0.13 0,0 0,0.1 0,0.1 0,0.18 0,0.36 -0.1,0.54 0,0.2 0.1,0.41 0.22,0.54 0.15,0.15 0.34,0.23 0.54,0.23 0.1,0 0.1,0 0.15,0 0.15,0 0.28,-0.1 0.39,-0.21 0,0 0.1,-0.1 0.1,-0.12 0.1,-0.12 0.11,-0.26 0.12,-0.42 0,-0.15 0,-0.31 0.1,-0.46 0,0 0,0 0,0 0,0 0,0 0,0 0,0 0,0 0,0 0,0 0,0 0,0 v 0 c 0,0 0,0 0,0 0,-0.1 0,-0.11 0,-0.16 0,-0.13 0.1,-0.27 0.1,-0.4 0,0 0,0 0,0 0,0 0,0 0,0 0,0 0,-0.1 0,-0.14 0,0 0,0 0,-0.1 0,0 0,-0.1 0,-0.11 0,-0.1 0,-0.13 0,-0.2 0,0 0,0 0,0 0,0 0,0 0,0 0,0 0,0 0,0 0,0 0,0 0,0 0.1,-0.46 0.18,-0.91 0.28,-1.37 0.1,-0.41 0.18,-0.81 0.26,-1.22 0.1,-0.36 0.15,-0.73 0.22,-1.09 0,-0.18 0.1,-0.37 0.1,-0.55 0,0.15 0.1,0.31 0.12,0.46 0.11,0.4 0.22,0.8 0.33,1.19 0.1,0.35 0.21,0.69 0.33,1.02 0.1,0.27 0.2,0.53 0.31,0.8 0.1,0.23 0.2,0.46 0.35,0.67 0.1,0.13 0.19,0.25 0.33,0.33 0.1,0.1 0.16,0.1 0.24,0.11 0.1,0 0.2,0 0.3,0 0,0 0.1,0 0.11,0 0.1,0 0.13,0 0.19,-0.1 0.1,0 0.11,-0.1 0.17,-0.1 0.12,-0.1 0.27,-0.22 0.33,-0.34 0.11,-0.22 0.18,-0.45 0.25,-0.69 0.1,-0.26 0.11,-0.55 0.15,-0.82 0,-0.35 0.1,-0.69 0.12,-1.04 0.1,-0.54 0.1,-1.09 0.15,-1.63 0.1,-0.8 0.17,-1.59 0.27,-2.39 0,-0.1 0,-0.1 0,-0.16 0.1,-0.49 0.17,-0.99 0.26,-1.48 0,-0.21 0,-0.4 -0.1,-0.59 -0.1,-0.17 -0.27,-0.29 -0.46,-0.35 -0.1,0 -0.13,0 -0.2,0 z m 22.62,0.1 c 0.1,0 0.14,0 0.21,0 0.1,0 0.14,0 0.21,0.1 0.1,0 0.13,0.1 0.19,0.11 0.1,0.1 0.18,0.17 0.27,0.27 0.11,0.15 0.2,0.31 0.28,0.49 0.1,0.24 0.16,0.49 0.2,0.75 0,0.34 0,0.68 0,1.02 -0.1,0.45 -0.18,0.88 -0.34,1.3 -0.14,0.3 -0.3,0.58 -0.49,0.84 -0.12,0.15 -0.25,0.28 -0.4,0.41 -0.14,0.1 -0.29,0.19 -0.45,0.27 -0.1,0 -0.19,0.1 -0.29,0.1 -0.1,0 -0.1,0 -0.16,0 -0.1,0 -0.19,0 -0.29,-0.1 -0.1,0 -0.13,-0.1 -0.19,-0.11 -0.1,-0.1 -0.11,-0.1 -0.16,-0.16 0,0 -0.1,-0.1 -0.1,-0.14 0,-0.11 -0.1,-0.22 -0.1,-0.33 0,-0.22 0,-0.43 0,-0.65 0.1,-0.66 0.25,-1.29 0.5,-1.91 0.26,-0.57 0.6,-1.09 0.95,-1.61 0.13,-0.18 0.14,-0.41 0.1,-0.61 0,0 0,0 0,0 z m -31.21,0.9 c -0.2,0 -0.4,0.1 -0.54,0.23 -0.13,0.13 -0.24,0.34 -0.22,0.53 0.1,0.68 0.1,1.37 0.1,2.05 v 0.64 c 0,0.1 0,0.2 0,0.29 0,0.37 -0.1,0.74 -0.1,1.1 0,0.15 0,0.3 0,0.45 -0.1,0 -0.21,0 -0.31,0 -0.27,0 -0.54,0.1 -0.8,0.1 -0.21,0 -0.41,0.1 -0.62,0.1 -0.39,0.1 -0.79,0.14 -1.18,0.22 -0.12,0 -0.25,0.1 -0.37,0.1 0,-0.1 0,-0.18 0,-0.27 0,-0.37 0.1,-0.75 0.13,-1.13 0,-0.35 0.11,-0.71 0.17,-1.07 0.1,-0.47 0.19,-0.94 0.29,-1.41 0,-0.21 0,-0.4 -0.1,-0.59 -0.1,-0.17 -0.26,-0.29 -0.46,-0.35 -0.1,0 -0.12,0 -0.19,0 -0.33,0 -0.67,0.22 -0.74,0.56 -0.15,0.71 -0.29,1.42 -0.41,2.13 -0.1,0.31 -0.1,0.63 -0.13,0.94 0,0.32 -0.1,0.65 -0.11,0.97 0,0.2 0,0.4 0,0.6 -0.36,0.13 -0.57,0.55 -0.47,0.91 0.1,0.22 0.21,0.39 0.4,0.48 0,0 0,0 0,0 0,0.31 0,0.62 0,0.93 0,0.24 0,0.49 0,0.74 0.1,0.5 0.24,0.96 0.38,1.44 0.12,0.4 0.54,0.64 0.94,0.53 0.4,-0.11 0.65,-0.54 0.53,-0.93 -0.11,-0.38 -0.25,-0.76 -0.33,-1.14 0,-0.26 0,-0.52 0,-0.78 0,-0.18 0,-0.37 0,-0.55 0,-0.15 0,-0.3 0,-0.45 0.4,-0.1 0.79,-0.17 1.18,-0.26 0.46,-0.1 0.92,-0.16 1.38,-0.23 0.22,0 0.45,0 0.67,-0.1 0,0.21 0,0.43 0,0.64 0,0.7 -0.11,1.39 -0.16,2.08 0,0.2 0.1,0.41 0.22,0.54 0.14,0.15 0.34,0.23 0.54,0.23 0.2,0 0.39,-0.1 0.54,-0.23 0.15,-0.15 0.2,-0.33 0.22,-0.54 0.1,-0.67 0.12,-1.34 0.16,-2.01 0,-0.27 0,-0.54 0.1,-0.82 0.34,0 0.68,0 1.02,0 0.42,0 0.76,-0.33 0.76,-0.76 0,-0.39 -0.33,-0.77 -0.73,-0.77 0,0 0,0 0,0 v 0 c -0.29,0 -0.59,0 -0.88,0 0,-0.11 0,-0.23 0,-0.35 0,-0.36 0,-0.72 0.1,-1.08 0,-0.31 0,-0.64 0,-0.95 0,-0.69 -0.1,-1.37 -0.1,-2.05 0,-0.21 -0.1,-0.38 -0.22,-0.54 -0.14,-0.14 -0.34,-0.22 -0.54,-0.22 z m 15.05,0.32 c 0.1,0 0.11,0 0.17,0 v 0 c 0.1,0 0.13,0 0.19,0.1 0.1,0 0.13,0.1 0.2,0.11 0,0 0.1,0.1 0.11,0.13 0.1,0.1 0.1,0.16 0.14,0.24 0,0.1 0.1,0.19 0.1,0.29 0,0.31 0,0.63 0,0.94 -0.1,0.62 -0.27,1.24 -0.49,1.83 -0.16,0.35 -0.35,0.69 -0.58,1 -0.1,0.13 -0.21,0.24 -0.34,0.35 -0.12,0.1 -0.24,0.15 -0.38,0.22 -0.1,0 -0.17,0.1 -0.26,0.1 -0.1,0 -0.16,0 -0.24,0 -0.12,0 -0.23,-0.1 -0.33,-0.1 -0.1,0 -0.16,-0.1 -0.23,-0.14 -0.1,0 -0.13,-0.12 -0.2,-0.18 0,-0.1 -0.1,-0.1 -0.1,-0.15 0,-0.1 -0.1,-0.16 -0.1,-0.25 0,-0.1 0,-0.14 0,-0.21 0,-0.2 0.1,-0.39 0.16,-0.58 0.1,-0.12 0.13,-0.24 0.21,-0.35 0.1,-0.1 0.17,-0.18 0.26,-0.27 0.36,-0.24 0.77,-0.41 1.16,-0.58 0.17,-0.1 0.3,-0.28 0.35,-0.46 0.1,-0.19 0,-0.41 -0.1,-0.58 -0.1,-0.18 -0.27,-0.3 -0.46,-0.35 -0.21,-0.1 -0.39,0 -0.59,0.1 -0.19,0.1 -0.39,0.17 -0.58,0.27 0,-0.1 0.1,-0.14 0.14,-0.21 0.23,-0.28 0.48,-0.54 0.77,-0.78 0.17,-0.12 0.33,-0.22 0.51,-0.31 0.1,0 0.19,-0.1 0.29,-0.1 0.1,0 0.12,0 0.18,0 z m -25.75,2.26 c -0.38,0 -0.75,0.1 -1.11,0.18 v 0 c -0.73,0.22 -1.35,0.67 -1.9,1.2 -0.26,0.26 -0.48,0.56 -0.69,0.85 -0.23,0.32 -0.42,0.65 -0.6,1 -0.19,0.37 -0.35,0.75 -0.49,1.14 -0.1,0.17 -0.12,0.35 -0.18,0.52 -0.1,0.24 -0.1,0.48 -0.13,0.73 0,0.36 0,0.73 0.18,1.06 0.18,0.36 0.44,0.66 0.76,0.9 0.31,0.23 0.67,0.37 1.02,0.51 0.39,0.14 0.81,0.23 1.22,0.27 0.78,0.1 1.59,0 2.31,-0.31 0.75,-0.31 1.4,-0.8 2.11,-1.19 0.36,-0.21 0.48,-0.69 0.27,-1.04 -0.21,-0.37 -0.68,-0.48 -1.04,-0.28 -0.63,0.35 -1.21,0.78 -1.87,1.09 -0.25,0.1 -0.51,0.16 -0.78,0.21 -0.31,0 -0.62,0 -0.93,0 -0.35,-0.1 -0.68,-0.16 -1.01,-0.28 -0.15,-0.1 -0.3,-0.15 -0.44,-0.24 0,-0.1 -0.11,-0.11 -0.16,-0.17 0,-0.1 -0.1,-0.12 -0.11,-0.18 0,0 0,0 0,0 0,-0.11 0,-0.23 0,-0.34 0.1,-0.38 0.21,-0.75 0.35,-1.1 0.26,-0.58 0.56,-1.12 0.93,-1.63 0.25,-0.3 0.52,-0.57 0.82,-0.82 0.19,-0.13 0.38,-0.24 0.59,-0.34 0.2,-0.1 0.4,-0.13 0.61,-0.18 0.5,0 1.02,0 1.52,0.1 0.19,0 0.41,-0.1 0.54,-0.23 0.14,-0.14 0.22,-0.33 0.22,-0.53 0,-0.21 -0.1,-0.4 -0.22,-0.54 -0.1,0 -0.1,-0.1 -0.15,-0.12 -0.12,-0.1 -0.25,-0.11 -0.39,-0.11 -0.36,0 -0.72,-0.1 -1.09,-0.1 -0.1,0 -0.11,0 -0.16,0 z m -6.39,0.29 c -0.1,0 -0.13,0 -0.19,0 -0.97,0.26 -1.94,0.53 -2.91,0.75 -0.44,0.1 -0.88,0.2 -1.31,0.3 -0.32,0.1 -0.64,0.13 -0.95,0.2 -0.18,0 -0.36,0.1 -0.54,0.11 -0.1,0 -0.15,0 -0.23,0 -0.1,-0.32 -0.4,-0.57 -0.73,-0.57 -0.38,0 -0.67,0.27 -0.75,0.61 0,0.1 0,0.1 0,0.16 v 0 c 0,0 0,0 0,0 0,0 0,0 0,0 -0.21,0 -0.38,0.1 -0.54,0.22 -0.14,0.14 -0.22,0.34 -0.22,0.54 0,0.2 0.1,0.39 0.22,0.54 0.12,0.11 0.3,0.2 0.47,0.22 0,0.23 -0.1,0.47 -0.1,0.7 0,0.2 -0.1,0.4 -0.1,0.59 0,0 0,0 0,0 -0.1,0.13 -0.14,0.27 -0.14,0.43 0,0.1 0,0.12 0,0.18 -0.1,0.26 -0.11,0.52 -0.16,0.78 -0.1,0.24 -0.11,0.48 -0.16,0.72 -0.11,0.5 -0.25,1.01 -0.26,1.52 0,0.15 0,0.3 0.1,0.44 0,0.18 0.14,0.37 0.23,0.53 0.15,0.29 0.42,0.5 0.68,0.69 0.24,0.17 0.54,0.28 0.82,0.39 0.36,0.13 0.73,0.2 1.11,0.24 0.71,0.1 1.42,0.14 2.13,0 0.69,-0.11 1.34,-0.38 2.01,-0.58 0.4,-0.12 0.65,-0.53 0.53,-0.93 -0.1,-0.4 -0.53,-0.65 -0.93,-0.54 -0.65,0.2 -1.28,0.45 -1.95,0.57 -0.55,0.1 -1.1,0 -1.64,0 -0.33,-0.1 -0.64,-0.14 -0.95,-0.25 -0.13,-0.1 -0.26,-0.13 -0.38,-0.21 0,0 -0.1,-0.1 -0.1,-0.1 0,-0.1 -0.1,-0.1 -0.1,-0.15 0,0 0,0 0,-0.1 0,-0.1 0,-0.1 0,-0.14 0.13,-0.75 0.32,-1.48 0.47,-2.21 0,0 0,-0.1 0,-0.1 0.44,0 0.87,0 1.31,0 1.05,0 2.1,-0.16 3.15,-0.26 0.21,0 0.38,-0.1 0.54,-0.22 0.14,-0.14 0.22,-0.34 0.22,-0.54 0,-0.2 -0.1,-0.39 -0.22,-0.54 -0.13,-0.12 -0.32,-0.22 -0.5,-0.22 0,0 0,0 0,0 -1.03,0.1 -2.06,0.23 -3.09,0.25 -0.37,0 -0.74,0 -1.1,0 0.1,-0.38 0.1,-0.76 0.11,-1.14 0.19,0 0.38,-0.1 0.57,-0.1 0.13,0 0.26,-0.1 0.39,-0.1 0.34,-0.1 0.69,-0.15 1.03,-0.22 0.45,-0.1 0.89,-0.19 1.34,-0.3 1.02,-0.23 2.03,-0.51 3.05,-0.78 0.4,-0.11 0.64,-0.54 0.53,-0.94 -0.1,-0.33 -0.4,-0.55 -0.74,-0.55 z m 66.9,0.58 c 0,0 0,0.1 0,0.11 0,0 0,0 0,0 0,0 0,-0.1 0,-0.11 z m -77.47,0.38 c -0.1,0 -0.14,0 -0.22,0 -0.86,0.13 -1.72,0.29 -2.59,0.41 -0.6,0.1 -1.2,0.12 -1.8,0.17 -0.45,0.1 -0.9,0.1 -1.35,0.12 -1.2,0.1 -2.4,0.18 -3.6,0.22 -0.41,0 -0.76,0.34 -0.76,0.77 0,0.4 0.34,0.77 0.76,0.76 1.2,0 2.39,-0.13 3.59,-0.23 -0.2,1 -0.32,2 -0.36,3.02 0,0.49 0,0.99 -0.1,1.48 0,1.28 0,2.56 0,3.84 0,0.42 0.35,0.76 0.76,0.76 0.1,0 0.11,0 0.16,0 0.34,-0.1 0.6,-0.39 0.61,-0.75 0,-0.6 0,-1.21 0,-1.81 0,-0.6 0,-1.21 0,-1.81 0,-0.39 0,-0.79 0,-1.18 0,-0.72 0,-1.44 0.14,-2.15 0.1,-0.45 0.15,-0.9 0.25,-1.34 0,-0.1 0,-0.12 0,-0.18 0.28,0 0.57,-0.1 0.86,-0.1 0.34,0 0.68,-0.1 1.03,-0.11 0.9,-0.13 1.8,-0.29 2.71,-0.43 0.18,0 0.36,-0.2 0.45,-0.35 0.1,-0.18 0.13,-0.4 0.1,-0.59 0,-0.19 -0.18,-0.36 -0.35,-0.46 -0.12,-0.1 -0.24,-0.1 -0.37,-0.1 z" />
    </g>
  </g>
</svg>
