<?xml version="1.0" encoding="UTF-8" standalone="no"?>
<svg xmlns:dc="http://purl.org/dc/elements/1.1/" xmlns:cc="http://creativecommons.org/ns#" xmlns:rdf="http://www.w3.org/1999/02/22-rdf-syntax-ns#" xmlns:svg="http://www.w3.org/2000/svg" xmlns="http://www.w3.org/2000/svg" xmlns:sodipodi="http://sodipodi.sourceforge.net/DTD/sodipodi-0.dtd" xmlns:inkscape="http://www.inkscape.org/namespaces/inkscape" inkscape:version="1.0rc1 (09960d6f05, 2020-04-09)" sodipodi:docname="idea.svg" width="656.79" height="873.24" viewBox="0 0 173.78 231.05" version="1.1" id="svg78">
  <sodipodi:namedview inkscape:current-layer="svg78" inkscape:cy="506.97" inkscape:cx="396.85" inkscape:zoom="0.73674" units="px" showgrid="false" id="namedview14" inkscape:window-height="480" inkscape:window-width="640" inkscape:pageshadow="2" inkscape:pageopacity="0" guidetolerance="10" gridtolerance="10" objecttolerance="10" borderopacity="1" bordercolor="#666666" pagecolor="#ffffff" />
  <defs id="defs72" />
  <metadata id="metadata75">
    <rdf:RDF>
      <cc:Work rdf:about="">
        <dc:format>image/svg+xml</dc:format>
        <dc:type rdf:resource="http://purl.org/dc/dcmitype/StillImage" />
        <dc:title></dc:title>
      </cc:Work>
    </rdf:RDF>
  </metadata>
  <g id="layer1">
    <g transform="matrix(0.98846,0.15139,-0.15139,0.98846,-9.9004,-116.37)" id="gProdukt">
      <path inkscape:connector-curvature="0" id="pProduktLabel" style="fill:#000000;fill-opacity:1;fill-rule:nonzero;stroke:none;stroke-width:0.352777" d="m 91.299,118.59 c -0.374,0 -0.748,0 -1.119,0.11 -0.28,0.1 -0.552,0.17 -0.816,0.28 -0.238,0.1 -0.459,0.23 -0.673,0.37 -0.233,0.15 -0.453,0.32 -0.661,0.51 -0.208,0.18 -0.385,0.4 -0.563,0.61 -0.348,0.42 -0.59,0.91 -0.785,1.41 -0.106,0.27 -0.157,0.55 -0.206,0.83 -0.05,0.32 -0.01,0.65 0.03,0.96 0.03,0.26 0.108,0.51 0.193,0.75 0.09,0.27 0.198,0.52 0.329,0.76 0.252,0.47 0.614,0.88 0.98,1.26 0.378,0.39 0.781,0.76 1.202,1.1 0.447,0.36 0.93,0.68 1.398,1.02 0.351,0.25 0.716,0.49 1.074,0.73 0.535,0.36 1.084,0.71 1.586,1.12 0.159,0.13 0.315,0.27 0.448,0.43 0.02,0 0.04,0.1 0.06,0.12 0.01,0 0.03,0.1 0.04,0.15 -0.08,0.1 -0.175,0.16 -0.272,0.24 -0.199,0.13 -0.404,0.24 -0.624,0.33 -0.724,0.24 -1.482,0.37 -2.24,0.44 -0.511,0 -1.026,0.1 -1.535,0 -0.553,-0.12 -1.08,-0.33 -1.623,-0.49 -0.397,-0.12 -0.829,0.1 -0.96,0.49 -0.125,0.38 0.09,0.84 0.489,0.96 0.406,0.12 0.803,0.26 1.208,0.38 0.463,0.14 0.943,0.22 1.427,0.21 0.437,0 0.879,-0.1 1.314,-0.1 0.463,0 0.919,-0.11 1.373,-0.21 0.195,-0.1 0.388,-0.1 0.579,-0.15 0.09,0 0.19,-0.1 0.285,-0.1 0.09,0 0.189,-0.1 0.283,-0.1 0.191,-0.1 0.372,-0.15 0.549,-0.25 0.186,-0.11 0.359,-0.24 0.53,-0.37 0.121,-0.1 0.227,-0.19 0.325,-0.3 0.07,-0.1 0.131,-0.15 0.187,-0.23 0.08,-0.11 0.123,-0.24 0.171,-0.36 0.02,-0.1 0.04,-0.19 0.06,-0.29 0,-0.13 0,-0.27 -0.02,-0.41 -0.04,-0.21 -0.109,-0.4 -0.187,-0.6 -0.134,-0.34 -0.418,-0.6 -0.69,-0.84 -0.182,-0.15 -0.364,-0.31 -0.555,-0.46 -0.183,-0.14 -0.375,-0.27 -0.565,-0.4 -0.289,-0.2 -0.58,-0.39 -0.87,-0.59 -0.854,-0.58 -1.726,-1.15 -2.523,-1.8 -0.506,-0.44 -0.998,-0.92 -1.402,-1.46 -0.145,-0.22 -0.266,-0.45 -0.367,-0.7 -0.08,-0.26 -0.144,-0.52 -0.178,-0.79 0,-0.15 0,-0.29 0.02,-0.44 0.06,-0.25 0.145,-0.48 0.247,-0.71 0.141,-0.28 0.306,-0.53 0.499,-0.77 0.215,-0.24 0.447,-0.45 0.702,-0.64 0.238,-0.15 0.482,-0.28 0.743,-0.38 0.241,-0.1 0.482,-0.14 0.731,-0.17 0.191,0 0.379,0 0.569,0 0.115,0 0.225,0.1 0.335,0.11 0.01,0 0.02,0 0.03,0 -0.23,0.44 -0.486,0.86 -0.733,1.29 -0.21,0.36 -0.135,0.82 0.225,1.05 0.336,0.22 0.845,0.13 1.054,-0.22 0.265,-0.46 0.54,-0.92 0.783,-1.39 0.07,-0.12 0.118,-0.24 0.154,-0.38 0.03,-0.13 0.05,-0.27 0.05,-0.4 0,-0.14 -0.02,-0.28 -0.05,-0.41 -0.03,-0.16 -0.122,-0.3 -0.217,-0.43 -0.292,-0.4 -0.813,-0.62 -1.282,-0.71 -0.185,0 -0.37,-0.1 -0.555,-0.1 z m -9.693,1.22 c -0.181,0 -0.423,0.1 -0.548,0.2 -0.09,0.11 -0.182,0.21 -0.266,0.32 -0.02,0 -0.04,0.1 -0.05,0.11 -0.05,0.1 -0.09,0.19 -0.13,0.29 -0.05,0.12 -0.09,0.23 -0.13,0.35 -0.07,0.2 -0.153,0.4 -0.226,0.6 -0.135,0.37 -0.273,0.75 -0.406,1.12 -0.276,0.78 -0.553,1.56 -0.826,2.34 -0.276,0.78 -0.552,1.57 -0.817,2.36 -0.263,0.78 -0.532,1.56 -0.768,2.36 -0.164,0.55 -0.327,1.1 -0.49,1.65 -0.03,0.11 -0.06,0.23 -0.09,0.34 -0.08,0.34 -0.163,0.68 -0.245,1.02 -0.05,0.21 -0.1,0.41 -0.147,0.61 -0.06,0.24 -0.09,0.49 -0.131,0.74 -0.121,0.68 -0.24,1.36 -0.344,2.05 -0.03,0.19 0.07,0.41 0.198,0.54 0.136,0.15 0.328,0.24 0.528,0.25 0.05,0 0.1,0 0.15,0 0.147,0 0.287,-0.1 0.398,-0.19 0.04,0 0.07,-0.1 0.103,-0.11 0.08,-0.12 0.121,-0.26 0.145,-0.41 0.06,-0.4 0.127,-0.8 0.194,-1.2 0.07,-0.39 0.138,-0.79 0.209,-1.19 0.106,-0.44 0.211,-0.88 0.317,-1.32 0,0 0.02,-0.1 0.03,-0.11 0.261,0.1 0.564,0 0.793,-0.15 0.333,-0.27 0.668,-0.55 1.007,-0.81 0.34,-0.27 0.684,-0.53 1.036,-0.78 0.463,-0.32 0.944,-0.6 1.429,-0.88 0,0 0,0 0,0 0.113,0.45 0.226,0.91 0.338,1.37 0.03,0.15 0.08,0.29 0.127,0.43 0.09,0.3 0.18,0.59 0.269,0.89 0.104,0.35 0.209,0.69 0.316,1.03 0.128,0.41 0.258,0.83 0.385,1.24 0.09,0.27 0.171,0.55 0.256,0.82 0.154,0.5 0.283,1.01 0.423,1.51 0.111,0.4 0.493,0.67 0.912,0.58 0.391,-0.1 0.685,-0.51 0.574,-0.91 -0.205,-0.75 -0.415,-1.48 -0.642,-2.22 -0.118,-0.38 -0.237,-0.76 -0.356,-1.14 -0.261,-0.84 -0.51,-1.67 -0.76,-2.51 -0.106,-0.35 -0.18,-0.72 -0.268,-1.07 -0.07,-0.28 -0.141,-0.56 -0.206,-0.84 0.285,-0.16 0.572,-0.31 0.856,-0.47 0.363,-0.2 0.517,-0.66 0.32,-1.03 -0.128,-0.24 -0.385,-0.4 -0.651,-0.41 -0.128,0 -0.259,0 -0.377,0.1 -0.155,0.1 -0.31,0.17 -0.466,0.26 -0.01,-0.1 -0.03,-0.14 -0.04,-0.2 -0.06,-0.29 -0.121,-0.59 -0.168,-0.88 -0.15,-0.97 -0.305,-1.92 -0.431,-2.89 -0.06,-0.45 -0.117,-0.9 -0.179,-1.35 -0.04,-0.27 -0.08,-0.55 -0.117,-0.82 -0.03,-0.25 -0.08,-0.49 -0.141,-0.73 -0.03,-0.13 -0.08,-0.26 -0.147,-0.38 -0.08,-0.16 -0.234,-0.28 -0.379,-0.38 -0.116,-0.1 -0.242,-0.11 -0.38,-0.12 z m 73.464,5.09 c -0.1,0 -0.13,0 -0.2,0 -0.83,0.24 -1.67,0.46 -2.5,0.71 -0.85,0.25 -1.7,0.53 -2.54,0.84 -0.81,0.31 -1.6,0.67 -2.37,1.08 -0.38,0.21 -0.76,0.42 -1.13,0.64 -0.18,0.1 -0.36,0.21 -0.53,0.32 -0.1,0 -0.16,0.1 -0.23,0.15 0,0 -0.1,-0.1 -0.1,-0.15 -0.14,-0.15 -0.33,-0.24 -0.53,-0.25 -0.1,0 -0.14,0 -0.21,0 -0.13,0 -0.24,0.1 -0.34,0.18 -0.87,0.63 -1.74,1.26 -2.54,1.97 -0.47,0.42 -0.9,0.86 -1.33,1.32 -0.24,0.25 -0.5,0.5 -0.72,0.77 -0.19,0.22 -0.38,0.43 -0.56,0.65 0,0 0,0 -0.1,0.1 0,-0.42 0,-0.84 0,-1.26 0,-0.34 0,-0.67 0,-1.01 0,-0.25 0,-0.51 0.1,-0.77 0,-0.25 0.1,-0.51 0.1,-0.76 0,-0.19 -0.1,-0.41 -0.2,-0.55 -0.14,-0.15 -0.33,-0.24 -0.53,-0.25 -0.2,0 -0.4,0.1 -0.55,0.2 -0.16,0.15 -0.22,0.32 -0.25,0.53 -0.1,0.51 -0.1,1.02 -0.14,1.53 0,0.39 0,0.77 0,1.16 0,0.85 0,1.71 -0.1,2.56 0,0.75 0,1.5 0,2.24 0,0.43 0,0.85 0,1.27 0,0.21 0,0.42 0,0.64 0,0.31 0.1,0.63 0.1,0.95 0,0.35 0.1,0.7 0.11,1.04 0,0.19 0.18,0.38 0.33,0.48 0.17,0.11 0.39,0.14 0.58,0.1 0.2,0 0.37,-0.16 0.47,-0.33 0,-0.1 0.1,-0.12 0.1,-0.18 0,0 0,-0.1 0,-0.1 0,-0.1 0,-0.2 0,-0.3 0,-0.42 -0.1,-0.84 -0.13,-1.25 -0.1,-0.84 -0.1,-1.68 -0.1,-2.52 0.52,0.29 1.07,0.49 1.61,0.72 0.75,0.31 1.49,0.64 2.24,0.98 0.24,0.12 0.49,0.23 0.73,0.35 0.62,0.3 1.21,0.66 1.82,0.99 0.18,0.1 0.37,0.15 0.58,0.11 0.19,-0.1 0.36,-0.17 0.47,-0.33 0.21,-0.33 0.14,-0.86 -0.23,-1.06 -0.73,-0.4 -1.46,-0.81 -2.21,-1.18 -0.42,-0.2 -0.85,-0.4 -1.27,-0.59 -0.37,-0.17 -0.74,-0.33 -1.11,-0.49 -0.56,-0.23 -1.12,-0.45 -1.66,-0.7 -0.18,-0.1 -0.35,-0.19 -0.51,-0.3 0.1,-0.1 0.14,-0.18 0.21,-0.28 0.13,-0.17 0.27,-0.33 0.4,-0.5 0.23,-0.26 0.45,-0.53 0.68,-0.79 0.24,-0.28 0.51,-0.54 0.77,-0.82 0.39,-0.41 0.8,-0.81 1.23,-1.2 0.66,-0.6 1.37,-1.13 2.09,-1.65 0.1,0.16 0.24,0.28 0.42,0.34 0.18,0.1 0.43,0.1 0.59,0 0.35,-0.23 0.7,-0.46 1.06,-0.66 0.24,-0.15 0.5,-0.28 0.75,-0.42 0,0.47 0,0.94 0,1.4 0,0.38 0,0.75 0.1,1.12 0.1,0.8 0.14,1.61 0.24,2.41 0.1,0.81 0.21,1.61 0.32,2.41 0.1,0.35 0.1,0.69 0.15,1.04 0.1,0.62 0.16,1.25 0.23,1.89 0,0.18 0.18,0.37 0.33,0.47 0.1,0 0.18,0.1 0.28,0.11 0.1,0 0.1,0 0.15,0 0,0 0.1,0 0.15,0 0.19,0 0.36,-0.16 0.47,-0.33 0,-0.1 0.1,-0.12 0.1,-0.18 0,0 0,-0.1 0,-0.1 0,-0.1 0,-0.2 0,-0.3 -0.1,-0.57 -0.11,-1.13 -0.19,-1.7 0,-0.29 -0.1,-0.58 -0.13,-0.88 -0.1,-0.58 -0.17,-1.17 -0.25,-1.75 0,-0.29 -0.1,-0.57 -0.1,-0.86 0,-0.28 -0.1,-0.57 -0.11,-0.85 -0.1,-0.55 -0.1,-1.1 -0.15,-1.65 0,-0.77 -0.1,-1.55 -0.1,-2.32 0,-0.1 0,-0.11 0,-0.15 0,-0.15 -0.1,-0.28 -0.19,-0.4 0,0 0,0 0,0 0.46,-0.22 0.93,-0.42 1.41,-0.6 0.74,-0.27 1.49,-0.51 2.24,-0.74 0.83,-0.25 1.66,-0.47 2.5,-0.71 0.19,0 0.35,-0.15 0.47,-0.33 0.11,-0.17 0.15,-0.38 0.1,-0.58 -0.1,-0.32 -0.38,-0.58 -0.71,-0.6 z m -73.714,-1.79 c 0.04,0.27 0.07,0.54 0.107,0.82 0.115,0.88 0.254,1.75 0.391,2.62 0.09,0.6 0.213,1.19 0.333,1.79 -0.419,0.23 -0.836,0.47 -1.246,0.73 -0.516,0.32 -1.012,0.67 -1.494,1.04 -0.222,0.17 -0.44,0.34 -0.656,0.51 0,0 0,0 0.01,0 0.117,-0.4 0.237,-0.79 0.369,-1.18 0.542,-1.62 1.091,-3.22 1.66,-4.83 0.174,-0.49 0.346,-0.98 0.523,-1.46 z m -12.858,0 c -0.127,0 -0.251,0 -0.365,0.1 v 0 c -0.172,0 -0.345,0 -0.516,0 v 0 c -0.682,0.1 -1.349,0.16 -1.996,0.38 -0.324,0.12 -0.64,0.25 -0.955,0.39 -0.287,0.12 -0.562,0.27 -0.839,0.41 -0.367,0.2 -0.514,0.67 -0.32,1.03 0.193,0.37 0.661,0.52 1.029,0.32 0.235,-0.12 0.469,-0.25 0.713,-0.36 0.252,-0.11 0.506,-0.22 0.764,-0.32 0.541,-0.18 1.095,-0.28 1.662,-0.34 0,0 0.01,0 0.02,0 -0.02,1.38 -0.09,2.75 -0.145,4.13 -0.03,0.82 -0.08,1.65 -0.09,2.47 0,0.53 0,1.07 0,1.6 0,0.98 0.101,1.95 0.244,2.92 0.02,0.14 0.04,0.28 0.06,0.42 0.03,0.19 0.176,0.37 0.33,0.47 0.05,0 0.106,0.1 0.164,0.1 -0.107,0.1 -0.214,0.17 -0.324,0.25 -0.506,0.34 -1.04,0.64 -1.609,0.86 -0.285,0.1 -0.571,0.18 -0.871,0.23 -0.198,0 -0.391,0 -0.587,0 -0.329,-0.1 -0.654,-0.16 -0.985,-0.22 -0.07,0 -0.134,0 -0.202,0 -0.137,0 -0.266,0 -0.388,0.1 -0.175,0.1 -0.309,0.25 -0.37,0.44 -0.06,0.19 -0.05,0.41 0.05,0.59 0.08,0.16 0.257,0.34 0.439,0.37 0.561,0.1 1.108,0.27 1.677,0.33 0.292,0 0.592,0 0.879,-0.1 0.338,-0.1 0.668,-0.19 0.987,-0.31 1.09,-0.42 2.049,-1.09 2.92,-1.86 0.885,-0.78 1.714,-1.63 2.451,-2.55 0.348,-0.44 0.684,-0.88 0.993,-1.34 0.343,-0.52 0.62,-1.06 0.86,-1.63 0.449,-1.06 0.692,-2.21 0.673,-3.36 -0.02,-1.13 -0.315,-2.26 -0.963,-3.19 -0.155,-0.22 -0.318,-0.43 -0.511,-0.62 -0.193,-0.19 -0.412,-0.36 -0.631,-0.52 -0.47,-0.34 -1.014,-0.58 -1.567,-0.75 -0.281,-0.1 -0.573,-0.14 -0.862,-0.19 -0.276,-0.1 -0.552,-0.1 -0.832,-0.11 -0.09,0 -0.189,0 -0.284,0 -0.148,0 -0.297,0 -0.446,0 -0.08,0 -0.161,-0.1 -0.252,-0.1 z m 0.717,1.61 c 0.302,0 0.604,0 0.906,0.1 0.4,0.1 0.788,0.19 1.165,0.35 0.303,0.15 0.588,0.33 0.856,0.55 0.171,0.15 0.325,0.32 0.467,0.5 0.183,0.28 0.333,0.57 0.457,0.88 0.12,0.37 0.197,0.74 0.241,1.12 0.03,0.53 0.01,1.05 -0.07,1.57 -0.137,0.69 -0.36,1.35 -0.647,1.99 -0.467,0.94 -1.113,1.79 -1.783,2.59 -0.428,0.5 -0.884,0.96 -1.357,1.42 -0.07,0.1 -0.137,0.12 -0.205,0.19 0,0 0,0 0,0 -0.07,-0.53 -0.162,-1.06 -0.217,-1.6 -0.08,-1.06 -0.05,-2.12 -0.04,-3.18 0,-0.36 0.03,-0.73 0.04,-1.1 0.02,-0.39 0.03,-0.78 0.04,-1.17 0.06,-1.39 0.124,-2.78 0.145,-4.17 z m 65.395,4.97 c -0.1,0 -0.2,0 -0.29,0.1 0,0 -0.1,0 -0.1,0 v 0 c -0.17,0.1 -0.31,0.25 -0.37,0.44 0,0.1 0,0.13 0,0.2 0,0.13 0,0.26 0.1,0.39 0.11,0.27 0.23,0.53 0.34,0.79 0,0.13 0.1,0.26 0.1,0.39 0,0.47 0,0.96 0,1.43 0,0.43 0,0.86 -0.1,1.29 0,0.39 -0.1,0.78 -0.1,1.17 0,0.72 -0.11,1.45 -0.24,2.17 0,0.1 0,0.21 0,0.31 -0.1,0.35 -0.15,0.69 -0.29,1.02 -0.1,0.12 -0.13,0.23 -0.2,0.35 -0.1,-0.1 -0.16,-0.2 -0.24,-0.3 -0.24,-0.37 -0.44,-0.76 -0.6,-1.17 -0.22,-0.66 -0.37,-1.33 -0.44,-2.02 -0.1,-0.83 0,-1.66 0.12,-2.48 0.15,-0.76 0.39,-1.51 0.62,-2.25 0.12,-0.4 -0.1,-0.83 -0.49,-0.96 -0.39,-0.13 -0.84,0.1 -0.96,0.49 -0.1,0.3 -0.19,0.6 -0.27,0.91 -0.1,0.3 -0.18,0.6 -0.25,0.91 -0.17,0.66 -0.26,1.33 -0.31,2 0,0.2 0,0.39 0,0.59 0,-0.11 -0.1,-0.23 -0.1,-0.34 -0.14,-0.42 -0.31,-0.84 -0.5,-1.24 -0.49,-1.02 -1.3,-1.92 -2.31,-2.44 -0.5,-0.27 -1.04,-0.41 -1.6,-0.49 -0.11,0 -0.23,0 -0.34,0 -0.45,0 -0.92,0.1 -1.35,0.17 v 0 c -0.52,0.15 -1,0.43 -1.4,0.8 -0.21,0.21 -0.35,0.45 -0.48,0.71 -0.12,0.26 -0.23,0.53 -0.31,0.8 0,0 0,0.1 0,0.12 -0.12,0.4 0.1,0.83 0.49,0.96 0.38,0.13 0.84,-0.1 0.96,-0.49 0.1,-0.26 0.16,-0.52 0.27,-0.77 0,-0.1 0.1,-0.13 0.12,-0.19 0.1,-0.1 0.15,-0.14 0.23,-0.2 0,0 0,0 0.1,0 0,0.38 -0.1,0.76 -0.1,1.14 0,0.13 0,0.27 0,0.4 0,0.31 0,0.61 0,0.92 0,0.85 0,1.7 0,2.55 0,0.39 0,0.77 0,1.16 0,0.36 0,0.71 0.1,1.07 0.1,1 0.15,2 0.2,3 -0.14,0 -0.27,0.1 -0.41,0.1 -0.14,0 -0.27,0 -0.4,0 0,0 -0.1,-0.1 -0.12,-0.1 -0.22,-0.21 -0.41,-0.45 -0.63,-0.67 -0.13,-0.12 -0.27,-0.2 -0.44,-0.23 0.1,-0.34 0.16,-0.69 0.23,-1.03 0.12,-0.64 0.21,-1.29 0.24,-1.95 0,-0.56 0,-1.13 -0.1,-1.69 0,-0.26 -0.11,-0.51 -0.2,-0.75 -0.11,-0.33 -0.26,-0.63 -0.47,-0.9 -0.28,-0.37 -0.64,-0.66 -1.07,-0.84 -0.22,-0.1 -0.43,-0.15 -0.67,-0.19 -0.24,0 -0.45,0 -0.69,0 -0.34,0 -0.66,0.13 -0.97,0.27 0.18,-0.35 0.1,-0.79 -0.25,-1.01 -0.11,-0.1 -0.24,-0.11 -0.38,-0.12 -0.26,0 -0.53,0.11 -0.67,0.35 -0.29,0.47 -0.55,0.94 -0.79,1.43 -0.13,0.26 -0.25,0.53 -0.35,0.8 -0.12,0.3 -0.2,0.6 -0.27,0.91 -0.1,0.23 -0.1,0.47 -0.15,0.7 0,0.1 0,0.1 -0.1,0.15 -0.36,0.83 -0.49,1.74 -0.72,2.61 -0.1,0.21 -0.1,0.41 0,0.59 0.1,0.13 0.17,0.24 0.3,0.31 0,0.3 0,0.59 0,0.89 0,0.59 0,1.19 0.13,1.77 0,0.28 0.15,0.53 0.25,0.79 0.1,0.25 0.28,0.47 0.45,0.67 0.16,0.2 0.39,0.38 0.61,0.52 0.24,0.16 0.53,0.28 0.82,0.36 0.55,0.16 1.1,0.1 1.62,-0.13 0.52,-0.2 0.99,-0.52 1.37,-0.93 0.35,-0.38 0.62,-0.82 0.87,-1.28 0.14,-0.26 0.27,-0.53 0.38,-0.81 0.27,0.28 0.52,0.58 0.86,0.79 0.51,0.33 1.17,0.27 1.74,0.18 0,0 0,0 0.1,0 0,0 0,0.1 0.1,0.1 0.14,0.15 0.33,0.24 0.53,0.25 0.2,0 0.4,-0.1 0.55,-0.2 0.13,-0.13 0.25,-0.34 0.24,-0.53 0,0 0,0 0,0 0.1,0 0.12,-0.1 0.17,-0.1 0.57,-0.25 1.08,-0.59 1.58,-0.94 0.44,-0.31 0.83,-0.67 1.21,-1.05 0.42,-0.42 0.77,-0.9 1.07,-1.42 0.28,-0.49 0.5,-1.02 0.63,-1.57 0.1,-0.4 0.13,-0.81 0.13,-1.22 0.1,0.34 0.19,0.68 0.32,1.01 0.11,0.29 0.23,0.58 0.37,0.85 0.15,0.29 0.34,0.56 0.54,0.82 0.16,0.22 0.34,0.42 0.59,0.55 0.27,0.14 0.56,0.24 0.87,0.23 0.64,0 1.05,-0.52 1.32,-1.05 0.14,-0.27 0.26,-0.55 0.35,-0.85 0.11,-0.35 0.16,-0.72 0.22,-1.08 0.1,-0.29 0.1,-0.58 0.14,-0.88 0,-0.33 0.1,-0.65 0.1,-0.98 0,-0.22 0,-0.43 0,-0.65 0,-0.45 0.1,-0.91 0.1,-1.36 0,-0.5 0.1,-0.99 0.1,-1.49 0,-0.34 0,-0.69 0,-1.03 0,-0.16 0,-0.31 -0.1,-0.46 0,-0.19 -0.12,-0.36 -0.19,-0.54 -0.1,-0.28 -0.23,-0.55 -0.34,-0.82 -0.1,-0.18 -0.27,-0.32 -0.44,-0.37 -0.1,0 -0.13,0 -0.2,0 z m -8.78,2.76 c 0.1,0 0.18,0 0.27,0 0.25,0.1 0.5,0.14 0.74,0.23 0.25,0.13 0.48,0.29 0.7,0.46 0.25,0.22 0.47,0.47 0.68,0.74 0.27,0.41 0.49,0.85 0.67,1.32 0.2,0.58 0.33,1.17 0.39,1.78 0,0.52 0.1,1.03 0,1.55 -0.1,0.33 -0.19,0.65 -0.33,0.96 -0.2,0.4 -0.43,0.77 -0.7,1.11 -0.44,0.5 -0.94,0.95 -1.48,1.34 -0.25,0.17 -0.5,0.33 -0.77,0.47 0,0 0,0 0,0 0,-0.26 0,-0.51 0,-0.77 0,-0.41 -0.1,-0.83 -0.1,-1.24 -0.1,-0.84 -0.1,-1.68 -0.14,-2.53 0,-0.43 0,-0.87 0,-1.3 0,-0.33 0,-0.67 0,-1 0,-0.52 0,-1.04 0,-1.56 0,-0.39 0.1,-0.79 0.1,-1.19 0,-0.13 0,-0.25 0,-0.38 0,0 0,0 0,0 z M 93.813,131 c 0,0 0,0 0,0.1 v 0 0 c 0,0 0,0 0,-0.1 z m 0,0.1 v 0 c 0,0 10e-4,0 0,0 0,0 0,0 0,0 z m 45.687,4.02 c 0,0 0,0 0,0 0,0 0,0 0,0 0,0 0,0 0,0 z m -29.34,-1.17 c -0.39,0 -0.78,0 -1.15,0.12 v 0 c -0.24,0.1 -0.47,0.16 -0.7,0.26 -0.2,0.1 -0.39,0.18 -0.58,0.29 -0.38,0.22 -0.74,0.5 -1.07,0.81 -0.32,0.31 -0.62,0.67 -0.84,1.06 -0.1,0.1 -0.12,0.22 -0.17,0.33 0,0 0,0 0,0 -0.1,-0.11 -0.17,-0.22 -0.26,-0.32 -0.34,-0.38 -0.77,-0.66 -1.23,-0.87 -0.42,-0.18 -0.86,-0.29 -1.32,-0.31 0,0 -0.1,0 -0.1,0 -0.24,0 -0.49,0 -0.73,0.1 -0.26,0 -0.52,0.1 -0.78,0.14 -0.54,0.12 -1.07,0.34 -1.557,0.61 -0.685,0.38 -1.299,0.91 -1.751,1.56 -0.08,0.1 -0.146,0.22 -0.211,0.33 -0.07,0.11 -0.127,0.23 -0.182,0.35 -0.218,0.46 -0.342,0.97 -0.318,1.48 0.03,0.58 0.138,1.15 0.226,1.72 0.06,0.41 0.529,0.66 0.912,0.57 0.193,-0.1 0.363,-0.16 0.471,-0.33 0.116,-0.18 0.135,-0.37 0.103,-0.58 -0.06,-0.42 -0.141,-0.83 -0.184,-1.25 -0.01,-0.16 -0.01,-0.33 0,-0.49 0.05,-0.19 0.105,-0.36 0.179,-0.54 0.08,-0.13 0.159,-0.26 0.247,-0.39 0,0.46 -0.01,0.91 -0.02,1.37 0,0.34 -0.02,0.68 -0.01,1.02 0.02,0.54 0.04,1.08 0.06,1.62 0.02,0.46 0.05,0.93 0.1,1.39 -0.08,0 -0.149,0.1 -0.224,0.1 -0.174,0.1 -0.315,0.27 -0.37,0.44 -0.01,0 -0.02,0.1 -0.02,0.1 -0.04,-0.13 -0.08,-0.26 -0.121,-0.39 -0.145,-0.42 -0.328,-0.83 -0.533,-1.22 -0.527,-1 -1.268,-1.88 -2.13,-2.6 -0.434,-0.36 -0.879,-0.69 -1.398,-0.93 -0.455,-0.2 -0.953,-0.31 -1.452,-0.33 -0.102,0 -0.205,0 -0.307,0 v 0 c -0.659,0 -1.311,0.22 -1.883,0.54 -0.271,0.15 -0.523,0.35 -0.762,0.55 -0.239,0.2 -0.453,0.43 -0.659,0.66 -0.69,0.78 -1.276,1.64 -1.84,2.51 -0.113,0.17 -0.225,0.35 -0.337,0.52 0.03,-0.53 0.05,-1.06 0.07,-1.59 0.02,-0.41 -0.312,-0.77 -0.727,-0.79 -0.414,0 -0.777,0.31 -0.795,0.72 -0.08,1.84 -0.169,3.68 -0.257,5.52 -0.03,0.72 -0.08,1.44 -0.112,2.15 -0.02,0.33 -0.04,0.66 -0.07,0.99 -0.01,0.16 -0.02,0.32 -0.03,0.49 -0.123,-0.24 -0.245,-0.47 -0.366,-0.7 -0.4,-0.77 -0.816,-1.54 -1.231,-2.3 -0.205,-0.38 -0.446,-0.74 -0.668,-1.11 -0.181,-0.3 -0.355,-0.6 -0.526,-0.91 -0.198,-0.35 -0.41,-0.7 -0.587,-1.07 -0.223,-0.46 -0.453,-0.91 -0.667,-1.38 -0.08,-0.17 -0.152,-0.33 -0.237,-0.49 -0.101,-0.2 -0.239,-0.37 -0.369,-0.55 -0.158,-0.21 -0.488,-0.28 -0.733,-0.23 -0.244,0.1 -0.492,0.26 -0.555,0.51 -0.04,0.15 -0.08,0.3 -0.09,0.45 -0.01,0.13 -0.02,0.26 -0.02,0.39 0,0.11 0,0.21 -0.01,0.32 l -0.03,0.61 c -0.02,0.39 -0.04,0.78 -0.05,1.17 -0.04,0.88 -0.08,1.75 -0.117,2.63 -0.07,1.71 -0.141,3.41 -0.195,5.12 -0.02,0.5 -0.02,1.01 -0.02,1.51 0,0.42 0.298,0.78 0.727,0.8 0.05,0 0.1,0 0.149,0 0.148,0 0.287,-0.1 0.399,-0.19 0.111,-0.1 0.195,-0.23 0.229,-0.37 0.01,-0.1 0.02,-0.1 0.02,-0.16 0,-0.45 0,-0.9 0.02,-1.35 0.03,-1.35 0.09,-2.71 0.144,-4.06 0.05,-1.27 0.109,-2.54 0.167,-3.81 0.09,0.16 0.178,0.32 0.268,0.48 0.184,0.33 0.363,0.67 0.558,0.99 0.271,0.45 0.542,0.9 0.813,1.35 0.201,0.34 0.377,0.69 0.563,1.03 0.171,0.32 0.343,0.63 0.508,0.95 0.407,0.79 0.818,1.57 1.246,2.34 0.06,0.12 0.12,0.24 0.19,0.35 0.18,0.29 0.488,0.5 0.839,0.48 0.07,0 0.135,0 0.203,0 0.08,0 0.162,-0.1 0.241,-0.1 0.15,-0.1 0.24,-0.21 0.338,-0.33 0.07,-0.1 0.119,-0.25 0.147,-0.36 0.04,-0.17 0.06,-0.35 0.09,-0.52 -0.01,0.1 -0.03,0.13 -0.04,0.2 0.08,-0.44 0.136,-0.88 0.166,-1.33 0.01,-0.18 0.02,-0.36 0.04,-0.54 0.03,-0.39 0.06,-0.77 0.08,-1.16 0.04,-0.7 0.08,-1.41 0.111,-2.12 0.04,-0.88 0.08,-1.77 0.124,-2.66 0.02,0 0.04,0 0.07,0.1 0.348,0.23 0.831,0.13 1.054,-0.22 0.603,-0.94 1.2,-1.89 1.892,-2.77 0,0.44 -0.01,0.89 -0.02,1.33 -0.01,0.75 -0.04,1.5 -0.06,2.25 -0.02,0.89 -0.04,1.79 -0.05,2.68 -0.01,0.83 0,1.65 0.03,2.48 0.02,0.49 0.06,0.98 0.09,1.47 0,0.1 0.01,0.14 0.02,0.2 0.03,0.13 0.09,0.25 0.18,0.35 0.136,0.15 0.327,0.24 0.529,0.25 0.05,0 0.1,0 0.149,0 0.148,0 0.287,-0.1 0.399,-0.19 0.03,0 0.07,-0.1 0.1,-0.11 0.09,-0.12 0.16,-0.28 0.15,-0.42 -0.02,-0.22 -0.03,-0.43 -0.05,-0.65 -0.02,-0.22 -0.03,-0.43 -0.04,-0.65 0,-0.26 -0.02,-0.51 -0.02,-0.77 -0.01,-0.41 -0.01,-0.82 -0.02,-1.22 0,-0.45 0.01,-0.9 0.02,-1.35 0,-0.36 0.01,-0.72 0.02,-1.08 0.02,-0.91 0.04,-1.81 0.07,-2.72 0.02,-0.78 0.04,-1.56 0.02,-2.34 0,-0.29 -0.01,-0.58 -0.03,-0.87 0.113,-0.1 0.228,-0.11 0.348,-0.16 0.195,-0.1 0.39,-0.11 0.592,-0.14 0.245,0 0.485,0 0.727,0 0.199,0 0.389,0.1 0.577,0.18 0.38,0.2 0.72,0.46 1.051,0.73 0.466,0.41 0.88,0.87 1.245,1.37 0.332,0.49 0.613,1.01 0.829,1.57 0.149,0.43 0.262,0.87 0.317,1.33 0.02,0.39 0,0.77 -0.06,1.15 -0.07,0.31 -0.153,0.6 -0.276,0.88 -0.184,0.36 -0.403,0.69 -0.632,1.02 -0.242,0.35 -0.493,0.69 -0.763,1.01 -0.525,0.61 -1.075,1.19 -1.65,1.75 -0.585,0.57 -1.189,1.13 -1.85,1.61 -0.389,0.27 -0.784,0.51 -1.222,0.69 -0.239,0.1 -0.479,0.15 -0.729,0.18 -0.136,0 -0.271,0 -0.408,0 -0.135,0 -0.265,-0.1 -0.395,-0.13 -0.114,-0.1 -0.221,-0.14 -0.326,-0.22 -0.365,-0.33 -0.674,-0.72 -1.03,-1.07 -0.148,-0.14 -0.317,-0.24 -0.528,-0.25 -0.201,0 -0.4,0.1 -0.549,0.2 -0.292,0.27 -0.346,0.79 -0.05,1.08 0.353,0.34 0.66,0.73 1.019,1.06 0.192,0.18 0.399,0.34 0.625,0.48 0.27,0.16 0.571,0.26 0.877,0.32 0.278,0.1 0.543,0.1 0.826,0.1 0.296,0 0.575,-0.1 0.859,-0.16 0.278,-0.1 0.551,-0.2 0.813,-0.32 0.293,-0.13 0.564,-0.31 0.83,-0.49 0.735,-0.5 1.407,-1.08 2.048,-1.7 0.214,-0.2 0.425,-0.41 0.633,-0.62 0.407,-0.41 0.798,-0.84 1.179,-1.27 0.413,-0.47 0.788,-0.96 1.146,-1.48 0.316,-0.45 0.59,-0.93 0.8,-1.44 0.102,-0.25 0.163,-0.51 0.216,-0.78 0.07,-0.33 0.111,-0.67 0.125,-1.02 0.02,-0.4 -0.02,-0.81 -0.09,-1.21 0.09,0.13 0.225,0.22 0.376,0.27 0.07,0 0.134,0 0.201,0 0.02,0 0.03,0 0.05,0 0.06,0.63 0.127,1.27 0.195,1.9 0.03,0.4 0.06,0.8 0.1,1.2 0.02,0.23 0.04,0.46 0.06,0.7 0.04,0.52 0.13,1.03 0.214,1.54 0.1,0.41 0.53,0.67 0.91,0.58 0.19,0 0.36,-0.16 0.47,-0.33 0.12,-0.18 0.14,-0.38 0.1,-0.58 0,-0.38 -0.12,-0.75 -0.17,-1.13 -0.1,-1.04 -0.17,-2.08 -0.27,-3.12 0,-0.43 -0.1,-0.85 -0.13,-1.27 0.15,-0.1 0.29,-0.12 0.43,-0.18 0.43,-0.2 0.84,-0.47 1.24,-0.71 0.44,-0.27 0.86,-0.56 1.28,-0.85 0.44,-0.31 0.87,-0.63 1.23,-1.03 0.35,-0.38 0.67,-0.79 0.91,-1.25 0.26,-0.5 0.39,-1.05 0.43,-1.61 0,-0.24 0,-0.47 0,-0.7 0.13,-0.1 0.24,-0.22 0.3,-0.39 0.1,-0.26 0.21,-0.52 0.33,-0.78 0.12,-0.24 0.26,-0.45 0.42,-0.66 0.12,-0.13 0.24,-0.26 0.37,-0.37 0,0 0,0 0,0 -0.1,0.6 -0.12,1.19 -0.15,1.79 -0.1,1.17 0,2.35 0.1,3.53 0,0 0,0 0,0.1 -0.1,0.1 -0.12,0.22 -0.17,0.33 -0.1,0.2 0,0.43 0,0.63 0,0.1 0.1,0.2 0.1,0.29 0.1,0.13 0.13,0.25 0.22,0.35 0,0 0.1,0.1 0.1,0.1 0.1,0.53 0.12,1.05 0.18,1.57 0.1,0.61 0.13,1.22 0.19,1.83 0.1,0.81 0.13,1.62 0.18,2.44 0,0.21 0,0.39 0.2,0.55 0.13,0.15 0.32,0.24 0.52,0.24 0.21,0 0.4,-0.1 0.55,-0.19 0.14,-0.13 0.26,-0.34 0.25,-0.53 -0.1,-1.35 -0.2,-2.7 -0.33,-4.04 0,-0.23 -0.1,-0.46 -0.1,-0.69 0.1,0 0.17,0.1 0.26,0.15 0.4,0.22 0.82,0.42 1.23,0.63 0.33,0.16 0.66,0.32 1,0.49 1.15,0.56 2.31,1.1 3.47,1.65 0.18,0.1 0.43,0 0.59,0 0.18,-0.1 0.31,-0.25 0.37,-0.44 0.1,-0.2 0,-0.41 0,-0.59 0,-0.1 -0.1,-0.11 -0.11,-0.16 -0.1,-0.1 -0.2,-0.17 -0.33,-0.21 -0.72,-0.34 -1.45,-0.68 -2.17,-1.02 -0.54,-0.26 -1.07,-0.53 -1.61,-0.79 -0.48,-0.23 -0.97,-0.47 -1.44,-0.72 -0.5,-0.27 -0.98,-0.55 -1.44,-0.89 0,-0.12 0,-0.25 0,-0.38 0,0 0,0 0.1,0 0.14,-0.12 0.29,-0.24 0.43,-0.35 0.28,-0.23 0.56,-0.47 0.83,-0.71 0.33,-0.3 0.66,-0.59 0.96,-0.92 0.29,-0.33 0.59,-0.67 0.83,-1.04 0.13,-0.2 0.23,-0.42 0.32,-0.64 0.1,-0.21 0.17,-0.43 0.22,-0.65 0.12,-0.48 0.12,-0.96 0,-1.45 0,-0.16 -0.1,-0.33 -0.15,-0.49 -0.1,-0.21 -0.16,-0.41 -0.28,-0.61 -0.23,-0.39 -0.54,-0.7 -0.91,-0.97 -0.18,-0.14 -0.39,-0.23 -0.6,-0.33 -0.21,-0.1 -0.45,-0.15 -0.68,-0.18 -0.1,0 -0.17,0 -0.25,0 z m -0.13,1.52 c 0.1,0 0.16,0 0.25,0 0.11,0 0.22,0.1 0.32,0.1 0.13,0.1 0.25,0.15 0.36,0.24 0.1,0.1 0.19,0.19 0.27,0.3 0.1,0.13 0.15,0.26 0.22,0.41 0.1,0.17 0.1,0.35 0.12,0.54 0,0.14 0,0.28 0,0.43 -0.1,0.24 -0.14,0.48 -0.24,0.71 -0.14,0.26 -0.31,0.49 -0.49,0.72 -0.22,0.26 -0.45,0.5 -0.69,0.73 -0.22,0.21 -0.45,0.42 -0.68,0.61 -0.1,0.1 -0.17,0.14 -0.25,0.21 0,-0.23 0,-0.46 0,-0.69 0,-0.8 0,-1.6 0.1,-2.4 0,-0.28 0,-0.56 0.1,-0.83 0,-0.35 0.1,-0.69 0.11,-1.03 0.11,0 0.23,-0.1 0.34,-0.1 0.1,0 0.17,0 0.25,0 z m 9.95,0.8 c 0.1,0 0.19,0 0.28,0 0.12,0 0.23,0.1 0.34,0.11 0.1,0 0.14,0.1 0.21,0.14 0.1,0.1 0.16,0.16 0.23,0.25 0.1,0.12 0.14,0.24 0.19,0.37 0.1,0.28 0.15,0.56 0.19,0.85 0.1,0.87 0,1.76 -0.17,2.62 -0.17,0.91 -0.4,1.81 -0.77,2.65 -0.23,0.46 -0.47,0.9 -0.78,1.3 -0.13,0.14 -0.28,0.27 -0.43,0.39 -0.16,0.11 -0.33,0.19 -0.51,0.27 -0.12,0 -0.24,0.1 -0.36,0.1 -0.1,0 -0.11,0 -0.17,0 -0.12,0 -0.24,-0.1 -0.36,-0.12 -0.1,-0.1 -0.18,-0.1 -0.27,-0.17 -0.1,-0.1 -0.18,-0.18 -0.26,-0.28 0,-0.1 -0.1,-0.18 -0.14,-0.28 -0.1,-0.26 -0.14,-0.53 -0.18,-0.8 0,-0.84 0,-1.69 0.1,-2.52 0,-0.47 0.1,-0.95 0.14,-1.42 0.1,-0.39 0.11,-0.77 0.18,-1.16 0,0 0,0 0,0 0.19,-0.38 0.41,-0.74 0.67,-1.07 0.23,-0.26 0.48,-0.5 0.76,-0.71 0.22,-0.14 0.46,-0.27 0.71,-0.37 0.13,0 0.27,-0.1 0.41,-0.1 z m -17.27,0.6 c 0.11,0 0.22,0 0.33,0 0.19,0 0.37,0.1 0.55,0.18 0.16,0.1 0.32,0.18 0.47,0.3 0.15,0.13 0.27,0.27 0.39,0.42 0.12,0.19 0.22,0.37 0.31,0.57 0,0.18 0.1,0.35 0.12,0.54 0,0.25 0,0.5 0,0.75 0,0.19 -0.1,0.37 -0.18,0.55 -0.15,0.28 -0.32,0.53 -0.52,0.77 -0.21,0.24 -0.43,0.46 -0.68,0.66 -0.24,0.2 -0.5,0.38 -0.76,0.56 -0.42,0.29 -0.86,0.56 -1.3,0.82 -0.11,0.1 -0.22,0.13 -0.33,0.2 -0.11,0.1 -0.22,0.12 -0.33,0.17 0,-0.1 0,-0.15 0,-0.22 0,-0.86 -0.1,-1.73 -0.1,-2.59 0,-1.08 0,-2.16 0,-3.25 0,0 0,0 0,0 0.11,0 0.22,-0.1 0.34,-0.15 0.44,-0.15 0.89,-0.25 1.35,-0.3 0.11,0 0.22,0 0.33,0 z m -26.887,5.76 c -0.137,0 -0.267,0 -0.403,0.1 -0.628,0.26 -1.252,0.53 -1.885,0.77 -0.413,0.14 -0.824,0.29 -1.237,0.43 -0.329,0.12 -0.668,0.21 -1.001,0.31 -0.419,0.12 -0.836,0.25 -1.254,0.37 -0.544,0.16 -1.101,0.3 -1.656,0.42 -0.318,0.1 -0.638,0.13 -0.96,0.18 0,0 0,0 0,0 -0.06,-0.14 -0.174,-0.26 -0.289,-0.34 -0.113,-0.1 -0.246,-0.11 -0.381,-0.12 -0.07,0 -0.135,0 -0.202,0 -0.193,0 -0.363,0.17 -0.47,0.33 -0.05,0.1 -0.08,0.16 -0.1,0.24 -0.125,0 -0.25,0 -0.376,0 -0.206,0 -0.392,0 -0.548,0.19 -0.148,0.14 -0.239,0.33 -0.248,0.53 -0.02,0.4 0.312,0.8 0.727,0.8 0.188,0 0.377,0 0.565,0 0.02,0.19 0.04,0.39 0.06,0.58 0,0.47 0.02,0.94 0.03,1.41 0,0.35 0,0.7 -0.01,1.04 0,0.18 -0.01,0.36 -0.02,0.54 -0.323,0 -0.645,0 -0.969,0 -0.207,0 -0.393,0.1 -0.549,0.2 -0.148,0.13 -0.237,0.32 -0.246,0.52 -0.02,0.4 0.311,0.81 0.726,0.8 0.331,0 0.662,0 0.993,0 0,0.21 -0.01,0.43 -0.02,0.64 -0.02,0.42 -0.04,0.84 -0.03,1.26 0,0.3 0.04,0.61 0.07,0.91 0.03,0.33 0.111,0.66 0.238,0.97 0.196,0.49 0.491,0.93 0.901,1.26 0.428,0.35 0.957,0.58 1.485,0.74 0.285,0.1 0.583,0.12 0.876,0.17 0.276,0 0.554,0.1 0.832,0.1 0.628,0 1.269,0 1.887,-0.15 1.135,-0.2 2.192,-0.67 3.213,-1.18 0.282,-0.14 0.564,-0.28 0.85,-0.42 0.375,-0.18 0.507,-0.67 0.319,-1.03 -0.199,-0.38 -0.653,-0.49 -1.028,-0.32 -0.757,0.36 -1.488,0.77 -2.267,1.08 -0.693,0.24 -1.4,0.4 -2.13,0.48 -0.583,0 -1.16,0 -1.737,-0.1 -0.326,-0.1 -0.637,-0.17 -0.942,-0.3 -0.155,-0.1 -0.301,-0.17 -0.44,-0.28 -0.07,-0.1 -0.135,-0.14 -0.196,-0.22 -0.09,-0.14 -0.168,-0.29 -0.236,-0.45 -0.08,-0.25 -0.118,-0.51 -0.146,-0.77 -0.03,-0.39 -0.03,-0.77 -0.01,-1.17 0,-0.19 0.01,-0.39 0.02,-0.58 0.01,-0.27 0.02,-0.54 0.03,-0.81 0.133,0 0.266,0 0.399,-0.1 0.597,-0.12 1.191,-0.27 1.777,-0.43 0.413,-0.11 0.827,-0.23 1.24,-0.34 0.825,-0.23 1.639,-0.5 2.457,-0.75 0.195,-0.1 0.356,-0.16 0.47,-0.33 0.111,-0.17 0.149,-0.39 0.104,-0.59 -0.04,-0.19 -0.163,-0.36 -0.329,-0.47 -0.109,-0.1 -0.251,-0.12 -0.39,-0.12 -0.07,0 -0.132,0 -0.193,0 -1.095,0.34 -2.186,0.68 -3.29,0.98 -0.729,0.21 -1.462,0.39 -2.204,0.53 0,-0.27 0.01,-0.55 0.02,-0.83 0.01,-0.6 -0.02,-1.21 -0.03,-1.82 0,-0.28 -0.04,-0.57 -0.07,-0.85 0.04,0 0.08,0 0.125,0 0.755,-0.1 1.496,-0.3 2.232,-0.49 0.629,-0.17 1.249,-0.36 1.872,-0.55 0.226,-0.1 0.451,-0.13 0.676,-0.2 0.221,-0.1 0.438,-0.15 0.655,-0.23 0.262,-0.1 0.524,-0.18 0.785,-0.27 0.736,-0.26 1.45,-0.59 2.171,-0.88 0.174,-0.1 0.314,-0.27 0.37,-0.44 0.06,-0.19 0.05,-0.41 -0.05,-0.59 -0.09,-0.17 -0.251,-0.31 -0.439,-0.37 -0.06,0 -0.126,0 -0.187,0 z" />
      <g id="gProduktIcon">
        <path inkscape:connector-curvature="0" id="path564" style="fill:#fdd757;fill-opacity:0.966507;fill-rule:nonzero;stroke:none;stroke-width:0.352778" d="m 168.07,102.45 c -5.24,1.09 -9.41,4.9 -12.48,9.1 -1.43,2.65 -1.78,5.78 -1.72,8.76 -1.42,1.77 0,4.78 -0.26,7.13 1.64,3.79 3.95,7.25 5.66,11.01 2.99,2.73 5.82,5.79 7.52,9.5 0,1.45 1.68,2.65 2.16,0.7 1.68,-4.14 4.31,-7.91 5.21,-12.34 0.74,-2.48 1.94,-4.82 2.56,-7.34 0.81,-2.42 1.51,-4.88 2.15,-7.34 1.09,-2.25 1.35,-4.79 1.56,-7.24 -0.44,-1.84 -0.47,-3.69 -0.68,-5.58 -0.25,-2.35 -1.61,-4.61 -3.59,-5.9 -2.5,-1.25 -5.46,-1.31 -8.09,-0.46" />
        <path inkscape:connector-curvature="0" id="path608" style="fill:#000000;fill-opacity:0.966507;fill-rule:nonzero;stroke:none;stroke-width:0.352777" d="m 167.97,115 c -1.06,0 -2.02,0.59 -2.75,1.32 -0.62,0.53 -1.1,1.21 -1.42,1.96 -0.27,0.6 -0.49,1.23 -0.52,1.9 0,0.93 0.14,1.88 0.47,2.75 0.39,0.92 1.22,1.68 2.22,1.86 0.6,0.1 1.24,0.19 1.84,0 0.89,-0.29 1.45,-1.16 1.75,-2 0.54,-1.53 0.67,-3.16 0.65,-4.77 0,-0.69 0,-1.47 -0.56,-1.98 -0.46,-0.21 -0.4,-0.87 -0.95,-0.98 -0.24,-0.1 -0.49,-0.1 -0.73,-0.1 z m 0.43,2.22 c 0.1,0 0,0 0,0 z m 0.1,0 c 0.17,0.1 0,0.1 0,0 z m -0.53,-15.9 c -4.92,1.27 -8.96,4.76 -11.99,8.72 -2.14,3.37 -3.62,7.29 -3.48,11.34 -0.1,2.42 -0.15,4.92 0.93,7.15 1.8,4.73 4.67,8.99 8.2,12.6 2.37,2.68 4.05,5.87 5.67,9.02 0.53,1.19 1.21,5.26 2.83,3.12 -0.37,-1.99 -0.62,-4.15 0.13,-6.15 2.42,-7.13 5.21,-14.13 7.31,-21.37 1.28,-3.98 2.84,-7.97 2.75,-12.23 -0.1,-2.5 0.36,-5.09 -0.39,-7.52 -1.22,-2.71 -4.28,-4.03 -7.02,-4.66 -1.63,-0.24 -3.32,-0.35 -4.94,0 m 3.11,1.52 c 2.33,0.13 3.66,0.68 5.37,1.74 1.92,0.94 2.42,3.14 2.2,5.09 0,3.88 0,7.84 -1.38,11.52 -1.88,5.75 -3.59,11.56 -5.72,17.23 -1.11,3.26 -2.54,6.43 -3.31,9.8 -1.83,-3.45 -3.85,-6.83 -6.59,-9.64 -3.28,-3.47 -5.71,-7.74 -7.19,-12.27 -0.56,-2.4 -0.22,-4.91 -0.14,-7.35 0.42,-3.06 1.65,-5.89 3.38,-8.43 2.98,-3.53 6.74,-6.91 11.45,-7.68 0.64,-0.1 1.29,0 1.93,0 m -13.33,7.63 z" />
      </g>
      <g id="pProduktBox">
        <path inkscape:connector-curvature="0" d="m 198.86,93.466 c -3.23,7.724 3.09,18.724 1.42,27.994 -0.1,16.6 0,33.21 0.11,49.8 -0.98,6.32 -0.4,12.47 1.41,17.5 5.16,4.62 2.58,-13.56 3.54,-18.2 0.86,-12.47 0,-24.94 -2.15,-37.23 0,-12.18 0.33,-24.61 -3.06,-36.422 0.15,-1.005 0.47,-3.377 -1.27,-3.442 z m 4.71,140.774 c 1.19,8.44 -0.59,16.42 2.49,24.46 2.13,17.27 9.97,33.15 13.37,50.13 -8.09,-1.5 -17.1,2.68 -25.4,3.91 -27.23,7.02 -55.26,9.81 -82.62,16.16 -7.68,1.73 -15.8,3.98 -23.237,3.14 -6.107,2.11 -19.672,-0.7 -20.136,7.06 11.987,2.29 23.761,-3.3 35.673,-4.39 16.38,-3.42 32.93,-5.98 49.41,-8.9 7.78,-2.12 16.74,-2.82 24.97,-4.44 8.69,-1.57 17.28,-3.48 26.08,-4.12 6.24,-2.45 15.77,-1.28 20.08,-6.41 2.97,-6.4 -4,-14.15 -4.67,-21.02 -5.01,-16.22 -9.06,-32.71 -12.08,-49.42 -1.29,-2.48 0.38,-7.14 -3.93,-6.16 z" style="opacity:0.983902;fill:#a2a2a2;fill-opacity:1;fill-rule:nonzero;stroke:none;stroke-width:0.352777" id="pProduktShadow" />
        <path inkscape:connector-curvature="0" d="m 193.73,90.052 c -26.55,-0.05 -52.3,7.319 -78.25,11.978 -18.811,5.37 -37.987,9.33 -57.131,13.27 -5.836,7.32 -3.092,18.33 -2.767,28.08 1.987,21.36 -0.363,43 3.943,64.16 3.576,23.11 5.011,46.45 4.874,69.82 0.101,18.61 1.282,37.6 -3.354,55.82 6.961,7.04 20.081,1.01 29.207,0.67 21.888,-4.57 43.938,-8.27 65.998,-11.87 16.75,-4.17 33.71,-7.33 50.76,-9.93 9.53,-0.14 18.35,-4.32 10.98,-14.28 -4.2,-17.3 -9.64,-34.39 -12.73,-51.9 0.96,-4.27 -3.26,-19.07 -4.28,-8.6 1.18,18.71 7.81,36.45 11.94,54.62 0.3,6.71 9.53,17.09 -2.69,16.07 -17.3,3.16 -34.76,5.48 -51.78,10.08 -22.33,4.06 -44.83,7.28 -67.02,12.15 -8.844,1.34 -17.854,3.6 -26.827,2.34 5.494,-23.48 2.789,-47.82 2.89,-71.71 0.519,-26.6 -5.686,-52.68 -7.353,-79.11 0.129,-16.92 -0.709,-33.81 -1.917,-50.68 -0.04,-7.35 0.605,-15.29 10.376,-14.36 17.861,-3.47 35.441,-8.19 53.101,-12.5 24.5,-4.11 48.87,-11.596 73.92,-10.449 3.68,20.619 1.54,41.729 4.42,62.449 1.25,11.27 -1.28,22.75 0.47,33.89 6.25,-1.64 1.1,-15.79 3.22,-22.22 0,-16.15 -2.71,-32.15 -2.42,-48.32 -0.52,-9.41 -0.13,-19.32 -3.24,-28.256 -1.16,-1.068 -2.87,-1.071 -4.34,-1.212 z" style="fill:#000000;fill-opacity:0.966507;fill-rule:nonzero;stroke:none;stroke-width:0.352777" id="pProduktBorder" />
      </g>
    </g>
  </g>
</svg>
