<?xml version="1.0" encoding="UTF-8" standalone="no"?>
<svg xmlns:dc="http://purl.org/dc/elements/1.1/" xmlns:cc="http://creativecommons.org/ns#" xmlns:rdf="http://www.w3.org/1999/02/22-rdf-syntax-ns#" xmlns:svg="http://www.w3.org/2000/svg" xmlns="http://www.w3.org/2000/svg" xmlns:sodipodi="http://sodipodi.sourceforge.net/DTD/sodipodi-0.dtd" xmlns:inkscape="http://www.inkscape.org/namespaces/inkscape" inkscape:version="1.0rc1 (09960d6f05, 2020-04-09)" sodipodi:docname="missing.svg" width="597.41" height="436.4" viewBox="0 0 158.06 115.47" version="1.1" id="svg78">
  <sodipodi:namedview inkscape:current-layer="svg78" inkscape:cy="398.38" inkscape:cx="396.85" inkscape:zoom="0.73674" units="px" showgrid="false" id="namedview14" inkscape:window-height="480" inkscape:window-width="640" inkscape:pageshadow="2" inkscape:pageopacity="0" guidetolerance="10" gridtolerance="10" objecttolerance="10" borderopacity="1" bordercolor="#666666" pagecolor="#ffffff" inkscape:document-rotation="0" />
  <defs id="defs72" />
  <metadata id="metadata75">
    <rdf:RDF>
      <cc:Work rdf:about="">
        <dc:format>image/svg+xml</dc:format>
        <dc:type rdf:resource="http://purl.org/dc/dcmitype/StillImage" />
        <dc:title />
      </cc:Work>
    </rdf:RDF>
  </metadata>
  <g transform="translate(10.284,6.1083)" id="layer1">
    <g transform="matrix(0.992,0.12616,-0.12616,0.992,12.415,-361.92)" id="gMissing">
      <path inkscape:connector-curvature="0" id="pMissingLabel" style="opacity:0.983902;fill:#000000;fill-opacity:1;fill-rule:nonzero;stroke:none;stroke-width:0.352777" d="m 167.06,337.62 c -0.34,0 -0.68,0.13 -0.97,0.29 v 0 c -0.16,0.1 -0.31,0.22 -0.45,0.34 -0.13,0.11 -0.23,0.24 -0.34,0.37 -0.12,0.15 -0.23,0.31 -0.34,0.47 -0.13,0.22 -0.22,0.46 -0.32,0.69 -0.14,0.35 -0.18,0.74 -0.19,1.12 0,0.45 0.13,0.9 0.26,1.32 0.13,0.4 0.53,0.65 0.94,0.53 0.39,-0.1 0.66,-0.54 0.53,-0.94 -0.1,-0.24 -0.15,-0.49 -0.2,-0.75 0,-0.14 0,-0.28 0,-0.43 0,-0.16 0.1,-0.31 0.13,-0.46 0.1,-0.19 0.19,-0.37 0.31,-0.54 0.12,-0.13 0.24,-0.26 0.38,-0.37 0,0 0.1,-0.1 0.1,-0.1 0,0 0.1,0 0.13,-0.1 0,0 0,0 0.1,0 0,0 0,0 0,0 0,0 0.1,0.1 0.1,0.14 0.1,0.25 0.15,0.52 0.19,0.78 0,0.44 0,0.87 0,1.3 -0.1,0.59 -0.28,1.16 -0.5,1.71 -0.24,0.56 -0.53,1.11 -0.81,1.65 -0.11,0.21 -0.22,0.43 -0.33,0.64 -0.13,0.25 -0.25,0.5 -0.37,0.76 -0.1,0.13 -0.12,0.27 -0.17,0.42 0,0.13 -0.1,0.29 -0.1,0.43 0,0.28 0,0.6 0.16,0.85 0.12,0.24 0.32,0.43 0.54,0.58 0.21,0.15 0.44,0.25 0.68,0.33 0.25,0.1 0.53,0.1 0.79,0.1 0.28,0 0.57,-0.1 0.84,-0.11 0.27,-0.1 0.52,-0.18 0.77,-0.29 0.48,-0.22 0.91,-0.53 1.37,-0.78 0.36,-0.2 0.48,-0.7 0.27,-1.04 -0.21,-0.37 -0.67,-0.47 -1.04,-0.28 -0.47,0.26 -0.92,0.57 -1.4,0.8 -0.21,0.1 -0.42,0.13 -0.63,0.17 -0.14,0 -0.28,0 -0.41,0 -0.1,0 -0.14,0 -0.21,-0.1 -0.1,0 -0.14,-0.1 -0.2,-0.11 0,-0.1 0,-0.12 0,-0.17 0,0 0,-0.1 0,-0.1 0.32,-0.71 0.7,-1.4 1.06,-2.09 0.36,-0.69 0.66,-1.41 0.89,-2.15 0.24,-0.79 0.34,-1.62 0.28,-2.44 0,-0.37 -0.1,-0.74 -0.18,-1.1 -0.1,-0.35 -0.25,-0.72 -0.49,-0.98 -0.25,-0.26 -0.57,-0.45 -0.92,-0.54 -0.1,0 -0.19,0 -0.29,0 z m 0,1.54 c 0,0 0,0 0,0 0,0 0,0 0,0 0,0 0,0 0,0 z m 0,0 c 0,0 0,0 0,0 0,0 0,0 0,0 0,0 0,0 0,0 z m -13.21,0.57 c -0.41,0 -0.78,0.35 -0.77,0.76 v 0 c 0,0.83 0.1,1.66 0.1,2.48 0,0.37 0,0.74 0,1.1 0,0.84 0,1.68 0,2.52 0,1.21 0,2.42 0,3.63 -0.11,-0.27 -0.21,-0.53 -0.31,-0.79 -0.23,-0.62 -0.45,-1.24 -0.67,-1.87 -0.19,-0.54 -0.37,-1.09 -0.55,-1.64 -0.1,-0.27 -0.19,-0.55 -0.28,-0.83 0,-0.13 -0.1,-0.26 -0.14,-0.39 -0.12,-0.37 -0.28,-0.73 -0.44,-1.09 0,-0.1 0,-0.1 -0.1,-0.15 -0.1,-0.1 -0.12,-0.24 -0.21,-0.31 -0.12,-0.11 -0.23,-0.2 -0.4,-0.25 -0.1,0 -0.21,0 -0.31,0 -0.14,0 -0.26,0 -0.38,0.11 -0.16,0.1 -0.33,0.27 -0.35,0.45 0,0.15 0,0.3 -0.1,0.45 0,0.13 0,0.28 0,0.41 0,0.1 0,0.19 0,0.28 0,0.19 0,0.39 0,0.58 0,0.44 0,0.87 0,1.31 0,0.38 0,0.75 0,1.12 0,0.45 0,0.9 0,1.35 0,0.83 0.1,1.65 0.13,2.48 0,0.4 0.1,0.8 0.1,1.2 0.1,0.51 0.1,1.03 0.16,1.54 0.1,0.52 0.15,1.04 0.23,1.56 0,0.18 0.19,0.36 0.35,0.45 0.18,0.11 0.39,0.13 0.59,0.1 0.19,-0.1 0.35,-0.18 0.45,-0.35 0.11,-0.19 0.11,-0.38 0.1,-0.59 -0.1,-0.47 -0.14,-0.94 -0.21,-1.41 -0.1,-0.83 -0.16,-1.65 -0.22,-2.48 0,-0.41 -0.1,-0.82 -0.1,-1.23 0,-0.42 0,-0.83 -0.1,-1.24 0,-0.41 0,-0.81 0,-1.22 0,-0.1 0,-0.17 0,-0.25 0.2,0.59 0.41,1.18 0.62,1.77 0.24,0.69 0.52,1.37 0.8,2.05 0.16,0.37 0.32,0.74 0.49,1.11 0.1,0.16 0.15,0.31 0.23,0.47 0.1,0.21 0.19,0.46 0.35,0.63 0.19,0.22 0.43,0.3 0.71,0.3 0.34,0 0.65,-0.24 0.74,-0.56 0,-0.13 0.1,-0.26 0.1,-0.39 0,-0.16 0.1,-0.33 0.1,-0.49 0,-0.24 0,-0.49 0,-0.73 0,-0.23 0,-0.46 0,-0.68 0,-0.38 0,-0.76 0,-1.14 0,-0.88 0,-1.77 0,-2.66 0,-0.83 0,-1.66 0,-2.49 0,-0.83 -0.1,-1.65 -0.1,-2.48 0,-0.56 0,-1.13 -0.1,-1.69 0,-0.41 -0.34,-0.76 -0.76,-0.76 z m 5.22,0.1 c -0.1,0 -0.2,0 -0.3,0 v 0 c -0.26,0 -0.5,0.15 -0.71,0.32 -0.18,0.15 -0.31,0.35 -0.43,0.55 -0.12,0.22 -0.21,0.46 -0.29,0.7 -0.1,0.28 -0.14,0.58 -0.18,0.87 -0.1,0.62 -0.1,1.22 0,1.83 0.1,0.56 0.23,1.08 0.44,1.6 0.12,0.27 0.24,0.54 0.39,0.79 0.15,0.28 0.33,0.55 0.51,0.83 0.3,0.47 0.61,0.95 0.9,1.43 0.31,0.51 0.58,1.04 0.82,1.58 0.15,0.37 0.29,0.76 0.37,1.16 0,0.1 0,0.21 0,0.31 0,0 0,0.1 0,0.15 0,0 0,0.1 -0.1,0.1 -0.1,0.1 -0.1,0.1 -0.15,0.15 -0.1,0.1 -0.15,0.1 -0.23,0.14 -0.12,0 -0.25,0.1 -0.37,0.1 -0.14,0 -0.27,0 -0.41,0 -0.15,0 -0.3,-0.1 -0.45,-0.12 -0.12,-0.1 -0.23,-0.13 -0.34,-0.2 -0.13,-0.11 -0.24,-0.23 -0.35,-0.35 -0.12,-0.18 -0.21,-0.35 -0.29,-0.54 -0.16,-0.37 -0.29,-0.75 -0.45,-1.12 -0.1,-0.17 -0.29,-0.31 -0.46,-0.35 -0.2,-0.1 -0.41,0 -0.59,0.1 -0.17,0.1 -0.29,0.27 -0.35,0.46 0,0.1 0,0.13 0,0.2 0,0.14 0,0.27 0.1,0.39 0,0 0,0 0,0 0.21,0.53 0.38,1.09 0.69,1.57 0.16,0.27 0.38,0.5 0.61,0.71 0.28,0.25 0.61,0.44 0.96,0.57 0.31,0.12 0.63,0.17 0.95,0.21 0.16,0 0.32,0 0.48,0 0.19,0 0.38,-0.1 0.56,-0.1 0.29,-0.1 0.56,-0.22 0.8,-0.4 0.29,-0.22 0.54,-0.47 0.7,-0.8 0.3,-0.62 0.24,-1.31 0.1,-1.95 -0.21,-0.68 -0.5,-1.33 -0.83,-1.96 -0.33,-0.63 -0.72,-1.22 -1.1,-1.82 -0.17,-0.27 -0.34,-0.55 -0.51,-0.82 -0.18,-0.28 -0.35,-0.57 -0.48,-0.88 -0.18,-0.45 -0.32,-0.91 -0.39,-1.39 -0.1,-0.47 -0.1,-0.93 0,-1.4 0,-0.28 0.13,-0.55 0.23,-0.81 0,-0.1 0.1,-0.17 0.13,-0.25 0.1,0.1 0.14,0.11 0.21,0.16 0.1,0 0.1,0.1 0.14,0.12 0.17,0.13 0.32,0.22 0.54,0.22 0.2,0 0.4,-0.1 0.54,-0.22 0,0 0.1,-0.1 0.1,-0.12 0.1,-0.12 0.13,-0.27 0.13,-0.42 0,-0.18 -0.1,-0.42 -0.22,-0.54 -0.1,-0.1 -0.18,-0.14 -0.27,-0.21 -0.18,-0.14 -0.34,-0.29 -0.54,-0.4 -0.18,-0.1 -0.37,-0.14 -0.57,-0.14 z m -0.1,1.55 c 0,0 0,0 0,0 0,0 0,0 0,0 z m -12.75,1.36 c -0.42,0 -0.76,0.35 -0.76,0.76 0,1.58 0,3.15 0,4.73 0,0.67 0,1.34 -0.1,2.01 0,0.62 -0.1,1.24 -0.17,1.86 -0.17,1.09 -0.3,2.2 -0.69,3.24 -0.1,0.13 -0.13,0.26 -0.21,0.39 0,0.1 -0.1,0.1 -0.13,0.13 0,0 0,0 0,0 0,0 0,0 0,0 0,0 0,0 0,0 -0.1,0 -0.13,-0.1 -0.19,-0.11 -0.18,-0.15 -0.33,-0.32 -0.49,-0.5 -0.26,-0.36 -0.48,-0.74 -0.67,-1.14 -0.26,-0.67 -0.42,-1.37 -0.53,-2.09 -0.17,-1.37 -0.15,-2.76 -0.16,-4.14 0,-1.08 0,-2.16 -0.1,-3.23 0,-0.42 -0.34,-0.76 -0.76,-0.76 -0.41,0 -0.78,0.34 -0.76,0.76 0,1.8 0,3.6 0.1,5.41 0,0.85 0.1,1.71 0.22,2.55 0.18,1.14 0.54,2.25 1.19,3.21 0.3,0.45 0.67,0.9 1.12,1.21 0.23,0.16 0.48,0.28 0.75,0.33 0.15,0 0.28,0 0.44,0 0.11,0 0.22,0 0.32,-0.1 0.11,0 0.21,-0.1 0.31,-0.13 0.13,-0.1 0.25,-0.18 0.36,-0.27 0.1,-0.1 0.2,-0.24 0.28,-0.35 0.17,-0.24 0.29,-0.48 0.4,-0.75 0.21,-0.55 0.34,-1.11 0.45,-1.69 0.3,-1.64 0.5,-3.32 0.54,-4.99 0.1,-1.88 0,-3.76 0,-5.64 0,-0.41 -0.35,-0.76 -0.76,-0.76 z m -10.51,1.55 c 0,0 0,0 0,0 -0.63,0 -1.25,0 -1.88,0.1 -0.7,0 -1.41,0.11 -2.11,0.21 -0.65,0.1 -1.3,0.24 -1.92,0.46 -0.64,0.22 -1.25,0.55 -1.84,0.88 -0.36,0.2 -0.48,0.69 -0.27,1.04 0.21,0.37 0.68,0.48 1.04,0.28 0.41,-0.23 0.82,-0.45 1.25,-0.64 0,0.11 0,0.22 0,0.33 0,0.14 0,0.29 0.1,0.44 0.1,0.39 0.1,0.79 0.15,1.19 0,0.13 0,0.27 0,0.41 0,0.3 0.1,0.6 0.1,0.9 0,0.38 0.1,0.76 0.1,1.14 0,0.37 0,0.73 0.1,1.1 0,1.69 0,3.37 0.1,5.06 0,0.51 0,1.02 0.1,1.54 0,0.41 0.33,0.76 0.76,0.76 0.1,0 0.1,0 0.15,0 0,0 0.1,0 0.14,0 0,0 0.1,-0.1 0.13,-0.1 0.12,-0.1 0.23,-0.2 0.28,-0.34 0,-0.1 0.1,-0.19 0.1,-0.29 0,-0.38 0,-0.75 0,-1.12 0,-0.38 0,-0.75 0,-1.12 0,-0.38 0,-0.76 0,-1.14 0,-0.81 0,-1.62 0,-2.43 0,-0.41 0,-0.83 0,-1.25 0,-0.5 0,-1 -0.1,-1.5 0,-0.42 -0.1,-0.83 -0.1,-1.25 0,-0.39 -0.1,-0.77 -0.14,-1.16 0,-0.41 -0.1,-0.81 -0.17,-1.22 0,-0.11 -0.1,-0.22 -0.17,-0.31 0.32,-0.1 0.66,-0.13 0.99,-0.18 1.14,-0.13 2.28,-0.16 3.43,-0.2 0.42,0 0.76,-0.34 0.76,-0.77 0,-0.39 -0.33,-0.76 -0.73,-0.76 z m 30.85,2.84 v 0 c 0,0 0,0 0,0 0,0 0,0 0,0 0,0 0,0 0,0 z m -44.39,0.1 c -0.1,0 -0.13,0 -0.19,0 -0.41,0.11 -0.63,0.53 -0.53,0.93 0.1,0.31 0.13,0.62 0.18,0.94 0.1,0.72 0.1,1.45 0.11,2.18 0,0.4 0,0.79 0,1.19 0,0.92 0,1.85 0,2.78 0,0.78 0,1.56 0,2.34 0,0.2 0,0.4 0,0.61 0,0.27 0,0.55 0,0.82 0,0.17 0,0.31 0.13,0.47 0.1,0.11 0.15,0.21 0.24,0.3 0.22,0.21 0.53,0.32 0.81,0.38 0.15,0 0.31,0.1 0.47,0.1 0.13,0 0.26,0 0.39,0 0.25,0 0.52,0 0.78,0 0.55,0 1.1,-0.1 1.66,-0.14 0.29,0 0.58,-0.1 0.88,-0.1 0.36,0 0.72,-0.1 1.07,-0.14 0.44,-0.1 0.87,-0.2 1.3,-0.3 0.4,-0.1 0.64,-0.55 0.53,-0.93 -0.11,-0.42 -0.53,-0.63 -0.94,-0.54 -0.5,0.12 -1,0.25 -1.51,0.34 -0.64,0.1 -1.28,0.14 -1.92,0.2 -0.74,0.1 -1.48,0.14 -2.22,0.1 0,0 -0.11,0 -0.16,0 0,-0.14 0,-0.29 0,-0.43 0,-0.18 0,-0.35 0,-0.53 0,-0.42 0,-0.83 0,-1.25 0,-0.78 0,-1.55 0,-2.33 0,-0.67 0,-1.35 0,-2.02 0,-0.48 0,-0.96 0,-1.43 0,-0.99 -0.11,-1.97 -0.33,-2.93 -0.1,-0.34 -0.41,-0.56 -0.75,-0.56 z m -4.46,1.3 c 0,0 -0.1,0 -0.11,0 0,0 -0.1,0 -0.1,0 0,0 0,0 0,0 -0.19,0 -0.35,0.18 -0.45,0.35 -0.1,0.16 -0.15,0.4 -0.1,0.58 0.18,0.44 0.3,0.9 0.37,1.36 0.13,1.18 0.1,2.36 0,3.54 0,0.29 0,0.59 0,0.88 -0.77,0.16 -1.55,0.31 -2.32,0.47 0,-0.36 0,-0.72 0,-1.08 0,-0.44 0,-0.89 0,-1.33 0,-0.18 0,-0.35 0,-0.52 0,-0.17 0,-0.34 0,-0.51 0,-0.6 0.1,-1.19 0.13,-1.78 0,-0.19 -0.1,-0.41 -0.22,-0.54 -0.14,-0.14 -0.34,-0.22 -0.54,-0.22 -0.2,0 -0.39,0.1 -0.54,0.22 -0.15,0.15 -0.2,0.33 -0.22,0.54 -0.1,0.56 -0.1,1.13 -0.13,1.7 0,0.37 -0.1,0.74 -0.1,1.11 0,0.89 0,1.78 -0.1,2.67 0,0.1 0,0.18 0,0.26 0,0 0,0.1 -0.1,0.1 -0.1,0.17 -0.13,0.38 -0.1,0.58 0,0.1 0.1,0.18 0.13,0.25 0,0 0,0 0,0 0,0.38 0,0.76 0,1.14 0,0.42 0,0.84 0,1.26 0,0.18 0,0.37 0,0.55 0,0.14 0,0.28 0,0.41 0,0.34 0,0.68 0.1,1.02 0,0.21 0.1,0.39 0.23,0.54 0.14,0.14 0.33,0.22 0.53,0.22 0.1,0 0.1,0 0.15,0 0.15,0 0.29,-0.1 0.39,-0.21 0,0 0.1,-0.1 0.1,-0.11 0.1,-0.13 0.14,-0.28 0.13,-0.43 0,-0.3 -0.1,-0.59 -0.1,-0.89 0,-0.16 0,-0.32 0,-0.48 0,-0.18 0,-0.37 0,-0.55 0,-0.44 0,-0.88 0,-1.32 0,-0.34 0,-0.68 0,-1.02 0.77,-0.17 1.54,-0.32 2.32,-0.47 0,1.24 0,2.48 0,3.72 0,0.42 0.34,0.76 0.76,0.76 0,0 0.1,0 0.15,0 0.34,-0.1 0.61,-0.39 0.61,-0.75 0,-0.76 0,-1.53 0,-2.29 0,-0.77 0,-1.53 0,-2.3 0,-0.69 0,-1.39 0.1,-2.08 0,-1.6 0.13,-3.28 -0.47,-4.79 -0.1,-0.2 -0.16,-0.35 -0.35,-0.46 -0.12,-0.1 -0.25,-0.1 -0.38,-0.1 z m -6.81,1.58 c 0,0 0,0 0,0 v 0 c -0.71,0.1 -1.41,0.17 -2.12,0.28 -0.54,0.1 -1.08,0.18 -1.63,0.26 -0.69,0.1 -1.4,0.1 -2.1,0 -0.11,0 -0.22,0 -0.33,0.1 0,0 0,0 0,0 -0.4,0 -0.7,0.36 -0.72,0.76 v 0 c 0,1.08 -0.11,2.16 -0.16,3.24 0,0.27 0,0.55 -0.1,0.82 -0.28,0.12 -0.48,0.38 -0.48,0.7 0,0.25 0.14,0.49 0.34,0.63 -0.1,0.33 -0.12,0.66 -0.17,0.98 0,0.29 -0.1,0.59 -0.16,0.88 -0.17,0.73 -0.34,1.46 -0.52,2.19 -0.11,0.49 -0.25,0.98 -0.29,1.48 0,0.23 0,0.49 0.14,0.7 0.12,0.21 0.27,0.36 0.46,0.5 0.38,0.29 0.85,0.37 1.31,0.39 0.26,0 0.51,0 0.77,-0.1 0.23,0 0.46,-0.1 0.69,-0.15 0.22,-0.1 0.43,-0.14 0.64,-0.22 0.27,-0.11 0.54,-0.22 0.81,-0.34 0.94,-0.41 1.84,-0.88 2.76,-1.34 0.37,-0.19 0.47,-0.7 0.27,-1.04 -0.1,-0.17 -0.26,-0.3 -0.45,-0.35 -0.21,-0.1 -0.4,0 -0.59,0.1 -0.89,0.45 -1.77,0.91 -2.68,1.31 -0.3,0.13 -0.6,0.25 -0.91,0.36 -0.3,0.1 -0.62,0.18 -0.93,0.23 -0.18,0 -0.35,0 -0.52,0 -0.1,0 -0.15,0 -0.22,-0.1 0,0 0,0 0,0 0,0 0,-0.1 0,-0.1 0.18,-0.84 0.4,-1.68 0.59,-2.52 0.1,-0.36 0.17,-0.71 0.23,-1.07 0.1,-0.51 0.18,-1.02 0.27,-1.53 0,-0.1 0,-0.17 0,-0.26 0.6,0 1.19,-0.12 1.79,-0.23 0.99,-0.18 1.97,-0.48 2.94,-0.75 0.41,-0.1 0.65,-0.53 0.54,-0.93 -0.1,-0.34 -0.41,-0.56 -0.74,-0.56 -0.1,0 -0.13,0 -0.2,0 -0.61,0.16 -1.22,0.34 -1.83,0.5 -0.6,0.15 -1.21,0.27 -1.82,0.36 -0.18,0 -0.35,0 -0.52,0.1 0,0 0,0 0,-0.1 0,-0.2 0.1,-0.4 0.1,-0.6 0,-0.85 0.1,-1.71 0.13,-2.56 0.39,0 0.79,0 1.18,0 0.61,0 1.21,-0.15 1.81,-0.25 0.4,-0.1 0.81,-0.13 1.22,-0.19 0.4,-0.1 0.8,-0.1 1.2,-0.15 0.1,0 0.13,0 0.2,0 0.13,0 0.24,-0.1 0.34,-0.19 0.14,-0.15 0.22,-0.34 0.22,-0.54 0,-0.2 -0.1,-0.4 -0.22,-0.54 -0.12,-0.12 -0.31,-0.23 -0.49,-0.23 z m 57.62,1.49 c -0.41,0 -0.76,0.34 -0.76,0.76 0,0.41 0.35,0.76 0.76,0.76 0.42,0 0.77,-0.35 0.77,-0.76 0,-0.42 -0.35,-0.76 -0.77,-0.76 z m -68.34,0.11 c -0.1,0 -0.14,0 -0.22,0 -0.618,0.12 -1.237,0.25 -1.863,0.35 -0.99,0.13 -1.981,0.26 -2.975,0.37 -1.062,0.13 -2.123,0.27 -3.184,0.41 -0.07,0 -0.134,0 -0.202,0 -0.129,0 -0.241,0.1 -0.337,0.19 -0.142,0.14 -0.223,0.34 -0.223,0.54 0,0.2 0.08,0.4 0.223,0.54 0.127,0.13 0.351,0.25 0.539,0.22 0.95,-0.12 1.901,-0.24 2.852,-0.36 0.01,0.73 0.05,1.46 0.1,2.2 0.03,0.46 0.06,0.91 0.08,1.37 -0.172,0 -0.343,0.1 -0.515,0.1 -0.572,0.1 -1.148,0.1 -1.722,0 -0.192,0 -0.407,0.1 -0.538,0.22 -0.143,0.14 -0.224,0.34 -0.224,0.54 0,0.2 0.08,0.39 0.224,0.54 0.152,0.15 0.33,0.2 0.538,0.22 0.554,0.1 1.111,0.1 1.664,0 0.221,0 0.441,-0.1 0.661,-0.1 0.08,1.57 0.08,3.15 0.09,4.72 0,0.69 0,1.38 0,2.06 0,0.42 0.346,0.76 0.762,0.76 0.415,0 0.761,-0.34 0.761,-0.76 0,-1.95 0,-3.9 -0.05,-5.86 -0.01,-0.39 -0.03,-0.77 -0.05,-1.16 0.22,0 0.441,-0.1 0.662,-0.11 0.689,-0.1 1.38,-0.13 2.071,-0.19 0.209,0 0.386,-0.1 0.539,-0.22 0.14,-0.15 0.217,-0.34 0.217,-0.54 0,-0.2 -0.1,-0.4 -0.217,-0.54 -0.122,-0.12 -0.317,-0.23 -0.497,-0.23 -0.02,0 -0.03,0 -0.04,0 v 0 c -0.943,0.1 -1.883,0.15 -2.818,0.3 -0.02,-0.33 -0.04,-0.67 -0.07,-1 -0.03,-0.36 -0.05,-0.73 -0.06,-1.1 -0.02,-0.47 -0.03,-0.94 -0.04,-1.42 0.267,0 0.534,-0.1 0.8,-0.1 0.367,0 0.735,-0.1 1.103,-0.15 0.724,-0.1 1.436,-0.25 2.159,-0.39 0.19,0 0.36,-0.19 0.46,-0.35 0.1,-0.17 0.12,-0.39 0.1,-0.58 0,-0.2 -0.18,-0.36 -0.34,-0.46 -0.13,-0.1 -0.24,-0.1 -0.38,-0.1 z m -17.664,2.13 c -0.06,0 -0.12,0 -0.183,0 -0.371,0 -0.71,0.16 -1.018,0.37 -0.31,0.21 -0.553,0.49 -0.739,0.81 -0.176,0.31 -0.225,0.64 -0.269,0.98 -0.05,0.37 0.01,0.76 0.09,1.11 0.04,0.18 0.113,0.35 0.185,0.52 0.08,0.2 0.168,0.38 0.264,0.57 0.171,0.33 0.367,0.64 0.58,0.95 0.198,0.28 0.416,0.54 0.632,0.81 0.153,0.19 0.304,0.38 0.462,0.56 0.192,0.22 0.383,0.45 0.575,0.67 0.498,0.58 1.001,1.16 1.475,1.76 0.416,0.55 0.775,1.15 1.059,1.78 0.171,0.43 0.304,0.88 0.392,1.34 0,0.1 0,0.15 0,0.22 -0.02,0.1 -0.03,0.14 -0.06,0.21 -0.02,0 -0.03,0.1 -0.05,0.1 0,0 -0.02,0 -0.03,0 -0.121,0.1 -0.248,0.15 -0.38,0.21 -0.162,0.1 -0.324,0.12 -0.493,0.16 -0.195,0.1 -0.396,0.1 -0.596,0.11 -0.04,0 -0.07,0 -0.11,0 -0.02,0 -0.04,0 -0.06,0 -0.02,0 -0.04,0 -0.06,0 -0.427,0 -0.857,0.1 -1.287,0.1 -0.346,0 -0.685,0 -1.027,0 -0.06,0 -0.112,0 -0.167,0 -0.06,0 -0.112,-0.1 -0.167,-0.1 -0.187,-0.16 -0.362,-0.33 -0.551,-0.48 -0.163,-0.13 -0.321,-0.22 -0.539,-0.22 -0.201,0 -0.397,0.1 -0.538,0.22 -0.143,0.14 -0.224,0.34 -0.224,0.54 0,0.18 0.07,0.42 0.224,0.54 0.302,0.24 0.577,0.51 0.896,0.74 0.346,0.25 0.767,0.3 1.177,0.34 0.399,0 0.803,0 1.203,0 0.401,0 0.797,-0.1 1.194,-0.11 -0.02,0 -0.04,0 -0.06,0 0.03,0 0.05,0 0.08,0 0.299,0 0.599,-0.1 0.895,-0.14 0.342,-0.1 0.66,-0.21 0.979,-0.34 0.29,-0.13 0.561,-0.31 0.776,-0.54 0.246,-0.26 0.384,-0.62 0.453,-0.97 0.04,-0.19 0.05,-0.37 0.04,-0.56 0,-0.19 -0.05,-0.39 -0.09,-0.57 -0.08,-0.34 -0.172,-0.68 -0.291,-1 -0.262,-0.73 -0.64,-1.4 -1.071,-2.04 -0.357,-0.52 -0.776,-1.01 -1.188,-1.49 -0.18,-0.21 -0.359,-0.42 -0.538,-0.63 -0.503,-0.59 -1.01,-1.17 -1.487,-1.78 -0.342,-0.45 -0.641,-0.94 -0.884,-1.46 -0.07,-0.19 -0.128,-0.37 -0.167,-0.57 -0.02,-0.17 -0.02,-0.34 0,-0.51 0.02,-0.1 0.03,-0.14 0.06,-0.21 0.03,-0.1 0.06,-0.11 0.1,-0.17 0.05,-0.1 0.101,-0.1 0.156,-0.15 0.05,0 0.102,-0.1 0.154,-0.1 0.05,0 0.1,0 0.145,0 0.06,0 0.118,0 0.178,0 0.05,0 0.102,0 0.154,0 0.24,0.12 0.471,0.25 0.7,0.38 0.356,0.22 0.835,0.1 1.043,-0.27 0.211,-0.36 0.08,-0.83 -0.274,-1.04 -0.262,-0.16 -0.529,-0.31 -0.807,-0.44 -0.179,-0.1 -0.35,-0.14 -0.544,-0.17 -0.129,0 -0.248,0 -0.371,0 z m -7.976,1.24 c -0.281,0 -0.504,0.15 -0.657,0.38 -0.19,0.28 -0.245,0.63 -0.326,0.96 -0.05,0.21 -0.1,0.42 -0.148,0.64 -0.08,0.36 -0.162,0.72 -0.233,1.08 -0.161,0.82 -0.324,1.64 -0.468,2.46 -0.15,0.85 -0.294,1.69 -0.427,2.54 -0.131,0.83 -0.264,1.65 -0.404,2.48 -0.09,0.53 -0.177,1.07 -0.278,1.61 -0.131,0.68 -0.263,1.36 -0.393,2.05 -0.234,1.23 -0.448,2.46 -0.647,3.7 -0.03,0.21 -0.04,0.4 0.08,0.59 0.1,0.17 0.265,0.29 0.455,0.35 0.197,0.1 0.411,0 0.587,-0.1 0.155,-0.1 0.321,-0.27 0.35,-0.46 0.29,-1.8 0.627,-3.59 0.97,-5.38 0.05,-0.26 0.09,-0.52 0.142,-0.78 0.09,0 0.182,-0.1 0.271,-0.1 0.592,-0.3 1.182,-0.6 1.772,-0.9 0.17,-0.1 0.339,-0.17 0.509,-0.26 0.06,0.35 0.133,0.7 0.217,1.05 0.142,0.58 0.292,1.16 0.46,1.74 0.08,0.28 0.168,0.56 0.245,0.84 0.05,0.17 0.09,0.34 0.139,0.51 0.103,0.37 0.249,0.74 0.375,1.11 0.07,0.19 0.171,0.35 0.35,0.45 0.176,0.11 0.39,0.14 0.586,0.1 0.383,-0.1 0.667,-0.54 0.533,-0.94 -0.14,-0.41 -0.295,-0.81 -0.409,-1.23 -0.05,-0.19 -0.103,-0.38 -0.159,-0.58 -0.128,-0.43 -0.254,-0.87 -0.378,-1.31 -0.224,-0.79 -0.384,-1.6 -0.544,-2.4 0,0 0,-0.1 -0.01,-0.1 0.244,-0.23 0.297,-0.64 0.126,-0.93 -0.08,-0.13 -0.189,-0.23 -0.315,-0.29 -0.06,-0.38 -0.113,-0.76 -0.17,-1.14 -0.118,-0.79 -0.224,-1.6 -0.349,-2.39 -0.09,-0.61 -0.178,-1.21 -0.293,-1.81 -0.07,-0.36 -0.139,-0.73 -0.209,-1.09 -0.07,-0.36 -0.139,-0.72 -0.235,-1.07 -0.05,-0.2 -0.123,-0.4 -0.194,-0.59 -0.09,-0.23 -0.186,-0.43 -0.377,-0.6 -0.156,-0.13 -0.326,-0.22 -0.539,-0.22 z m -4.579,1.49 c -0.201,0 -0.396,0.1 -0.538,0.22 -0.154,0.16 -0.201,0.33 -0.223,0.54 -0.07,0.68 -0.119,1.36 -0.202,2.03 -0.14,0.95 -0.431,1.87 -0.657,2.8 -0.09,0.38 -0.185,0.75 -0.259,1.13 -0.1,0.5 -0.194,1 -0.292,1.5 -0.07,0.35 -0.101,0.7 -0.151,1.06 -0.06,0.46 -0.131,0.92 -0.196,1.38 -0.06,0.4 -0.08,0.81 -0.114,1.22 -0.04,0.52 -0.09,1.04 -0.13,1.55 0,0 0,0 0,0 -0.02,0 -0.03,-0.1 -0.04,-0.11 -0.178,-0.47 -0.342,-0.94 -0.53,-1.4 -0.321,-0.79 -0.611,-1.6 -1.04,-2.33 -0.199,-0.34 -0.698,-0.51 -1.042,-0.28 -0.212,0.15 -0.364,0.29 -0.45,0.54 -0.06,0.18 -0.06,0.38 -0.07,0.57 0,0.17 -0.03,0.35 -0.05,0.52 -0.03,0.29 -0.05,0.57 -0.09,0.85 -0.07,0.64 -0.149,1.29 -0.23,1.93 -0.09,0.5 -0.157,1.01 -0.261,1.51 -0.02,0.1 -0.03,0.15 -0.05,0.22 -0.02,-0.1 -0.04,-0.13 -0.06,-0.19 -0.231,-0.78 -0.451,-1.57 -0.687,-2.35 -0.232,-0.76 -0.459,-1.53 -0.701,-2.29 -0.26,-0.83 -0.527,-1.65 -0.767,-2.48 -0.172,-0.6 -0.352,-1.19 -0.509,-1.79 -0.23,-0.87 -0.458,-1.74 -0.682,-2.6 -0.103,-0.41 -0.542,-0.65 -0.937,-0.54 -0.405,0.12 -0.636,0.54 -0.533,0.94 0.15,0.58 0.301,1.16 0.454,1.74 0.103,0.39 0.196,0.78 0.308,1.17 0.221,0.76 0.429,1.53 0.668,2.29 0.539,1.7 1.066,3.41 1.565,5.12 0.162,0.56 0.329,1.11 0.491,1.66 0.103,0.36 0.207,0.71 0.308,1.06 0.04,0.16 0.09,0.32 0.13,0.48 0.03,0.1 0.05,0.19 0.08,0.29 0.05,0.21 0.135,0.4 0.234,0.59 0.09,0.17 0.273,0.3 0.455,0.35 0.242,0.1 0.574,0 0.741,-0.19 0.106,-0.13 0.215,-0.26 0.303,-0.4 0.04,-0.1 0.09,-0.19 0.126,-0.29 0.04,-0.12 0.08,-0.23 0.106,-0.35 0.06,-0.22 0.09,-0.45 0.141,-0.68 0.08,-0.39 0.165,-0.79 0.247,-1.18 0.118,-0.57 0.204,-1.14 0.302,-1.71 0.06,-0.38 0.1,-0.76 0.146,-1.14 0.01,-0.1 0.02,-0.16 0.03,-0.23 0.177,0.46 0.355,0.93 0.534,1.4 0.169,0.44 0.345,0.87 0.516,1.31 0.08,0.21 0.165,0.43 0.246,0.64 0.05,0.12 0.09,0.24 0.135,0.36 0.08,0.22 0.154,0.45 0.294,0.65 0.07,0.11 0.158,0.2 0.273,0.27 0.119,0.1 0.247,0.1 0.384,0.1 0.252,0 0.544,-0.14 0.658,-0.37 0.06,-0.13 0.116,-0.26 0.168,-0.4 0,0 0.02,-0.1 0.03,-0.13 0.02,-0.12 0.03,-0.23 0.05,-0.34 0.02,-0.25 0.03,-0.49 0.04,-0.73 0,-0.2 0.02,-0.4 0.03,-0.6 0.02,-0.48 0.05,-0.96 0.07,-1.43 0.02,-0.44 0.07,-0.88 0.11,-1.32 0.03,-0.42 0.07,-0.85 0.107,-1.28 0.1,-0.7 0.199,-1.41 0.299,-2.11 0.03,-0.24 0.08,-0.47 0.132,-0.71 0.08,-0.4 0.156,-0.8 0.234,-1.2 0.07,-0.36 0.17,-0.71 0.254,-1.06 0.08,-0.33 0.171,-0.65 0.259,-0.98 0.1,-0.35 0.184,-0.71 0.258,-1.07 0.2,-0.99 0.251,-2.01 0.352,-3.01 0.02,-0.19 -0.09,-0.41 -0.223,-0.54 -0.142,-0.14 -0.337,-0.22 -0.539,-0.22 z m 4.625,2.28 c 0.05,0.24 0.09,0.49 0.13,0.73 0.147,0.93 0.286,1.86 0.42,2.8 0.1,0.67 0.198,1.34 0.301,2.01 -0.66,0.34 -1.321,0.68 -1.983,1.01 0.131,-0.8 0.257,-1.61 0.383,-2.41 0.163,-1.04 0.344,-2.09 0.548,-3.12 0.07,-0.34 0.133,-0.68 0.201,-1.02 z" />
      <g id="gMissingIcon">
        <path inkscape:connector-curvature="0" id="pMissingIconStroke" style="opacity:0.983902;fill:#000000;fill-opacity:1;fill-rule:nonzero;stroke:none;stroke-width:0.352777" d="m 55.22,380.68 c -1.661,0.85 -3.083,2.24 -4.769,3.13 -1.312,0.1 -1.692,2.31 -0.08,1.82 1.909,-1.11 3.758,-2.33 5.466,-3.72 0.404,-0.48 0,-1.26 -0.613,-1.23 z m -27.305,2.3 c -1.849,0.72 0.455,2.14 1.208,2.84 1.262,1.02 2.652,1.87 3.953,2.83 2.025,-0.1 0.349,-1.98 -0.674,-2.34 -1.66,-0.89 -2.894,-2.45 -4.487,-3.33 z m 27.847,9.6 c -1.753,0.29 -3.663,-0.1 -5.332,0.47 -0.758,2.04 2.44,1.06 3.564,1.18 0.984,0.15 3.465,-0.28 2.041,-1.59 l -0.273,-0.1 z m -22.843,4.75 c -1.598,0.56 -3.178,1.32 -4.631,2.19 -0.558,2 1.941,0.83 2.771,0.25 0.597,-0.52 4.242,-1.14 1.86,-2.44 z m 18.786,7.22 c -1.846,0.76 0.544,2.5 1.428,3.11 1.284,0.87 2.584,1.75 3.967,2.43 1.96,-0.44 -0.1,-2.05 -1.073,-2.36 -1.477,-0.86 -2.902,-1.84 -4.029,-3.12 z m -16.816,1.32 c -1.653,0.7 -2.485,2.53 -3.648,3.83 -1.363,0.96 0.699,2.49 1.236,0.87 0.959,-1.19 1.592,-2.23 2.729,-3.22 0.711,-0.36 0.516,-1.48 -0.317,-1.48 z" />
        <path inkscape:connector-curvature="0" id="pMissingIconBG" style="fill:#fdd757;fill-opacity:1;fill-rule:nonzero;stroke:none;stroke-width:0.352777" d="m 54.678,380.89 c -1.378,0.36 -2.106,1.86 -3.348,2.54 -0.955,0.74 -2.84,2.25 -1.092,3.25 1.636,0.32 2.467,-1.71 3.801,-2.35 0.935,-0.75 2.839,-2.36 1.095,-3.35 l -0.223,-0.1 z m -26.295,2.8 c -2.024,0.21 -1.042,2.64 0.433,2.95 1.546,0.52 3.151,2.9 4.814,1.75 1.153,-1.97 -2.022,-2.54 -3.12,-3.51 -0.744,-0.32 -1.301,-1.1 -2.127,-1.19 z m 24.455,9.63 c -1.286,-0.26 -3.557,0.55 -2.329,2.12 1.207,0.7 2.773,0 4.135,0.31 1.984,1.01 2.958,-2.45 0.624,-2.32 -0.805,-0.11 -1.621,-0.1 -2.43,-0.11 z m -20.716,4.69 c -1.418,0.42 -2.67,1.4 -3.789,2.36 -0.935,1.75 1.689,2.47 2.53,1 0.963,-0.73 3.342,-1.46 2.098,-3.02 -0.222,-0.22 -0.53,-0.34 -0.839,-0.34 z m 19.798,6.83 c -1.821,0.16 -1.183,2.34 0.107,2.82 1.388,1.1 2.6,2.56 4.289,3.18 2.073,0 1.339,-2.61 -0.261,-2.86 -1.338,-0.98 -2.432,-2.34 -3.898,-3.12 z m -17.186,2.1 c -1.5,0.51 -2.386,2.22 -3.272,3.48 -1.381,1.68 1.751,3.08 2.141,1.03 0.476,-1.45 3.18,-2.48 1.995,-4.16 -0.226,-0.23 -0.547,-0.35 -0.864,-0.35 z" />
      </g>
      <g id="gMissingBox">
        <path inkscape:connector-curvature="0" id="pMissingShadow" style="fill:#a3a3a3;fill-opacity:1;fill-rule:nonzero;stroke:none;stroke-width:0.352778" d="m 177.87,348.13 c -0.6,5.6 0.16,11.84 0.47,17.64 1.76,13.77 1.07,27.73 2.54,41.52 0,9.48 1.51,18.86 2.44,28.25 1.1,4.98 -0.32,8.66 -6,7.48 -10.67,0.6 -21.4,0.9 -31.84,3.46 -12.11,2.17 -24.69,1.74 -36.48,5.64 -12.063,2.08 -23.591,6.49 -35.791,7.84 -7.718,0.97 -15.174,3.03 -22.589,5.28 -3.83,-1.52 -7.327,4.23 -1.858,3.64 7.417,-1.2 14.381,-4.4 21.924,-5.13 4.334,-0.87 12.33,-1.61 17.969,-3.34 9.996,-2.91 20.285,-4.72 30.335,-7.43 8.31,-0.95 16.5,-1.83 24.7,-2.85 3.91,-0.55 11.49,-2.37 16.92,-2.84 7.96,-0.61 16.05,-0.36 23.9,-1.9 4.65,-5.07 1.1,-13.68 1.04,-20.04 -1.44,-9.51 -1.11,-19.16 -2.12,-28.71 -0.5,-11.64 -0.61,-23.32 -2.12,-34.88 -1.13,-4.2 2.01,-12.61 -2.9,-13.99 l -0.54,0.36 m 5.64,94.05 -0.1,0.1 z m -0.15,0.1 c 0,0 -0.11,0.1 0,0" />
        <path inkscape:connector-curvature="0" id="pMissingBorder" style="opacity:0.983902;fill:#000000;fill-opacity:1;fill-rule:nonzero;stroke:none;stroke-width:0.352777" d="m 177.07,344.9 c -3.81,1.83 2,5.01 -0.91,8.45 -0.61,8.76 0.56,17.55 0.48,26.33 1.06,12.24 1.55,24.53 2.37,36.79 0.64,8 2.65,15.92 2.3,23.99 -19.09,0.1 -38.07,2.66 -56.74,6.52 -19.95,3.06 -39.366,8.81 -59.319,11.92 -6.854,0.2 -16.91,6.14 -21.645,2.74 -0.129,-18.02 -0.09,-36.05 -0.339,-54.07 -6.347,4.83 -1.829,14.34 -3.161,21.39 0,11.75 0.138,23.5 0.234,35.23 4.096,4.96 12.02,0.18 17.383,-0.31 17.054,-3.48 34.222,-6.44 51.117,-10.68 14.32,-2.53 28.58,-5.54 42.99,-7.52 9.99,-0.91 19.98,-2.04 30.02,-1.92 6.06,-3.07 1.3,-12.6 1.63,-18.16 -2.25,-14.7 -1.85,-29.64 -3.43,-44.41 -0.15,-8.89 -0.79,-17.78 -0.73,-26.66 0.34,-3.36 3.25,-8.97 -2.25,-9.63 z M 56.462,367.29 c -5.397,2.07 -12.057,0.96 -16.934,3.99 -0.736,3.31 -1.224,12.18 1.159,12.09 5.064,-2.32 -2.271,-12.46 6.569,-10.93 3.056,-1.34 10.317,0.4 10.825,-3.93 -0.191,-0.71 -0.885,-1.23 -1.619,-1.22 z" />
      </g>
    </g>
  </g>
</svg>
