<?xml version="1.0" encoding="UTF-8" standalone="no"?>
<svg xmlns:dc="http://purl.org/dc/elements/1.1/" xmlns:cc="http://creativecommons.org/ns#" xmlns:rdf="http://www.w3.org/1999/02/22-rdf-syntax-ns#" xmlns:svg="http://www.w3.org/2000/svg" xmlns="http://www.w3.org/2000/svg" xmlns:sodipodi="http://sodipodi.sourceforge.net/DTD/sodipodi-0.dtd" xmlns:inkscape="http://www.inkscape.org/namespaces/inkscape" id="svg78" version="1.1" viewBox="0 0 151.69 131.52" height="497.1" width="573.3" sodipodi:docname="people.svg" inkscape:version="1.0rc1 (09960d6f05, 2020-04-09)">
  <sodipodi:namedview inkscape:document-rotation="0" pagecolor="#ffffff" bordercolor="#666666" borderopacity="1" objecttolerance="10" gridtolerance="10" guidetolerance="10" inkscape:pageopacity="0" inkscape:pageshadow="2" inkscape:window-width="640" inkscape:window-height="480" id="namedview14" showgrid="false" units="px" inkscape:zoom="0.73674" inkscape:cx="396.85" inkscape:cy="289.79" inkscape:current-layer="svg78" />
  <defs id="defs72" />
  <metadata id="metadata75">
    <rdf:RDF>
      <cc:Work rdf:about="">
        <dc:format>image/svg+xml</dc:format>
        <dc:type rdf:resource="http://purl.org/dc/dcmitype/StillImage" />
        <dc:title></dc:title>
      </cc:Work>
    </rdf:RDF>
  </metadata>
  <g id="layer1">
    <g id="gPeople" transform="matrix(0.99116,0.1326,-0.1326,0.99116,28.123,-470.74)">
      <path d="m 159.83,462.8 c -0.28,0 -0.56,0.1 -0.84,0.1 v 0 c -0.49,0.1 -0.96,0.24 -1.43,0.42 -0.12,0 -0.24,0.1 -0.36,0.15 0,0 0,0 0,0 -0.12,-0.1 -0.27,-0.13 -0.42,-0.13 -0.41,0 -0.73,0.33 -0.76,0.72 0,0 0,0 0,0 -0.22,0.12 -0.44,0.24 -0.67,0.36 -0.2,0.1 -0.32,0.31 -0.36,0.52 0,0 0,0 -0.1,0 0,0 -0.1,0 -0.15,0 0,0 0,0 0,0 -1.12,0 -2.24,0.1 -3.36,0.11 -0.89,0 -1.79,0 -2.68,0 -0.41,0 -0.76,0.34 -0.76,0.76 0,0.34 0.23,0.62 0.54,0.72 -0.17,0.45 -0.34,0.9 -0.51,1.34 -0.12,0.31 -0.24,0.62 -0.34,0.93 -0.25,0.71 -0.49,1.42 -0.72,2.14 -0.1,0.29 -0.16,0.59 -0.22,0.88 -0.11,0.45 0,0.94 0.2,1.32 0.26,0.4 0.69,0.66 1.12,0.82 0.48,0.17 1,0.24 1.51,0.24 0.5,0 1,-0.1 1.48,-0.22 0.5,-0.13 0.97,-0.33 1.44,-0.54 0.39,-0.17 0.76,-0.37 1.1,-0.62 0.4,-0.3 0.76,-0.64 1.14,-0.96 0.15,-0.12 0.22,-0.35 0.22,-0.54 0,-0.2 -0.1,-0.39 -0.22,-0.53 -0.14,-0.15 -0.34,-0.23 -0.54,-0.23 -0.21,0 -0.38,0.1 -0.54,0.23 -0.29,0.24 -0.58,0.51 -0.88,0.75 -0.4,0.28 -0.83,0.5 -1.28,0.69 -0.47,0.19 -0.96,0.33 -1.46,0.42 -0.31,0 -0.62,0 -0.94,0 -0.19,0 -0.38,-0.1 -0.57,-0.14 -0.1,0 -0.15,-0.1 -0.22,-0.12 0,0 -0.1,-0.1 -0.1,-0.1 0,0 0,0 0,0 0,0 0,0 0,-0.1 0.1,-0.52 0.27,-1.02 0.43,-1.52 0.15,0.1 0.3,0.1 0.46,0 0.65,-0.12 1.29,-0.24 1.93,-0.39 0.39,-0.1 0.77,-0.18 1.16,-0.27 0.79,-0.18 1.57,-0.41 2.35,-0.61 0.4,-0.1 0.64,-0.54 0.54,-0.94 -0.1,-0.34 -0.41,-0.55 -0.75,-0.55 -0.1,0 -0.13,0 -0.19,0 -0.78,0.2 -1.55,0.43 -2.33,0.61 -0.38,0.1 -0.75,0.17 -1.13,0.26 -0.5,0.11 -1.01,0.21 -1.51,0.31 0.11,-0.32 0.23,-0.65 0.35,-0.97 0.16,-0.43 0.32,-0.86 0.49,-1.28 0,-0.11 0,-0.23 0,-0.35 0.44,0 0.89,0 1.33,0 1.15,0 2.29,-0.1 3.44,-0.12 0.37,0 0.68,-0.27 0.75,-0.63 0.15,0 0.31,0 0.46,0 0,0.22 0,0.44 0,0.66 0,0.57 0,1.15 0,1.72 0,0.2 0,0.4 0,0.6 0,0.34 0,0.69 0,1.04 0,0.27 0.1,0.55 0.1,0.82 0.1,0.61 0.12,1.21 0.19,1.82 0,0.21 0.1,0.39 0.22,0.54 0.14,0.14 0.34,0.22 0.54,0.22 0.1,0 0.1,0 0.15,0 0.14,0 0.28,-0.1 0.39,-0.21 0,0 0.1,-0.1 0.1,-0.11 0.1,-0.13 0.15,-0.29 0.13,-0.43 -0.1,-0.58 -0.13,-1.17 -0.18,-1.76 0,-0.28 -0.1,-0.57 -0.1,-0.85 0,-0.21 0,-0.42 0,-0.63 0,0 0,0 0,0 0.1,0.1 0.11,0.16 0.17,0.23 0.18,0.22 0.42,0.38 0.66,0.53 0.74,0.44 1.52,0.82 2.29,1.21 0.81,0.41 1.62,0.83 2.42,1.25 0.37,0.19 0.83,0.1 1.05,-0.27 0.2,-0.35 0.1,-0.85 -0.28,-1.05 -0.83,-0.43 -1.65,-0.86 -2.48,-1.28 -0.29,-0.15 -0.58,-0.29 -0.86,-0.44 -0.28,-0.14 -0.56,-0.28 -0.84,-0.43 -0.16,-0.1 -0.33,-0.18 -0.5,-0.28 0.1,-0.1 0.13,-0.12 0.19,-0.18 0.16,-0.14 0.32,-0.29 0.47,-0.44 0.47,-0.44 0.89,-0.93 1.27,-1.44 0.18,-0.25 0.33,-0.53 0.45,-0.81 0.15,-0.32 0.24,-0.65 0.27,-1 0,-0.34 0,-0.69 -0.16,-1 -0.1,-0.13 -0.15,-0.25 -0.25,-0.37 -0.12,-0.14 -0.27,-0.26 -0.44,-0.36 -0.29,-0.19 -0.66,-0.24 -1,-0.26 -0.1,0 -0.1,0 -0.14,0 z m 0,1.53 c 0.1,0 0.16,0 0.24,0 0.1,0 0.11,0 0.15,0 0,0 0,0 0.1,0 0,0 0,0 0,0 0,0 0,0 0,0 0,0 0,0 0,0 0,0.1 0,0.14 0,0.21 0,0.13 -0.1,0.27 -0.11,0.4 -0.15,0.29 -0.32,0.57 -0.51,0.84 -0.45,0.55 -0.95,1.04 -1.47,1.52 -0.11,0.1 -0.22,0.2 -0.32,0.29 -0.1,0.1 -0.15,0.14 -0.21,0.21 -0.1,0.1 -0.12,0.15 -0.18,0.22 0,0 0,0.1 0,0.1 0,0 0,-0.1 0,-0.1 0,-0.57 0,-1.15 0,-1.72 0,-0.49 0,-0.98 0,-1.47 0.11,-0.1 0.23,-0.1 0.34,-0.15 0.55,-0.22 1.12,-0.4 1.7,-0.49 0.1,0 0.16,0 0.25,0 z m -14.36,0.93 c -0.13,0 -0.26,0 -0.38,0.11 -0.18,0.1 -0.29,0.26 -0.35,0.45 -0.1,0.3 -0.22,0.59 -0.31,0.89 -0.12,0.36 -0.16,0.73 -0.21,1.1 0,-0.1 0,-0.13 0,-0.2 -0.1,0.5 -0.15,0.99 -0.2,1.49 0,0.46 -0.1,0.92 -0.13,1.38 -0.1,0.88 -0.16,1.76 -0.26,2.64 -0.14,-0.37 -0.27,-0.74 -0.41,-1.11 -0.17,-0.46 -0.34,-0.91 -0.52,-1.37 -0.1,-0.26 -0.19,-0.52 -0.28,-0.78 -0.1,-0.15 -0.11,-0.3 -0.16,-0.45 -0.11,-0.34 -0.24,-0.66 -0.42,-0.96 -0.14,-0.23 -0.39,-0.38 -0.66,-0.38 -0.25,0 -0.54,0.14 -0.66,0.38 0,0.1 -0.1,0.19 -0.13,0.29 0,0.14 0,0.27 0,0.41 0,0.1 0,0.18 0,0.27 0,0.16 0,0.33 0,0.49 0,0.38 -0.1,0.75 -0.1,1.12 -0.1,0.65 -0.1,1.31 -0.12,1.97 0,0.72 0,1.43 -0.1,2.15 0,0.34 0,0.68 0,1.01 0,0.4 -0.1,0.81 -0.13,1.21 0,0.1 0,0.1 0,0.15 0,0.1 0,0.14 0,0.2 0,0.14 0,0.27 0.11,0.39 0.1,0.17 0.26,0.3 0.45,0.35 0.2,0.1 0.41,0 0.59,-0.1 0.15,-0.1 0.32,-0.27 0.35,-0.45 0.1,-0.53 0.13,-1.05 0.19,-1.58 0,-0.3 0,-0.6 0.1,-0.91 0,-0.75 0.1,-1.51 0.1,-2.27 0,-0.35 0,-0.7 0,-1.06 0.1,0.22 0.16,0.43 0.24,0.65 0.17,0.45 0.33,0.91 0.48,1.37 0.1,0.23 0.15,0.46 0.24,0.69 0,0.15 0.1,0.3 0.16,0.45 0.1,0.14 0.1,0.28 0.16,0.41 0.1,0.17 0.2,0.3 0.34,0.43 0.15,0.14 0.33,0.22 0.54,0.22 0.19,0 0.4,-0.1 0.54,-0.22 0.1,-0.1 0.11,-0.13 0.17,-0.2 0.1,-0.1 0.11,-0.13 0.16,-0.21 0,-0.1 0.1,-0.19 0.12,-0.29 0,-0.1 0.1,-0.15 0.1,-0.23 0,-0.16 0.1,-0.32 0.1,-0.48 0,-0.2 0.1,-0.39 0.1,-0.58 0.1,-0.44 0.11,-0.88 0.15,-1.32 0.1,-0.55 0.12,-1.1 0.17,-1.64 0.1,-0.57 0.11,-1.14 0.17,-1.71 0,-0.49 0.11,-0.97 0.17,-1.45 0,-0.1 0,-0.1 0,-0.13 0,-0.25 0.1,-0.5 0.17,-0.75 0.1,-0.3 0.21,-0.6 0.31,-0.9 0.13,-0.39 -0.15,-0.83 -0.53,-0.93 -0.1,0 -0.14,0 -0.21,0 z m -6.84,1.8 c -0.1,0 -0.14,0 -0.22,0 -1.06,0.17 -2.12,0.35 -3.19,0.52 -1.02,0.17 -2.01,0.48 -2.99,0.82 -0.19,0.1 -0.35,0.17 -0.46,0.35 0,0.1 -0.1,0.18 -0.1,0.28 0,0.1 0,0.1 0,0.16 0,0.1 0,0.1 0,0.15 0.1,0.38 0.54,0.66 0.93,0.53 0.4,-0.14 0.8,-0.27 1.21,-0.39 0,0.3 0,0.59 0,0.89 0,0.31 0,0.63 0,0.94 0.1,0.71 0.11,1.41 0.19,2.11 0.2,1.7 0.43,3.39 0.69,5.08 0,0.1 0.1,0.19 0.13,0.26 0,0 0.1,0.1 0.11,0.11 0,0 0.1,0.1 0.11,0.1 0.18,0.1 0.39,0.13 0.59,0.1 0.19,-0.1 0.35,-0.18 0.45,-0.35 0,-0.1 0.1,-0.12 0.1,-0.18 0,0 0,-0.1 0,-0.1 0,-0.1 0,-0.2 0,-0.3 -0.1,-0.6 -0.18,-1.19 -0.27,-1.79 -0.15,-1.14 -0.29,-2.27 -0.42,-3.41 0,-0.26 -0.1,-0.53 -0.1,-0.79 0,-0.29 -0.1,-0.58 -0.1,-0.87 0,-0.71 0,-1.42 0,-2.13 0.1,0 0.19,0 0.28,-0.1 1.06,-0.17 2.12,-0.35 3.19,-0.52 0.18,0 0.36,-0.2 0.45,-0.35 0.11,-0.18 0.13,-0.4 0.1,-0.59 -0.1,-0.19 -0.18,-0.36 -0.35,-0.46 -0.12,-0.1 -0.24,-0.1 -0.37,-0.1 z m -10.04,2.12 c -0.15,0 -0.3,0 -0.44,0 -0.17,0 -0.32,0.1 -0.48,0.13 -0.4,0.15 -0.73,0.37 -1.06,0.64 0,0 0,0 0,0 -0.1,0 -0.2,-0.1 -0.32,-0.1 -0.15,0 -0.29,0 -0.42,0.12 0,0 -0.1,0.1 -0.11,0.1 v 0 c -0.13,0.13 -0.25,0.35 -0.23,0.54 0,0.28 0.1,0.57 0.1,0.85 0,0.14 -0.1,0.28 -0.1,0.41 0,0.2 -0.1,0.4 -0.1,0.6 0,0.25 0,0.5 0.1,0.75 0.1,0.38 0.24,0.74 0.38,1.09 0,0.1 0,0.1 0.1,0.14 0,0 0,0 0,0 0,0.18 0,0.37 0.1,0.55 0.21,1.51 0.48,3.01 0.68,4.52 0,-0.1 0,-0.13 0,-0.2 0,0.41 0.11,0.82 0.16,1.23 0,0.19 0.2,0.37 0.35,0.46 0.18,0.1 0.39,0.13 0.59,0.1 0.19,-0.1 0.35,-0.18 0.45,-0.35 0,-0.1 0.1,-0.13 0.1,-0.19 0,0 0,-0.1 0,-0.1 0,-0.1 0,-0.2 0,-0.3 0,0 0,0 0,0 0,0 0,0 0,0 0,0 0,0 0,0 0,0 0,0 0,0 0,0 0,0 0,0 -0.15,-1.1 -0.31,-2.2 -0.49,-3.3 0.32,0.2 0.63,0.39 0.94,0.58 0.38,0.23 0.75,0.45 1.12,0.68 0.45,0.27 0.92,0.51 1.4,0.72 0.53,0.23 1.07,0.44 1.61,0.66 0.18,0.1 0.43,0 0.58,-0.1 0.18,-0.1 0.3,-0.27 0.35,-0.46 0.1,-0.19 0,-0.41 -0.1,-0.58 0,-0.1 -0.1,-0.11 -0.12,-0.16 -0.1,-0.1 -0.21,-0.16 -0.34,-0.19 -0.39,-0.16 -0.78,-0.32 -1.17,-0.48 -0.87,-0.38 -1.67,-0.87 -2.48,-1.36 -0.2,-0.12 -0.39,-0.24 -0.58,-0.35 -0.28,-0.18 -0.58,-0.35 -0.86,-0.53 0.39,-0.31 0.77,-0.62 1.15,-0.94 0.51,-0.43 1.01,-0.93 1.35,-1.51 0.21,-0.37 0.33,-0.79 0.34,-1.22 0,-0.18 0,-0.38 -0.1,-0.55 -0.1,-0.24 -0.17,-0.47 -0.28,-0.69 -0.1,-0.16 -0.22,-0.33 -0.34,-0.47 -0.13,-0.15 -0.26,-0.27 -0.42,-0.38 -0.17,-0.12 -0.34,-0.21 -0.53,-0.29 -0.1,0 -0.17,-0.1 -0.25,-0.1 -0.14,-0.1 -0.29,-0.1 -0.44,-0.1 0,0 -0.1,0 -0.12,0 z m -6.07,0.43 c -0.1,0 -0.18,0 -0.26,0 -0.29,0.1 -0.48,0.31 -0.61,0.57 -0.15,0.31 -0.24,0.65 -0.35,0.98 -0.24,0.76 -0.4,1.53 -0.57,2.31 -0.1,0.42 -0.16,0.84 -0.24,1.26 -0.1,0.35 -0.12,0.7 -0.17,1.05 -0.29,1.7 -0.58,3.4 -0.65,5.12 0,0.41 0.36,0.76 0.76,0.76 0,0 0.11,0 0.16,0 0.34,-0.1 0.59,-0.38 0.6,-0.74 0,-0.24 0,-0.48 0,-0.72 0,-0.17 0,-0.35 0,-0.52 0,-0.39 0.1,-0.77 0.14,-1.15 0,-0.16 0,-0.31 0.1,-0.46 0.13,0 0.27,0 0.41,0 0.43,-0.12 0.86,-0.23 1.29,-0.33 0.14,0 0.28,-0.1 0.42,-0.1 0.1,0.28 0.11,0.56 0.17,0.83 0.1,0.23 0.1,0.45 0.15,0.67 0.14,0.54 0.39,1.04 0.61,1.56 0.1,0.17 0.29,0.3 0.46,0.35 0.2,0.1 0.41,0 0.59,-0.1 0.17,-0.1 0.29,-0.27 0.35,-0.46 0,-0.1 0,-0.13 0,-0.2 0,-0.14 0,-0.26 -0.1,-0.38 -0.1,-0.2 -0.18,-0.39 -0.26,-0.59 -0.2,-0.5 -0.31,-1.04 -0.42,-1.57 0,-0.15 -0.1,-0.3 -0.1,-0.46 0.11,0 0.21,0 0.31,-0.1 0.41,-0.1 0.64,-0.56 0.54,-0.94 -0.1,-0.19 -0.18,-0.36 -0.35,-0.46 -0.13,-0.1 -0.25,-0.1 -0.38,-0.1 -0.1,0 -0.14,0 -0.21,0 -0.1,0 -0.14,0 -0.21,0 0,-0.17 -0.1,-0.34 -0.1,-0.52 -0.1,-0.39 -0.17,-0.78 -0.26,-1.18 -0.1,-0.39 -0.17,-0.79 -0.26,-1.19 -0.1,-0.42 -0.19,-0.84 -0.31,-1.26 -0.1,-0.24 -0.13,-0.48 -0.2,-0.72 0,-0.11 -0.1,-0.22 -0.1,-0.34 -0.1,-0.28 -0.2,-0.56 -0.41,-0.78 -0.16,-0.16 -0.4,-0.24 -0.63,-0.24 z m 6.19,1.1 v 0 c 0.1,0 0.1,0 0.16,0.1 0.1,0 0.14,0.1 0.2,0.12 0.1,0.1 0.12,0.11 0.17,0.17 0.1,0.11 0.14,0.22 0.2,0.34 0,0.11 0.1,0.21 0.1,0.31 0,0 0,0.1 0,0.1 0,0.1 -0.1,0.18 -0.1,0.27 -0.1,0.13 -0.14,0.25 -0.22,0.38 -0.28,0.33 -0.59,0.63 -0.92,0.92 -0.16,0.14 -0.32,0.27 -0.48,0.4 -0.14,0.12 -0.28,0.23 -0.42,0.34 -0.1,-0.77 -0.19,-1.54 -0.28,-2.31 0.1,-0.14 0.16,-0.28 0.25,-0.41 0.1,-0.11 0.2,-0.22 0.32,-0.31 0.14,-0.1 0.29,-0.19 0.45,-0.26 0.1,0 0.19,-0.1 0.3,-0.1 0.1,0 0.17,0 0.26,0 z m -12.77,0.62 c -0.14,0 -0.28,0 -0.42,0 -0.14,0 -0.27,0 -0.41,0.1 v 0 c -0.29,0 -0.58,0.13 -0.86,0.24 -0.31,0.12 -0.58,0.27 -0.85,0.48 -0.27,0.2 -0.52,0.42 -0.77,0.65 -0.3,0.28 -0.29,0.79 0,1.07 0.1,0.1 0.2,0.15 0.31,0.19 0,0.5 0,1 0,1.5 0,0.59 0,1.18 0,1.77 0,0.67 0.1,1.35 0.14,2.02 0,0.33 0,0.65 0.1,0.98 0.1,0.64 0.16,1.28 0.25,1.92 0,0.19 0.2,0.37 0.35,0.46 0.18,0.1 0.39,0.13 0.59,0.1 0.19,-0.1 0.36,-0.18 0.46,-0.35 0,-0.1 0.1,-0.12 0.1,-0.18 0,0 0,-0.1 0,-0.1 0,-0.1 0,-0.2 0,-0.3 0,-0.3 -0.1,-0.59 -0.13,-0.88 -0.1,-0.57 -0.11,-1.15 -0.15,-1.72 0,-0.12 0,-0.23 0,-0.34 0,0 0.1,0 0.1,-0.1 0.51,-0.25 1.03,-0.47 1.51,-0.78 0.29,-0.17 0.55,-0.39 0.81,-0.61 0.23,-0.2 0.46,-0.42 0.68,-0.64 0.23,-0.24 0.43,-0.5 0.62,-0.76 0.18,-0.24 0.33,-0.49 0.45,-0.76 0.27,-0.6 0.36,-1.26 0.16,-1.89 -0.16,-0.54 -0.51,-1.02 -0.94,-1.36 -0.26,-0.21 -0.54,-0.38 -0.86,-0.49 -0.32,-0.12 -0.64,-0.17 -0.98,-0.21 -0.1,0 -0.15,0 -0.23,0 z m 6.57,1.19 c 0.1,0.26 0.11,0.53 0.18,0.79 0.15,0.63 0.27,1.26 0.41,1.89 0.1,0.32 0.14,0.65 0.2,0.97 -0.17,0 -0.34,0.1 -0.52,0.12 -0.35,0.1 -0.7,0.18 -1.05,0.27 0.1,-0.57 0.19,-1.14 0.29,-1.7 0.1,-0.32 0.11,-0.64 0.18,-0.95 0.1,-0.38 0.16,-0.76 0.25,-1.14 0,-0.1 0,-0.17 0.1,-0.25 z m -6.63,0.34 c 0.11,0 0.21,0 0.32,0 0.16,0 0.32,0.1 0.48,0.12 0.12,0.1 0.23,0.13 0.34,0.2 0.1,0.1 0.18,0.16 0.26,0.26 0.1,0.1 0.13,0.21 0.19,0.32 0,0.1 0,0.14 0.1,0.22 0,0.1 0,0.17 0,0.26 0,0.13 -0.1,0.25 -0.1,0.37 -0.12,0.25 -0.28,0.48 -0.44,0.71 -0.37,0.46 -0.81,0.87 -1.26,1.23 -0.27,0.2 -0.54,0.36 -0.83,0.51 -0.13,0.1 -0.26,0.13 -0.39,0.19 0,0 0,-0.1 0,-0.12 0,-0.55 0,-1.11 0,-1.66 0,-0.72 0,-1.44 0,-2.17 0,0 0,-0.1 0,-0.1 0.1,-0.1 0.17,-0.1 0.26,-0.14 0.27,-0.1 0.55,-0.17 0.83,-0.21 0.11,0 0.21,0 0.32,0 z m -6.21,0.31 c -0.42,0 -0.76,0.35 -0.76,0.76 0,0.66 0,1.31 0,1.97 0,0.33 0,0.66 0,0.99 0,0.22 0,0.44 0,0.67 -0.1,0 -0.21,0 -0.31,0.1 -0.31,0.1 -0.62,0.1 -0.93,0.15 -0.43,0.1 -0.86,0.15 -1.29,0.24 0,-0.15 0,-0.29 0,-0.43 0,-0.32 0,-0.64 0,-0.97 0,-0.3 0,-0.61 0.1,-0.91 0,-0.49 0.1,-0.99 0.15,-1.48 0,-0.19 -0.1,-0.41 -0.22,-0.54 -0.15,-0.15 -0.34,-0.23 -0.54,-0.23 -0.2,0 -0.4,0.1 -0.54,0.23 0,0.1 -0.1,0.1 -0.12,0.15 -0.1,0.12 -0.1,0.25 -0.11,0.39 0,0.49 -0.1,0.99 -0.15,1.48 0,0.33 0,0.66 -0.1,0.99 0,0.66 0,1.33 0,2 0,0.71 0,1.41 0,2.12 0,0.34 0,0.68 0,1.02 0,0.22 0,0.43 0,0.65 0,0.5 0.11,0.99 0.2,1.48 0,0.18 0.2,0.36 0.35,0.45 0.18,0.11 0.39,0.13 0.59,0.1 0.19,-0.1 0.36,-0.18 0.46,-0.35 0.11,-0.19 0.11,-0.38 0.1,-0.59 0,-0.23 -0.1,-0.47 -0.13,-0.7 0,-0.23 0,-0.45 0,-0.68 0,-0.16 0,-0.32 0,-0.48 0,-0.31 0,-0.62 0,-0.94 0,-0.4 0,-0.8 0,-1.19 0,0 0,0 0.1,0 0.53,-0.11 1.07,-0.22 1.61,-0.3 0.25,0 0.5,-0.1 0.76,-0.12 0,0.24 0,0.48 0,0.72 0,0.82 0,1.64 -0.1,2.46 0,0.42 0.35,0.77 0.77,0.77 0,0 0.1,0 0.15,0 0.34,-0.1 0.6,-0.38 0.61,-0.75 0,-0.82 0,-1.64 0.1,-2.46 0,-0.32 0,-0.63 0.1,-0.94 0,0 0,0 0,-0.1 0,0 0,0 0,0 0.21,0 0.42,-0.1 0.62,-0.13 0.19,0 0.36,-0.19 0.46,-0.35 0.1,-0.17 0.13,-0.39 0.1,-0.58 0,-0.19 -0.18,-0.36 -0.35,-0.46 -0.12,-0.1 -0.24,-0.1 -0.37,-0.1 -0.1,0 -0.14,0 -0.21,0 0,0 -0.1,0 -0.1,0 0,-0.12 0,-0.25 0,-0.37 0,-0.33 0,-0.66 0,-1 0,-0.65 0,-1.3 0,-1.96 0,-0.41 -0.35,-0.76 -0.76,-0.76 z m -9.26,0.94 c -0.33,0 -0.646,0.1 -0.952,0.22 v 0 c -0.415,0.19 -0.764,0.49 -1.075,0.82 -0.278,0.29 -0.506,0.64 -0.715,0.98 -0.24,0.4 -0.425,0.83 -0.588,1.26 -0.144,0.39 -0.239,0.79 -0.325,1.19 -0.1,0.46 -0.161,0.93 -0.215,1.4 -0.04,0.38 -0.07,0.78 -0.04,1.16 0.03,0.47 0.18,0.93 0.435,1.33 0.487,0.75 1.308,1.21 2.136,1.48 0.166,0.1 0.339,0.1 0.51,0.11 0.234,0 0.459,0.1 0.699,0.1 0.48,0 0.96,-0.22 1.36,-0.47 0.71,-0.44 1.18,-1.13 1.71,-1.76 0.13,-0.16 0.22,-0.32 0.22,-0.54 0,-0.2 -0.1,-0.39 -0.22,-0.54 -0.15,-0.14 -0.34,-0.22 -0.54,-0.22 -0.19,0 -0.42,0.1 -0.54,0.22 -0.22,0.27 -0.43,0.54 -0.65,0.8 -0.19,0.24 -0.4,0.45 -0.62,0.64 -0.13,0.1 -0.26,0.17 -0.4,0.24 -0.13,0 -0.26,0.1 -0.4,0.11 -0.1,0 -0.19,0 -0.294,0 -0.243,0 -0.474,-0.11 -0.705,-0.2 -0.22,-0.1 -0.426,-0.22 -0.624,-0.36 -0.113,-0.1 -0.216,-0.2 -0.314,-0.31 -0.05,-0.1 -0.102,-0.16 -0.146,-0.24 -0.04,-0.12 -0.07,-0.23 -0.09,-0.34 -0.04,-0.44 0,-0.89 0.06,-1.32 0.106,-0.75 0.261,-1.49 0.535,-2.2 0.194,-0.43 0.429,-0.85 0.711,-1.23 0.155,-0.19 0.32,-0.36 0.503,-0.51 0.1,-0.1 0.194,-0.12 0.304,-0.18 0.1,0 0.12,0 0.19,-0.1 0,0 0.1,0 0.16,0 0,0 0.11,0 0.16,0 0,0 0.1,0.1 0.13,0.1 0.1,0.1 0.14,0.13 0.21,0.21 0.11,0.15 0.22,0.31 0.34,0.47 0.11,0.17 0.25,0.3 0.45,0.35 0.2,0.1 0.41,0 0.59,-0.1 0.17,-0.1 0.3,-0.27 0.35,-0.46 0,-0.18 0,-0.42 -0.1,-0.59 -0.22,-0.31 -0.43,-0.64 -0.7,-0.92 -0.3,-0.31 -0.7,-0.51 -1.12,-0.6 -0.14,0 -0.27,0 -0.41,0 z m -5.725,0.64 c -0.02,0 -0.03,0 -0.05,0 v 0 c -0.694,0.1 -1.39,0.17 -2.088,0.21 -0.342,0 -0.686,0 -1.03,0.1 -0.607,0 -1.216,0.1 -1.823,0.1 -0.368,0 -0.681,0.27 -0.748,0.62 -0.05,0 -0.09,0 -0.141,0 -0.19,0.1 -0.356,0.18 -0.456,0.35 -0.1,0.16 -0.143,0.4 -0.08,0.58 0.255,0.71 0.489,1.43 0.606,2.18 0.143,1.2 0.106,2.41 0.09,3.61 -0.01,0.64 -0.02,1.27 -0.03,1.9 0,0.18 0,0.36 0,0.54 0,0.19 0,0.38 0,0.57 0.01,0.24 0.09,0.43 0.184,0.65 0.09,0.2 0.296,0.34 0.47,0.47 0.08,0.1 0.172,0.1 0.268,0.13 0.126,0 0.243,0.1 0.378,0.11 0.424,0.1 0.86,0 1.287,0 0.372,0 0.74,0 1.11,-0.1 0.338,0 0.674,-0.1 1.008,-0.15 0.496,-0.1 0.977,-0.27 1.464,-0.42 0.398,-0.11 0.643,-0.53 0.532,-0.93 -0.109,-0.4 -0.539,-0.65 -0.937,-0.53 -0.31,0.1 -0.619,0.18 -0.929,0.28 -0.323,0.1 -0.647,0.16 -0.979,0.21 -0.25,0 -0.502,0.1 -0.753,0.1 -0.183,0 -0.366,0 -0.549,0 -0.308,0 -0.618,0 -0.927,0 -0.04,0 -0.07,0 -0.11,0 -0.02,-0.55 0,-1.1 0.01,-1.65 0,-0.41 0.01,-0.83 0.02,-1.25 0,-0.42 0.01,-0.83 0.02,-1.25 0.411,0 0.822,0.1 1.235,0.1 0.553,0 1.106,0 1.659,0 0.415,0 0.762,-0.34 0.762,-0.76 0,-0.41 -0.347,-0.77 -0.762,-0.76 -0.553,0 -1.106,0 -1.659,0 -0.422,0 -0.843,0 -1.264,-0.1 -0.03,-0.46 -0.08,-0.93 -0.158,-1.39 -0.09,-0.56 -0.267,-1.1 -0.456,-1.64 0.552,0 1.103,0 1.654,-0.1 0.335,0 0.67,0 1.005,-0.1 0.706,0 1.41,-0.14 2.113,-0.22 0.21,0 0.385,-0.1 0.539,-0.22 0.142,-0.14 0.222,-0.34 0.222,-0.54 0,-0.2 -0.08,-0.4 -0.222,-0.54 -0.12,-0.12 -0.315,-0.22 -0.494,-0.22 z m -10.234,1.96 c -0.434,0 -0.866,0.1 -1.292,0.14 v 0 c -0.244,0 -0.482,0.11 -0.715,0.18 -0.06,0 -0.129,0.1 -0.193,0.1 0,0 -0.01,0 -0.02,0 -0.05,0 -0.1,0 -0.148,0 -0.201,0 -0.396,0.1 -0.539,0.22 v 0 c -0.06,0.1 -0.103,0.13 -0.138,0.2 -0.115,0.1 -0.227,0.16 -0.339,0.23 -0.214,0.15 -0.416,0.31 -0.62,0.47 -0.15,0.11 -0.223,0.36 -0.223,0.54 0,0.2 0.08,0.39 0.223,0.53 0.142,0.15 0.337,0.23 0.539,0.23 0.07,0 0.134,0 0.202,0 0.02,0 0.05,0 0.07,0 0,0.27 -0.02,0.54 -0.02,0.81 0,0.75 0,1.5 0,2.25 0,0.35 0,0.7 0,1.05 0,0.32 0,0.64 0,0.95 0.01,0.34 0.02,0.67 0.05,1 0.02,0.2 0.03,0.41 0.05,0.61 0.05,0.56 0.174,1.12 0.265,1.68 0.03,0.19 0.195,0.37 0.35,0.46 0.176,0.1 0.39,0.13 0.587,0.1 0.19,-0.1 0.356,-0.18 0.456,-0.35 0.111,-0.19 0.11,-0.37 0.08,-0.58 -0.07,-0.42 -0.145,-0.84 -0.206,-1.26 -0.149,-1.24 -0.11,-2.51 -0.116,-3.76 0,-0.75 0,-1.5 0,-2.26 0,-0.53 0.02,-1.06 0.05,-1.59 0.337,-0.11 0.684,-0.19 1.034,-0.25 0.315,0 0.63,0 0.947,0 0.102,0 0.202,0 0.302,0.1 0.04,0 0.07,0 0.111,0.1 0,0 0,0 0,0 0,0 0,0 0,0 0,0 0,0 0,0 0,0 -0.02,0.1 -0.03,0.11 -0.07,0.14 -0.143,0.26 -0.228,0.39 -0.353,0.42 -0.748,0.8 -1.141,1.19 -0.213,0.21 -0.401,0.44 -0.578,0.68 -0.132,0.18 -0.23,0.39 -0.31,0.6 -0.09,0.23 -0.124,0.47 -0.124,0.72 0,0.46 0.203,0.89 0.428,1.28 0.118,0.21 0.273,0.39 0.419,0.57 0.09,0.11 0.174,0.22 0.263,0.32 0.211,0.25 0.423,0.5 0.634,0.74 0.128,0.17 0.256,0.34 0.384,0.51 0.125,0.16 0.258,0.32 0.373,0.49 0.177,0.26 0.354,0.52 0.53,0.79 0.311,0.46 0.584,0.94 0.872,1.42 0.214,0.35 0.679,0.48 1.042,0.27 0.354,-0.21 0.488,-0.69 0.273,-1.04 -0.521,-0.86 -1.034,-1.73 -1.644,-2.53 -0.253,-0.33 -0.495,-0.68 -0.767,-1 -0.299,-0.35 -0.601,-0.7 -0.89,-1.05 -0.125,-0.18 -0.234,-0.36 -0.33,-0.55 -0.02,-0.1 -0.04,-0.13 -0.06,-0.2 0,0 0,-0.1 0,-0.16 0,0 0.01,0 0.02,-0.1 0.07,-0.13 0.141,-0.26 0.227,-0.38 0.159,-0.19 0.333,-0.36 0.51,-0.53 0.29,-0.29 0.572,-0.58 0.843,-0.88 0.338,-0.38 0.617,-0.81 0.762,-1.3 0.08,-0.27 0.05,-0.55 0,-0.83 -0.05,-0.27 -0.228,-0.51 -0.411,-0.7 -0.143,-0.16 -0.342,-0.28 -0.533,-0.36 -0.276,-0.12 -0.544,-0.18 -0.842,-0.21 -0.15,0 -0.299,0 -0.449,0 z m -7.299,1.22 c -0.342,0 -0.684,0.1 -1.022,0.11 -0.423,0.1 -0.831,0.21 -1.229,0.37 -0.109,0 -0.217,0.1 -0.323,0.13 -0.01,0 -0.02,0 -0.03,0 -0.02,0 -0.05,0 -0.07,0 -0.05,0 -0.1,0 -0.149,0 -0.373,0 -0.662,0.27 -0.741,0.61 0,0 0,0 0,0 0,0 0,0 0,0 -0.3,0.23 -0.58,0.48 -0.792,0.8 -0.128,0.19 -0.221,0.39 -0.307,0.6 -0.08,0.2 -0.149,0.4 -0.199,0.61 -0.09,0.4 0.121,0.82 0.532,0.94 0.292,0.1 0.619,0 0.805,-0.27 0,0 0,0.1 0,0.1 0.06,0.79 0.135,1.57 0.213,2.35 0,0 0,0 0,0 -0.04,0 -0.07,0 -0.11,0 -0.05,0 -0.109,0 -0.164,0 -0.07,0 -0.135,0 -0.202,0 -0.129,0 -0.241,0.11 -0.336,0.2 -0.142,0.14 -0.223,0.34 -0.223,0.54 0,0.2 0.08,0.4 0.223,0.54 0.129,0.13 0.35,0.24 0.538,0.22 0.142,0 0.283,0 0.424,-0.1 0.03,0.25 0.05,0.51 0.07,0.77 0.08,0.97 0.105,1.94 0.116,2.91 0,0.42 0.343,0.76 0.762,0.76 0.412,0 0.767,-0.34 0.762,-0.76 -0.01,-0.95 -0.03,-1.9 -0.11,-2.85 -0.03,-0.36 -0.06,-0.72 -0.09,-1.09 -0.02,-0.14 -0.03,-0.29 -0.05,-0.44 0.41,-0.24 0.817,-0.49 1.208,-0.76 0.35,-0.24 0.691,-0.49 1.026,-0.75 0.309,-0.25 0.597,-0.52 0.88,-0.79 0.29,-0.28 0.55,-0.59 0.763,-0.93 0.127,-0.2 0.213,-0.42 0.304,-0.64 0.09,-0.22 0.14,-0.47 0.158,-0.7 0.01,-0.18 0,-0.37 -0.04,-0.55 -0.05,-0.21 -0.128,-0.41 -0.218,-0.62 -0.07,-0.17 -0.191,-0.32 -0.309,-0.46 -0.156,-0.19 -0.333,-0.33 -0.526,-0.48 -0.151,-0.12 -0.343,-0.19 -0.516,-0.26 -0.229,-0.1 -0.451,-0.14 -0.694,-0.17 -0.115,0 -0.23,0 -0.344,0 z m -7.687,1.12 v 0 c -0.102,0 -0.205,0 -0.306,0 -0.1,0 -0.195,0.1 -0.287,0.11 -0.07,0 -0.14,0.1 -0.205,0.1 -0.289,0.15 -0.497,0.41 -0.684,0.67 -0.09,0.13 -0.161,0.28 -0.227,0.43 -0.08,0.18 -0.152,0.37 -0.211,0.56 -0.1,0.32 -0.134,0.66 -0.164,0.99 -0.03,0.37 -0.01,0.75 0.05,1.12 0.1,0.66 0.376,1.27 0.696,1.85 0.146,0.26 0.328,0.5 0.509,0.74 0.231,0.31 0.468,0.61 0.718,0.9 0.457,0.54 0.936,1.05 1.372,1.6 0.203,0.27 0.394,0.55 0.543,0.86 0.02,0.1 0.03,0.1 0.04,0.14 0,0 0,0 0,0.1 0,0 -0.02,0.1 -0.03,0.1 0,0 -0.01,0 -0.02,0 -0.08,0.1 -0.161,0.16 -0.249,0.23 -0.137,0.1 -0.279,0.18 -0.429,0.25 -0.1,0 -0.192,0.1 -0.29,0.1 -0.1,0 -0.196,0.1 -0.297,0.1 -0.226,0 -0.448,0 -0.675,0 -0.207,0 -0.407,-0.1 -0.604,-0.16 -0.168,-0.1 -0.327,-0.18 -0.481,-0.29 -0.04,0 -0.08,-0.1 -0.121,-0.11 -0.199,-0.31 -0.319,-0.66 -0.478,-0.99 -0.08,-0.17 -0.277,-0.3 -0.454,-0.35 -0.198,-0.1 -0.412,0 -0.588,0.1 -0.17,0.1 -0.298,0.26 -0.35,0.45 -0.06,0.21 -0.02,0.4 0.08,0.59 0.122,0.25 0.224,0.52 0.35,0.77 0.13,0.26 0.32,0.5 0.544,0.69 0.506,0.42 1.115,0.69 1.761,0.8 0.663,0.12 1.354,0.1 1.99,-0.16 0.314,-0.11 0.609,-0.26 0.878,-0.45 0.122,-0.1 0.237,-0.19 0.351,-0.29 0.146,-0.12 0.258,-0.28 0.372,-0.44 0.09,-0.11 0.127,-0.26 0.179,-0.39 0.02,-0.1 0.04,-0.15 0.05,-0.23 0.02,-0.11 0.03,-0.21 0.03,-0.32 0.02,-0.35 -0.131,-0.67 -0.274,-0.98 -0.124,-0.27 -0.305,-0.51 -0.478,-0.75 -0.153,-0.21 -0.313,-0.42 -0.483,-0.62 -0.19,-0.22 -0.379,-0.43 -0.568,-0.65 -0.315,-0.37 -0.64,-0.72 -0.938,-1.1 -0.179,-0.23 -0.356,-0.47 -0.518,-0.71 -0.173,-0.26 -0.314,-0.55 -0.441,-0.83 -0.1,-0.26 -0.172,-0.51 -0.219,-0.78 -0.03,-0.32 -0.02,-0.64 0,-0.97 0.04,-0.24 0.102,-0.47 0.187,-0.7 0.06,-0.13 0.126,-0.25 0.203,-0.36 0.03,0 0.06,-0.1 0.09,-0.1 0.04,0 0.07,0 0.11,-0.1 0.02,0 0.04,0 0.06,0 0.04,0 0.07,0 0.109,0.1 0.05,0 0.09,0.1 0.139,0.14 0.166,0.24 0.293,0.52 0.422,0.78 0.183,0.37 0.705,0.47 1.042,0.27 0.171,-0.1 0.298,-0.26 0.351,-0.45 0.06,-0.21 0.02,-0.4 -0.08,-0.59 -0.117,-0.24 -0.239,-0.48 -0.373,-0.71 -0.16,-0.27 -0.386,-0.5 -0.639,-0.69 -0.224,-0.17 -0.494,-0.29 -0.771,-0.34 -0.09,0 -0.178,0 -0.269,0 -0.01,0 -0.02,0 -0.04,0 z m 7.57,0.41 c 0.106,0 0.212,0 0.319,0 0.116,0 0.226,0.1 0.337,0.1 0.08,0 0.162,0.1 0.238,0.13 0.06,0.1 0.107,0.11 0.158,0.17 0.05,0.1 0.09,0.15 0.131,0.22 0.02,0.1 0.04,0.13 0.06,0.2 0,0 0,0.1 0,0.13 -0.03,0.13 -0.06,0.25 -0.109,0.37 -0.09,0.17 -0.181,0.34 -0.293,0.5 -0.176,0.2 -0.369,0.4 -0.569,0.58 -0.237,0.22 -0.48,0.44 -0.736,0.64 -0.411,0.31 -0.834,0.61 -1.271,0.89 0,0 0,0 -0.01,0 0,-0.1 -0.02,-0.2 -0.03,-0.3 -0.04,-0.37 -0.07,-0.75 -0.1,-1.13 -0.02,-0.27 -0.04,-0.53 -0.06,-0.79 0,-0.12 -0.02,-0.24 -0.02,-0.36 0,-0.27 0,-0.54 0,-0.82 0.07,0 0.142,-0.1 0.217,-0.11 0.462,-0.18 0.932,-0.32 1.423,-0.4 0.107,0 0.212,0 0.318,0 z m -12.042,1.12 c -0.415,0 -0.762,0.35 -0.762,0.76 0,1.75 0,3.49 0,5.23 0,0.78 0,1.55 0,2.33 0,0.13 -10e-4,0.26 0,0.39 -0.09,-0.23 -0.178,-0.45 -0.266,-0.68 -0.152,-0.39 -0.287,-0.78 -0.423,-1.17 -0.247,-0.71 -0.484,-1.43 -0.706,-2.15 -0.127,-0.41 -0.269,-0.83 -0.382,-1.25 -0.111,-0.41 -0.237,-0.82 -0.325,-1.24 -0.03,-0.16 -0.06,-0.32 -0.1,-0.47 -0.09,-0.33 -0.4,-0.56 -0.735,-0.56 -0.415,0 -0.763,0.35 -0.762,0.76 0,1.46 0,2.91 0.06,4.37 0.03,0.73 0.06,1.46 0.07,2.19 0.02,1.26 0.06,2.51 -0.09,3.76 -0.05,0.33 -0.118,0.65 -0.234,0.95 -0.09,0.21 -0.198,0.41 -0.314,0.61 -0.211,0.36 -0.08,0.83 0.273,1.04 0.36,0.21 0.832,0.1 1.043,-0.27 0.275,-0.47 0.504,-0.97 0.628,-1.5 0.07,-0.3 0.101,-0.6 0.137,-0.9 0.03,-0.28 0.06,-0.57 0.08,-0.85 0.04,-0.62 0.03,-1.24 0.02,-1.86 -0.01,-0.66 -0.02,-1.33 -0.05,-1.99 0.07,0.19 0.134,0.38 0.201,0.58 0.126,0.36 0.28,0.72 0.423,1.08 0.157,0.39 0.316,0.78 0.458,1.17 0.134,0.38 0.26,0.75 0.398,1.12 0.04,0.12 0.09,0.24 0.133,0.36 0.05,0.12 0.09,0.25 0.148,0.37 0.07,0.15 0.177,0.27 0.284,0.4 0.127,0.14 0.35,0.22 0.539,0.22 0.276,0 0.513,-0.15 0.658,-0.38 0.124,-0.19 0.209,-0.39 0.247,-0.62 0.05,-0.28 0.05,-0.55 0.07,-0.82 0.03,-0.39 0.03,-0.78 0.03,-1.17 0,-0.46 0.01,-0.92 0.02,-1.38 0,-0.71 0,-1.42 0,-2.14 0,-1.84 0,-3.68 0,-5.53 0,-0.41 -0.346,-0.76 -0.762,-0.76 z m -10.222,2.54 c -0.134,0 -0.271,0 -0.376,0.11 -0.135,0.1 -0.259,0.17 -0.344,0.32 -0.05,0.1 -0.09,0.2 -0.112,0.31 -0.02,0.1 -0.04,0.17 -0.07,0.26 -0.05,0.2 -0.104,0.4 -0.16,0.6 -0.105,0.38 -0.214,0.76 -0.321,1.14 -0.107,0.38 -0.217,0.76 -0.316,1.14 -0.107,0.41 -0.225,0.82 -0.321,1.23 -0.19,0.82 -0.382,1.65 -0.554,2.48 -0.08,0.39 -0.18,0.78 -0.241,1.17 -0.08,0.51 -0.159,1.02 -0.239,1.53 -0.06,0.42 -0.117,0.84 -0.161,1.25 -0.08,0.76 -0.1,1.51 -0.02,2.26 0.02,0.21 0.07,0.39 0.223,0.54 0.142,0.14 0.338,0.22 0.539,0.22 0.05,0 0.1,0 0.148,0 0.147,0 0.283,-0.1 0.39,-0.21 0.03,0 0.06,-0.1 0.09,-0.11 0.08,-0.13 0.144,-0.29 0.13,-0.43 -0.02,-0.23 -0.04,-0.46 -0.04,-0.69 0,-0.23 0,-0.46 0,-0.69 0.02,-0.5 0.08,-0.99 0.135,-1.48 0.09,-0.6 0.18,-1.21 0.289,-1.81 0.07,0 0.147,0 0.226,0 0.451,-0.1 0.901,-0.14 1.351,-0.22 0.261,-0.1 0.522,-0.1 0.783,-0.14 0.351,-0.1 0.704,-0.11 1.058,-0.16 0.291,0.85 0.562,1.71 0.787,2.58 0.102,0.39 0.2,0.79 0.299,1.19 0.101,0.4 0.545,0.64 0.937,0.53 0.408,-0.11 0.633,-0.54 0.533,-0.94 -0.25,-0.99 -0.5,-1.98 -0.823,-2.96 -0.157,-0.47 -0.315,-0.94 -0.477,-1.4 0,0 0,0 0,0 -0.01,-0.1 -0.03,-0.1 -0.05,-0.14 0,0 0,0 0,0 -0.09,-0.26 -0.178,-0.52 -0.272,-0.77 -0.319,-0.87 -0.636,-1.74 -0.95,-2.61 -0.142,-0.4 -0.267,-0.8 -0.4,-1.19 -0.127,-0.38 -0.262,-0.76 -0.396,-1.14 -0.03,-0.1 -0.07,-0.19 -0.1,-0.28 -0.07,-0.19 -0.144,-0.39 -0.227,-0.57 -0.08,-0.18 -0.162,-0.33 -0.277,-0.48 -0.124,-0.17 -0.247,-0.29 -0.455,-0.35 -0.06,0 -0.137,0 -0.211,0 z m 0.123,3.03 c 0.128,0.38 0.253,0.76 0.379,1.14 0.244,0.73 0.518,1.45 0.784,2.18 0.1,0.26 0.192,0.52 0.287,0.79 -0.31,0 -0.62,0.1 -0.927,0.14 -0.249,0 -0.498,0.1 -0.746,0.13 -0.304,0.1 -0.608,0.1 -0.912,0.15 0.02,-0.11 0.05,-0.22 0.07,-0.33 0.09,-0.41 0.19,-0.82 0.286,-1.23 0.174,-0.76 0.369,-1.51 0.578,-2.25 0.07,-0.24 0.135,-0.48 0.202,-0.72 z" style="opacity:0.983902;fill:#000000;fill-opacity:1;fill-rule:nonzero;stroke:none;stroke-width:0.352777" id="pPeopleLabel" inkscape:connector-curvature="0" />
      <g id="gPeopleIcon" transform="translate(5.2917,47.625)">
        <path d="m 83.516,503.31 c -0.349,2.33 -1.026,5.92 -4.225,3.94 -1.555,-1.27 0.964,-4.48 -2.283,-3.7 -3.14,-1.22 -2.743,5.32 -5.922,2.62 -0.251,-1.56 -0.08,-2.38 -1.873,-1.32 -2.987,0.74 -4.445,2.17 -4.942,5.27 -1.097,2.84 0.764,7.22 -2.931,8.58 -2.91,1.88 -6.893,2.57 -9.933,4.83 -1.963,0.5 -5.247,3.44 -1.784,4.01 4.028,0.37 8.08,-0.2 12.095,0.1 3.58,2.03 -0.892,6.6 0.226,9.7 -1.06,2.7 3.226,2.03 2.286,-0.51 0.871,-2.03 1.744,-8.02 4.706,-4.52 0.734,2.56 -3.344,7.96 0.579,8.29 1.847,-2.52 3.413,-4.48 3.372,-7.63 3.188,-2.8 3.458,2.54 3.277,4.69 0.768,3.19 2.716,-0.2 3.298,-1.67 3.195,-0.9 0.989,-8.44 5.548,-7.47 1.97,2.33 -1.05,5.72 0.622,8.51 -0.576,2.47 2.503,1.72 3.454,1.46 3.151,-2.01 1.137,-7.67 4.578,-9.16 3.305,1.39 0.975,6.43 2.833,9.21 0.292,1.69 4.393,1.82 3.743,-0.76 1.22,-2.65 1.36,-6.2 4.05,-7.94 0.36,-1.39 0.66,0.31 1.38,-0.18 1.23,1.8 1.55,4.8 2.59,7.03 1.58,1.95 1.85,5.72 5.15,4.47 2.68,-1.69 1.96,-7.34 3.82,-10.21 4.02,-1.2 2.39,4.83 3.67,7.11 -0.21,2.01 2.3,4.32 2.65,1.54 -0.52,-3.56 3.28,-3.94 2.91,-7.37 1.29,-2.37 1.1,-7.2 4.31,-7.04 2.25,1.08 4.92,0.56 7.14,1.64 -4.39,-2.66 -8.59,-5.71 -12.47,-9.06 -1.68,-2.78 -3.65,-2.96 -5.35,-5.7 1.01,-3.13 0.13,-6.25 -2.58,-8.16 -1.62,-1.89 -4.2,1.31 -5.83,2.25 -2.37,0 -1.89,-2.94 -4.61,-2.19 -3.39,-0.78 -5.8,2.92 -8.956,1.93 -2.173,-0.25 -3.751,-0.31 -3.837,2.05 -1.747,0.26 -1.556,4.4 -4.177,2.4 -0.781,-3.29 -0.84,-8.15 -5.659,-6.93 -0.287,0.1 -0.636,-0.18 -0.925,-0.1 z m 4.503,5.9 c 0.255,-0.1 0.04,0.12 0,0 z" style="fill:#fdd757;fill-opacity:0.966507;fill-rule:nonzero;stroke:none;stroke-width:0.352777" id="pPeopleIconBG" inkscape:connector-curvature="0" />
        <path id="pPeopleIconStroke" style="fill:#000000;fill-opacity:0.966507;fill-rule:nonzero;stroke:none;stroke-width:0.352777" d="m 85.631,502.07 c -3.2,0.25 -4.612,3.79 -5.667,6.34 0.747,-2.94 -1.622,-6.87 -4.869,-5.85 -2.29,0.26 -3.138,5.86 -3.973,1.83 -0.967,-4.15 -5.363,-0.39 -6.266,2.01 -1.638,3.44 -2.422,7.7 -0.989,11.33 1.1,3.04 5.599,3.35 7.166,0.54 1.07,-1.65 1.011,-3.95 2.715,-1.25 2.01,3.03 5.278,-0.7 5.505,-1.26 1.431,2.88 6.675,4.2 8.786,1.53 1.739,-3.79 2.032,-8.2 1.39,-12.27 -0.552,-1.59 -2.016,-3.02 -3.798,-2.95 z m 20.409,0.34 c -2.24,0 -4.59,3.19 -5.88,2.5 -0.556,-3.05 -4.86,-0.66 -6.132,1.01 -2.488,2.14 -5.196,5.84 -3.518,9.2 1.497,2.87 5.923,4.28 8.113,1.37 1.127,-1.5 3.407,2.7 5.857,1.74 4.21,-0.1 6.21,-4.86 6.58,-8.46 0.74,-3.15 -0.56,-7.4 -4.35,-7.28 l -0.62,-0.1 v 0 z m 10.29,0 c -3.23,0.1 -5.51,3.23 -5.03,6.32 -0.33,3.28 2.17,7.31 5.83,6.69 3.25,-1.81 4.55,-6.6 3.13,-9.96 -1.07,-1.19 -2.08,-3.26 -3.93,-3.05 z m -30.298,1.36 c 3.081,1.29 1.782,5.38 1.828,8.01 0.08,3.39 -1.954,6.76 -5.583,4.6 -3.148,-2.18 -0.85,-6 -0.141,-8.93 0.428,-2.28 3.361,-2.02 3.896,-3.68 z m 20.688,0.39 c 4.3,0.56 2.73,6.42 1.63,9.14 -0.88,4.06 -7.39,4.29 -8.12,0.13 1.1,-3.24 0.27,-7.84 4.62,-8.84 0.61,-0.2 1.24,-0.33 1.87,-0.43 z m 9.02,0 c 2.63,-0.23 4.44,4.2 2.85,6.89 -0.9,5.06 -6.4,1.59 -5.6,-2.11 -0.19,-2.08 0.43,-4.27 2.75,-4.78 z m -38.907,0.17 c 2.851,2.43 1.178,7.58 0.49,10.87 -2.079,3.55 -5.539,-3 -4.204,-5.32 -0.206,-3.17 0.957,-5.16 3.714,-5.55 z m -8.182,0.13 c 2.505,1.52 2.35,5.74 2.287,8.49 0.86,3.65 -4.496,8.29 -5.887,3.08 -0.575,-3.98 0.154,-9.03 3.6,-11.57 z m 29.494,0.89 c 2.645,2.02 -0.383,5.85 0.02,8.64 -0.968,3.75 -6.396,2.43 -6.514,-1.03 0.447,-3.46 3.331,-6.38 6.499,-7.61 z m 22.545,7.55 c -2.41,1.92 3.62,3.77 4.31,5.78 1.95,2.78 6.64,5.15 8.41,6.54 -2.29,-0.28 -5.37,-3.08 -5.94,0.71 -2.07,4.55 -3.12,9.49 -5.21,14.03 -2.14,-4.19 -2.42,-9 -3.75,-13.41 -2.94,0.15 -1.9,5.84 -3.51,8.1 -0.85,1.76 -1.46,6.98 -2.73,6.94 -2.26,-4.27 -4.37,-8.62 -6.06,-13.13 -1.35,-0.69 -2.91,-1.92 -3.28,0.86 -1.65,3.01 -3.303,9.11 -5.592,9.99 -1.433,-4.06 -0.924,-8.68 -2.673,-12.61 -2.644,0.24 -2.97,4.63 -4.377,6.7 -0.883,2.14 -1.935,4.35 -3.135,6.54 -0.281,-4.63 -0.758,-9.41 -2.862,-13.62 -3.321,0.22 -3.58,6.21 -5.456,8.68 -0.666,1.4 -1.994,5.47 -2.227,1.82 -1.098,-2.69 0.276,-6.14 -2.201,-8.14 -2.322,2.18 -2.404,6.06 -4.275,8.68 -1.239,2.96 -1.649,2.34 -1.43,-0.2 -0.205,-3.14 0.445,-6.46 -0.342,-9.48 -3.075,0.18 -3.171,5.67 -4.809,8.1 -1.305,3.65 0.02,-2.78 0.137,-4.34 0.918,-2.26 1.024,-5.68 -2.443,-4.62 -3.829,-0.25 -7.655,-0.58 -11.482,-0.86 3.768,-1.69 7.28,-3.97 11.117,-5.47 3.339,-0.19 -0.15,-3.01 -1.766,-1.19 -4.365,2.19 -8.659,4.63 -13.162,6.46 0.708,3.24 6.725,1.47 9.502,2.3 2.49,1 8.718,-1.27 6.561,3.11 -0.08,3.94 -1.802,7.32 -1.095,11.26 3.586,-1.43 4.109,-7.16 6.007,-10.45 0.177,0.36 0.03,2.44 0.08,3.47 0.07,2.25 -0.157,4.53 0.149,6.76 3.267,1.02 4.457,-4.79 5.93,-7.09 0.624,-1.61 1.342,-4.29 1.379,-0.99 -0.166,2.67 1.968,10 4.441,4.73 1.666,-2.98 3.071,-7.75 4.742,-9.71 1.703,4.29 1.415,8.99 2.198,13.43 3.259,0.73 4.002,-5.33 5.636,-7.68 0.637,-1.35 1.692,-4.39 2.438,-4.82 1.058,3.84 0.4,8.32 2.852,11.65 3.598,-0.27 4.518,-5.58 6.158,-8.29 0.98,-1.73 1.81,-6.16 2.71,-1.93 1.65,4.39 3.92,8.51 6.1,12.65 3.11,0.97 3.23,-5.19 4.37,-7.33 0.78,-1.65 1.77,-8.37 2.21,-3.5 1.08,2.78 1.19,8.51 4.55,8.85 2.97,-4.77 3.79,-10.56 6.18,-15.63 1.1,-1.56 4.5,1.24 6.74,0.63 2.67,1.55 3.01,-1.69 0.46,-2.29 -3.63,-2.4 -7.71,-4.31 -10.44,-7.83 -1.59,-1.49 -3.15,-3.24 -5.12,-4.16 z m -57.4,21.52 c -0.114,0.31 0.07,0.1 0,0 z" inkscape:connector-curvature="0" />
      </g>
      <g id="gPeopleBox" transform="translate(-0.14539,0.0617)">
        <path d="m 185.6,454.84 c -2.67,0.8 -7.25,0.61 -5.05,4.57 0.82,5.44 2.04,10.89 2.67,16.31 -0.28,7.92 1.24,15.8 1.34,23.74 0.13,1.66 -0.63,5.87 2.3,4.76 0.1,11.61 0,23.22 -0.73,34.82 -0.24,8.96 -1.67,17.83 -2.93,26.69 -0.41,3.7 -1.74,8.1 -5.74,8.32 -5.35,0.73 -10.72,1.47 -16.14,1.19 -4.19,2.63 2.79,3.54 4.97,2.84 4.75,-0.1 9.45,-1.04 14.14,-1.58 5.01,0.24 4.36,-5.36 5.3,-8.77 1.19,-7.26 2.17,-14.57 2.88,-21.89 0.82,-13.54 1.31,-27.11 1.1,-40.68 0.13,-16.24 -1.56,-32.45 -3.81,-48.51 -0.1,-0.61 -0.2,-1.21 -0.3,-1.81 z m -5.57,118.92 c 0,0.1 -0.18,0.1 0,0 z" style="opacity:0.983902;fill:#a2a2a2;fill-opacity:1;fill-rule:nonzero;stroke:none;stroke-width:0.352777" id="pPeopleShadow" inkscape:connector-curvature="0" />
        <path d="m 181.63,450.6 c -8.57,2.01 -17.15,4.13 -25.64,6.5 -16.05,3.52 -32.15,6.78 -48.44,9.03 -15.855,2.81 -32.064,3.81 -47.525,8.54 -5.212,2.45 -14.075,1.03 -17.319,4.81 -1.838,17.41 -0.365,34.88 0.812,52.28 -0.641,3.42 1.203,17.28 5.061,10.2 -1.918,-7.47 -1.083,-15.34 -2.047,-22.96 -1.125,-12.7 -1.235,-25.52 -0.09,-38.22 13.122,-1.63 25.547,-6.77 38.764,-7.96 17.654,-2.65 35.374,-4.99 52.864,-8.57 11.25,-2.22 22.45,-4.66 33.46,-7.84 5.16,-2.22 8.3,-1.36 7.75,4.79 2.97,17.61 3.95,35.45 3.86,53.29 0.29,17.78 -0.43,35.69 -3.82,53.18 -1.03,7.23 -10.48,3.68 -15.48,4.64 -2.9,-1.19 -10.73,0.99 -5.42,3.83 6.83,-0.26 13.87,0.65 20.53,-1.18 5.67,-3.7 4.54,-11.76 5.95,-17.68 2.85,-21.98 2.28,-44.21 1.53,-66.31 -0.56,-12.39 -2.71,-24.8 -4.33,-36.97 0.68,-0.53 -0.65,-2.52 -0.47,-3.4 z" style="fill:#000000;fill-opacity:0.966507;fill-rule:nonzero;stroke:none;stroke-width:0.352777" id="pPeopleBorder" inkscape:connector-curvature="0" />
      </g>
    </g>
  </g>
</svg>
