<?xml version="1.0" encoding="UTF-8" standalone="no"?>
<svg xmlns:dc="http://purl.org/dc/elements/1.1/" xmlns:cc="http://creativecommons.org/ns#" xmlns:rdf="http://www.w3.org/1999/02/22-rdf-syntax-ns#" xmlns:svg="http://www.w3.org/2000/svg" xmlns="http://www.w3.org/2000/svg" width="573.3" height="497.1" viewBox="0 0 151.69 131.52" version="1.1" id="svg78">
  <g id="g91">
    <g id="gPeopleIcon" transform="matrix(0.99116,0.1326,-0.1326,0.99116,27.053,-422.83)">
      <path d="m 83.516,503.31 c -0.349,2.33 -1.026,5.92 -4.225,3.94 -1.555,-1.27 0.964,-4.48 -2.283,-3.7 -3.14,-1.22 -2.743,5.32 -5.922,2.62 -0.251,-1.56 -0.08,-2.38 -1.873,-1.32 -2.987,0.74 -4.445,2.17 -4.942,5.27 -1.097,2.84 0.764,7.22 -2.931,8.58 -2.91,1.88 -6.893,2.57 -9.933,4.83 -1.963,0.5 -5.247,3.44 -1.784,4.01 4.028,0.37 8.08,-0.2 12.095,0.1 3.58,2.03 -0.892,6.6 0.226,9.7 -1.06,2.7 3.226,2.03 2.286,-0.51 0.871,-2.03 1.744,-8.02 4.706,-4.52 0.734,2.56 -3.344,7.96 0.579,8.29 1.847,-2.52 3.413,-4.48 3.372,-7.63 3.188,-2.8 3.458,2.54 3.277,4.69 0.768,3.19 2.716,-0.2 3.298,-1.67 3.195,-0.9 0.989,-8.44 5.548,-7.47 1.97,2.33 -1.05,5.72 0.622,8.51 -0.576,2.47 2.503,1.72 3.454,1.46 3.151,-2.01 1.137,-7.67 4.578,-9.16 3.305,1.39 0.975,6.43 2.833,9.21 0.292,1.69 4.393,1.82 3.743,-0.76 1.22,-2.65 1.36,-6.2 4.05,-7.94 0.36,-1.39 0.66,0.31 1.38,-0.18 1.23,1.8 1.55,4.8 2.59,7.03 1.58,1.95 1.85,5.72 5.15,4.47 2.68,-1.69 1.96,-7.34 3.82,-10.21 4.02,-1.2 2.39,4.83 3.67,7.11 -0.21,2.01 2.3,4.32 2.65,1.54 -0.52,-3.56 3.28,-3.94 2.91,-7.37 1.29,-2.37 1.1,-7.2 4.31,-7.04 2.25,1.08 4.92,0.56 7.14,1.64 -4.39,-2.66 -8.59,-5.71 -12.47,-9.06 -1.68,-2.78 -3.65,-2.96 -5.35,-5.7 1.01,-3.13 0.13,-6.25 -2.58,-8.16 -1.62,-1.89 -4.2,1.31 -5.83,2.25 -2.37,0 -1.89,-2.94 -4.61,-2.19 -3.39,-0.78 -5.8,2.92 -8.956,1.93 -2.173,-0.25 -3.751,-0.31 -3.837,2.05 -1.747,0.26 -1.556,4.4 -4.177,2.4 -0.781,-3.29 -0.84,-8.15 -5.659,-6.93 -0.287,0.1 -0.636,-0.18 -0.925,-0.1 z m 4.503,5.9 c 0.255,-0.1 0.04,0.12 0,0 z" style="fill:#fdd757;fill-opacity:0.966507;fill-rule:nonzero;stroke:none;stroke-width:0.352777" id="pPeopleIconBG" />
      <path id="pPeopleIconStroke" style="fill:#000000;fill-opacity:0.966507;fill-rule:nonzero;stroke:none;stroke-width:0.352777" d="m 85.631,502.07 c -3.2,0.25 -4.612,3.79 -5.667,6.34 0.747,-2.94 -1.622,-6.87 -4.869,-5.85 -2.29,0.26 -3.138,5.86 -3.973,1.83 -0.967,-4.15 -5.363,-0.39 -6.266,2.01 -1.638,3.44 -2.422,7.7 -0.989,11.33 1.1,3.04 5.599,3.35 7.166,0.54 1.07,-1.65 1.011,-3.95 2.715,-1.25 2.01,3.03 5.278,-0.7 5.505,-1.26 1.431,2.88 6.675,4.2 8.786,1.53 1.739,-3.79 2.032,-8.2 1.39,-12.27 -0.552,-1.59 -2.016,-3.02 -3.798,-2.95 z m 20.409,0.34 c -2.24,0 -4.59,3.19 -5.88,2.5 -0.556,-3.05 -4.86,-0.66 -6.132,1.01 -2.488,2.14 -5.196,5.84 -3.518,9.2 1.497,2.87 5.923,4.28 8.113,1.37 1.127,-1.5 3.407,2.7 5.857,1.74 4.21,-0.1 6.21,-4.86 6.58,-8.46 0.74,-3.15 -0.56,-7.4 -4.35,-7.28 l -0.62,-0.1 v 0 z m 10.29,0 c -3.23,0.1 -5.51,3.23 -5.03,6.32 -0.33,3.28 2.17,7.31 5.83,6.69 3.25,-1.81 4.55,-6.6 3.13,-9.96 -1.07,-1.19 -2.08,-3.26 -3.93,-3.05 z m -30.298,1.36 c 3.081,1.29 1.782,5.38 1.828,8.01 0.08,3.39 -1.954,6.76 -5.583,4.6 -3.148,-2.18 -0.85,-6 -0.141,-8.93 0.428,-2.28 3.361,-2.02 3.896,-3.68 z m 20.688,0.39 c 4.3,0.56 2.73,6.42 1.63,9.14 -0.88,4.06 -7.39,4.29 -8.12,0.13 1.1,-3.24 0.27,-7.84 4.62,-8.84 0.61,-0.2 1.24,-0.33 1.87,-0.43 z m 9.02,0 c 2.63,-0.23 4.44,4.2 2.85,6.89 -0.9,5.06 -6.4,1.59 -5.6,-2.11 -0.19,-2.08 0.43,-4.27 2.75,-4.78 z m -38.907,0.17 c 2.851,2.43 1.178,7.58 0.49,10.87 -2.079,3.55 -5.539,-3 -4.204,-5.32 -0.206,-3.17 0.957,-5.16 3.714,-5.55 z m -8.182,0.13 c 2.505,1.52 2.35,5.74 2.287,8.49 0.86,3.65 -4.496,8.29 -5.887,3.08 -0.575,-3.98 0.154,-9.03 3.6,-11.57 z m 29.494,0.89 c 2.645,2.02 -0.383,5.85 0.02,8.64 -0.968,3.75 -6.396,2.43 -6.514,-1.03 0.447,-3.46 3.331,-6.38 6.499,-7.61 z m 22.545,7.55 c -2.41,1.92 3.62,3.77 4.31,5.78 1.95,2.78 6.64,5.15 8.41,6.54 -2.29,-0.28 -5.37,-3.08 -5.94,0.71 -2.07,4.55 -3.12,9.49 -5.21,14.03 -2.14,-4.19 -2.42,-9 -3.75,-13.41 -2.94,0.15 -1.9,5.84 -3.51,8.1 -0.85,1.76 -1.46,6.98 -2.73,6.94 -2.26,-4.27 -4.37,-8.62 -6.06,-13.13 -1.35,-0.69 -2.91,-1.92 -3.28,0.86 -1.65,3.01 -3.303,9.11 -5.592,9.99 -1.433,-4.06 -0.924,-8.68 -2.673,-12.61 -2.644,0.24 -2.97,4.63 -4.377,6.7 -0.883,2.14 -1.935,4.35 -3.135,6.54 -0.281,-4.63 -0.758,-9.41 -2.862,-13.62 -3.321,0.22 -3.58,6.21 -5.456,8.68 -0.666,1.4 -1.994,5.47 -2.227,1.82 -1.098,-2.69 0.276,-6.14 -2.201,-8.14 -2.322,2.18 -2.404,6.06 -4.275,8.68 -1.239,2.96 -1.649,2.34 -1.43,-0.2 -0.205,-3.14 0.445,-6.46 -0.342,-9.48 -3.075,0.18 -3.171,5.67 -4.809,8.1 -1.305,3.65 0.02,-2.78 0.137,-4.34 0.918,-2.26 1.024,-5.68 -2.443,-4.62 -3.829,-0.25 -7.655,-0.58 -11.482,-0.86 3.768,-1.69 7.28,-3.97 11.117,-5.47 3.339,-0.19 -0.15,-3.01 -1.766,-1.19 -4.365,2.19 -8.659,4.63 -13.162,6.46 0.708,3.24 6.725,1.47 9.502,2.3 2.49,1 8.718,-1.27 6.561,3.11 -0.08,3.94 -1.802,7.32 -1.095,11.26 3.586,-1.43 4.109,-7.16 6.007,-10.45 0.177,0.36 0.03,2.44 0.08,3.47 0.07,2.25 -0.157,4.53 0.149,6.76 3.267,1.02 4.457,-4.79 5.93,-7.09 0.624,-1.61 1.342,-4.29 1.379,-0.99 -0.166,2.67 1.968,10 4.441,4.73 1.666,-2.98 3.071,-7.75 4.742,-9.71 1.703,4.29 1.415,8.99 2.198,13.43 3.259,0.73 4.002,-5.33 5.636,-7.68 0.637,-1.35 1.692,-4.39 2.438,-4.82 1.058,3.84 0.4,8.32 2.852,11.65 3.598,-0.27 4.518,-5.58 6.158,-8.29 0.98,-1.73 1.81,-6.16 2.71,-1.93 1.65,4.39 3.92,8.51 6.1,12.65 3.11,0.97 3.23,-5.19 4.37,-7.33 0.78,-1.65 1.77,-8.37 2.21,-3.5 1.08,2.78 1.19,8.51 4.55,8.85 2.97,-4.77 3.79,-10.56 6.18,-15.63 1.1,-1.56 4.5,1.24 6.74,0.63 2.67,1.55 3.01,-1.69 0.46,-2.29 -3.63,-2.4 -7.71,-4.31 -10.44,-7.83 -1.59,-1.49 -3.15,-3.24 -5.12,-4.16 z m -57.4,21.52 c -0.114,0.31 0.07,0.1 0,0 z" />
    </g>
    <g id="gPeopleBox" transform="matrix(0.99116,0.1326,-0.1326,0.99116,27.971,-470.7)">
      <path d="m 185.6,454.84 c -2.67,0.8 -7.25,0.61 -5.05,4.57 0.82,5.44 2.04,10.89 2.67,16.31 -0.28,7.92 1.24,15.8 1.34,23.74 0.13,1.66 -0.63,5.87 2.3,4.76 0.1,11.61 0,23.22 -0.73,34.82 -0.24,8.96 -1.67,17.83 -2.93,26.69 -0.41,3.7 -1.74,8.1 -5.74,8.32 -5.35,0.73 -10.72,1.47 -16.14,1.19 -4.19,2.63 2.79,3.54 4.97,2.84 4.75,-0.1 9.45,-1.04 14.14,-1.58 5.01,0.24 4.36,-5.36 5.3,-8.77 1.19,-7.26 2.17,-14.57 2.88,-21.89 0.82,-13.54 1.31,-27.11 1.1,-40.68 0.13,-16.24 -1.56,-32.45 -3.81,-48.51 -0.1,-0.61 -0.2,-1.21 -0.3,-1.81 z m -5.57,118.92 c 0,0.1 -0.18,0.1 0,0 z" style="opacity:0.983902;fill:#a2a2a2;fill-opacity:1;fill-rule:nonzero;stroke:none;stroke-width:0.352777" id="pPeopleShadow" />
      <path d="m 181.63,450.6 c -8.57,2.01 -17.15,4.13 -25.64,6.5 -16.05,3.52 -32.15,6.78 -48.44,9.03 -15.855,2.81 -32.064,3.81 -47.525,8.54 -5.212,2.45 -14.075,1.03 -17.319,4.81 -1.838,17.41 -0.365,34.88 0.812,52.28 -0.641,3.42 1.203,17.28 5.061,10.2 -1.918,-7.47 -1.083,-15.34 -2.047,-22.96 -1.125,-12.7 -1.235,-25.52 -0.09,-38.22 13.122,-1.63 25.547,-6.77 38.764,-7.96 17.654,-2.65 35.374,-4.99 52.864,-8.57 11.25,-2.22 22.45,-4.66 33.46,-7.84 5.16,-2.22 8.3,-1.36 7.75,4.79 2.97,17.61 3.95,35.45 3.86,53.29 0.29,17.78 -0.43,35.69 -3.82,53.18 -1.03,7.23 -10.48,3.68 -15.48,4.64 -2.9,-1.19 -10.73,0.99 -5.42,3.83 6.83,-0.26 13.87,0.65 20.53,-1.18 5.67,-3.7 4.54,-11.76 5.95,-17.68 2.85,-21.98 2.28,-44.21 1.53,-66.31 -0.56,-12.39 -2.71,-24.8 -4.33,-36.97 0.68,-0.53 -0.65,-2.52 -0.47,-3.4 z" style="fill:#000000;fill-opacity:0.966507;fill-rule:nonzero;stroke:none;stroke-width:0.352777" id="pPeopleBorder" />
    </g>
    <g aria-label="*" id="text77" style="font-style:normal;font-variant:normal;font-weight:normal;font-stretch:normal;font-size:5.02596px;line-height:125%;font-family:'Source Code Pro';-inkscape-font-specification:'Source Code Pro';text-align:start;letter-spacing:0px;word-spacing:0px;text-anchor:start;fill:#000000;fill-opacity:1;stroke:none;stroke-width:0.264603px;stroke-linecap:butt;stroke-linejoin:miter;stroke-opacity:1">
      <path id="path79" style="font-style:normal;font-variant:normal;font-weight:normal;font-stretch:normal;font-size:11.3084px;font-family:'Kristen ITC';-inkscape-font-specification:'Kristen ITC';stroke-width:0.264603px" d="m 128.91,10.578 q 0,0.26 -0.29,0.26 -0.1,0 -0.16,0 -0.1,0 -0.14,0 -0.61,0 -1.25,0.343 0.18,0.309 0.46,0.535 0.23,0.161 0.46,0.321 0.3,0.21 0.3,0.43 0,0.149 -0.16,0.271 -0.16,0.116 -0.37,0.116 -0.45,0 -1.38,-1.209 -0.51,0.248 -0.9,0.679 -0.25,0.292 -0.51,0.585 -0.17,0.171 -0.32,0.171 -0.37,0 -0.37,-0.475 0,-0.265 0.36,-0.64 0.42,-0.425 1.13,-0.795 -1.4,-0.773 -1.4,-1.2702 0,-0.381 0.41,-0.381 0.22,0 0.49,0.2706 0.4,0.4026 0.62,0.5416 0,-0.503 -0.18,-0.9834 -0.12,-0.4362 -0.12,-0.4638 0,-0.2926 0.31,-0.2926 0.83,0 0.83,1.8778 0.92,-0.442 1.43,-0.442 0.32,0 0.53,0.165 0.22,0.166 0.22,0.398 z m 1.65,2.839 c 0,-0.149 0,-0.286 0.1,-0.426 0,-0.317 0.1,-0.634 0.13,-0.961 0,-0.298 0.1,-0.604 0.22,-0.888 0.1,-0.486 0.23,-0.968 0.34,-1.4467 0,-0.19 -0.1,-0.421 -0.15,-0.566 -0.13,-0.168 -0.3,-0.272 -0.5,-0.299 -0.2,-0.03 -0.41,0.05 -0.56,0.157 0,0.1 -0.12,0.09 -0.15,0.133 -0.11,0.105 -0.13,0.234 -0.16,0.372 -0.1,0.485 -0.23,0.9677 -0.34,1.4457 0,0.327 -0.1,0.655 -0.23,0.969 -0.1,0.654 -0.18,1.318 -0.27,1.982 -0.1,0.703 -0.18,1.397 -0.28,2.101 -0.1,0.337 -0.1,0.674 -0.13,1.011 0,0.218 -0.1,0.427 -0.1,0.645 -0.1,0.495 0,0.995 0,1.493 0,0.178 0.15,0.383 0.29,0.493 0.16,0.132 0.37,0.18 0.57,0.177 0.2,-0.07 0.37,-0.131 0.5,-0.286 0.13,-0.174 0.16,-0.362 0.17,-0.572 0,-0.228 0,-0.479 0,-0.711 0,-0.228 0.1,-0.446 0.1,-0.674 0,-0.158 0,-0.317 0.1,-0.475 0,-0.308 0.1,-0.615 0.13,-0.932 0,-0.397 0.1,-0.793 0.16,-1.181 z m 9.07,-6.3417 c -0.13,-0.02 -0.25,-0.04 -0.39,0.06 -0.19,0.08 -0.32,0.219 -0.4,0.4 -0.14,0.284 -0.3,0.555 -0.43,0.841 -0.17,0.341 -0.25,0.702 -0.35,1.062 v -0.198 c -0.16,0.482 -0.28,0.9607 -0.39,1.4497 -0.1,0.456 -0.22,0.899 -0.31,1.351 -0.22,0.859 -0.4,1.722 -0.61,2.582 -0.1,-0.385 -0.17,-0.769 -0.26,-1.155 -0.11,-0.478 -0.22,-0.947 -0.34,-1.426 -0.1,-0.271 -0.11,-0.541 -0.17,-0.811 -0.1,-0.162 -0.1,-0.312 -0.1,-0.467 -0.1,-0.351 -0.15,-0.686 -0.29,-1.0067 -0.11,-0.247 -0.33,-0.428 -0.6,-0.464 -0.25,-0.03 -0.55,0.07 -0.71,0.289 0,0.1 -0.12,0.175 -0.16,0.27 0,0.139 0,0.2677 -0.1,0.4057 v 0.268 c 0,0.159 0,0.327 -0.1,0.486 0,0.376 -0.2,0.73 -0.25,1.097 -0.18,0.631 -0.27,1.285 -0.38,1.936 -0.1,0.714 -0.19,1.418 -0.38,2.118 0,0.337 -0.1,0.674 -0.13,1.001 -0.1,0.396 -0.21,0.79 -0.29,1.182 v 0.149 0.198 c 0,0.139 0,0.268 0.1,0.401 0.1,0.182 0.22,0.332 0.4,0.407 0.18,0.125 0.4,0.05 0.6,-0.02 0.16,-0.08 0.35,-0.225 0.4,-0.4 0.17,-0.512 0.27,-1.023 0.4,-1.541 0,-0.297 0.1,-0.594 0.22,-0.888 0.1,-0.744 0.3,-1.484 0.4,-2.237 0.1,-0.348 0.1,-0.694 0.14,-1.051 0.1,0.232 0.1,0.448 0.15,0.676 0.11,0.469 0.21,0.946 0.3,1.422 0.1,0.241 0.1,0.476 0.14,0.716 0,0.147 0.1,0.31 0.1,0.467 0.1,0.152 0.1,0.291 0.11,0.428 0.1,0.181 0.15,0.323 0.28,0.471 0.13,0.158 0.29,0.262 0.5,0.289 0.19,0.03 0.41,-0.05 0.57,-0.146 0.11,-0.09 0.12,-0.114 0.19,-0.176 0.11,-0.09 0.13,-0.114 0.19,-0.187 0,-0.1 0.12,-0.175 0.15,-0.271 0,-0.1 0.12,-0.136 0.13,-0.215 0,-0.158 0.15,-0.304 0.17,-0.463 0,-0.198 0.15,-0.373 0.17,-0.562 0.16,-0.422 0.23,-0.857 0.33,-1.288 0.17,-0.531 0.26,-1.074 0.38,-1.602 0.18,-0.552 0.26,-1.116 0.4,-1.673 0.1,-0.485 0.24,-0.946 0.36,-1.4137 v -0.13 c 0,-0.247 0.16,-0.481 0.26,-0.72 0.14,-0.284 0.29,-0.567 0.43,-0.851 0.18,-0.369 0,-0.843 -0.4,-0.992 -0.1,-0.01 -0.14,-0.02 -0.21,-0.03 z m -17.11,2.087 c -0.27,-0.037 -0.57,0.025 -0.84,-0.012 v 0 c -0.5,0.034 -0.99,0.1106 -1.48,0.2267 -0.12,-0.016 -0.25,0.067 -0.37,0.1009 0,0 0,0 0,0 -0.11,-0.115 -0.25,-0.1646 -0.4,-0.1845 -0.41,-0.054 -0.77,0.2303 -0.85,0.6129 0,0 0,0 0,0 -0.23,0.09 -0.47,0.1787 -0.71,0.2677 -0.21,0.07 -0.36,0.265 -0.43,0.468 0,0 0,0 -0.1,-0.01 0,0 -0.1,-0.01 -0.15,-0.02 0,0 0,0 0,0 -1.11,-0.148 -2.23,-0.197 -3.34,-0.336 -0.88,-0.118 -1.78,-0.237 -2.66,-0.3551 -0.4,-0.054 -0.8,0.2361 -0.85,0.6521 0,0.337 0.14,0.645 0.44,0.785 -0.23,0.424 -0.46,0.847 -0.68,1.261 -0.16,0.291 -0.32,0.583 -0.46,0.877 -0.35,0.67 -0.68,1.342 -1,2.025 -0.14,0.274 -0.24,0.564 -0.34,0.843 -0.17,0.432 -0.12,0.932 0,1.335 0.2,0.431 0.59,0.746 1,0.961 0.45,0.232 0.96,0.371 1.46,0.438 0.5,0.07 1.01,0.03 1.5,-0.02 0.51,-0.06 1,-0.199 1.5,-0.345 0.41,-0.116 0.8,-0.266 1.17,-0.468 0.44,-0.245 0.84,-0.534 1.26,-0.801 0.16,-0.1 0.26,-0.317 0.29,-0.506 0,-0.198 0,-0.4 -0.15,-0.554 -0.12,-0.167 -0.31,-0.273 -0.51,-0.3 -0.2,-0.03 -0.39,0.05 -0.56,0.157 -0.32,0.199 -0.64,0.428 -0.97,0.626 -0.44,0.225 -0.89,0.386 -1.36,0.514 -0.49,0.126 -1,0.2 -1.51,0.223 -0.3,-0.04 -0.61,-0.08 -0.93,-0.125 -0.19,-0.02 -0.36,-0.149 -0.54,-0.214 -0.1,-0.01 -0.14,-0.119 -0.21,-0.148 0,0 -0.1,-0.112 -0.1,-0.112 0,0 0,0 0,0 0,0 0,0 0,-0.1 0.17,-0.503 0.4,-0.976 0.63,-1.45 0.13,0.119 0.28,0.139 0.45,0.06 0.66,-0.03 1.32,-0.07 1.97,-0.131 0.4,-0.05 0.79,-0.08 1.18,-0.113 0.81,-0.07 1.62,-0.199 2.41,-0.293 0.41,-0.05 0.71,-0.451 0.66,-0.861 -0.1,-0.35 -0.33,-0.599 -0.67,-0.644 -0.1,-0.01 -0.12,-0.02 -0.18,-0.03 -0.8,0.09 -1.6,0.22 -2.39,0.295 -0.39,0.05 -0.77,0.07 -1.16,0.108 -0.51,0.04 -1.03,0.07 -1.54,0.107 0.15,-0.302 0.32,-0.614 0.48,-0.915 0.21,-0.405 0.43,-0.81 0.65,-1.203 0,-0.11 0,-0.228 0,-0.347 0.44,0.06 0.88,0.118 1.32,0.176 1.14,0.152 2.28,0.204 3.42,0.337 0.37,0.05 0.71,-0.177 0.83,-0.525 0.15,0.02 0.31,0.04 0.46,0.06 0,0.218 -0.1,0.436 -0.1,0.654 -0.1,0.565 -0.15,1.14 -0.23,1.705 0,0.198 0,0.397 -0.1,0.595 0,0.337 -0.1,0.684 -0.14,1.031 0,0.267 0,0.558 0,0.826 0,0.618 0,1.215 -0.1,1.829 0,0.208 0.1,0.4 0.15,0.564 0.12,0.157 0.31,0.263 0.5,0.29 0.1,0.01 0.1,0.01 0.15,0.02 0.14,0.02 0.29,-0.06 0.42,-0.157 0,0 0.11,-0.09 0.11,-0.09 0.12,-0.116 0.19,-0.268 0.19,-0.409 0,-0.589 0,-1.177 0,-1.769 0,-0.277 0,-0.578 0,-0.856 0,-0.208 0,-0.416 0.1,-0.624 0,0 0,0 0,0 0.1,0.112 0.1,0.173 0.14,0.251 0.15,0.241 0.36,0.432 0.58,0.612 0.68,0.535 1.4,1.015 2.11,1.503 0.75,0.514 1.5,1.038 2.23,1.56 0.34,0.238 0.81,0.209 1.08,-0.128 0.24,-0.321 0.21,-0.829 -0.14,-1.078 -0.76,-0.536 -1.52,-1.071 -2.29,-1.598 -0.26,-0.187 -0.53,-0.364 -0.79,-0.55 -0.26,-0.176 -0.52,-0.351 -0.78,-0.537 -0.14,-0.121 -0.3,-0.222 -0.46,-0.344 0.12,-0.09 0.15,-0.102 0.22,-0.153 0.17,-0.118 0.35,-0.245 0.52,-0.374 0.53,-0.374 1.01,-0.804 1.45,-1.259 0.21,-0.224 0.4,-0.482 0.55,-0.743 0.2,-0.297 0.33,-0.613 0.4,-0.956 0,-0.337 0.1,-0.683 0,-1.012 -0.1,-0.142 -0.12,-0.268 -0.2,-0.3995 -0.1,-0.1546 -0.23,-0.2935 -0.39,-0.4151 -0.26,-0.2268 -0.62,-0.3254 -0.96,-0.3903 -0.1,-0.013 -0.1,-0.013 -0.13,-0.019 z m -0.2,1.5167 c 0.1,0.01 0.16,0.02 0.24,0.03 0.1,0.01 0.11,0.01 0.15,0.02 0,0 0,0 0.1,0.01 0,0 0,0 0,0 0,0 0,0 0,0 0,0 0,0 0,0 0,0.1 0,0.139 0,0.208 0,0.129 -0.14,0.254 -0.16,0.382 -0.19,0.267 -0.4,0.522 -0.62,0.765 -0.52,0.485 -1.08,0.905 -1.66,1.311 -0.12,0.08 -0.24,0.169 -0.36,0.245 -0.11,0.09 -0.16,0.119 -0.23,0.181 -0.11,0.09 -0.14,0.132 -0.21,0.194 0,0 0,0.1 0,0.1 0,0 0,-0.1 0,-0.1 0.1,-0.565 0.15,-1.14 0.23,-1.705 0.1,-0.486 0.13,-0.971 0.19,-1.457 0.13,-0.08 0.25,-0.07 0.36,-0.104 0.58,-0.145 1.16,-0.247 1.75,-0.26 0.1,0.01 0.16,0.02 0.25,0.03 z M 107.96,9.6964 c -0.13,-0.017 -0.25,-0.035 -0.39,0.059 -0.19,0.075 -0.32,0.2192 -0.4,0.3996 -0.14,0.284 -0.3,0.555 -0.43,0.841 -0.17,0.341 -0.25,0.702 -0.35,1.062 0,-0.1 0,-0.129 0,-0.198 -0.16,0.482 -0.28,0.961 -0.39,1.45 -0.1,0.456 -0.22,0.899 -0.31,1.351 -0.22,0.859 -0.4,1.723 -0.61,2.582 -0.1,-0.385 -0.17,-0.769 -0.26,-1.155 -0.11,-0.478 -0.22,-0.947 -0.34,-1.426 -0.1,-0.271 -0.11,-0.541 -0.17,-0.811 -0.1,-0.162 -0.1,-0.312 -0.1,-0.467 -0.1,-0.351 -0.15,-0.686 -0.29,-1.007 -0.11,-0.247 -0.33,-0.428 -0.6,-0.464 -0.25,-0.03 -0.55,0.07 -0.71,0.289 0,0.1 -0.12,0.175 -0.16,0.27 0,0.139 0,0.268 -0.1,0.406 0,0.1 0,0.179 0,0.268 0,0.159 0,0.327 -0.1,0.486 0,0.376 -0.2,0.73 -0.25,1.097 -0.18,0.631 -0.27,1.285 -0.38,1.936 -0.1,0.714 -0.19,1.418 -0.38,2.118 0,0.337 -0.1,0.674 -0.13,1.001 -0.1,0.396 -0.21,0.79 -0.29,1.182 0,0.1 0,0.1 0,0.149 0,0.1 0,0.139 0,0.198 0,0.139 0,0.268 0.1,0.401 0.1,0.182 0.22,0.332 0.4,0.407 0.18,0.125 0.4,0.05 0.6,-0.02 0.16,-0.08 0.35,-0.225 0.4,-0.4 0.17,-0.512 0.27,-1.023 0.4,-1.541 0,-0.297 0.1,-0.594 0.22,-0.888 0.1,-0.744 0.3,-1.484 0.4,-2.237 0.1,-0.347 0.1,-0.694 0.14,-1.051 0.1,0.232 0.1,0.448 0.15,0.676 0.11,0.469 0.21,0.946 0.3,1.422 0.1,0.241 0.1,0.476 0.14,0.716 0,0.148 0.1,0.31 0.1,0.467 0.1,0.152 0.1,0.291 0.11,0.428 0.1,0.181 0.15,0.323 0.28,0.471 0.13,0.158 0.29,0.262 0.5,0.289 0.19,0.03 0.41,-0.05 0.57,-0.146 0.11,-0.09 0.12,-0.114 0.19,-0.176 0.11,-0.09 0.13,-0.114 0.19,-0.187 0,-0.1 0.12,-0.175 0.15,-0.271 0,-0.1 0.12,-0.136 0.13,-0.215 0,-0.158 0.15,-0.304 0.17,-0.462 0,-0.199 0.15,-0.374 0.17,-0.562 0.16,-0.423 0.23,-0.858 0.33,-1.288 0.17,-0.532 0.26,-1.075 0.38,-1.603 0.18,-0.552 0.26,-1.116 0.4,-1.673 0.1,-0.485 0.24,-0.946 0.36,-1.414 0,-0.1 0,-0.1 0,-0.129 0,-0.248 0.16,-0.482 0.26,-0.721 0.14,-0.284 0.29,-0.567 0.43,-0.851 0.18,-0.369 0,-0.8422 -0.4,-0.9917 -0.1,-0.013 -0.14,-0.019 -0.21,-0.028 z m -7.01,0.8776 c -0.1,-0.01 -0.14,-0.02 -0.22,-0.03 -1.079,0.03 -2.147,0.07 -3.225,0.09 -1.037,0.03 -2.059,0.209 -3.076,0.416 -0.201,0.07 -0.369,0.122 -0.502,0.286 -0.01,0.1 -0.123,0.165 -0.136,0.264 -0.01,0.1 -0.01,0.1 -0.02,0.159 -0.01,0.1 -0.01,0.1 -0.02,0.148 0.05,0.39 0.447,0.726 0.851,0.649 0.415,-0.09 0.829,-0.161 1.251,-0.226 -0.04,0.297 -0.08,0.585 -0.118,0.882 -0.04,0.307 -0.08,0.625 -0.125,0.932 0,0.717 -0.08,1.412 -0.09,2.116 -0.03,1.712 -0.02,3.417 0.01,5.127 -0.01,0.1 0.07,0.202 0.09,0.275 0,0 0.08,0.112 0.09,0.124 0,0 0.09,0.112 0.1,0.113 0.165,0.123 0.369,0.181 0.571,0.178 0.202,-0.07 0.371,-0.132 0.493,-0.288 0.01,-0.1 0.115,-0.105 0.123,-0.165 0,0 0.01,-0.1 0.01,-0.1 0.01,-0.1 0.03,-0.198 0.04,-0.297 -0.02,-0.608 -0.02,-1.204 -0.03,-1.81 0,-1.15 0.01,-2.289 0.03,-3.436 0.03,-0.258 -0.03,-0.538 0,-0.796 0.04,-0.288 -0.02,-0.588 0.02,-0.876 0.09,-0.703 0.189,-1.407 0.285,-2.111 0.103,0.01 0.193,0.03 0.293,-0.06 1.068,-0.03 2.146,-0.07 3.225,-0.09 0.18,0.02 0.38,-0.151 0.49,-0.287 0.13,-0.164 0.18,-0.38 0.18,-0.572 -0.1,-0.202 -0.13,-0.381 -0.29,-0.502 -0.1,-0.115 -0.22,-0.131 -0.35,-0.149 z m -10.232,0.769 c -0.149,-0.02 -0.297,-0.04 -0.436,-0.06 -0.169,-0.02 -0.331,0.06 -0.493,0.06 -0.416,0.1 -0.773,0.27 -1.136,0.494 0,0 0,0 0,0 -0.1,-0.01 -0.185,-0.126 -0.304,-0.141 -0.148,-0.02 -0.287,-0.04 -0.432,0.06 0,0 -0.112,0.09 -0.122,0.08 v 0 c -0.146,0.112 -0.294,0.314 -0.3,0.505 -0.04,0.278 0.02,0.578 -0.01,0.856 -0.02,0.139 -0.136,0.264 -0.154,0.393 -0.03,0.198 -0.152,0.383 -0.178,0.581 -0.03,0.248 -0.07,0.496 0,0.757 0.05,0.39 0.14,0.765 0.232,1.131 -0.01,0.1 -0.01,0.1 0.08,0.152 0,0 0,0 0,0 -0.02,0.178 -0.05,0.367 0.03,0.558 0,1.525 0.08,3.047 0.08,4.57 0.01,-0.1 0.02,-0.128 0.03,-0.198 -0.05,0.407 0,0.828 0,1.241 -0.03,0.188 0.149,0.393 0.286,0.502 0.165,0.123 0.369,0.18 0.571,0.177 0.202,-0.07 0.371,-0.132 0.493,-0.287 0.01,-0.1 0.116,-0.116 0.124,-0.175 0,0 0.01,-0.1 0.01,-0.1 0.01,-0.1 0.03,-0.198 0.04,-0.298 0,0 0,0 0,0 0,0 0,0 0,0 0,0 0,0 0,0 0,0 0,0 0,0 0,0 0,0 0,0 0,-1.11 -0.02,-2.221 -0.05,-3.335 0.291,0.24 0.573,0.47 0.855,0.699 0.346,0.279 0.683,0.546 1.02,0.823 0.41,0.327 0.844,0.627 1.292,0.899 0.495,0.298 1.002,0.578 1.508,0.868 0.165,0.123 0.426,0.06 0.588,-0.02 0.192,-0.07 0.333,-0.227 0.408,-0.409 0.124,-0.175 0.05,-0.407 -0.02,-0.588 0.01,-0.1 -0.09,-0.123 -0.1,-0.175 -0.09,-0.112 -0.187,-0.186 -0.312,-0.233 -0.365,-0.21 -0.73,-0.421 -1.096,-0.631 -0.812,-0.492 -1.54,-1.084 -2.277,-1.677 -0.183,-0.145 -0.355,-0.289 -0.529,-0.424 -0.253,-0.215 -0.528,-0.424 -0.782,-0.639 0.428,-0.256 0.845,-0.512 1.265,-0.779 0.562,-0.359 1.124,-0.788 1.538,-1.318 0.257,-0.339 0.432,-0.739 0.499,-1.164 0.02,-0.178 0.05,-0.377 -0.03,-0.558 -0.07,-0.252 -0.106,-0.489 -0.186,-0.721 -0.08,-0.172 -0.174,-0.357 -0.274,-0.511 -0.109,-0.166 -0.222,-0.302 -0.366,-0.433 -0.153,-0.141 -0.309,-0.253 -0.487,-0.357 -0.1,-0.01 -0.155,-0.122 -0.235,-0.133 -0.125,-0.117 -0.274,-0.137 -0.422,-0.157 0,0 -0.1,-0.01 -0.119,-0.02 z m -6.073,-0.378 c -0.1,-0.01 -0.179,-0.02 -0.258,-0.04 -0.301,0.06 -0.517,0.244 -0.68,0.484 -0.19,0.288 -0.324,0.613 -0.477,0.925 -0.339,0.722 -0.599,1.464 -0.871,2.214 -0.155,0.403 -0.27,0.812 -0.405,1.217 -0.146,0.334 -0.212,0.678 -0.308,1.019 -0.513,1.646 -1.026,3.293 -1.323,4.988 -0.06,0.406 0.256,0.801 0.652,0.854 0,0 0.109,0.02 0.159,0.02 0.35,-0.05 0.635,-0.298 0.693,-0.654 0.03,-0.237 0.06,-0.475 0.09,-0.713 0.02,-0.169 0.05,-0.347 0.07,-0.516 0.05,-0.386 0.201,-0.75 0.291,-1.121 0.02,-0.158 0.04,-0.307 0.16,-0.443 0.129,0.02 0.268,0.04 0.407,0.06 0.442,-0.06 0.883,-0.114 1.322,-0.156 0.139,0.02 0.291,-0.06 0.43,-0.04 0.06,0.291 0.04,0.57 0.06,0.846 0.07,0.241 0.04,0.459 0.06,0.684 0.07,0.553 0.249,1.082 0.398,1.627 0.08,0.181 0.247,0.335 0.409,0.408 0.185,0.125 0.407,0.05 0.598,-0.02 0.182,-0.08 0.324,-0.229 0.408,-0.41 0.01,-0.1 0.02,-0.129 0.03,-0.198 0.02,-0.139 0.03,-0.258 -0.05,-0.39 -0.07,-0.211 -0.127,-0.41 -0.179,-0.619 -0.132,-0.522 -0.17,-1.072 -0.209,-1.612 0.02,-0.149 -0.06,-0.311 -0.04,-0.469 0.109,0.01 0.208,0.03 0.321,-0.06 0.42,-0.04 0.708,-0.47 0.66,-0.86 -0.07,-0.202 -0.131,-0.381 -0.286,-0.503 -0.116,-0.116 -0.235,-0.132 -0.364,-0.149 -0.1,-0.01 -0.138,-0.02 -0.208,-0.03 -0.1,-0.01 -0.138,-0.02 -0.208,-0.03 0.02,-0.168 -0.05,-0.35 -0.03,-0.529 -0.05,-0.399 -0.06,-0.795 -0.101,-1.204 -0.05,-0.399 -0.06,-0.805 -0.1,-1.214 -0.04,-0.429 -0.08,-0.857 -0.14,-1.29 -0.07,-0.251 -0.07,-0.493 -0.103,-0.74 0.01,-0.109 -0.07,-0.231 -0.05,-0.35 -0.06,-0.291 -0.124,-0.581 -0.303,-0.827 -0.137,-0.18 -0.365,-0.291 -0.593,-0.322 z m 5.989,1.911 v 0 c 0.1,0.01 0.1,0.01 0.145,0.12 0.1,0.01 0.126,0.118 0.183,0.146 0.09,0.112 0.104,0.125 0.146,0.191 0.08,0.122 0.109,0.236 0.153,0.363 -0.02,0.109 0.07,0.222 0.06,0.321 0,0 -0.01,0.1 -0.01,0.1 -0.01,0.1 -0.123,0.165 -0.135,0.254 -0.117,0.116 -0.172,0.229 -0.269,0.348 -0.321,0.29 -0.668,0.546 -1.034,0.79 -0.177,0.117 -0.353,0.225 -0.528,0.332 -0.155,0.101 -0.308,0.191 -0.462,0.282 0,-0.777 0.02,-1.552 0.03,-2.327 0.118,-0.126 0.196,-0.256 0.302,-0.373 0.114,-0.1 0.228,-0.192 0.358,-0.265 0.152,-0.08 0.313,-0.15 0.481,-0.198 0.1,0.01 0.201,-0.07 0.31,-0.06 0.1,0.01 0.169,0.02 0.258,0.03 z M 77.895,11.797 c -0.139,-0.02 -0.278,-0.04 -0.417,-0.06 -0.138,-0.02 -0.267,-0.04 -0.419,0.04 v 0 c -0.288,-0.04 -0.592,0.05 -0.884,0.124 -0.324,0.08 -0.611,0.191 -0.907,0.363 -0.294,0.162 -0.571,0.347 -0.849,0.542 -0.334,0.238 -0.392,0.745 -0.142,1.061 0.09,0.112 0.179,0.175 0.282,0.229 -0.07,0.496 -0.132,0.991 -0.199,1.487 -0.08,0.585 -0.156,1.169 -0.234,1.754 -0.09,0.664 -0.08,1.352 -0.129,2.021 -0.04,0.327 -0.09,0.644 -0.03,0.985 0.01,0.647 -0.01,1.289 0,1.936 -0.03,0.188 0.149,0.393 0.286,0.502 0.165,0.123 0.369,0.181 0.571,0.177 0.202,-0.07 0.381,-0.13 0.503,-0.285 0.01,-0.1 0.115,-0.106 0.123,-0.166 0,0 0.01,-0.1 0.01,-0.1 0.01,-0.1 0.03,-0.198 0.04,-0.297 0.04,-0.297 -0.02,-0.598 -0.01,-0.89 -0.02,-0.578 0.04,-1.154 0.08,-1.724 0.02,-0.119 0.03,-0.228 0.05,-0.337 0,0 0.1,0.01 0.112,-0.09 0.539,-0.18 1.084,-0.329 1.601,-0.573 0.309,-0.13 0.596,-0.314 0.883,-0.497 0.255,-0.168 0.512,-0.355 0.759,-0.544 0.26,-0.208 0.493,-0.439 0.715,-0.671 0.211,-0.214 0.392,-0.442 0.547,-0.694 0.347,-0.559 0.524,-1.201 0.409,-1.852 -0.09,-0.557 -0.37,-1.079 -0.751,-1.473 -0.23,-0.242 -0.485,-0.448 -0.787,-0.599 -0.302,-0.162 -0.612,-0.254 -0.944,-0.339 -0.1,-0.01 -0.149,-0.02 -0.228,-0.03 z m 6.354,2.051 c 0.06,0.271 0.04,0.54 0.07,0.807 0.06,0.644 0.1,1.284 0.155,1.927 0.06,0.331 0.05,0.663 0.07,0.988 -0.169,-0.02 -0.35,0.05 -0.531,0.05 -0.361,0.05 -0.718,0.09 -1.077,0.129 0.175,-0.552 0.34,-1.105 0.513,-1.647 0.141,-0.304 0.194,-0.62 0.304,-0.918 0.15,-0.363 0.26,-0.732 0.399,-1.096 0.01,-0.1 0.02,-0.169 0.133,-0.235 z m -6.617,-0.542 c 0.109,0.01 0.209,0.03 0.318,0.04 0.158,0.02 0.303,0.142 0.459,0.183 0.106,0.115 0.211,0.159 0.311,0.243 0.09,0.112 0.157,0.182 0.223,0.292 0.09,0.112 0.101,0.226 0.146,0.342 -0.01,0.1 -0.02,0.139 0.07,0.232 -0.01,0.1 -0.02,0.168 -0.03,0.258 -0.02,0.128 -0.132,0.234 -0.148,0.353 -0.152,0.232 -0.341,0.439 -0.53,0.645 -0.428,0.407 -0.918,0.755 -1.412,1.052 -0.294,0.163 -0.583,0.286 -0.89,0.396 -0.142,0.08 -0.275,0.09 -0.412,0.136 0,0 0.01,-0.1 0.02,-0.118 0.07,-0.546 0.147,-1.101 0.22,-1.646 0.1,-0.713 0.191,-1.427 0.288,-2.151 0,0 0.01,-0.1 0.01,-0.1 0.112,-0.09 0.182,-0.08 0.276,-0.104 0.281,-0.06 0.568,-0.1 0.851,-0.1 0.109,0.01 0.208,0.03 0.317,0.04 z m -6.196,-0.517 c -0.416,-0.05 -0.8,0.247 -0.854,0.653 -0.09,0.654 -0.174,1.298 -0.261,1.953 -0.04,0.327 -0.09,0.654 -0.131,0.981 -0.03,0.218 -0.06,0.436 -0.09,0.664 -0.1,-0.01 -0.208,-0.03 -0.321,0.06 -0.32,0.06 -0.628,0.02 -0.941,0.03 -0.44,0.04 -0.873,0.04 -1.311,0.07 0.02,-0.149 0.04,-0.287 0.06,-0.426 0.04,-0.317 0.08,-0.635 0.129,-0.962 0.04,-0.297 0.08,-0.604 0.22,-0.888 0.07,-0.486 0.23,-0.968 0.345,-1.447 0.02,-0.189 -0.05,-0.42 -0.147,-0.565 -0.129,-0.168 -0.306,-0.273 -0.505,-0.299 -0.198,-0.03 -0.409,0.05 -0.565,0.156 -0.01,0.1 -0.113,0.09 -0.139,0.133 -0.115,0.106 -0.132,0.234 -0.161,0.372 -0.06,0.485 -0.23,0.968 -0.345,1.447 -0.04,0.327 -0.09,0.654 -0.23,0.968 -0.09,0.654 -0.177,1.318 -0.265,1.982 -0.09,0.704 -0.187,1.398 -0.282,2.101 -0.05,0.337 -0.09,0.674 -0.135,1.011 -0.03,0.218 -0.06,0.427 -0.09,0.645 -0.07,0.495 -0.02,0.995 0,1.493 -0.02,0.178 0.15,0.383 0.287,0.493 0.164,0.132 0.37,0.18 0.572,0.177 0.201,-0.07 0.38,-0.131 0.502,-0.286 0.134,-0.174 0.159,-0.362 0.177,-0.572 0.03,-0.228 -0.04,-0.479 -0.04,-0.711 0.03,-0.228 0.06,-0.446 0.09,-0.674 0.02,-0.158 0.04,-0.317 0.06,-0.475 0.04,-0.308 0.08,-0.615 0.125,-0.932 0.05,-0.397 0.106,-0.793 0.158,-1.18 0,0 0,0 0.1,0.01 0.54,-0.04 1.089,-0.08 1.635,-0.08 0.248,0.03 0.509,-0.03 0.769,-0.02 -0.03,0.238 -0.06,0.475 -0.09,0.713 -0.109,0.813 -0.217,1.626 -0.425,2.425 -0.06,0.417 0.245,0.81 0.661,0.866 0,0 0.1,0.01 0.148,0.02 0.351,-0.05 0.646,-0.297 0.705,-0.662 0.108,-0.813 0.217,-1.625 0.425,-2.425 0.04,-0.317 0.08,-0.624 0.224,-0.918 0,0 0,0 0.01,-0.1 0,0 0,0 0,0 0.208,0.03 0.429,-0.04 0.632,-0.05 0.188,0.02 0.382,-0.141 0.502,-0.286 0.122,-0.155 0.181,-0.369 0.176,-0.562 0.02,-0.188 -0.131,-0.38 -0.286,-0.502 -0.106,-0.115 -0.225,-0.131 -0.353,-0.148 -0.1,-0.01 -0.139,-0.02 -0.209,-0.03 0,0 -0.1,-0.01 -0.1,-0.01 0.02,-0.119 0.03,-0.248 0.05,-0.367 0.04,-0.327 0.09,-0.654 0.133,-0.991 0.09,-0.644 0.172,-1.289 0.26,-1.943 0.05,-0.406 -0.246,-0.8 -0.653,-0.854 z m -9.303,-0.296 c -0.327,-0.04 -0.653,0.01 -0.972,0.09 v 0 c -0.437,0.133 -0.823,0.384 -1.175,0.67 -0.314,0.251 -0.586,0.568 -0.838,0.877 -0.291,0.364 -0.532,0.766 -0.75,1.171 -0.195,0.367 -0.342,0.751 -0.48,1.136 -0.16,0.443 -0.283,0.9 -0.399,1.359 -0.09,0.372 -0.173,0.764 -0.193,1.145 -0.03,0.469 0.06,0.945 0.255,1.376 0.383,0.807 1.136,1.372 1.92,1.75 0.152,0.121 0.323,0.144 0.491,0.176 0.232,0.03 0.442,0.16 0.68,0.192 0.476,0.06 0.981,-0.09 1.41,-0.285 0.762,-0.342 1.32,-0.964 1.928,-1.518 0.151,-0.141 0.261,-0.288 0.29,-0.506 0.03,-0.198 -0.05,-0.4 -0.146,-0.565 -0.13,-0.158 -0.308,-0.263 -0.506,-0.289 -0.189,-0.03 -0.43,0.04 -0.565,0.146 -0.254,0.239 -0.498,0.478 -0.75,0.707 -0.22,0.213 -0.456,0.393 -0.699,0.552 -0.143,0.08 -0.281,0.134 -0.429,0.185 -0.129,-0.02 -0.271,0.06 -0.411,0.06 -0.1,-0.01 -0.188,-0.03 -0.291,-0.04 -0.241,-0.03 -0.455,-0.172 -0.672,-0.292 -0.205,-0.128 -0.394,-0.274 -0.571,-0.439 -0.1,-0.114 -0.188,-0.227 -0.27,-0.349 -0.04,-0.106 -0.08,-0.172 -0.113,-0.257 -0.02,-0.125 -0.04,-0.238 -0.04,-0.349 0.02,-0.442 0.118,-0.882 0.234,-1.301 0.205,-0.729 0.456,-1.442 0.822,-2.109 0.249,-0.401 0.538,-0.786 0.868,-1.125 0.179,-0.168 0.365,-0.315 0.566,-0.439 0.113,-0.09 0.208,-0.09 0.325,-0.138 0.1,0.01 0.119,0.02 0.202,-0.07 0,0 0.1,0.01 0.158,0.02 0,0 0.11,0.02 0.159,0.02 0,0 0.09,0.113 0.116,0.117 0.09,0.112 0.121,0.147 0.18,0.236 0.09,0.163 0.177,0.336 0.275,0.511 0.09,0.183 0.208,0.33 0.399,0.406 0.185,0.126 0.407,0.05 0.598,-0.02 0.182,-0.08 0.333,-0.227 0.408,-0.409 0.02,-0.179 0.06,-0.416 -0.02,-0.598 -0.177,-0.337 -0.341,-0.692 -0.572,-1.005 -0.256,-0.347 -0.626,-0.598 -1.03,-0.743 -0.139,-0.02 -0.268,-0.04 -0.406,-0.05 z m -5.759,-0.125 c -0.02,0 -0.03,0 -0.05,0 v 0 c -0.702,0 -1.401,-0.02 -2.098,-0.07 -0.339,-0.04 -0.68,-0.09 -1.034,-0.04 -0.602,-0.08 -1.218,-0.06 -1.82,-0.143 -0.365,-0.05 -0.711,0.177 -0.824,0.515 -0.05,0 -0.09,-0.01 -0.139,-0.02 -0.202,0.07 -0.377,0.131 -0.499,0.286 -0.12,0.145 -0.195,0.378 -0.156,0.564 0.159,0.738 0.295,1.483 0.312,2.241 -0.02,1.209 -0.215,2.403 -0.39,3.59 -0.1,0.633 -0.188,1.257 -0.282,1.88 -0.02,0.178 -0.05,0.357 -0.07,0.535 -0.02,0.188 -0.05,0.377 -0.08,0.565 -0.02,0.239 0.03,0.438 0.1,0.669 0.06,0.21 0.249,0.376 0.404,0.528 0.07,0.109 0.157,0.122 0.248,0.164 0.125,0.02 0.228,0.131 0.36,0.159 0.407,0.156 0.853,0.114 1.276,0.171 0.369,0.05 0.733,0.1 1.113,0.05 0.335,0.04 0.682,-0.01 1.019,-0.02 0.505,-0.03 1.005,-0.138 1.507,-0.222 0.409,-0.06 0.708,-0.44 0.651,-0.851 -0.05,-0.411 -0.448,-0.716 -0.859,-0.65 -0.32,0.06 -0.637,0.1 -0.958,0.154 -0.333,0.06 -0.662,0.07 -0.998,0.08 -0.248,-0.03 -0.511,0.03 -0.759,0 -0.182,-0.02 -0.363,-0.05 -0.545,-0.07 -0.305,-0.04 -0.612,-0.08 -0.918,-0.123 -0.04,0 -0.07,0 -0.109,-0.01 0.05,-0.548 0.146,-1.091 0.228,-1.634 0.05,-0.407 0.12,-0.822 0.186,-1.237 0.06,-0.416 0.12,-0.821 0.185,-1.236 0.408,0.05 0.802,0.208 1.211,0.263 0.548,0.07 1.097,0.146 1.645,0.22 0.411,0.05 0.8,-0.236 0.856,-0.652 0.05,-0.407 -0.242,-0.81 -0.655,-0.855 -0.548,-0.07 -1.096,-0.146 -1.644,-0.22 -0.418,-0.06 -0.836,-0.112 -1.24,-0.266 0.03,-0.46 0.04,-0.933 0.03,-1.399 -0.01,-0.567 -0.119,-1.126 -0.234,-1.686 0.547,0.07 1.093,0.146 1.652,0.12 0.332,0.04 0.664,0.09 1.01,0.03 0.699,0.09 1.416,0.05 2.123,0.06 0.208,0.03 0.395,-0.05 0.563,-0.146 0.16,-0.12 0.266,-0.308 0.292,-0.506 0.03,-0.198 -0.03,-0.407 -0.148,-0.565 -0.103,-0.135 -0.283,-0.259 -0.461,-0.283 z m -10.403,0.586 c -0.43,-0.06 -0.872,-0.02 -1.299,-0.03 v 0 c -0.242,-0.03 -0.493,0.04 -0.733,0.08 -0.06,0 -0.141,0.08 -0.205,0.07 0,0 0,0 -0.02,0 -0.05,0 -0.1,-0.01 -0.147,-0.02 -0.199,-0.03 -0.406,0.05 -0.563,0.147 v 0 c -0.07,0.09 -0.12,0.115 -0.164,0.18 -0.127,0.08 -0.246,0.128 -0.366,0.183 -0.232,0.12 -0.454,0.252 -0.677,0.384 -0.163,0.09 -0.269,0.327 -0.293,0.505 -0.03,0.198 0.03,0.397 0.151,0.555 0.121,0.168 0.304,0.273 0.504,0.3 0.07,0 0.133,0.02 0.2,0.03 0.02,0 0.05,0 0.07,0.01 -0.03,0.267 -0.09,0.532 -0.127,0.8 -0.1,0.743 -0.199,1.487 -0.298,2.23 -0.05,0.347 -0.09,0.694 -0.139,1.041 -0.04,0.317 -0.09,0.634 -0.126,0.941 -0.04,0.339 -0.07,0.667 -0.08,0.998 0,0.201 -0.02,0.41 -0.03,0.611 -0.02,0.562 0.02,1.133 0.04,1.701 0,0.192 0.144,0.392 0.286,0.502 0.161,0.122 0.369,0.18 0.569,0.177 0.201,-0.07 0.376,-0.131 0.498,-0.287 0.135,-0.173 0.158,-0.352 0.156,-0.564 -0.01,-0.425 -0.03,-0.852 -0.04,-1.276 0.02,-1.249 0.224,-2.502 0.384,-3.742 0.1,-0.744 0.199,-1.487 0.299,-2.24 0.07,-0.526 0.161,-1.048 0.261,-1.57 0.348,-0.06 0.703,-0.1 1.058,-0.11 0.312,0.04 0.624,0.08 0.938,0.125 0.101,0.01 0.201,0.03 0.286,0.14 0.04,0 0.07,0 0.1,0.113 0,0 0,0 0,0 0,0 0,0 0,0 0,0 0,0 0,0 0,0 -0.03,0.1 -0.04,0.105 -0.09,0.13 -0.176,0.239 -0.278,0.357 -0.405,0.369 -0.847,0.693 -1.289,1.028 -0.239,0.18 -0.455,0.383 -0.663,0.597 -0.154,0.161 -0.279,0.356 -0.386,0.554 -0.12,0.216 -0.186,0.449 -0.219,0.697 -0.06,0.456 0.08,0.909 0.255,1.325 0.09,0.224 0.219,0.423 0.339,0.621 0.07,0.121 0.144,0.241 0.219,0.352 0.176,0.276 0.353,0.552 0.53,0.818 0.104,0.185 0.209,0.37 0.313,0.556 0.103,0.175 0.213,0.351 0.305,0.535 0.141,0.281 0.282,0.562 0.42,0.853 0.247,0.498 0.454,1.01 0.676,1.523 0.166,0.376 0.61,0.566 0.997,0.406 0.379,-0.161 0.575,-0.619 0.409,-0.994 -0.403,-0.922 -0.796,-1.852 -1.294,-2.726 -0.207,-0.361 -0.401,-0.74 -0.628,-1.093 -0.25,-0.386 -0.503,-0.773 -0.743,-1.159 -0.1,-0.195 -0.184,-0.387 -0.254,-0.588 0,-0.102 -0.02,-0.135 -0.03,-0.207 0,0 0.01,-0.1 0.02,-0.158 0,0 0.01,0 0.03,-0.1 0.09,-0.119 0.175,-0.239 0.276,-0.346 0.183,-0.167 0.378,-0.313 0.575,-0.458 0.326,-0.249 0.644,-0.499 0.953,-0.76 0.385,-0.332 0.719,-0.721 0.927,-1.188 0.115,-0.257 0.123,-0.538 0.11,-0.823 C 47.984,14.391 47.836,14.13 47.68,13.917 47.559,13.74 47.378,13.594 47.199,13.49 46.942,13.334 46.684,13.239 46.393,13.17 46.244,13.15 46.096,13.13 45.948,13.11 Z m -7.397,0.241 c -0.339,-0.04 -0.691,0 -1.027,-0.03 -0.433,0.04 -0.852,0.1 -1.267,0.204 -0.108,-0.01 -0.229,0.07 -0.338,0.09 -0.01,0 -0.02,0 -0.03,0 -0.02,0 -0.05,0 -0.07,-0.01 -0.05,0 -0.1,-0.01 -0.147,-0.02 -0.37,-0.05 -0.692,0.18 -0.816,0.506 0,0 0,0 0,0 0,0 0,0 0,0 -0.328,0.188 -0.638,0.399 -0.891,0.688 -0.152,0.171 -0.271,0.357 -0.384,0.554 -0.106,0.188 -0.2,0.377 -0.278,0.578 -0.142,0.385 0.01,0.829 0.403,1.002 0.276,0.138 0.613,0.08 0.833,-0.16 0,0 -0.01,0.1 -0.01,0.1 -0.05,0.791 -0.07,1.574 -0.1,2.357 0,0 0,0 0,0 -0.04,0 -0.07,0 -0.109,-0.01 -0.05,0 -0.108,-0.02 -0.163,-0.02 -0.07,0 -0.134,-0.02 -0.2,-0.03 -0.128,-0.02 -0.254,0.08 -0.36,0.154 -0.159,0.12 -0.266,0.307 -0.292,0.505 -0.03,0.199 0.03,0.407 0.149,0.565 0.111,0.146 0.315,0.284 0.504,0.29 0.141,0.02 0.281,0.04 0.434,-0.04 0,0.251 -0.02,0.512 -0.03,0.772 -0.05,0.972 -0.153,1.937 -0.271,2.9 -0.06,0.416 0.239,0.799 0.655,0.854 0.408,0.05 0.805,-0.235 0.856,-0.652 0.116,-0.943 0.222,-1.887 0.269,-2.84 0.02,-0.36 0.04,-0.721 0.05,-1.092 0,-0.141 0,-0.291 0,-0.443 0.438,-0.183 0.874,-0.377 1.298,-0.593 0.379,-0.191 0.75,-0.394 1.116,-0.607 0.34,-0.207 0.661,-0.436 0.977,-0.666 0.325,-0.239 0.623,-0.512 0.88,-0.821 0.152,-0.181 0.267,-0.388 0.386,-0.594 0.118,-0.206 0.201,-0.447 0.249,-0.673 0.03,-0.177 0.05,-0.367 0.03,-0.55 C 40.86,15.248 40.81,15.039 40.746,14.819 40.696,14.642 40.599,14.477 40.5,14.322 40.371,14.113 40.214,13.951 40.043,13.777 39.909,13.638 39.728,13.543 39.566,13.451 39.352,13.321 39.137,13.252 38.9,13.19 38.786,13.17 38.672,13.16 38.56,13.15 Z m -7.767,0.09 v 0 c -0.101,-0.01 -0.203,-0.03 -0.303,-0.04 -0.1,-0.01 -0.207,0.07 -0.299,0.07 -0.07,-0.01 -0.152,0.08 -0.217,0.07 -0.306,0.11 -0.547,0.34 -0.767,0.573 -0.106,0.117 -0.196,0.256 -0.282,0.396 -0.103,0.168 -0.199,0.347 -0.283,0.527 -0.142,0.304 -0.22,0.637 -0.294,0.96 -0.08,0.362 -0.109,0.742 -0.1,1.116 0.01,0.668 0.204,1.309 0.445,1.926 0.11,0.277 0.258,0.539 0.406,0.801 0.188,0.338 0.383,0.667 0.592,0.988 0.382,0.595 0.789,1.164 1.148,1.767 0.165,0.295 0.318,0.598 0.424,0.925 0,0.101 0.02,0.103 0.02,0.144 0,0 0,0 -0.01,0.1 0,0 -0.03,0.1 -0.04,0.09 0,0 -0.01,0 -0.02,0 -0.09,0.09 -0.181,0.138 -0.277,0.195 -0.149,0.08 -0.3,0.142 -0.458,0.191 -0.1,-0.01 -0.204,0.07 -0.301,0.06 -0.1,-0.01 -0.208,0.07 -0.308,0.06 -0.224,-0.03 -0.444,-0.06 -0.669,-0.09 -0.205,-0.03 -0.39,-0.153 -0.577,-0.239 -0.153,-0.121 -0.3,-0.221 -0.439,-0.351 -0.04,0 -0.07,-0.11 -0.105,-0.125 -0.156,-0.334 -0.229,-0.696 -0.342,-1.044 -0.06,-0.18 -0.235,-0.335 -0.404,-0.408 -0.183,-0.125 -0.408,-0.05 -0.596,0.02 -0.182,0.08 -0.33,0.218 -0.407,0.399 -0.09,0.2 -0.07,0.394 0,0.596 0.09,0.264 0.154,0.545 0.245,0.809 0.09,0.275 0.251,0.538 0.448,0.756 0.446,0.484 1.014,0.832 1.639,1.027 0.642,0.206 1.329,0.278 1.994,0.105 0.326,-0.07 0.638,-0.177 0.93,-0.33 0.134,-0.08 0.26,-0.157 0.386,-0.241 0.161,-0.1 0.293,-0.243 0.427,-0.386 0.104,-0.1 0.161,-0.241 0.229,-0.363 0.03,-0.1 0.06,-0.144 0.08,-0.222 0.04,-0.106 0.06,-0.204 0.07,-0.313 0.07,-0.344 -0.04,-0.681 -0.142,-1.007 -0.09,-0.284 -0.235,-0.546 -0.374,-0.807 -0.124,-0.229 -0.255,-0.458 -0.397,-0.679 -0.159,-0.243 -0.318,-0.476 -0.477,-0.719 -0.263,-0.409 -0.539,-0.799 -0.783,-1.215 -0.147,-0.252 -0.291,-0.513 -0.42,-0.772 -0.137,-0.281 -0.238,-0.587 -0.327,-0.881 -0.06,-0.271 -0.103,-0.529 -0.113,-0.803 0.01,-0.321 0.06,-0.637 0.128,-0.961 0.07,-0.233 0.164,-0.452 0.278,-0.669 0.08,-0.121 0.158,-0.231 0.249,-0.33 0.03,0 0.07,-0.09 0.103,-0.09 0.04,0 0.07,0 0.122,-0.08 0.02,0 0.04,0 0.06,0 0.04,0 0.07,0.01 0.09,0.114 0.05,0 0.08,0.111 0.12,0.157 0.132,0.26 0.221,0.554 0.314,0.829 0.133,0.391 0.637,0.559 0.997,0.406 0.183,-0.08 0.33,-0.218 0.408,-0.4 0.09,-0.2 0.07,-0.393 0,-0.595 -0.08,-0.253 -0.173,-0.507 -0.276,-0.753 -0.123,-0.289 -0.316,-0.547 -0.542,-0.769 -0.199,-0.198 -0.451,-0.353 -0.719,-0.439 -0.09,-0.01 -0.176,-0.02 -0.266,-0.04 -0.01,0 -0.02,0 -0.04,0 z m 7.449,1.41 c 0.105,0.01 0.21,0.03 0.316,0.04 0.115,0.01 0.211,0.129 0.321,0.144 0.08,0.01 0.147,0.12 0.218,0.16 0.05,0.107 0.09,0.123 0.134,0.189 0.04,0.106 0.07,0.161 0.101,0.236 0,0.102 0.02,0.134 0.03,0.206 0,0 -0.01,0.1 -0.02,0.129 -0.05,0.125 -0.09,0.24 -0.157,0.352 -0.112,0.157 -0.225,0.313 -0.357,0.457 -0.201,0.175 -0.419,0.347 -0.641,0.499 -0.264,0.187 -0.534,0.373 -0.814,0.537 -0.449,0.253 -0.908,0.494 -1.378,0.714 0,0 0,0 -0.01,0 0.01,-0.1 0,-0.201 0.01,-0.301 0,-0.372 0.03,-0.753 0.05,-1.133 0.02,-0.271 0.03,-0.531 0.05,-0.791 0.02,-0.119 0.01,-0.241 0.03,-0.36 0.04,-0.267 0.07,-0.535 0.109,-0.813 0.07,0.01 0.154,-0.08 0.229,-0.08 0.482,-0.117 0.966,-0.193 1.464,-0.208 0.106,0.02 0.21,0.03 0.315,0.04 z M 26.172,14.21 c -0.412,-0.06 -0.802,0.246 -0.856,0.652 -0.233,1.735 -0.463,3.459 -0.694,5.184 -0.103,0.773 -0.206,1.536 -0.309,2.309 -0.02,0.129 -0.04,0.258 -0.05,0.387 -0.06,-0.24 -0.116,-0.47 -0.173,-0.71 -0.1,-0.406 -0.181,-0.811 -0.264,-1.215 -0.151,-0.737 -0.29,-1.482 -0.415,-2.225 -0.07,-0.423 -0.156,-0.858 -0.213,-1.29 -0.05,-0.421 -0.126,-0.844 -0.158,-1.272 0,-0.162 -0.02,-0.325 -0.04,-0.479 -0.05,-0.339 -0.323,-0.608 -0.655,-0.652 -0.411,-0.05 -0.802,0.245 -0.856,0.652 -0.193,1.447 -0.385,2.884 -0.52,4.339 -0.07,0.728 -0.134,1.455 -0.221,2.18 -0.147,1.252 -0.273,2.496 -0.587,3.715 -0.09,0.321 -0.204,0.629 -0.358,0.911 -0.117,0.196 -0.251,0.38 -0.392,0.563 -0.257,0.328 -0.19,0.812 0.132,1.067 0.329,0.255 0.812,0.209 1.07,-0.13 0.335,-0.429 0.628,-0.894 0.821,-1.403 0.109,-0.288 0.18,-0.581 0.255,-0.874 0.07,-0.274 0.135,-0.557 0.192,-0.832 0.122,-0.609 0.195,-1.225 0.267,-1.841 0.08,-0.655 0.156,-1.321 0.214,-1.979 0.04,0.198 0.08,0.395 0.122,0.602 0.08,0.373 0.183,0.75 0.277,1.126 0.103,0.408 0.209,0.815 0.298,1.221 0.08,0.394 0.159,0.777 0.246,1.162 0.02,0.125 0.06,0.25 0.08,0.375 0.03,0.125 0.06,0.26 0.1,0.386 0.05,0.158 0.14,0.291 0.228,0.434 0.108,0.156 0.318,0.265 0.506,0.29 0.273,0.04 0.528,-0.08 0.702,-0.289 0.148,-0.172 0.259,-0.359 0.327,-0.582 0.09,-0.271 0.123,-0.539 0.178,-0.804 0.08,-0.382 0.133,-0.769 0.185,-1.155 0.06,-0.456 0.132,-0.911 0.203,-1.366 0.09,-0.703 0.188,-1.407 0.284,-2.121 0.244,-1.823 0.488,-3.647 0.733,-5.481 0.05,-0.406 -0.242,-0.799 -0.655,-0.854 z m -10.469,1.162 c -0.133,-0.02 -0.268,-0.04 -0.387,0.06 -0.147,0.08 -0.279,0.134 -0.384,0.272 -0.06,0.09 -0.115,0.186 -0.152,0.292 -0.03,0.1 -0.06,0.163 -0.104,0.248 -0.08,0.192 -0.156,0.383 -0.238,0.574 -0.154,0.363 -0.313,0.725 -0.469,1.087 -0.156,0.363 -0.316,0.725 -0.464,1.088 -0.161,0.392 -0.332,0.783 -0.482,1.177 -0.297,0.787 -0.597,1.585 -0.878,2.384 -0.131,0.376 -0.281,0.75 -0.394,1.128 -0.146,0.495 -0.292,0.99 -0.439,1.485 -0.116,0.408 -0.228,0.817 -0.326,1.218 -0.18,0.742 -0.299,1.483 -0.319,2.237 0,0.211 0.02,0.396 0.149,0.565 0.122,0.157 0.306,0.263 0.505,0.289 0.05,0 0.1,0.01 0.147,0.02 0.146,0.02 0.294,-0.06 0.414,-0.157 0.03,0 0.07,-0.09 0.104,-0.1 0.1,-0.118 0.181,-0.268 0.186,-0.409 0.01,-0.23 0.02,-0.461 0.05,-0.689 0.03,-0.228 0.06,-0.456 0.09,-0.684 0.09,-0.493 0.211,-0.97 0.33,-1.449 0.169,-0.583 0.339,-1.175 0.527,-1.755 0.07,0 0.146,0.02 0.224,0.03 0.46,-0.04 0.912,-0.02 1.368,-0.04 0.272,-0.06 0.531,-0.03 0.795,-0.04 0.361,-0.05 0.712,-0.02 1.07,-0.02 0.175,0.881 0.33,1.77 0.438,2.662 0.05,0.4 0.09,0.809 0.138,1.219 0.05,0.41 0.455,0.707 0.859,0.65 0.419,-0.05 0.699,-0.452 0.653,-0.861 -0.117,-1.015 -0.234,-2.029 -0.424,-3.043 -0.09,-0.487 -0.187,-0.974 -0.287,-1.451 0,0 0,0 0,0 0,-0.101 -0.02,-0.103 -0.03,-0.146 0,0 0,0 0,0 -0.05,-0.269 -0.107,-0.539 -0.167,-0.799 -0.201,-0.904 -0.4,-1.809 -0.596,-2.713 -0.09,-0.415 -0.158,-0.828 -0.239,-1.232 -0.07,-0.394 -0.158,-0.788 -0.241,-1.183 -0.02,-0.103 -0.04,-0.197 -0.06,-0.291 -0.04,-0.197 -0.09,-0.405 -0.149,-0.595 -0.06,-0.189 -0.117,-0.348 -0.211,-0.512 -0.101,-0.185 -0.207,-0.32 -0.405,-0.407 -0.06,0 -0.136,-0.02 -0.209,-0.03 z m -0.28,3.019 c 0.08,0.394 0.15,0.787 0.225,1.181 0.145,0.755 0.321,1.505 0.488,2.264 0.06,0.271 0.121,0.541 0.179,0.821 -0.307,-0.04 -0.627,0.02 -0.937,0.02 -0.247,-0.03 -0.507,0.03 -0.757,0.03 -0.314,0.06 -0.615,0.02 -0.923,0.03 0.03,-0.107 0.08,-0.212 0.113,-0.318 0.143,-0.394 0.297,-0.788 0.446,-1.181 0.274,-0.73 0.566,-1.448 0.872,-2.154 0.101,-0.228 0.197,-0.457 0.295,-0.686 z" />
    </g>
  </g>
  <defs id="defs72" />
  <metadata id="metadata75">
    <rdf:RDF>
      <cc:Work rdf:about="">
        <dc:format>image/svg+xml</dc:format>
        <dc:type rdf:resource="http://purl.org/dc/dcmitype/StillImage" />
        <dc:title></dc:title>
      </cc:Work>
    </rdf:RDF>
  </metadata>
</svg>
