<?xml version="1.0" encoding="UTF-8" standalone="no"?>
<svg xmlns:dc="http://purl.org/dc/elements/1.1/" xmlns:cc="http://creativecommons.org/ns#" xmlns:rdf="http://www.w3.org/1999/02/22-rdf-syntax-ns#" xmlns:svg="http://www.w3.org/2000/svg" xmlns="http://www.w3.org/2000/svg" xmlns:sodipodi="http://sodipodi.sourceforge.net/DTD/sodipodi-0.dtd" xmlns:inkscape="http://www.inkscape.org/namespaces/inkscape" inkscape:version="1.0rc1 (09960d6f05, 2020-04-09)" sodipodi:docname="people.svg" id="svg78" version="1.1" viewBox="0 0 151.69 131.52" height="497.1" width="573.3">
  <sodipodi:namedview inkscape:current-layer="svg78" inkscape:cy="-1.9701" inkscape:cx="219.96" inkscape:zoom="1.3015" showgrid="false" id="namedview845" inkscape:window-height="480" inkscape:window-width="640" inkscape:pageshadow="2" inkscape:pageopacity="0" guidetolerance="10" gridtolerance="10" objecttolerance="10" borderopacity="1" bordercolor="#666666" pagecolor="#ffffff" />
  <path transform="matrix(0.26459,0,0,0.26459,0,-0.00409)" d="M 145.73 49.715 L 145.79 49.885 C 144.51 49.734 143.18 49.885 141.91 49.771 C 140.27 49.923 138.69 50.15 137.12 50.543 C 136.71 50.505 136.25 50.807 135.84 50.883 L 135.73 50.883 C 135.65 50.883 135.54 50.883 135.46 50.846 C 135.27 50.846 135.08 50.807 134.91 50.77 C 133.51 50.581 132.29 51.45 131.82 52.682 C 130.58 53.392 129.41 54.189 128.46 55.281 C 127.88 55.928 127.43 56.63 127 57.375 C 126.6 58.086 126.25 58.801 125.95 59.561 C 125.42 61.016 125.99 62.694 127.48 63.348 C 128.52 63.869 129.79 63.649 130.62 62.742 L 130.59 63.121 C 130.4 66.111 130.32 69.07 130.21 72.029 C 130.06 72.029 129.94 72.028 129.8 71.99 C 129.61 71.99 129.39 71.916 129.18 71.916 C 128.92 71.916 128.67 71.839 128.42 71.801 C 127.94 71.725 127.47 72.103 127.06 72.383 C 126.46 72.836 126.06 73.545 125.96 74.293 C 125.85 75.045 126.07 75.831 126.52 76.428 C 126.94 76.98 127.71 77.501 128.43 77.523 C 128.96 77.599 129.49 77.675 130.07 77.373 C 130.07 78.322 129.99 79.308 129.96 80.291 C 129.77 83.965 129.38 87.61 128.93 91.25 C 128.7 92.822 129.83 94.271 131.41 94.479 C 132.95 94.667 134.45 93.59 134.64 92.014 C 135.08 88.45 135.48 84.883 135.66 81.281 C 135.73 79.921 135.81 78.556 135.85 77.154 L 135.85 75.479 C 137.5 74.787 139.15 74.055 140.75 73.238 C 142.19 72.516 143.59 71.748 144.97 70.943 C 146.26 70.161 147.47 69.295 148.66 68.426 C 149.89 67.523 151.02 66.492 151.99 65.324 C 152.56 64.64 153 63.857 153.45 63.078 C 153.89 62.3 154.21 61.389 154.39 60.535 C 154.5 59.866 154.58 59.149 154.5 58.457 C 154.43 57.644 154.24 56.855 154 56.023 C 153.81 55.354 153.44 54.73 153.07 54.145 C 152.58 53.355 151.99 52.742 151.34 52.084 C 150.83 51.559 150.15 51.199 149.54 50.852 C 148.73 50.36 147.92 50.1 147.02 49.865 C 146.59 49.79 146.16 49.753 145.73 49.715 z M 143.39 55.467 C 143.8 55.542 144.19 55.581 144.59 55.619 L 144.59 55.555 C 144.98 55.592 145.38 55.667 145.78 55.705 C 146.21 55.743 146.58 56.193 146.99 56.25 C 147.29 56.288 147.55 56.702 147.82 56.854 C 148.01 57.258 148.16 57.319 148.32 57.568 C 148.48 57.969 148.59 58.177 148.71 58.461 C 148.71 58.846 148.78 58.966 148.82 59.238 C 148.82 59.238 148.78 59.617 148.74 59.727 C 148.55 60.199 148.4 60.633 148.15 61.057 C 147.73 61.65 147.3 62.239 146.8 62.783 C 146.04 63.445 145.22 64.095 144.38 64.67 C 143.38 65.377 142.36 66.079 141.3 66.699 C 139.6 67.655 137.87 68.567 136.09 69.398 L 136.05 69.398 C 136.09 69.02 136.06 68.638 136.09 68.26 C 136.09 66.854 136.21 65.415 136.28 63.979 C 136.36 62.954 136.4 61.971 136.47 60.988 C 136.55 60.539 136.51 60.079 136.58 59.629 C 136.74 58.62 136.85 57.605 137 56.555 C 137.26 56.592 137.58 56.254 137.86 56.254 C 139.68 55.812 141.51 55.523 143.39 55.467 z " style="font-style:normal;font-variant:normal;font-weight:normal;font-stretch:normal;font-size:11.3084px;line-height:125%;font-family:'Kristen ITC';-inkscape-font-specification:'Kristen ITC';text-align:start;letter-spacing:0px;word-spacing:0px;text-anchor:start;fill:#000000;fill-opacity:1;stroke:none;stroke-width:1.00005px;stroke-linecap:butt;stroke-linejoin:miter;stroke-opacity:1" id="path890" />
  <path transform="matrix(0.26459,0,0,0.26459,0,-0.00409)" d="M 58.598 58.057 C 58.351 58.076 58.11 58.151 57.885 58.34 C 57.329 58.642 56.83 58.846 56.434 59.367 C 56.207 59.707 55.999 60.07 55.859 60.471 C 55.746 60.849 55.633 61.087 55.467 61.408 C 55.164 62.134 54.876 62.856 54.566 63.578 C 53.984 64.95 53.385 66.317 52.795 67.686 C 52.205 69.057 51.6 70.427 51.041 71.799 C 50.433 73.28 49.786 74.757 49.219 76.246 C 48.096 79.22 46.962 82.236 45.9 85.256 C 45.405 86.677 44.839 88.091 44.412 89.52 C 43.86 91.39 43.308 93.262 42.752 95.133 C 42.314 96.675 41.892 98.221 41.521 99.736 C 40.841 102.54 40.39 105.34 40.314 108.19 C 40.314 108.99 40.391 109.69 40.879 110.33 C 41.34 110.92 42.035 111.32 42.787 111.42 C 42.976 111.42 43.164 111.46 43.342 111.49 C 43.894 111.57 44.453 111.27 44.906 110.9 C 45.02 110.9 45.172 110.56 45.301 110.52 C 45.679 110.08 45.985 109.51 46.004 108.98 C 46.042 108.11 46.078 107.23 46.191 106.37 L 46.531 103.79 C 46.871 101.92 47.33 100.12 47.779 98.311 C 48.418 96.107 49.061 93.87 49.771 91.678 C 50.036 91.678 50.322 91.753 50.617 91.791 C 52.356 91.64 54.064 91.716 55.787 91.641 C 56.815 91.414 57.795 91.526 58.793 91.488 C 60.157 91.299 61.483 91.414 62.836 91.414 C 63.497 94.744 64.084 98.103 64.492 101.47 C 64.681 102.99 64.832 104.53 65.014 106.08 C 65.203 107.63 66.733 108.75 68.26 108.54 C 69.843 108.35 70.902 106.83 70.729 105.28 C 70.286 101.45 69.843 97.616 69.125 93.783 C 68.785 91.943 68.419 90.102 68.041 88.299 C 68.041 87.917 67.966 87.911 67.928 87.748 C 67.739 86.731 67.524 85.709 67.297 84.727 C 66.537 81.31 65.784 77.891 65.043 74.475 C 64.703 72.906 64.447 71.345 64.141 69.818 C 63.876 68.329 63.544 66.839 63.23 65.346 C 63.155 64.956 63.078 64.601 63.002 64.246 C 62.851 63.502 62.662 62.716 62.439 61.998 C 62.213 61.284 61.998 60.682 61.643 60.062 C 61.261 59.363 60.86 58.854 60.111 58.525 C 59.885 58.525 59.598 58.45 59.322 58.412 L 59.348 58.113 C 59.096 58.075 58.844 58.038 58.598 58.057 z M 58.293 69.549 C 58.593 71.029 58.859 72.506 59.141 73.986 C 59.689 76.84 60.353 79.674 60.984 82.543 C 61.211 83.567 61.443 84.588 61.662 85.646 C 60.502 85.495 59.291 85.721 58.119 85.721 C 57.186 85.607 56.205 85.834 55.26 85.834 C 54.073 86.061 52.934 85.909 51.77 85.947 C 51.883 85.543 52.073 85.147 52.197 84.746 C 52.738 83.257 53.32 81.769 53.883 80.283 C 54.918 77.524 56.023 74.811 57.18 72.143 C 57.561 71.281 57.923 70.414 58.293 69.549 z " style="font-style:normal;font-variant:normal;font-weight:normal;font-stretch:normal;font-size:11.3084px;line-height:125%;font-family:'Kristen ITC';-inkscape-font-specification:'Kristen ITC';text-align:start;letter-spacing:0px;word-spacing:0px;text-anchor:start;fill:#000000;fill-opacity:1;stroke:none;stroke-width:1.00005px;stroke-linecap:butt;stroke-linejoin:miter;stroke-opacity:1" id="path898" />
  <path transform="matrix(0.26459,0,0,0.26459,0,-0.00409)" d="M 292.05 44.309 C 291.79 44.318 291.53 44.374 291.24 44.525 C 290.15 44.374 289 44.714 287.9 44.994 C 286.67 45.296 285.59 45.717 284.47 46.367 C 283.36 46.979 282.31 47.677 281.26 48.414 C 280 49.314 279.78 51.23 280.72 52.424 C 281.06 52.847 281.4 53.087 281.79 53.291 C 281.52 55.166 281.29 57.036 281.04 58.91 C 280.73 61.121 280.45 63.328 280.15 65.539 C 279.81 68.049 279.85 70.649 279.67 73.178 C 279.51 74.414 279.33 75.612 279.55 76.9 C 279.59 79.346 279.51 81.772 279.55 84.217 C 279.44 84.927 280.12 85.703 280.63 86.115 C 281.26 86.58 282.03 86.798 282.79 86.783 C 283.55 86.519 284.23 86.293 284.69 85.707 C 284.73 85.329 285.13 85.305 285.16 85.078 L 285.2 84.701 C 285.23 84.323 285.31 83.952 285.35 83.578 C 285.5 82.456 285.27 81.318 285.31 80.215 C 285.23 78.03 285.46 75.853 285.61 73.699 C 285.69 73.249 285.72 72.838 285.8 72.426 C 285.8 72.426 286.18 72.464 286.22 72.086 C 288.26 71.406 290.32 70.842 292.27 69.92 C 293.44 69.429 294.53 68.733 295.61 68.041 C 296.58 67.406 297.55 66.699 298.48 65.984 C 299.46 65.198 300.34 64.326 301.18 63.449 C 301.98 62.64 302.66 61.779 303.25 60.826 C 304.56 58.713 305.23 56.287 304.79 53.826 C 304.45 51.721 303.4 49.749 301.96 48.26 C 301.09 47.345 300.12 46.567 298.98 45.996 C 297.84 45.384 296.67 45.036 295.41 44.715 C 295.04 44.677 294.85 44.639 294.55 44.602 L 294.4 44.602 L 292.82 44.375 C 292.56 44.337 292.31 44.299 292.05 44.309 z M 292.54 50.127 C 292.95 50.165 293.32 50.24 293.73 50.277 L 293.4 50.305 C 293.82 50.342 294.19 50.417 294.61 50.455 C 295.2 50.531 295.75 50.992 296.34 51.146 C 296.74 51.581 297.14 51.749 297.52 52.066 C 297.86 52.49 298.11 52.754 298.36 53.17 C 298.7 53.593 298.74 54.023 298.91 54.461 C 298.87 54.839 298.84 54.986 299.18 55.338 C 299.14 55.716 299.1 55.974 299.06 56.314 C 298.99 56.798 298.56 57.199 298.5 57.648 C 297.93 58.525 297.21 59.307 296.5 60.086 C 294.88 61.624 293.03 62.938 291.16 64.061 C 290.05 64.677 288.96 65.143 287.8 65.559 C 287.26 65.861 286.76 65.898 286.24 66.072 C 286.24 66.072 286.28 65.695 286.32 65.627 C 286.58 63.563 286.87 61.464 287.15 59.404 C 287.53 56.71 287.87 54.012 288.24 51.275 L 288.28 50.898 C 288.7 50.558 288.96 50.595 289.32 50.504 C 290.38 50.277 291.47 50.127 292.54 50.127 z " style="font-style:normal;font-variant:normal;font-weight:normal;font-stretch:normal;font-size:11.3084px;line-height:125%;font-family:'Kristen ITC';-inkscape-font-specification:'Kristen ITC';text-align:start;letter-spacing:0px;word-spacing:0px;text-anchor:start;fill:#000000;fill-opacity:1;stroke:none;stroke-width:1.00005px;stroke-linecap:butt;stroke-linejoin:miter;stroke-opacity:1" id="path876" />
  <g id="gPeopleIcon" transform="matrix(0.99116,0.1326,-0.1326,0.99116,27.053,-422.83)">
    <path d="m 83.516,503.31 c -0.349,2.33 -1.026,5.92 -4.225,3.94 -1.555,-1.27 0.964,-4.48 -2.283,-3.7 -3.14,-1.22 -2.743,5.32 -5.922,2.62 -0.251,-1.56 -0.08,-2.38 -1.873,-1.32 -2.987,0.74 -4.445,2.17 -4.942,5.27 -1.097,2.84 0.764,7.22 -2.931,8.58 -2.91,1.88 -6.893,2.57 -9.933,4.83 -1.963,0.5 -5.247,3.44 -1.784,4.01 4.028,0.37 8.08,-0.2 12.095,0.1 3.58,2.03 -0.892,6.6 0.226,9.7 -1.06,2.7 3.226,2.03 2.286,-0.51 0.871,-2.03 1.744,-8.02 4.706,-4.52 0.734,2.56 -3.344,7.96 0.579,8.29 1.847,-2.52 3.413,-4.48 3.372,-7.63 3.188,-2.8 3.458,2.54 3.277,4.69 0.768,3.19 2.716,-0.2 3.298,-1.67 3.195,-0.9 0.989,-8.44 5.548,-7.47 1.97,2.33 -1.05,5.72 0.622,8.51 -0.576,2.47 2.503,1.72 3.454,1.46 3.151,-2.01 1.137,-7.67 4.578,-9.16 3.305,1.39 0.975,6.43 2.833,9.21 0.292,1.69 4.393,1.82 3.743,-0.76 1.22,-2.65 1.36,-6.2 4.05,-7.94 0.36,-1.39 0.66,0.31 1.38,-0.18 1.23,1.8 1.55,4.8 2.59,7.03 1.58,1.95 1.85,5.72 5.15,4.47 2.68,-1.69 1.96,-7.34 3.82,-10.21 4.02,-1.2 2.39,4.83 3.67,7.11 -0.21,2.01 2.3,4.32 2.65,1.54 -0.52,-3.56 3.28,-3.94 2.91,-7.37 1.29,-2.37 1.1,-7.2 4.31,-7.04 2.25,1.08 4.92,0.56 7.14,1.64 -4.39,-2.66 -8.59,-5.71 -12.47,-9.06 -1.68,-2.78 -3.65,-2.96 -5.35,-5.7 1.01,-3.13 0.13,-6.25 -2.58,-8.16 -1.62,-1.89 -4.2,1.31 -5.83,2.25 -2.37,0 -1.89,-2.94 -4.61,-2.19 -3.39,-0.78 -5.8,2.92 -8.956,1.93 -2.173,-0.25 -3.751,-0.31 -3.837,2.05 -1.747,0.26 -1.556,4.4 -4.177,2.4 -0.781,-3.29 -0.84,-8.15 -5.659,-6.93 -0.287,0.1 -0.636,-0.18 -0.925,-0.1 z m 4.503,5.9 c 0.255,-0.1 0.04,0.12 0,0 z" style="fill:#fdd757;fill-opacity:0.966507;fill-rule:nonzero;stroke:none;stroke-width:0.352777" id="pPeopleIconBG" inkscape:connector-curvature="0" />
    <path id="pPeopleIconStroke" style="fill:#000000;fill-opacity:0.966507;fill-rule:nonzero;stroke:none;stroke-width:0.352777" d="m 85.631,502.07 c -3.2,0.25 -4.612,3.79 -5.667,6.34 0.747,-2.94 -1.622,-6.87 -4.869,-5.85 -2.29,0.26 -3.138,5.86 -3.973,1.83 -0.967,-4.15 -5.363,-0.39 -6.266,2.01 -1.638,3.44 -2.422,7.7 -0.989,11.33 1.1,3.04 5.599,3.35 7.166,0.54 1.07,-1.65 1.011,-3.95 2.715,-1.25 2.01,3.03 5.278,-0.7 5.505,-1.26 1.431,2.88 6.675,4.2 8.786,1.53 1.739,-3.79 2.032,-8.2 1.39,-12.27 -0.552,-1.59 -2.016,-3.02 -3.798,-2.95 z m 20.409,0.34 c -2.24,0 -4.59,3.19 -5.88,2.5 -0.556,-3.05 -4.86,-0.66 -6.132,1.01 -2.488,2.14 -5.196,5.84 -3.518,9.2 1.497,2.87 5.923,4.28 8.113,1.37 1.127,-1.5 3.407,2.7 5.857,1.74 4.21,-0.1 6.21,-4.86 6.58,-8.46 0.74,-3.15 -0.56,-7.4 -4.35,-7.28 l -0.62,-0.1 v 0 z m 10.29,0 c -3.23,0.1 -5.51,3.23 -5.03,6.32 -0.33,3.28 2.17,7.31 5.83,6.69 3.25,-1.81 4.55,-6.6 3.13,-9.96 -1.07,-1.19 -2.08,-3.26 -3.93,-3.05 z m -30.298,1.36 c 3.081,1.29 1.782,5.38 1.828,8.01 0.08,3.39 -1.954,6.76 -5.583,4.6 -3.148,-2.18 -0.85,-6 -0.141,-8.93 0.428,-2.28 3.361,-2.02 3.896,-3.68 z m 20.688,0.39 c 4.3,0.56 2.73,6.42 1.63,9.14 -0.88,4.06 -7.39,4.29 -8.12,0.13 1.1,-3.24 0.27,-7.84 4.62,-8.84 0.61,-0.2 1.24,-0.33 1.87,-0.43 z m 9.02,0 c 2.63,-0.23 4.44,4.2 2.85,6.89 -0.9,5.06 -6.4,1.59 -5.6,-2.11 -0.19,-2.08 0.43,-4.27 2.75,-4.78 z m -38.907,0.17 c 2.851,2.43 1.178,7.58 0.49,10.87 -2.079,3.55 -5.539,-3 -4.204,-5.32 -0.206,-3.17 0.957,-5.16 3.714,-5.55 z m -8.182,0.13 c 2.505,1.52 2.35,5.74 2.287,8.49 0.86,3.65 -4.496,8.29 -5.887,3.08 -0.575,-3.98 0.154,-9.03 3.6,-11.57 z m 29.494,0.89 c 2.645,2.02 -0.383,5.85 0.02,8.64 -0.968,3.75 -6.396,2.43 -6.514,-1.03 0.447,-3.46 3.331,-6.38 6.499,-7.61 z m 22.545,7.55 c -2.41,1.92 3.62,3.77 4.31,5.78 1.95,2.78 6.64,5.15 8.41,6.54 -2.29,-0.28 -5.37,-3.08 -5.94,0.71 -2.07,4.55 -3.12,9.49 -5.21,14.03 -2.14,-4.19 -2.42,-9 -3.75,-13.41 -2.94,0.15 -1.9,5.84 -3.51,8.1 -0.85,1.76 -1.46,6.98 -2.73,6.94 -2.26,-4.27 -4.37,-8.62 -6.06,-13.13 -1.35,-0.69 -2.91,-1.92 -3.28,0.86 -1.65,3.01 -3.303,9.11 -5.592,9.99 -1.433,-4.06 -0.924,-8.68 -2.673,-12.61 -2.644,0.24 -2.97,4.63 -4.377,6.7 -0.883,2.14 -1.935,4.35 -3.135,6.54 -0.281,-4.63 -0.758,-9.41 -2.862,-13.62 -3.321,0.22 -3.58,6.21 -5.456,8.68 -0.666,1.4 -1.994,5.47 -2.227,1.82 -1.098,-2.69 0.276,-6.14 -2.201,-8.14 -2.322,2.18 -2.404,6.06 -4.275,8.68 -1.239,2.96 -1.649,2.34 -1.43,-0.2 -0.205,-3.14 0.445,-6.46 -0.342,-9.48 -3.075,0.18 -3.171,5.67 -4.809,8.1 -1.305,3.65 0.02,-2.78 0.137,-4.34 0.918,-2.26 1.024,-5.68 -2.443,-4.62 -3.829,-0.25 -7.655,-0.58 -11.482,-0.86 3.768,-1.69 7.28,-3.97 11.117,-5.47 3.339,-0.19 -0.15,-3.01 -1.766,-1.19 -4.365,2.19 -8.659,4.63 -13.162,6.46 0.708,3.24 6.725,1.47 9.502,2.3 2.49,1 8.718,-1.27 6.561,3.11 -0.08,3.94 -1.802,7.32 -1.095,11.26 3.586,-1.43 4.109,-7.16 6.007,-10.45 0.177,0.36 0.03,2.44 0.08,3.47 0.07,2.25 -0.157,4.53 0.149,6.76 3.267,1.02 4.457,-4.79 5.93,-7.09 0.624,-1.61 1.342,-4.29 1.379,-0.99 -0.166,2.67 1.968,10 4.441,4.73 1.666,-2.98 3.071,-7.75 4.742,-9.71 1.703,4.29 1.415,8.99 2.198,13.43 3.259,0.73 4.002,-5.33 5.636,-7.68 0.637,-1.35 1.692,-4.39 2.438,-4.82 1.058,3.84 0.4,8.32 2.852,11.65 3.598,-0.27 4.518,-5.58 6.158,-8.29 0.98,-1.73 1.81,-6.16 2.71,-1.93 1.65,4.39 3.92,8.51 6.1,12.65 3.11,0.97 3.23,-5.19 4.37,-7.33 0.78,-1.65 1.77,-8.37 2.21,-3.5 1.08,2.78 1.19,8.51 4.55,8.85 2.97,-4.77 3.79,-10.56 6.18,-15.63 1.1,-1.56 4.5,1.24 6.74,0.63 2.67,1.55 3.01,-1.69 0.46,-2.29 -3.63,-2.4 -7.71,-4.31 -10.44,-7.83 -1.59,-1.49 -3.15,-3.24 -5.12,-4.16 z m -57.4,21.52 c -0.114,0.31 0.07,0.1 0,0 z" inkscape:connector-curvature="0" />
  </g>
  <g id="gPeopleBox" transform="matrix(0.99116,0.1326,-0.1326,0.99116,27.971,-470.7)">
    <path d="m 185.6,454.84 c -2.67,0.8 -7.25,0.61 -5.05,4.57 0.82,5.44 2.04,10.89 2.67,16.31 -0.28,7.92 1.24,15.8 1.34,23.74 0.13,1.66 -0.63,5.87 2.3,4.76 0.1,11.61 0,23.22 -0.73,34.82 -0.24,8.96 -1.67,17.83 -2.93,26.69 -0.41,3.7 -1.74,8.1 -5.74,8.32 -5.35,0.73 -10.72,1.47 -16.14,1.19 -4.19,2.63 2.79,3.54 4.97,2.84 4.75,-0.1 9.45,-1.04 14.14,-1.58 5.01,0.24 4.36,-5.36 5.3,-8.77 1.19,-7.26 2.17,-14.57 2.88,-21.89 0.82,-13.54 1.31,-27.11 1.1,-40.68 0.13,-16.24 -1.56,-32.45 -3.81,-48.51 -0.1,-0.61 -0.2,-1.21 -0.3,-1.81 z m -5.57,118.92 c 0,0.1 -0.18,0.1 0,0 z" style="opacity:0.983902;fill:#a2a2a2;fill-opacity:1;fill-rule:nonzero;stroke:none;stroke-width:0.352777" id="pPeopleShadow" inkscape:connector-curvature="0" />
    <path d="m 181.63,450.6 c -8.57,2.01 -17.15,4.13 -25.64,6.5 -16.05,3.52 -32.15,6.78 -48.44,9.03 -15.855,2.81 -32.064,3.81 -47.525,8.54 -5.212,2.45 -14.075,1.03 -17.319,4.81 -1.838,17.41 -0.365,34.88 0.812,52.28 -0.641,3.42 1.203,17.28 5.061,10.2 -1.918,-7.47 -1.083,-15.34 -2.047,-22.96 -1.125,-12.7 -1.235,-25.52 -0.09,-38.22 13.122,-1.63 25.547,-6.77 38.764,-7.96 17.654,-2.65 35.374,-4.99 52.864,-8.57 11.25,-2.22 22.45,-4.66 33.46,-7.84 5.16,-2.22 8.3,-1.36 7.75,4.79 2.97,17.61 3.95,35.45 3.86,53.29 0.29,17.78 -0.43,35.69 -3.82,53.18 -1.03,7.23 -10.48,3.68 -15.48,4.64 -2.9,-1.19 -10.73,0.99 -5.42,3.83 6.83,-0.26 13.87,0.65 20.53,-1.18 5.67,-3.7 4.54,-11.76 5.95,-17.68 2.85,-21.98 2.28,-44.21 1.53,-66.31 -0.56,-12.39 -2.71,-24.8 -4.33,-36.97 0.68,-0.53 -0.65,-2.52 -0.47,-3.4 z" style="fill:#000000;fill-opacity:0.966507;fill-rule:nonzero;stroke:none;stroke-width:0.352777" id="pPeopleBorder" inkscape:connector-curvature="0" />
  </g>
  <path id="path896" d="m 26.172,14.21 c -0.412,-0.06 -0.802,0.246 -0.856,0.652 -0.233,1.735 -0.463,3.459 -0.694,5.184 -0.103,0.773 -0.206,1.536 -0.309,2.309 -0.02,0.129 -0.04,0.258 -0.05,0.387 -0.06,-0.24 -0.116,-0.47 -0.173,-0.71 -0.1,-0.406 -0.181,-0.811 -0.264,-1.215 -0.151,-0.737 -0.29,-1.482 -0.415,-2.225 -0.07,-0.423 -0.156,-0.858 -0.213,-1.29 -0.05,-0.421 -0.126,-0.844 -0.158,-1.272 0,-0.162 -0.02,-0.325 -0.04,-0.479 -0.05,-0.339 -0.323,-0.608 -0.655,-0.652 -0.411,-0.05 -0.802,0.245 -0.856,0.652 -0.193,1.447 -0.385,2.884 -0.52,4.339 -0.07,0.728 -0.134,1.455 -0.221,2.18 -0.147,1.252 -0.273,2.496 -0.587,3.715 -0.09,0.321 -0.204,0.629 -0.358,0.911 -0.117,0.196 -0.251,0.38 -0.392,0.563 -0.257,0.328 -0.19,0.812 0.132,1.067 0.329,0.255 0.812,0.209 1.07,-0.13 0.335,-0.429 0.628,-0.894 0.821,-1.403 0.109,-0.288 0.18,-0.581 0.255,-0.874 0.07,-0.274 0.135,-0.557 0.192,-0.832 0.122,-0.609 0.195,-1.225 0.267,-1.841 0.08,-0.655 0.156,-1.321 0.214,-1.979 0.04,0.198 0.08,0.395 0.122,0.602 0.08,0.373 0.183,0.75 0.277,1.126 0.103,0.408 0.209,0.815 0.298,1.221 0.08,0.394 0.159,0.777 0.246,1.162 0.02,0.125 0.06,0.25 0.08,0.375 0.03,0.125 0.06,0.26 0.1,0.386 0.05,0.158 0.14,0.291 0.228,0.434 0.108,0.156 0.318,0.265 0.506,0.29 0.273,0.04 0.528,-0.08 0.702,-0.289 0.148,-0.172 0.259,-0.359 0.327,-0.582 0.09,-0.271 0.123,-0.539 0.178,-0.804 0.08,-0.382 0.133,-0.769 0.185,-1.155 0.06,-0.456 0.132,-0.911 0.203,-1.366 0.09,-0.703 0.188,-1.407 0.284,-2.121 0.244,-1.823 0.488,-3.647 0.733,-5.481 0.05,-0.406 -0.242,-0.799 -0.655,-0.854 z" style="font-style:normal;font-variant:normal;font-weight:normal;font-stretch:normal;font-size:11.3084px;line-height:125%;font-family:'Kristen ITC';-inkscape-font-specification:'Kristen ITC';text-align:start;letter-spacing:0px;word-spacing:0px;text-anchor:start;fill:#000000;fill-opacity:1;stroke:none;stroke-width:0.264603px;stroke-linecap:butt;stroke-linejoin:miter;stroke-opacity:1" />
  <path id="path892" d="m 30.807,13.285 v 0 c -0.101,-0.01 -0.203,-0.03 -0.303,-0.04 -0.1,-0.01 -0.207,0.07 -0.299,0.07 -0.07,-0.01 -0.152,0.08 -0.217,0.07 -0.306,0.11 -0.547,0.34 -0.767,0.573 -0.106,0.117 -0.196,0.256 -0.282,0.396 -0.103,0.168 -0.199,0.347 -0.283,0.527 -0.142,0.304 -0.22,0.637 -0.294,0.96 -0.08,0.362 -0.109,0.742 -0.1,1.116 0.01,0.668 0.204,1.309 0.445,1.926 0.11,0.277 0.258,0.539 0.406,0.801 0.188,0.338 0.383,0.667 0.592,0.988 0.382,0.595 0.789,1.164 1.148,1.767 0.165,0.295 0.318,0.598 0.424,0.925 0,0.101 0.02,0.103 0.02,0.144 0,0 0,0 -0.01,0.1 0,0 -0.03,0.1 -0.04,0.09 0,0 -0.01,0 -0.02,0 -0.09,0.09 -0.181,0.138 -0.277,0.195 -0.149,0.08 -0.3,0.142 -0.458,0.191 -0.1,-0.01 -0.204,0.07 -0.301,0.06 -0.1,-0.01 -0.208,0.07 -0.308,0.06 -0.224,-0.03 -0.444,-0.06 -0.669,-0.09 -0.205,-0.03 -0.39,-0.153 -0.577,-0.239 -0.153,-0.121 -0.3,-0.221 -0.439,-0.351 -0.04,0 -0.07,-0.11 -0.105,-0.125 -0.156,-0.334 -0.229,-0.696 -0.342,-1.044 -0.06,-0.18 -0.235,-0.335 -0.404,-0.408 -0.183,-0.125 -0.408,-0.05 -0.596,0.02 -0.182,0.08 -0.33,0.218 -0.407,0.399 -0.09,0.2 -0.07,0.394 0,0.596 0.09,0.264 0.154,0.545 0.245,0.809 0.09,0.275 0.251,0.538 0.448,0.756 0.446,0.484 1.014,0.832 1.639,1.027 0.642,0.206 1.329,0.278 1.994,0.105 0.326,-0.07 0.638,-0.177 0.93,-0.33 0.134,-0.08 0.26,-0.157 0.386,-0.241 0.161,-0.1 0.293,-0.243 0.427,-0.386 0.104,-0.1 0.161,-0.241 0.229,-0.363 0.03,-0.1 0.06,-0.144 0.08,-0.222 0.04,-0.106 0.06,-0.204 0.07,-0.313 0.07,-0.344 -0.04,-0.681 -0.142,-1.007 -0.09,-0.284 -0.235,-0.546 -0.374,-0.807 -0.124,-0.229 -0.255,-0.458 -0.397,-0.679 -0.159,-0.243 -0.318,-0.476 -0.477,-0.719 -0.263,-0.409 -0.539,-0.799 -0.783,-1.215 -0.147,-0.252 -0.291,-0.513 -0.42,-0.772 -0.137,-0.281 -0.238,-0.587 -0.327,-0.881 -0.06,-0.271 -0.103,-0.529 -0.113,-0.803 0.01,-0.321 0.06,-0.637 0.128,-0.961 0.07,-0.233 0.164,-0.452 0.278,-0.669 0.08,-0.121 0.158,-0.231 0.249,-0.33 0.03,0 0.07,-0.09 0.103,-0.09 0.04,0 0.07,0 0.122,-0.08 0.02,0 0.04,0 0.06,0 0.04,0 0.07,0.01 0.09,0.114 0.05,0 0.08,0.111 0.12,0.157 0.132,0.26 0.221,0.554 0.314,0.829 0.133,0.391 0.637,0.559 0.997,0.406 0.183,-0.08 0.33,-0.218 0.408,-0.4 0.09,-0.2 0.07,-0.393 0,-0.595 -0.08,-0.253 -0.173,-0.507 -0.276,-0.753 -0.123,-0.289 -0.316,-0.547 -0.542,-0.769 -0.199,-0.198 -0.451,-0.353 -0.719,-0.439 -0.09,-0.01 -0.176,-0.02 -0.266,-0.04 -0.01,0 -0.02,0 -0.04,0 z" style="font-style:normal;font-variant:normal;font-weight:normal;font-stretch:normal;font-size:11.3084px;line-height:125%;font-family:'Kristen ITC';-inkscape-font-specification:'Kristen ITC';text-align:start;letter-spacing:0px;word-spacing:0px;text-anchor:start;fill:#000000;fill-opacity:1;stroke:none;stroke-width:0.264603px;stroke-linecap:butt;stroke-linejoin:miter;stroke-opacity:1" />
  <path id="path888" d="m 45.971,12.954 c -0.43,-0.06 -0.872,-0.02 -1.299,-0.03 v 0 c -0.242,-0.03 -0.493,0.04 -0.733,0.08 -0.06,0 -0.141,0.08 -0.205,0.07 0,0 0,0 -0.02,0 -0.05,0 -0.1,-0.01 -0.147,-0.02 -0.199,-0.03 -0.406,0.05 -0.563,0.147 v 0 c -0.07,0.09 -0.12,0.115 -0.164,0.18 -0.127,0.08 -0.246,0.128 -0.366,0.183 -0.232,0.12 -0.454,0.252 -0.677,0.384 -0.163,0.09 -0.269,0.327 -0.293,0.505 -0.03,0.198 0.03,0.397 0.151,0.555 0.121,0.168 0.304,0.273 0.504,0.3 0.07,0 0.133,0.02 0.2,0.03 0.02,0 0.05,0 0.07,0.01 -0.03,0.267 -0.09,0.532 -0.127,0.8 -0.1,0.743 -0.199,1.487 -0.298,2.23 -0.05,0.347 -0.09,0.694 -0.139,1.041 -0.04,0.317 -0.09,0.634 -0.126,0.941 -0.04,0.339 -0.07,0.667 -0.08,0.998 0,0.201 -0.02,0.41 -0.03,0.611 -0.02,0.562 0.02,1.133 0.04,1.701 0,0.192 0.144,0.392 0.286,0.502 0.161,0.122 0.369,0.18 0.569,0.177 0.201,-0.07 0.376,-0.131 0.498,-0.287 0.135,-0.173 0.158,-0.352 0.156,-0.564 -0.01,-0.425 -0.03,-0.852 -0.04,-1.276 0.02,-1.249 0.224,-2.502 0.384,-3.742 0.1,-0.744 0.199,-1.487 0.299,-2.24 0.07,-0.526 0.161,-1.048 0.261,-1.57 0.348,-0.06 0.703,-0.1 1.058,-0.11 0.312,0.04 0.624,0.08 0.938,0.125 0.101,0.01 0.201,0.03 0.286,0.14 0.04,0 0.07,0 0.1,0.113 0,0 0,0 0,0 0,0 0,0 0,0 0,0 0,0 0,0 0,0 -0.03,0.1 -0.04,0.105 -0.09,0.13 -0.176,0.239 -0.278,0.357 -0.405,0.369 -0.847,0.693 -1.289,1.028 -0.239,0.18 -0.455,0.383 -0.663,0.597 -0.154,0.161 -0.279,0.356 -0.386,0.554 -0.12,0.216 -0.186,0.449 -0.219,0.697 -0.06,0.456 0.08,0.909 0.255,1.325 0.09,0.224 0.219,0.423 0.339,0.621 0.07,0.121 0.144,0.241 0.219,0.352 0.176,0.276 0.353,0.552 0.53,0.818 0.104,0.185 0.209,0.37 0.313,0.556 0.103,0.175 0.213,0.351 0.305,0.535 0.141,0.281 0.282,0.562 0.42,0.853 0.247,0.498 0.454,1.01 0.676,1.523 0.166,0.376 0.61,0.566 0.997,0.406 0.379,-0.161 0.575,-0.619 0.409,-0.994 -0.403,-0.922 -0.796,-1.852 -1.294,-2.726 -0.207,-0.361 -0.401,-0.74 -0.628,-1.093 -0.25,-0.386 -0.503,-0.773 -0.743,-1.159 -0.1,-0.195 -0.184,-0.387 -0.254,-0.588 0,-0.102 -0.02,-0.135 -0.03,-0.207 0,0 0.01,-0.1 0.02,-0.158 0,0 0.01,0 0.03,-0.1 0.09,-0.119 0.175,-0.239 0.276,-0.346 0.183,-0.167 0.378,-0.313 0.575,-0.458 0.326,-0.249 0.644,-0.499 0.953,-0.76 0.385,-0.332 0.719,-0.721 0.927,-1.188 0.115,-0.257 0.123,-0.538 0.11,-0.823 C 47.984,14.391 47.836,14.13 47.68,13.917 47.559,13.74 47.378,13.594 47.199,13.49 46.942,13.334 46.684,13.239 46.393,13.17 46.244,13.15 46.096,13.13 45.948,13.11 Z" style="font-style:normal;font-variant:normal;font-weight:normal;font-stretch:normal;font-size:11.3084px;line-height:125%;font-family:'Kristen ITC';-inkscape-font-specification:'Kristen ITC';text-align:start;letter-spacing:0px;word-spacing:0px;text-anchor:start;fill:#000000;fill-opacity:1;stroke:none;stroke-width:0.264603px;stroke-linecap:butt;stroke-linejoin:miter;stroke-opacity:1" />
  <path id="path886" d="m 56.374,12.368 c -0.02,0 -0.03,0 -0.05,0 v 0 c -0.702,0 -1.401,-0.02 -2.098,-0.07 -0.339,-0.04 -0.68,-0.09 -1.034,-0.04 -0.602,-0.08 -1.218,-0.06 -1.82,-0.143 -0.365,-0.05 -0.711,0.177 -0.824,0.515 -0.05,0 -0.09,-0.01 -0.139,-0.02 -0.202,0.07 -0.377,0.131 -0.499,0.286 -0.12,0.145 -0.195,0.378 -0.156,0.564 0.159,0.738 0.295,1.483 0.312,2.241 -0.02,1.209 -0.215,2.403 -0.39,3.59 -0.1,0.633 -0.188,1.257 -0.282,1.88 -0.02,0.178 -0.05,0.357 -0.07,0.535 -0.02,0.188 -0.05,0.377 -0.08,0.565 -0.02,0.239 0.03,0.438 0.1,0.669 0.06,0.21 0.249,0.376 0.404,0.528 0.07,0.109 0.157,0.122 0.248,0.164 0.125,0.02 0.228,0.131 0.36,0.159 0.407,0.156 0.853,0.114 1.276,0.171 0.369,0.05 0.733,0.1 1.113,0.05 0.335,0.04 0.682,-0.01 1.019,-0.02 0.505,-0.03 1.005,-0.138 1.507,-0.222 0.409,-0.06 0.708,-0.44 0.651,-0.851 -0.05,-0.411 -0.448,-0.716 -0.859,-0.65 -0.32,0.06 -0.637,0.1 -0.958,0.154 -0.333,0.06 -0.662,0.07 -0.998,0.08 -0.248,-0.03 -0.511,0.03 -0.759,0 -0.182,-0.02 -0.363,-0.05 -0.545,-0.07 -0.305,-0.04 -0.612,-0.08 -0.918,-0.123 -0.04,0 -0.07,0 -0.109,-0.01 0.05,-0.548 0.146,-1.091 0.228,-1.634 0.05,-0.407 0.12,-0.822 0.186,-1.237 0.06,-0.416 0.12,-0.821 0.185,-1.236 0.408,0.05 0.802,0.208 1.211,0.263 0.548,0.07 1.097,0.146 1.645,0.22 0.411,0.05 0.8,-0.236 0.856,-0.652 0.05,-0.407 -0.242,-0.81 -0.655,-0.855 -0.548,-0.07 -1.096,-0.146 -1.644,-0.22 -0.418,-0.06 -0.836,-0.112 -1.24,-0.266 0.03,-0.46 0.04,-0.933 0.03,-1.399 -0.01,-0.567 -0.119,-1.126 -0.234,-1.686 0.547,0.07 1.093,0.146 1.652,0.12 0.332,0.04 0.664,0.09 1.01,0.03 0.699,0.09 1.416,0.05 2.123,0.06 0.208,0.03 0.395,-0.05 0.563,-0.146 0.16,-0.12 0.266,-0.308 0.292,-0.506 0.03,-0.198 -0.03,-0.407 -0.148,-0.565 -0.103,-0.135 -0.283,-0.259 -0.461,-0.283 z" style="font-style:normal;font-variant:normal;font-weight:normal;font-stretch:normal;font-size:11.3084px;line-height:125%;font-family:'Kristen ITC';-inkscape-font-specification:'Kristen ITC';text-align:start;letter-spacing:0px;word-spacing:0px;text-anchor:start;fill:#000000;fill-opacity:1;stroke:none;stroke-width:0.264603px;stroke-linecap:butt;stroke-linejoin:miter;stroke-opacity:1" />
  <path id="path884" d="m 62.133,12.493 c -0.327,-0.04 -0.653,0.01 -0.972,0.09 v 0 c -0.437,0.133 -0.823,0.384 -1.175,0.67 -0.314,0.251 -0.586,0.568 -0.838,0.877 -0.291,0.364 -0.532,0.766 -0.75,1.171 -0.195,0.367 -0.342,0.751 -0.48,1.136 -0.16,0.443 -0.283,0.9 -0.399,1.359 -0.09,0.372 -0.173,0.764 -0.193,1.145 -0.03,0.469 0.06,0.945 0.255,1.376 0.383,0.807 1.136,1.372 1.92,1.75 0.152,0.121 0.323,0.144 0.491,0.176 0.232,0.03 0.442,0.16 0.68,0.192 0.476,0.06 0.981,-0.09 1.41,-0.285 0.762,-0.342 1.32,-0.964 1.928,-1.518 0.151,-0.141 0.261,-0.288 0.29,-0.506 0.03,-0.198 -0.05,-0.4 -0.146,-0.565 -0.13,-0.158 -0.308,-0.263 -0.506,-0.289 -0.189,-0.03 -0.43,0.04 -0.565,0.146 -0.254,0.239 -0.498,0.478 -0.75,0.707 -0.22,0.213 -0.456,0.393 -0.699,0.552 -0.143,0.08 -0.281,0.134 -0.429,0.185 -0.129,-0.02 -0.271,0.06 -0.411,0.06 -0.1,-0.01 -0.188,-0.03 -0.291,-0.04 -0.241,-0.03 -0.455,-0.172 -0.672,-0.292 -0.205,-0.128 -0.394,-0.274 -0.571,-0.439 -0.1,-0.114 -0.188,-0.227 -0.27,-0.349 -0.04,-0.106 -0.08,-0.172 -0.113,-0.257 -0.02,-0.125 -0.04,-0.238 -0.04,-0.349 0.02,-0.442 0.118,-0.882 0.234,-1.301 0.205,-0.729 0.456,-1.442 0.822,-2.109 0.249,-0.401 0.538,-0.786 0.868,-1.125 0.179,-0.168 0.365,-0.315 0.566,-0.439 0.113,-0.09 0.208,-0.09 0.325,-0.138 0.1,0.01 0.119,0.02 0.202,-0.07 0,0 0.1,0.01 0.158,0.02 0,0 0.11,0.02 0.159,0.02 0,0 0.09,0.113 0.116,0.117 0.09,0.112 0.121,0.147 0.18,0.236 0.09,0.163 0.177,0.336 0.275,0.511 0.09,0.183 0.208,0.33 0.399,0.406 0.185,0.126 0.407,0.05 0.598,-0.02 0.182,-0.08 0.333,-0.227 0.408,-0.409 0.02,-0.179 0.06,-0.416 -0.02,-0.598 -0.177,-0.337 -0.341,-0.692 -0.572,-1.005 -0.256,-0.347 -0.626,-0.598 -1.03,-0.743 -0.139,-0.02 -0.268,-0.04 -0.406,-0.05 z" style="font-style:normal;font-variant:normal;font-weight:normal;font-stretch:normal;font-size:11.3084px;line-height:125%;font-family:'Kristen ITC';-inkscape-font-specification:'Kristen ITC';text-align:start;letter-spacing:0px;word-spacing:0px;text-anchor:start;fill:#000000;fill-opacity:1;stroke:none;stroke-width:0.264603px;stroke-linecap:butt;stroke-linejoin:miter;stroke-opacity:1" />
  <path id="path882" d="m 71.436,12.789 c -0.416,-0.05 -0.8,0.247 -0.854,0.653 -0.09,0.654 -0.174,1.298 -0.261,1.953 -0.04,0.327 -0.09,0.654 -0.131,0.981 -0.03,0.218 -0.06,0.436 -0.09,0.664 -0.1,-0.01 -0.208,-0.03 -0.321,0.06 -0.32,0.06 -0.628,0.02 -0.941,0.03 -0.44,0.04 -0.873,0.04 -1.311,0.07 0.02,-0.149 0.04,-0.287 0.06,-0.426 0.04,-0.317 0.08,-0.635 0.129,-0.962 0.04,-0.297 0.08,-0.604 0.22,-0.888 0.07,-0.486 0.23,-0.968 0.345,-1.447 0.02,-0.189 -0.05,-0.42 -0.147,-0.565 -0.129,-0.168 -0.306,-0.273 -0.505,-0.299 -0.198,-0.03 -0.409,0.05 -0.565,0.156 -0.01,0.1 -0.113,0.09 -0.139,0.133 -0.115,0.106 -0.132,0.234 -0.161,0.372 -0.06,0.485 -0.23,0.968 -0.345,1.447 -0.04,0.327 -0.09,0.654 -0.23,0.968 -0.09,0.654 -0.177,1.318 -0.265,1.982 -0.09,0.704 -0.187,1.398 -0.282,2.101 -0.05,0.337 -0.09,0.674 -0.135,1.011 -0.03,0.218 -0.06,0.427 -0.09,0.645 -0.07,0.495 -0.02,0.995 0,1.493 -0.02,0.178 0.15,0.383 0.287,0.493 0.164,0.132 0.37,0.18 0.572,0.177 0.201,-0.07 0.38,-0.131 0.502,-0.286 0.134,-0.174 0.159,-0.362 0.177,-0.572 0.03,-0.228 -0.04,-0.479 -0.04,-0.711 0.03,-0.228 0.06,-0.446 0.09,-0.674 0.02,-0.158 0.04,-0.317 0.06,-0.475 0.04,-0.308 0.08,-0.615 0.125,-0.932 0.05,-0.397 0.106,-0.793 0.158,-1.18 0,0 0,0 0.1,0.01 0.54,-0.04 1.089,-0.08 1.635,-0.08 0.248,0.03 0.509,-0.03 0.769,-0.02 -0.03,0.238 -0.06,0.475 -0.09,0.713 -0.109,0.813 -0.217,1.626 -0.425,2.425 -0.06,0.417 0.245,0.81 0.661,0.866 0,0 0.1,0.01 0.148,0.02 0.351,-0.05 0.646,-0.297 0.705,-0.662 0.108,-0.813 0.217,-1.625 0.425,-2.425 0.04,-0.317 0.08,-0.624 0.224,-0.918 0,0 0,0 0.01,-0.1 0,0 0,0 0,0 0.208,0.03 0.429,-0.04 0.632,-0.05 0.188,0.02 0.382,-0.141 0.502,-0.286 0.122,-0.155 0.181,-0.369 0.176,-0.562 0.02,-0.188 -0.131,-0.38 -0.286,-0.502 -0.106,-0.115 -0.225,-0.131 -0.353,-0.148 -0.1,-0.01 -0.139,-0.02 -0.209,-0.03 0,0 -0.1,-0.01 -0.1,-0.01 0.02,-0.119 0.03,-0.248 0.05,-0.367 0.04,-0.327 0.09,-0.654 0.133,-0.991 0.09,-0.644 0.172,-1.289 0.26,-1.943 0.05,-0.406 -0.246,-0.8 -0.653,-0.854 z" style="font-style:normal;font-variant:normal;font-weight:normal;font-stretch:normal;font-size:11.3084px;line-height:125%;font-family:'Kristen ITC';-inkscape-font-specification:'Kristen ITC';text-align:start;letter-spacing:0px;word-spacing:0px;text-anchor:start;fill:#000000;fill-opacity:1;stroke:none;stroke-width:0.264603px;stroke-linecap:butt;stroke-linejoin:miter;stroke-opacity:1" />
  <defs id="defs72" />
  <metadata id="metadata75">
    <rdf:RDF>
      <cc:Work rdf:about="">
        <dc:format>image/svg+xml</dc:format>
        <dc:type rdf:resource="http://purl.org/dc/dcmitype/StillImage" />
        <dc:title></dc:title>
      </cc:Work>
    </rdf:RDF>
  </metadata>
  <path inkscape:connector-curvature="0" id="path862-4" style="font-style:normal;font-variant:normal;font-weight:normal;font-stretch:normal;font-size:11.3084px;line-height:125%;font-family:'Kristen ITC';-inkscape-font-specification:'Kristen ITC';text-align:start;letter-spacing:0px;word-spacing:0px;text-anchor:start;fill:#000000;fill-opacity:1;stroke:none;stroke-width:0.264604px;stroke-linecap:butt;stroke-linejoin:miter;stroke-opacity:1" d="m 93.981,11.595 c 0,0.01 0,0.01 0.13,0.02 -0.23,-0.01 -0.47,0.03 -0.7,-0.01 -0.5,0.03 -0.99,0.111 -1.48,0.227 -0.12,-0.02 -0.25,0.07 -0.37,0.101 -0.11,-0.115 -0.25,-0.165 -0.4,-0.184 -0.41,-0.05 -0.77,0.23 -0.85,0.612 -0.23,0.09 -0.47,0.179 -0.71,0.268 -0.21,0.07 -0.36,0.265 -0.43,0.468 l -0.1,-0.01 c 0,0 -0.1,-0.01 -0.15,-0.02 -1.11,-0.148 -2.23,-0.197 -3.34,-0.335 -0.879,-0.118 -1.778,-0.238 -2.659,-0.356 -0.4,-0.05 -0.799,0.236 -0.85,0.652 0,0.337 0.14,0.645 0.439,0.785 -0.23,0.424 -0.46,0.847 -0.68,1.261 -0.158,0.291 -0.32,0.583 -0.457,0.877 -0.352,0.671 -0.68,1.342 -1,2.025 -0.141,0.274 -0.241,0.564 -0.342,0.843 -0.169,0.432 -0.119,0.932 0,1.335 0.201,0.431 0.59,0.746 1,0.961 0.45,0.232 0.961,0.371 1.461,0.438 0.5,0.07 1.011,0.03 1.5,-0.02 0.508,-0.06 0.998,-0.199 1.498,-0.345 0.41,-0.116 0.8,-0.266 1.17,-0.468 0.44,-0.245 0.84,-0.534 1.26,-0.801 0.16,-0.1 0.26,-0.317 0.29,-0.506 0,-0.198 0,-0.4 -0.15,-0.554 -0.12,-0.167 -0.31,-0.273 -0.51,-0.3 -0.2,-0.03 -0.39,0.05 -0.56,0.157 -0.32,0.199 -0.64,0.428 -0.97,0.626 -0.44,0.225 -0.89,0.386 -1.358,0.514 -0.49,0.126 -1.001,0.2 -1.511,0.223 -0.299,-0.04 -0.609,-0.08 -0.929,-0.125 -0.19,-0.02 -0.36,-0.149 -0.54,-0.214 -0.1,-0.01 -0.14,-0.119 -0.211,-0.148 l -0.1,-0.112 v -0.1 c 0.169,-0.503 0.399,-0.976 0.629,-1.45 0.13,0.119 0.278,0.139 0.45,0.06 0.659,-0.03 1.321,-0.07 1.969,-0.131 0.401,-0.05 0.791,-0.08 1.181,-0.113 0.81,-0.07 1.62,-0.199 2.41,-0.293 0.41,-0.05 0.71,-0.451 0.66,-0.861 -0.1,-0.35 -0.33,-0.599 -0.67,-0.644 -0.1,-0.01 -0.12,-0.02 -0.18,-0.03 -0.8,0.09 -1.6,0.22 -2.39,0.295 -0.39,0.05 -0.77,0.07 -1.159,0.108 -0.511,0.04 -1.032,0.07 -1.54,0.107 0.15,-0.297 0.322,-0.61 0.481,-0.911 0.209,-0.405 0.431,-0.81 0.651,-1.203 v -0.346 c 0.439,0.06 0.877,0.117 1.317,0.175 1.14,0.152 2.28,0.204 3.42,0.337 0.37,0.05 0.71,-0.177 0.83,-0.525 0.15,0.02 0.31,0.04 0.46,0.06 0,0.218 -0.1,0.436 -0.1,0.654 -0.1,0.565 -0.15,1.14 -0.23,1.705 0,0.198 0,0.398 -0.1,0.595 0,0.338 -0.1,0.684 -0.14,1.032 v 0.825 c 0,0.618 0,1.215 -0.1,1.829 0,0.208 0.1,0.4 0.15,0.564 0.12,0.157 0.31,0.263 0.5,0.29 0.1,0.01 0.1,0.01 0.15,0.02 0.14,0.02 0.29,-0.06 0.42,-0.157 l 0.11,-0.09 c 0.12,-0.116 0.19,-0.268 0.19,-0.409 v -1.769 -0.856 c 0,-0.208 0,-0.416 0.1,-0.624 0.1,0.112 0.1,0.174 0.14,0.251 0.15,0.241 0.36,0.432 0.58,0.612 0.68,0.535 1.4,1.015 2.11,1.503 0.75,0.514 1.5,1.038 2.23,1.56 0.34,0.238 0.81,0.209 1.08,-0.128 0.24,-0.321 0.21,-0.829 -0.14,-1.078 -0.76,-0.536 -1.52,-1.071 -2.29,-1.598 -0.26,-0.187 -0.53,-0.364 -0.79,-0.55 -0.26,-0.176 -0.52,-0.351 -0.78,-0.537 -0.14,-0.121 -0.3,-0.222 -0.46,-0.344 0.12,-0.09 0.15,-0.102 0.22,-0.153 0.17,-0.118 0.35,-0.245 0.52,-0.374 0.53,-0.374 1.01,-0.804 1.45,-1.259 0.21,-0.224 0.4,-0.482 0.55,-0.743 0.2,-0.297 0.33,-0.612 0.4,-0.955 0,-0.337 0.1,-0.684 0,-1.013 -0.1,-0.142 -0.12,-0.268 -0.2,-0.399 -0.1,-0.155 -0.23,-0.294 -0.39,-0.415 -0.26,-0.227 -0.62,-0.325 -0.96,-0.391 0,0 0.1,0 0.14,0.01 z m -0.15,1.364 c 0.1,0.01 0.16,0.02 0.25,0.03 v 0.15 c 0.1,0.01 0.16,0.02 0.24,0.03 0.1,0.01 0.11,0.01 0.15,0.02 l 0.1,0.01 v 0.208 c 0,0.129 -0.14,0.254 -0.16,0.382 -0.19,0.267 -0.4,0.522 -0.62,0.765 -0.52,0.485 -1.08,0.904 -1.66,1.311 -0.12,0.08 -0.24,0.169 -0.36,0.245 -0.11,0.09 -0.16,0.119 -0.23,0.181 -0.11,0.09 -0.14,0.132 -0.21,0.194 0.1,-0.565 0.15,-1.14 0.23,-1.705 0.1,-0.486 0.13,-0.972 0.19,-1.458 0.13,-0.08 0.25,-0.07 0.36,-0.103 0.58,-0.145 1.16,-0.247 1.75,-0.26 z" />
  <path inkscape:connector-curvature="0" style="font-style:normal;font-variant:normal;font-weight:normal;font-stretch:normal;font-size:11.3084px;line-height:125%;font-family:'Kristen ITC';-inkscape-font-specification:'Kristen ITC';text-align:start;letter-spacing:0px;word-spacing:0px;text-anchor:start;fill:#000000;fill-opacity:1;stroke:none;stroke-width:0.264599px;stroke-linecap:butt;stroke-linejoin:miter;stroke-opacity:1" d="m 101.87,9.5638 v 0 c -0.1,-0.01 -0.2,-0.03 -0.3,-0.04 -0.1,-0.01 -0.21,0.07 -0.3,0.07 -0.1,-0.01 -0.16,0.08 -0.22,0.07 -0.31,0.11 -0.55,0.3402 -0.77,0.5732 -0.1,0.117 -0.19,0.256 -0.28,0.396 -0.1,0.168 -0.199,0.347 -0.279,0.527 -0.14,0.304 -0.22,0.637 -0.299,0.96 -0.1,0.362 -0.11,0.742 -0.1,1.116 0,0.668 0.209,1.309 0.449,1.926 0.11,0.277 0.259,0.539 0.399,0.801 0.19,0.338 0.39,0.667 0.6,0.988 0.38,0.595 0.79,1.164 1.14,1.767 0.17,0.295 0.32,0.598 0.43,0.925 0,0.101 0,0.103 0,0.144 0,0 0,0 0,0.1 0,0 0,0.1 0,0.09 0,0 0,0 0,0 -0.1,0.09 -0.18,0.138 -0.28,0.195 -0.15,0.08 -0.3,0.142 -0.46,0.191 -0.1,-0.01 -0.2,0.07 -0.3,0.06 -0.1,-0.01 -0.21,0.07 -0.31,0.06 -0.22,-0.03 -0.44,-0.06 -0.66,-0.09 -0.21,-0.03 -0.389,-0.153 -0.579,-0.239 -0.15,-0.121 -0.299,-0.221 -0.439,-0.351 0,0 -0.1,-0.11 -0.11,-0.125 -0.15,-0.334 -0.22,-0.696 -0.337,-1.044 -0.06,-0.18 -0.235,-0.335 -0.404,-0.408 -0.183,-0.125 -0.408,-0.05 -0.596,0.02 -0.182,0.08 -0.33,0.218 -0.407,0.399 -0.09,0.2 -0.07,0.394 0,0.596 0.09,0.264 0.154,0.545 0.245,0.809 0.09,0.275 0.251,0.538 0.448,0.756 0.446,0.484 1.011,0.832 1.64,1.027 0.639,0.206 1.329,0.278 1.989,0.105 0.33,-0.07 0.64,-0.177 0.93,-0.33 0.14,-0.08 0.26,-0.157 0.39,-0.241 0.16,-0.1 0.29,-0.243 0.42,-0.386 0.11,-0.1 0.17,-0.241 0.23,-0.363 0,-0.1 0.1,-0.144 0.1,-0.222 0,-0.106 0.1,-0.204 0.1,-0.313 0.1,-0.344 0,-0.681 -0.14,-1.007 -0.1,-0.284 -0.23,-0.546 -0.37,-0.807 -0.13,-0.229 -0.26,-0.458 -0.4,-0.679 -0.16,-0.243 -0.32,-0.476 -0.48,-0.719 -0.26,-0.409 -0.53,-0.799 -0.78,-1.215 -0.15,-0.252 -0.29,-0.513 -0.42,-0.772 -0.14,-0.281 -0.24,-0.587 -0.33,-0.881 -0.1,-0.271 -0.1,-0.529 -0.11,-0.803 0,-0.321 0.1,-0.637 0.13,-0.961 0.1,-0.233 0.16,-0.452 0.28,-0.669 0.1,-0.121 0.16,-0.231 0.25,-0.33 0,0 0.1,-0.09 0.1,-0.09 0,0 0.1,0 0.12,-0.08 0,0 0,0 0.1,0 0,0 0.1,0.01 0.1,0.114 0,0 0.1,0.111 0.12,0.157 0.13,0.26 0.22,0.554 0.32,0.829 0.13,0.391 0.63,0.559 0.99,0.406 0.19,-0.08 0.33,-0.218 0.41,-0.4 0.1,-0.2 0.1,-0.393 0,-0.595 -0.1,-0.253 -0.17,-0.507 -0.28,-0.753 -0.12,-0.289 -0.31,-0.547 -0.54,-0.769 -0.2,-0.1982 -0.45,-0.3532 -0.72,-0.4392 -0.1,-0.01 -0.17,-0.02 -0.26,-0.04 0,0 0,0 0,0 z" id="path892-5" />
  <path inkscape:connector-curvature="0" style="font-style:normal;font-variant:normal;font-weight:normal;font-stretch:normal;font-size:11.3084px;line-height:125%;font-family:'Kristen ITC';-inkscape-font-specification:'Kristen ITC';text-align:start;letter-spacing:0px;word-spacing:0px;text-anchor:start;fill:#000000;fill-opacity:1;stroke:none;stroke-width:0.264599px;stroke-linecap:butt;stroke-linejoin:miter;stroke-opacity:1" d="m 120.53,8.6724 c -0.13,-0.02 -0.25,-0.04 -0.39,0.06 -0.19,0.08 -0.32,0.2192 -0.4,0.4002 -0.14,0.284 -0.3,0.5552 -0.43,0.8412 -0.17,0.3412 -0.25,0.7022 -0.35,1.0622 v -0.198 c -0.16,0.482 -0.28,0.96 -0.4,1.449 -0.1,0.456 -0.21,0.899 -0.3,1.351 -0.22,0.859 -0.4,1.722 -0.61,2.582 -0.1,-0.385 -0.18,-0.769 -0.27,-1.155 -0.1,-0.478 -0.21,-0.947 -0.33,-1.426 -0.1,-0.271 -0.12,-0.541 -0.17,-0.811 -0.1,-0.162 -0.1,-0.312 -0.1,-0.467 -0.1,-0.351 -0.15,-0.686 -0.29,-1.006 -0.11,-0.247 -0.34,-0.428 -0.61,-0.464 -0.24,-0.03 -0.54,0.07 -0.7,0.289 0,0.1 -0.12,0.175 -0.16,0.27 0,0.138 0,0.267 -0.1,0.405 v 0.268 c 0,0.159 0,0.327 -0.1,0.486 0,0.376 -0.21,0.73 -0.25,1.097 -0.18,0.631 -0.27,1.285 -0.38,1.936 -0.1,0.714 -0.19,1.418 -0.39,2.118 0,0.337 -0.1,0.674 -0.12,1.001 -0.11,0.396 -0.21,0.79 -0.29,1.182 v 0.149 0.198 c 0,0.139 0,0.268 0.1,0.401 0.11,0.182 0.23,0.332 0.41,0.407 0.18,0.125 0.4,0.05 0.59,-0.02 0.17,-0.08 0.36,-0.226 0.4,-0.4 0.18,-0.512 0.28,-1.023 0.41,-1.541 0,-0.297 0.1,-0.594 0.22,-0.888 0.1,-0.744 0.3,-1.484 0.4,-2.237 0.1,-0.348 0.1,-0.694 0.14,-1.051 0.1,0.232 0.1,0.448 0.15,0.676 0.11,0.469 0.21,0.946 0.3,1.422 0.1,0.241 0.1,0.476 0.14,0.716 0,0.147 0.1,0.31 0.1,0.467 0.1,0.152 0.1,0.291 0.11,0.428 0.1,0.181 0.15,0.323 0.28,0.471 0.13,0.157 0.29,0.261 0.5,0.288 0.19,0.03 0.41,-0.05 0.56,-0.145 0.12,-0.09 0.13,-0.114 0.19,-0.177 0.12,-0.09 0.13,-0.113 0.2,-0.186 0,-0.1 0.11,-0.175 0.15,-0.271 0,-0.1 0.12,-0.136 0.13,-0.215 0,-0.158 0.15,-0.304 0.17,-0.463 0,-0.198 0.15,-0.373 0.16,-0.562 0.17,-0.422 0.23,-0.857 0.34,-1.288 0.16,-0.531 0.25,-1.074 0.38,-1.602 0.18,-0.552 0.26,-1.116 0.4,-1.673 0.1,-0.485 0.24,-0.946 0.36,-1.414 v -0.131 c 0,-0.247 0.15,-0.481 0.26,-0.72 0.14,-0.284 0.29,-0.567 0.43,-0.8512 0.18,-0.3692 0,-0.8434 -0.4,-0.9924 -0.1,-0.01 -0.14,-0.02 -0.21,-0.03 z" id="path860-0" />
  <path inkscape:connector-curvature="0" id="path2128" style="fill:#000000;fill-opacity:1;fill-rule:nonzero;stroke:none;stroke-width:0.352768" d="m 110.21,10.275 v 0.05 c -0.25,0 -0.48,0.05 -0.73,0.1 -0.37,0.08 -0.71,0.297 -1.02,0.493 0,0.05 0,0.05 -0.14,0.08 -0.13,-0.05 -0.27,-0.05 -0.4,-0.05 -0.76,0.05 -1.36,0.624 -1.84,1.3 -0.48,0.659 -0.76,1.454 -1.03,2.256 -0.27,0.82 -0.44,1.698 -0.48,2.582 0,0.441 0,0.887 0.13,1.321 0,0.232 0.14,0.454 0.2,0.674 0,0.187 0.17,0.365 0.28,0.531 0.14,0.191 0.24,0.356 0.37,0.521 0.14,0.161 0.31,0.286 0.45,0.413 0.27,0.237 0.61,0.386 0.92,0.544 0.72,0.338 1.47,0.433 2.21,0.263 0.38,-0.08 0.69,-0.209 1.02,-0.387 0.15,-0.08 0.29,-0.162 0.42,-0.258 0.24,-0.145 0.45,-0.361 0.62,-0.552 0.27,-0.268 0.51,-0.599 0.7,-0.931 0.21,-0.364 0.42,-0.735 0.58,-1.146 0.35,-0.828 0.59,-1.728 0.69,-2.641 0.13,-0.895 0,-1.796 -0.17,-2.662 -0.23,-0.872 -0.68,-1.563 -1.33,-2.043 -0.31,-0.252 -0.72,-0.353 -1.09,-0.408 -0.13,0 -0.24,-0.05 -0.34,-0.05 z m 0,2.469 c 0,0 0,0 0,0.05 h 0.12 c 0.13,0.05 0.17,0.05 0.27,0.08 0,0.05 0.13,0.08 0.15,0.112 0.13,0.06 0.13,0.145 0.16,0.207 0,0.1 0.13,0.188 0.15,0.286 0,0.186 0.13,0.372 0.13,0.568 0,0.33 0,0.658 0,0.993 0,0.567 -0.21,1.106 -0.38,1.642 -0.13,0.351 -0.27,0.687 -0.44,1.001 -0.16,0.289 -0.37,0.552 -0.62,0.794 -0.13,0.129 -0.31,0.233 -0.47,0.328 -0.21,0.1 -0.38,0.16 -0.62,0.212 -0.17,0 -0.34,0.05 -0.51,0 -0.27,-0.06 -0.51,-0.162 -0.78,-0.276 -0.14,-0.1 -0.31,-0.196 -0.44,-0.32 -0.13,-0.06 -0.14,-0.128 -0.18,-0.191 0,-0.112 -0.13,-0.232 -0.17,-0.356 0,-0.08 0,-0.17 0,-0.258 0,-0.196 0,-0.392 0,-0.586 0.31,-0.608 0.58,-1.232 0.92,-1.813 0.35,-0.536 0.72,-1.037 1.16,-1.491 0,0.05 0.13,0.08 0.18,0.112 0.17,0.1 0.33,0.166 0.5,0.166 0.13,0 0.17,0 0.25,-0.05 0.23,-0.08 0.47,-0.288 0.58,-0.564 0.13,-0.179 0.13,-0.39 0.13,-0.599 v 0 z" />
</svg>
