<?xml version="1.0" encoding="UTF-8" standalone="no"?>
<svg xmlns:dc="http://purl.org/dc/elements/1.1/" xmlns:cc="http://creativecommons.org/ns#" xmlns:rdf="http://www.w3.org/1999/02/22-rdf-syntax-ns#" xmlns:svg="http://www.w3.org/2000/svg" xmlns="http://www.w3.org/2000/svg" xmlns:sodipodi="http://sodipodi.sourceforge.net/DTD/sodipodi-0.dtd" xmlns:inkscape="http://www.inkscape.org/namespaces/inkscape" id="svg78" version="1.1" viewBox="0 0 145.96 222.2" height="839.78" width="551.66" sodipodi:docname="problem.svg" inkscape:version="1.0rc1 (09960d6f05, 2020-04-09)">
  <sodipodi:namedview inkscape:document-rotation="0" pagecolor="#ffffff" bordercolor="#666666" borderopacity="1" objecttolerance="10" gridtolerance="10" guidetolerance="10" inkscape:pageopacity="0" inkscape:pageshadow="2" inkscape:window-width="640" inkscape:window-height="480" id="namedview15" showgrid="false" units="px" inkscape:zoom="0.73674" inkscape:cx="396.85" inkscape:cy="452.67" inkscape:current-layer="svg78" />
  <defs id="defs72" />
  <metadata id="metadata75">
    <rdf:RDF>
      <cc:Work rdf:about="">
        <dc:format>image/svg+xml</dc:format>
        <dc:type rdf:resource="http://purl.org/dc/dcmitype/StillImage" />
        <dc:title></dc:title>
      </cc:Work>
    </rdf:RDF>
  </metadata>
  <g id="layer1">
    <g transform="matrix(0.99999,0,0,0.99999,-249.58,-102.79)" id="gProblem">
      <g id="gProblemBox">
        <path d="m 370.98,186.66 c -4.48,2.84 -3.37,9.5 -3.58,14.18 0.54,12.85 0.94,25.74 0.14,38.59 -0.92,5.44 0.45,11.36 -0.1,17 0.27,7.2 0.26,14.38 0.1,21.58 -0.13,5.81 0.12,11.59 0.94,17.35 3.51,1.81 1.65,11.17 2.42,15.61 -0.37,4.36 -8.66,0.45 -12.59,1.62 -7.71,-0.39 -15.49,-1.54 -23.14,-1.73 -1.75,5.08 8.48,2.44 11.69,3.6 9.46,1.26 19.02,1.03 28.53,1.59 2.71,-2.99 -0.6,-9.81 0.19,-14.97 -0.9,-8.09 -1.76,-16.35 -3.15,-24.25 -0.1,-9.44 -1.23,-18.9 -1.62,-28.34 0,-10.08 -0.25,-20.18 1.06,-30.22 0,-9.35 0.1,-18.72 1.02,-28.03 -1.33,-1.06 0.44,-3.33 -1.91,-3.58 z m 3.27,126.5 c 0.14,0.1 -0.24,0 0,0 z m -82,3.92 c -10.27,2.05 -20.66,4.54 -31.18,4.53 -6.11,0.77 2.03,4.84 4.88,2.83 9.1,-1.2 18.31,-2.35 27.14,-4.81 1.06,-0.76 0.49,-2.6 -0.84,-2.55 z" style="opacity:0.983902;fill:#a2a2a2;fill-opacity:1;fill-rule:nonzero;stroke:none;stroke-width:0.352777" id="pProblemShadow" inkscape:connector-curvature="0" />
        <path d="m 347.14,112.18 c -12.55,1.22 -24.94,3.94 -37.55,4.75 -17.27,1.68 -34.58,3.24 -51.84,4.71 -4.67,8.02 -2.72,18.56 -3.29,27.65 0,8.47 0.22,17.01 -0.54,25.41 6.53,3.42 3.69,-10.65 4.37,-14.74 0.24,-11.62 -0.87,-23.4 1.54,-34.85 17.38,-1.12 34.71,-2.94 52.05,-4.61 12.04,-0.68 23.82,-3.59 35.8,-4.49 6.48,1.84 5.49,-5.69 -0.54,-3.83 z m 21.38,73.78 c -4.51,5.74 -2.42,16.47 -3.9,24.04 -0.16,28.68 0.16,57.43 3.96,85.9 -0.13,5.45 4.51,16.47 -5.18,13.33 -10.08,-0.73 -20.24,-0.63 -30.28,-1.58 -7.95,-0.51 0.63,6.64 4.95,4.33 11.17,-0.29 22.43,1.95 33.52,0.7 4.02,-9.01 -0.56,-20.03 -0.59,-29.81 -2.73,-25.72 -2.84,-51.65 -2.37,-77.49 -0.73,-5.54 4.45,-15.77 -0.11,-19.42 z M 254.08,234.9 c -5.13,6.35 -2.22,17.51 -4.2,25.68 -0.51,19.66 -0.56,39.41 1.58,58.96 6.34,5.92 17.86,1.64 25.97,0.81 4.34,-2.64 18.67,0.23 16.51,-6.57 -11.81,0.71 -23.5,5.55 -35.58,4.65 -7.88,-0.28 -2.05,-13.89 -4.6,-19.35 -0.63,-18.62 -0.67,-37.31 1.43,-55.84 -0.96,-2.36 2.87,-7.68 -1.11,-8.34 z" style="fill:#000000;fill-opacity:0.966507;fill-rule:nonzero;stroke:none;stroke-width:0.352777" id="pProblemBorder" inkscape:connector-curvature="0" />
      </g>
      <path transform="scale(0.26458)" d="m 1281.3,448.38 c -0.5,0 -1.1,0.13 -1.5,0.39 -0.7,0.4 -1.1,0.99 -1.3,1.72 -2.2,6.03 -4.5,12.04 -6.6,18.09 -0.7,1.99 -1.4,3.97 -2.1,5.96 -0.4,1.15 -0.9,2.31 -1.2,3.47 -0.6,1.82 -1.2,3.63 -1.8,5.45 -0.8,2.4 -1.5,4.81 -2.1,7.25 -0.4,1.45 -0.8,2.9 -1.2,4.35 -0.4,1.51 0.5,3.12 2,3.54 1.5,0.42 3.2,-0.5 3.6,-2.01 0.9,-3.31 1.6,-6.65 2.7,-9.91 0.7,-2 1.3,-4 2,-6 0.9,-3.02 2,-6 3.1,-8.99 2,-5.8 4.2,-11.57 6.3,-17.34 0.3,-0.78 0.5,-1.55 0.8,-2.33 0.3,-0.7 0.1,-1.59 -0.3,-2.22 -0.3,-0.64 -1,-1.12 -1.7,-1.32 -0.2,-0.1 -0.5,-0.1 -0.7,-0.1 z m -58.7,9.2 c -1,0 -1.9,0.51 -2.4,1.32 0,0 0,0 0,-0.1 -0.4,-0.41 -0.9,-0.72 -1.4,-0.87 -0.3,-0.1 -0.5,-0.1 -0.8,-0.1 -0.5,0 -1,0.13 -1.5,0.39 -0.6,0.4 -1,0.99 -1.3,1.72 -0.6,1.87 -1.3,3.77 -2,5.62 -0.4,0.89 -0.7,1.79 -1.1,2.68 -0.6,1.6 -1.3,3.2 -1.9,4.79 -1.1,2.63 -2.4,5.21 -4.1,7.55 -0.3,0.37 -0.6,0.73 -1,1.06 -0.1,-0.19 -0.2,-0.39 -0.3,-0.59 -0.4,-1.24 -0.9,-2.51 -1.4,-3.77 -0.6,-1.68 -1.2,-3.32 -1.9,-4.97 -0.3,-0.71 -0.7,-1.39 -1.1,-2.04 -0.5,-0.69 -1,-1.21 -1.6,-1.77 -1,-0.86 -2.4,-1.15 -3.5,-0.45 -0.8,0.52 -1.5,1.05 -2,1.94 -0.1,0.29 -0.2,0.57 -0.3,0.85 0,0.29 -0.1,0.58 -0.2,0.88 -0.1,0.59 -0.3,1.18 -0.4,1.77 -0.3,1.12 -0.5,2.23 -0.7,3.35 -0.3,1.48 -0.6,2.96 -0.8,4.45 -0.3,1.88 -0.5,3.76 -0.7,5.66 -0.1,1.88 -0.1,3.78 -0.1,5.67 0,1.57 1.3,2.88 2.9,2.88 0.2,0 0.4,0 0.6,-0.1 1.3,-0.27 2.3,-1.44 2.3,-2.82 0,-0.72 0,-1.44 0,-2.16 0,-2.15 0.1,-4.3 0.4,-6.45 0.3,-2.17 0.7,-4.34 1.1,-6.5 0.4,0.98 0.7,1.97 1.1,2.94 0.2,0.54 0.4,1.08 0.6,1.61 0.5,1.36 1,2.86 2.1,3.94 0.9,0.97 2,1.66 3.4,1.71 0.6,0 1.2,-0.1 1.8,-0.22 0.8,-0.19 1.5,-0.67 2.1,-1.14 2.1,-1.66 3.6,-4.1 4.8,-6.47 1.7,-3.1 2.9,-6.42 4.2,-9.67 0.3,-0.88 0.7,-1.75 1,-2.62 0.2,-0.28 0.3,-0.57 0.4,-0.85 0,0.23 0,0.46 0,0.68 0.3,2.7 1,5.36 1.8,7.96 0.7,2.64 1.6,5.22 2.4,7.84 0.8,2.82 1.6,5.63 2.5,8.44 0.4,1.5 2,2.44 3.5,2.01 1.5,-0.41 2.5,-2.04 2,-3.54 -1.1,-3.86 -2.2,-7.74 -3.4,-11.59 -0.6,-1.91 -1.3,-3.81 -1.8,-5.74 -0.5,-1.85 -0.9,-3.72 -1.2,-5.62 -0.1,-0.9 -0.1,-1.79 -0.1,-2.7 0.2,-1.12 0.5,-2.21 0.8,-3.3 0.4,-1.5 -0.5,-3.13 -2,-3.54 -0.3,-0.1 -0.5,-0.1 -0.8,-0.1 z m -39.1,11.5 c -0.3,0 -0.5,0 -0.8,0.1 -1.9,0.3 -3.8,0.62 -5.7,0.9 -1.6,0.2 -3.3,0.36 -4.9,0.52 -2,0.19 -4.1,0.39 -6.1,0.59 -3.9,0.38 -7.9,0.72 -11.8,1.05 -0.8,0.1 -1.5,0.27 -2.1,0.84 -0.5,0.54 -0.8,1.28 -0.8,2.04 0,0.76 0.3,1.5 0.8,2.04 0.5,0.5 1.3,0.9 2.1,0.84 1,-0.1 2.1,-0.18 3.1,-0.27 0,2.09 0,4.19 -0.1,6.28 0,0.26 0,0.53 -0.1,0.79 -0.5,0.22 -1.1,0.72 -1.4,1.23 -0.4,0.67 -0.5,1.48 -0.3,2.22 0.2,0.72 0.7,1.34 1.3,1.72 0.1,0 0.1,0 0.1,0 0,0.34 0,0.69 -0.1,1.03 0,0.66 0,1.3 0,1.96 0,0.73 0.1,1.44 0.2,2.17 0.1,0.64 0.5,1.3 0.8,1.86 0.3,0.57 0.8,1.1 1.3,1.57 0.9,0.93 2.2,1.47 3.5,1.83 1.2,0.37 2.6,0.42 3.9,0.28 1.5,-0.15 2.9,-0.47 4.3,-0.98 1.4,-0.51 2.7,-1.17 4,-1.84 2.7,-1.35 5,-3.26 7.4,-5.03 0.6,-0.47 1.1,-0.94 1.3,-1.72 0.2,-0.75 0.1,-1.56 -0.3,-2.22 -0.4,-0.64 -1,-1.13 -1.7,-1.33 -0.7,-0.18 -1.6,-0.14 -2.2,0.29 -1.6,1.16 -3.1,2.38 -4.7,3.48 -1.6,1.08 -3.3,1.93 -5.1,2.7 -1,0.42 -2.1,0.72 -3.3,0.92 -0.5,0 -1,0.1 -1.5,0 -0.4,-0.1 -0.8,-0.17 -1.2,-0.3 -0.1,-0.1 -0.3,-0.15 -0.4,-0.23 -0.1,-0.1 -0.2,-0.19 -0.3,-0.3 -0.1,-0.13 -0.2,-0.26 -0.2,-0.4 0,0 0,0 0,0 -0.1,-1.42 0,-2.84 0.1,-4.26 2.2,-0.54 4.3,-1.21 6.4,-1.94 3.5,-1.22 6.9,-2.58 10.4,-3.89 0.7,-0.28 1.3,-0.63 1.7,-1.32 0.4,-0.67 0.5,-1.48 0.3,-2.22 -0.2,-0.72 -0.7,-1.35 -1.3,-1.72 -0.5,-0.25 -1,-0.42 -1.5,-0.42 -0.3,0 -0.5,0 -0.8,0.13 -3.4,1.31 -6.8,2.66 -10.3,3.88 -1.5,0.53 -3,1.02 -4.5,1.45 0,-0.77 0,-1.54 0.1,-2.31 0,-1.3 0,-2.6 0,-3.91 1.4,-0.13 2.9,-0.26 4.3,-0.4 1.9,-0.18 3.7,-0.36 5.6,-0.55 1.2,-0.13 2.4,-0.25 3.6,-0.38 2.6,-0.27 5.1,-0.75 7.7,-1.15 0.7,-0.1 1.3,-0.73 1.7,-1.32 0.4,-0.66 0.5,-1.47 0.3,-2.22 -0.2,-0.71 -0.7,-1.34 -1.3,-1.72 -0.3,-0.1 -0.5,-0.19 -0.7,-0.29 -0.3,-0.1 -0.5,-0.1 -0.8,-0.1 z m -44.3,1.15 c -0.1,0 -0.2,0 -0.4,0 -0.1,0 -0.2,0 -0.3,0.1 v 0 c -0.8,0.22 -1.3,0.69 -1.8,1.33 -0.5,0.69 -1,1.37 -1.5,2.07 -0.5,0.7 -0.8,1.53 -1.1,2.32 -0.6,1.38 -0.9,2.81 -1.2,4.25 -0.3,1.42 -0.7,2.83 -1,4.25 -0.4,1.49 -0.7,2.98 -1.1,4.47 -0.3,1.34 -0.6,2.7 -0.9,4.05 -0.3,1.18 -0.5,2.38 -0.7,3.56 -0.1,0.74 -0.3,1.47 -0.4,2.2 -0.1,1.03 0,2 0.2,3.02 0.1,0.84 0.7,1.76 1.3,2.37 0.6,0.69 1.4,1.25 2.2,1.71 1.7,0.93 3.6,1.2 5.5,1.4 1.9,0.21 3.9,0.1 5.9,-0.23 1.9,-0.28 3.8,-0.79 5.6,-1.44 1.8,-0.65 3.6,-1.46 5.4,-2.17 0.8,-0.28 1.3,-0.63 1.8,-1.33 0.3,-0.66 0.5,-1.47 0.2,-2.21 -0.2,-0.72 -0.6,-1.35 -1.3,-1.73 -0.6,-0.35 -1.5,-0.55 -2.2,-0.29 -1.8,0.72 -3.6,1.5 -5.4,2.18 -1.7,0.63 -3.5,1.1 -5.3,1.38 -0.9,0.1 -1.8,0.17 -2.7,0.18 -0.8,0 -1.6,0 -2.4,-0.13 -0.7,-0.12 -1.3,-0.27 -2,-0.5 -0.3,-0.17 -0.6,-0.36 -0.9,-0.56 -0.1,0 -0.1,-0.1 -0.1,-0.1 0,0 0,0 0,0 -0.1,-0.37 -0.1,-0.74 0,-1.11 0.5,-3.15 1.2,-6.29 1.9,-9.39 0.4,-1.56 0.8,-3.11 1.2,-4.66 0.2,-1.04 0.5,-2.08 0.7,-3.12 0.3,-1.41 0.6,-2.82 1.1,-4.18 0.2,-0.43 0.5,-0.84 0.7,-1.25 0.5,-0.72 1,-1.39 1.5,-2.08 0.4,-0.59 0.5,-1.53 0.3,-2.22 -0.2,-0.72 -0.7,-1.34 -1.3,-1.72 -0.5,-0.26 -1,-0.39 -1.5,-0.39 z m -28.4,4.68 c -0.5,0 -1,0 -1.5,0 -1.2,0 -2.4,0.1 -3.6,0.14 -1.8,0.1 -3.6,0.2 -5.3,0.4 -2.8,0.31 -5.5,0.87 -8.2,1.46 -1.6,0.33 -2.4,2.09 -2.1,3.54 0.2,0.72 0.7,1.34 1.4,1.72 0.7,0.41 1.4,0.46 2.2,0.29 2.1,-0.46 4.2,-0.9 6.4,-1.22 0.3,0 0.5,0 0.8,-0.1 -0.2,3.18 -0.4,6.37 -0.4,9.57 0,1.8 -0.1,3.6 -0.1,5.41 0,2 0.1,4 0.2,6 -0.1,0 -0.2,-0.1 -0.2,-0.12 -0.4,-0.14 -0.8,-0.21 -1.2,-0.21 -0.7,0 -1.4,0.31 -2,0.84 -0.5,0.54 -0.8,1.28 -0.8,2.04 0,0.25 0,0.51 0.1,0.76 0.1,0.46 0.3,0.86 0.6,1.21 0.6,0.79 1.1,1.61 1.8,2.25 0.5,0.42 1,0.73 1.6,0.93 0.6,0.22 1.3,0.28 2,0.28 1.2,0 2.3,-0.1 3.5,-0.17 1.2,-0.1 2.4,-0.17 3.6,-0.28 1.3,-0.12 2.6,-0.32 3.9,-0.51 1.3,-0.19 2.5,-0.44 3.7,-0.82 2.2,-0.69 4.4,-1.6 5.9,-3.35 0.2,-0.21 0.4,-0.43 0.5,-0.67 0.2,-0.23 0.4,-0.47 0.5,-0.7 0.2,-0.37 0.3,-0.73 0.5,-1.1 0.1,-0.39 0.1,-0.78 0.2,-1.18 0,-1.19 -0.4,-2.27 -1,-3.27 -0.7,-1.07 -1.8,-1.8 -2.9,-2.39 -1,-0.57 -2.3,-0.93 -3.4,-1.26 -1.3,-0.35 -2.6,-0.59 -3.9,-0.86 -0.2,0 -0.4,-0.1 -0.6,-0.12 1.8,-1.38 3.5,-2.84 4.9,-4.6 1.8,-2.16 3.1,-4.99 2.5,-7.8 -0.2,-1.21 -0.7,-2.43 -1.6,-3.34 -0.4,-0.51 -1,-0.92 -1.6,-1.33 -0.5,-0.39 -1.2,-0.61 -1.8,-0.86 -1,-0.41 -2.3,-0.51 -3.4,-0.6 -0.4,0 -0.8,0 -1.2,0 z m 0.1,5.77 c 0.5,0 0.9,0 1.4,0.1 0.5,0.1 1,0.21 1.5,0.37 0.2,0.11 0.4,0.22 0.6,0.34 0.1,0.1 0.1,0.11 0.2,0.17 0,0 0,0.1 0,0.1 0.1,0.2 0.1,0.39 0.2,0.6 0,0.13 0,0.27 0,0.4 -0.1,0.27 -0.2,0.53 -0.2,0.78 -0.3,0.58 -0.6,1.13 -1,1.66 -1.2,1.42 -2.6,2.63 -4,3.79 -0.5,0.33 -0.9,0.66 -1.3,0.99 -0.4,0.28 -0.8,0.53 -1.1,0.81 -0.4,0.26 -0.7,0.51 -1,0.8 0,-0.25 0,-0.51 0,-0.76 0.1,-1.8 0.1,-3.6 0.2,-5.39 0.1,-1.53 0.2,-3.05 0.3,-4.58 0,0 0,0 0,0 1.4,-0.1 2.8,-0.14 4.2,-0.13 z m -66.7,1.02 c -0.3,0 -0.7,0 -1,0 v 0 c -2,0.1 -3.9,0.49 -5.8,1.12 -0.1,-0.15 -0.2,-0.29 -0.4,-0.41 -0.1,-0.13 -0.3,-0.23 -0.4,-0.31 -0.5,-0.26 -1,-0.4 -1.5,-0.4 -0.2,0 -0.5,0 -0.7,0.1 -0.8,0.2 -1.4,0.68 -1.8,1.33 -0.1,0.22 -0.2,0.46 -0.2,0.69 -0.2,0.5 -0.2,1.01 0,1.53 0,0.1 0,0.14 0,0.21 0,0 0,0 0,0.1 -0.5,0.39 -0.9,0.82 -1.3,1.27 -1.4,1.55 -2.2,3.55 -3.1,5.44 0,0.23 -0.1,0.46 -0.2,0.68 -0.2,0.52 -0.2,1.03 0,1.54 0.2,0.72 0.6,1.34 1.3,1.72 0.6,0.39 1.5,0.49 2.2,0.29 0.6,-0.18 1.4,-0.67 1.7,-1.3 0,1.65 0.1,3.3 0.1,4.94 0,5.27 0,10.54 0,15.81 0,0.1 0,0.13 0,0.2 0,0 0,0 0,0 0.1,1.57 1.3,2.88 2.9,2.88 1.6,0 2.9,-1.31 2.9,-2.88 0,-4.44 0,-8.88 -0.1,-13.32 0.7,0.76 1.4,1.44 2.1,2.09 1.1,0.92 2.2,1.73 3.3,2.58 0.8,0.54 1.5,1.08 2.2,1.62 0.8,0.56 1.5,1.11 2.2,1.67 1.6,1.17 3.3,2.14 4.9,3.2 1.3,0.85 3.2,0.27 4,-1.04 0.8,-1.4 0.2,-3.09 -1.1,-3.94 -1.6,-1.02 -3.2,-1.97 -4.7,-3.1 -0.8,-0.56 -1.5,-1.12 -2.3,-1.68 -1.3,-0.97 -2.5,-1.93 -3.8,-2.91 -0.9,-0.69 -1.7,-1.42 -2.4,-2.25 -0.2,-0.18 -0.3,-0.36 -0.4,-0.54 0,-0.13 0,-0.26 -0.1,-0.39 0,0 0,0 0,0 0,0 0.1,-0.1 0.1,-0.1 0.1,-0.18 0.3,-0.34 0.5,-0.5 0.9,-0.66 1.9,-1.21 3,-1.76 0.3,-0.22 0.7,-0.44 1.1,-0.66 1.1,-0.62 2.1,-1.31 3.1,-2.08 0.4,-0.27 0.7,-0.56 1,-0.88 0.4,-0.37 0.7,-0.85 1,-1.29 0.3,-0.43 0.6,-1.02 0.7,-1.51 0.2,-0.53 0.2,-1.05 0.3,-1.6 0,-0.25 -0.1,-0.51 -0.1,-0.77 0,-0.29 -0.1,-0.56 -0.2,-0.83 -0.2,-0.54 -0.4,-0.98 -0.8,-1.44 -0.4,-0.56 -0.8,-0.93 -1.3,-1.33 -0.6,-0.42 -1.2,-0.7 -1.9,-0.97 -1.5,-0.64 -3.3,-0.86 -5,-0.86 z m -28.3,1.62 c -3.2,0 -6.3,0.34 -9.4,0.77 -1.6,0.21 -3.1,0.57 -4.5,1.03 -1.5,0.47 -2.89,1.14 -4.09,2.13 -0.46,0.38 -0.85,0.77 -1.22,1.23 -0.25,0.29 -0.48,0.6 -0.68,0.93 -0.28,0.43 -0.44,0.96 -0.59,1.45 -0.1,0.4 -0.11,0.8 -0.16,1.2 0,0.3 0,0.6 0,0.9 0,0.93 0.16,1.85 0.3,2.77 0.11,0.69 0.74,1.38 1.32,1.72 0.67,0.39 1.48,0.49 2.22,0.29 0.72,-0.2 1.3,-0.68 1.7,-1.32 0.1,-0.23 0.2,-0.46 0.3,-0.69 0,-0.13 0.1,-0.26 0.1,-0.39 0,-0.38 0,-0.76 -0.1,-1.14 0,0 0,0 0,-0.1 -0.1,-0.63 -0.1,-1.25 -0.1,-1.88 0,0 0,0 0,-0.1 0.3,-0.24 0.5,-0.46 0.7,-0.67 0.3,-0.22 0.7,-0.41 1,-0.58 0.8,-0.3 1.6,-0.53 2.4,-0.73 0.1,0.92 0.2,1.84 0.3,2.76 0.1,1.09 0.1,2.18 0.2,3.26 0,1.03 0,2.07 0.1,3.1 -0.3,0.1 -0.5,0.21 -0.8,0.31 -0.6,0.28 -1.1,1.08 -1.3,1.72 -0.2,0.75 -0.1,1.56 0.3,2.22 0.4,0.65 1,1.13 1.7,1.33 0.1,0 0.1,0 0.2,0 0,1.58 0,3.17 0,4.75 0,3.52 0.2,7.05 0.3,10.56 0,1.57 1.3,2.88 2.9,2.88 0.2,0 0.3,0 0.5,-0.1 0.8,-0.15 1.4,-0.6 1.9,-1.21 0.1,-0.16 0.2,-0.32 0.2,-0.49 0.2,-0.35 0.3,-0.72 0.2,-1.12 0,-1.71 -0.1,-3.43 -0.1,-5.15 -0.1,-1.72 -0.1,-3.43 -0.1,-5.15 -0.1,-2.29 -0.1,-4.58 -0.1,-6.86 0,0 0,0 0.1,0 1.1,-0.51 2.2,-1.16 3.3,-1.82 1,-0.63 2,-1.25 3,-1.88 1.2,-0.74 2.4,-1.51 3.5,-2.35 1.2,-0.9 2.4,-1.78 3.4,-2.95 0.4,-0.54 0.8,-1.1 1.2,-1.71 0.1,-0.35 0.3,-0.72 0.4,-1.09 0.2,-0.47 0.4,-1.09 0.3,-1.58 0,-0.71 -0.1,-1.37 -0.4,-2.03 -0.3,-0.86 -0.8,-1.59 -1.5,-2.18 -2.4,-1.94 -5.7,-2.14 -8.6,-2.16 -0.1,0 -0.2,0 -0.3,0 z m 62.7,0.11 c -0.7,0 -1.4,0.1 -2.1,0.22 -1.1,0.18 -2.1,0.7 -3,1.16 -0.1,0.1 -0.2,0.13 -0.4,0.2 -0.4,-0.1 -0.8,-0.1 -1.2,-0.1 -2.2,0.1 -4,1.47 -5.4,3.06 -1.4,1.55 -2.2,3.42 -3,5.31 -0.8,1.93 -1.3,4 -1.4,6.08 -0.1,1.04 0,2.09 0.3,3.11 0.1,0.55 0.4,1.07 0.6,1.59 0.2,0.45 0.5,0.86 0.8,1.25 0.4,0.45 0.7,0.84 1.1,1.23 0.4,0.36 0.9,0.67 1.3,0.97 0.8,0.56 1.8,0.92 2.7,1.28 2.1,0.8 4.3,1.02 6.5,0.63 1.1,-0.19 2,-0.5 3,-0.92 0.4,-0.18 0.8,-0.38 1.2,-0.61 0.7,-0.35 1.3,-0.85 1.8,-1.3 0.8,-0.63 1.5,-1.41 2.1,-2.19 0.6,-0.86 1.2,-1.73 1.7,-2.7 1,-1.95 1.7,-4.07 2,-6.22 0.3,-2.11 0.2,-4.23 -0.5,-6.27 -0.7,-2.05 -2,-3.68 -3.9,-4.81 -0.9,-0.59 -2.1,-0.83 -3.2,-0.96 -0.3,0 -0.7,-0.1 -1,-0.1 z m -34.7,4.04 c 0.6,0 1.2,0 1.8,0.1 0.5,0.1 1,0.23 1.5,0.41 0.1,0.1 0.2,0.1 0.3,0.15 0,0 0,0.1 -0.1,0.11 -0.2,0.23 -0.4,0.43 -0.6,0.63 -1.2,0.84 -2.4,1.54 -3.7,2.23 -1.4,0.79 -2.8,1.59 -4,2.64 -0.1,0.12 -0.3,0.24 -0.4,0.37 0,-0.31 0,-0.62 0,-0.93 -0.1,-1.39 -0.1,-2.78 -0.2,-4.17 0,-0.14 0,-0.28 0,-0.42 1.2,-0.44 2.4,-0.76 3.6,-0.97 0.6,-0.1 1.2,-0.11 1.8,-0.12 z m -27.7,1.61 c 1,0 1.9,0 2.8,0.13 0.6,0.1 1.1,0.22 1.6,0.39 0.1,0 0.1,0.1 0.2,0.11 -0.1,0.19 -0.2,0.37 -0.3,0.55 -0.5,0.56 -1.1,1.05 -1.7,1.52 -1.6,1.24 -3.4,2.35 -5.1,3.44 -0.6,0.37 -1.2,0.73 -1.8,1.1 -0.2,0.11 -0.4,0.21 -0.6,0.32 0,0 0,-0.1 0,-0.12 0,-1.1 0,-2.22 -0.1,-3.32 -0.2,-1.29 -0.3,-2.57 -0.5,-3.85 0.9,-0.1 1.8,-0.14 2.8,-0.19 0.9,0 1.8,-0.1 2.8,-0.1 z m 62.6,0.11 c 0.1,0 0.2,0 0.3,0 0.3,0.1 0.5,0.12 0.8,0.2 0.1,0.1 0.3,0.18 0.4,0.27 0.2,0.16 0.4,0.32 0.5,0.49 0.1,0.21 0.3,0.44 0.4,0.67 0.2,0.44 0.3,0.88 0.4,1.34 0,0.78 0,1.55 -0.1,2.34 -0.2,1.33 -0.6,2.6 -1.1,3.86 -0.3,0.84 -0.8,1.62 -1.3,2.36 -0.5,0.68 -1.1,1.3 -1.8,1.87 -0.4,0.29 -0.9,0.55 -1.4,0.77 -0.6,0.21 -1.1,0.38 -1.8,0.5 -0.5,0 -1,0.1 -1.5,0 -0.8,-0.16 -1.5,-0.37 -2.3,-0.65 -0.4,-0.22 -0.9,-0.46 -1.3,-0.75 -0.2,-0.14 -0.4,-0.29 -0.5,-0.45 -0.2,-0.27 -0.3,-0.55 -0.5,-0.84 -0.1,-0.2 -0.1,-0.4 -0.2,-0.61 0,-0.46 0,-0.92 0.1,-1.38 0.9,-1.43 1.7,-2.9 2.7,-4.27 1,-1.26 2.1,-2.44 3.4,-3.51 0.1,0.1 0.3,0.19 0.5,0.28 0.5,0.24 1,0.39 1.5,0.39 0.2,0 0.5,0 0.7,-0.1 0.7,-0.2 1.4,-0.68 1.7,-1.33 0.3,-0.44 0.4,-0.96 0.4,-1.47 z m -58,0 c 0,0.11 0.1,0.22 0.1,0.33 0,0 0,0 0,0 0,-0.11 -0.1,-0.22 -0.1,-0.33 z m 0,0.38 c 0,0 0,0.1 0.1,0.1 0,0 0,0 0,0 -0.1,0 -0.1,0 -0.1,-0.1 z m 85.4,7.43 c 0.3,0.27 0.6,0.53 1,0.78 0.3,0.18 0.7,0.33 1.1,0.48 0.4,0.15 0.9,0.27 1.3,0.37 0.8,0.17 1.5,0.32 2.2,0.47 2.1,0.43 4.1,0.83 6.1,1.56 0.3,0.16 0.6,0.34 0.9,0.53 -0.1,0.15 -0.3,0.3 -0.4,0.44 -0.4,0.26 -0.8,0.48 -1.3,0.69 -1,0.37 -2,0.7 -3,0.95 -1.1,0.27 -2.3,0.43 -3.5,0.59 -0.8,0.1 -1.5,0.15 -2.3,0.21 -0.6,0.1 -1.2,0.1 -1.9,0.14 0,-0.11 0,-0.22 0,-0.34 0,-1.24 -0.1,-2.48 -0.1,-3.72 -0.1,-1.05 -0.1,-2.1 -0.1,-3.15 z m 189.2,3.13 c -0.6,0 -1.1,0.14 -1.5,0.4 -0.7,0.4 -1.1,0.99 -1.3,1.72 -0.6,1.61 -1.3,3.18 -1.6,4.88 -0.1,0.85 -0.2,1.7 -0.4,2.55 -0.2,1.46 -0.4,2.92 -0.6,4.39 -0.2,1.38 -0.3,2.77 -0.5,4.16 -0.1,-0.57 -0.2,-1.13 -0.3,-1.69 -0.2,-0.84 -0.4,-1.67 -0.6,-2.5 -0.2,-0.81 -0.4,-1.64 -0.6,-2.46 -0.2,-0.83 -0.7,-1.65 -1.2,-2.3 -0.4,-0.37 -0.7,-0.65 -1.2,-0.88 -0.5,-0.26 -0.9,-0.33 -1.4,-0.44 -0.8,-0.14 -1.5,-0.12 -2.2,0.3 -0.7,0.39 -1.1,0.99 -1.3,1.72 -0.3,0.62 -0.5,1.24 -0.6,1.89 -0.1,0.57 -0.2,1.16 -0.3,1.73 -0.2,0.77 -0.3,1.53 -0.4,2.3 -0.2,1.24 -0.4,2.49 -0.6,3.73 -0.5,2.97 -0.8,5.98 -1,8.97 -0.1,0.73 0.3,1.54 0.8,2.04 0.6,0.54 1.3,0.84 2.1,0.84 0.2,0 0.4,0 0.5,-0.1 0.6,-0.12 1.1,-0.39 1.5,-0.79 0.2,-0.14 0.3,-0.29 0.4,-0.45 0.3,-0.47 0.4,-1 0.5,-1.59 0.1,-2.2 0.4,-4.4 0.6,-6.6 0,-0.17 0.1,-0.34 0.1,-0.51 0.2,1.19 0.4,2.39 0.6,3.58 0.2,1.11 0.4,2.22 0.5,3.33 0.2,0.95 0.4,1.89 0.5,2.85 0.1,0.55 0.1,1.1 0.4,1.61 0.1,0.49 0.3,0.91 0.7,1.27 0.4,0.34 0.8,0.64 1.2,0.92 0.3,0.21 0.7,0.33 1,0.37 0.2,0 0.4,0 0.6,0 0.2,0 0.4,0 0.6,-0.1 0.6,-0.18 1.4,-0.68 1.7,-1.33 0.3,-0.76 0.7,-1.53 1,-2.3 0.4,-0.91 0.5,-1.91 0.7,-2.86 0.2,-0.87 0.3,-1.74 0.4,-2.61 0.3,-1.59 0.5,-3.17 0.7,-4.77 0.3,-2.78 0.6,-5.55 1,-8.33 0.1,-0.93 0.3,-1.87 0.4,-2.81 0.1,-0.87 0.2,-1.74 0.4,-2.6 0.3,-1.35 1,-2.65 1.4,-3.95 0.3,-0.7 0.1,-1.6 -0.3,-2.22 -0.3,-0.64 -1,-1.13 -1.7,-1.33 -0.2,-0.1 -0.5,-0.1 -0.7,-0.1 z m 20.7,0.28 c -1.1,0 -2.2,0.1 -3.3,0.37 v 0 c -0.6,0.19 -1.3,0.56 -1.8,0.94 -0.6,0.4 -1.1,0.86 -1.6,1.35 -0.9,0.97 -1.6,2.19 -2.2,3.39 -0.7,1.45 -1.2,3 -1.6,4.55 -0.4,1.48 -0.6,3.02 -0.8,4.54 -0.2,1.35 -0.3,2.71 -0.3,4.08 0,1.4 0.2,2.85 0.5,4.22 0.2,0.7 0.5,1.38 0.8,2.04 0.3,0.72 0.6,1.38 1.1,2.01 0.8,1.13 1.8,2.04 3,2.76 0.6,0.35 1.2,0.6 1.9,0.82 0.6,0.21 1.4,0.25 2,0.25 0.8,0 1.5,-0.19 2.2,-0.4 0.6,-0.2 1.3,-0.52 1.9,-0.88 1.3,-0.79 2.3,-2.08 3.2,-3.33 0.8,-1.09 1.3,-2.39 1.7,-3.64 0.5,-1.34 0.7,-2.84 0.4,-4.23 0,0 0,0 0.1,0 0,0 0,0.1 0,0.1 0.3,0.87 0.4,1.77 0.6,2.67 0.4,4.18 0.4,8.42 0.5,12.62 0,1.57 1.3,2.88 2.9,2.88 1.5,0 2.9,-1.31 2.8,-2.88 0,-3.38 -0.1,-6.75 -0.3,-10.12 0,-1.28 -0.2,-2.54 -0.4,-3.81 0,-0.63 -0.1,-1.26 -0.3,-1.89 -0.1,-0.71 -0.4,-1.39 -0.7,-2.04 -0.5,-1.15 -1.3,-2.22 -2.4,-2.78 -0.4,-0.19 -0.8,-0.32 -1.2,-0.38 -0.4,-0.1 -0.8,-0.11 -1.2,-0.15 -0.2,0 -0.5,0 -0.7,0.1 -0.2,0 -0.3,0 -0.5,0.1 -0.7,0.1 -1.4,0.16 -2.1,0.23 -1.4,0.13 -2.9,0.16 -4.3,0.42 -0.5,0.14 -0.9,0.38 -1.3,0.74 -0.5,0.54 -0.8,1.27 -0.8,2.04 0,0.51 0.1,1 0.4,1.45 0.4,0.7 1,1.04 1.7,1.32 0,0 0.1,0 0.1,0 0.5,0.26 1,0.52 1.5,0.85 0,0 0,0.1 0,0.1 -0.1,0.63 -0.3,1.22 -0.6,1.82 -0.2,0.63 -0.6,1.23 -1,1.81 -0.3,0.38 -0.6,0.73 -1,1.06 -0.2,0.12 -0.3,0.22 -0.5,0.31 -0.2,0.1 -0.5,0.15 -0.7,0.2 -0.1,0 -0.2,0 -0.4,0 0,0 -0.1,-0.1 -0.2,-0.1 -0.3,-0.14 -0.6,-0.29 -0.8,-0.45 -0.3,-0.22 -0.5,-0.46 -0.7,-0.71 -0.3,-0.41 -0.5,-0.83 -0.7,-1.28 -0.3,-0.73 -0.5,-1.46 -0.6,-2.23 -0.2,-1.75 -0.1,-3.5 0.1,-5.26 0.3,-2.17 0.8,-4.33 1.6,-6.38 0.4,-0.79 0.8,-1.55 1.2,-2.26 0.3,-0.27 0.5,-0.52 0.8,-0.76 0.2,-0.11 0.4,-0.21 0.5,-0.3 0.1,0 0.1,0 0.1,0 0.8,0 1.5,-0.1 2.2,0 1.6,0 2.9,-1.33 2.9,-2.88 0,-1.59 -1.3,-2.86 -2.9,-2.88 -0.2,0 -0.5,0 -0.8,0 z m -43.8,4.34 c -0.8,0 -1.7,0.36 -2.2,1.08 -0.1,0.1 -0.2,0.21 -0.2,0.33 v 0 c -0.5,0.98 -1,1.93 -1.4,2.98 0,0.13 0,0.25 0,0.37 -0.1,0.38 -0.2,0.76 -0.2,1.15 0,0.27 0,0.53 0,0.8 0,0.92 -0.1,1.83 -0.1,2.75 -0.1,2.34 -0.2,4.7 -0.5,7.03 -0.3,1.99 -0.7,3.93 -1.4,5.81 -0.3,0.64 -0.6,1.25 -1,1.83 -0.2,0.25 -0.4,0.49 -0.7,0.71 0,0 0,0 -0.1,0.1 0,0 -0.1,0 -0.1,0 -0.1,-0.1 -0.2,-0.11 -0.3,-0.17 -0.1,-0.11 -0.2,-0.23 -0.3,-0.35 -0.3,-0.43 -0.5,-0.87 -0.8,-1.33 -0.4,-1.23 -0.7,-2.47 -0.9,-3.76 -0.5,-4.5 -0.1,-9.08 0.2,-13.59 0.1,-1.57 -1.4,-2.88 -2.9,-2.88 -0.8,0 -1.5,0.3 -2,0.84 -0.6,0.57 -0.8,1.26 -0.9,2.04 -0.2,4.02 -0.5,8.07 -0.3,12.1 0.2,3.23 0.8,6.58 2.5,9.38 0.8,1.21 1.8,2.25 3.1,2.86 1.7,0.81 3.7,0.82 5.4,-0.1 2.9,-1.57 4.3,-4.81 5.2,-7.82 0.5,-1.52 0.7,-3.1 1,-4.68 0.2,-1.43 0.3,-2.87 0.4,-4.31 0.1,-2.47 0.2,-4.95 0.3,-7.42 0,0 0,0 0,0 0.3,-0.48 0.5,-0.94 0.7,-1.42 0.4,-0.71 0.5,-1.43 0.3,-2.21 -0.2,-0.72 -0.7,-1.35 -1.3,-1.72 -0.4,-0.26 -0.9,-0.38 -1.5,-0.38 z m -33.6,3.72 c -1.6,0 -2.8,1.31 -2.9,2.88 v 0 c 0,1.56 -0.2,3.11 -0.3,4.67 -0.2,1.3 -0.4,2.6 -0.6,3.89 -0.3,1.75 -0.6,3.5 -0.8,5.25 -0.3,1.32 -0.5,2.63 -0.6,3.96 -0.1,0.5 -0.1,0.99 -0.2,1.49 0,0.35 0,0.7 0,1.05 0,0.42 0.1,0.85 0.1,1.27 0.2,0.5 0.3,0.97 0.6,1.44 0.2,0.57 0.6,1.16 1,1.6 0.8,0.76 1.7,1.32 2.6,1.74 0.6,0.22 1.1,0.42 1.6,0.58 0.7,0.21 1.5,0.26 2.2,0.34 0.5,0 1,0 1.5,0 0.7,-0.1 1.5,-0.2 2.2,-0.35 1.2,-0.24 2.4,-0.59 3.6,-0.82 1.5,-0.31 2.4,-2.11 2,-3.55 -0.2,-0.72 -0.7,-1.34 -1.3,-1.72 -0.7,-0.41 -1.5,-0.44 -2.3,-0.29 -1.4,0.29 -2.8,0.7 -4.2,0.96 -0.6,0 -1.1,0.1 -1.6,0 -0.4,-0.1 -0.8,-0.19 -1.2,-0.32 -0.3,-0.14 -0.6,-0.28 -0.8,-0.45 0,0 0,0 0,0 -0.1,-0.1 -0.2,-0.2 -0.2,-0.3 0,0 0,-0.1 0,-0.14 -0.1,-0.75 0,-1.5 0.1,-2.25 0.4,-2.75 0.9,-5.48 1.3,-8.23 0.2,-1.44 0.4,-2.88 0.6,-4.32 0.3,-1.81 0.4,-3.66 0.5,-5.48 0,-1.57 -1.4,-2.88 -2.9,-2.88 z m -24.1,3.45 c -0.6,0 -1.2,0.17 -1.6,0.49 -0.2,0.1 -0.3,0.22 -0.5,0.36 v 0 c -0.5,0.48 -0.9,1.32 -0.8,2.03 0.1,1.52 0.3,3.03 0.3,4.56 0.1,1.64 -0.1,3.27 -0.3,4.9 -0.3,2.08 -0.7,4.14 -1.1,6.21 -0.2,0.96 -0.4,1.92 -0.5,2.88 -0.2,1.03 -0.3,2.06 -0.2,3.1 0.1,0.7 0.2,1.25 0.6,1.88 0.3,0.63 0.7,1.17 1.2,1.71 0.3,0.42 0.8,0.71 1.2,1.04 0.4,0.32 1,0.53 1.5,0.71 0.9,0.34 1.8,0.53 2.7,0.66 2.4,0.33 4.9,0 7.2,-0.4 1.1,-0.21 2.2,-0.4 3.3,-0.6 1.9,-0.35 3.9,-0.59 5.8,-0.87 0.7,-0.1 1.4,-0.75 1.8,-1.32 0.3,-0.67 0.4,-1.48 0.2,-2.22 -0.2,-0.72 -0.6,-1.35 -1.3,-1.72 -0.2,-0.1 -0.4,-0.2 -0.7,-0.29 -0.5,-0.14 -1,-0.14 -1.5,0 -2,0.29 -4,0.54 -6,0.91 -1.5,0.26 -2.9,0.54 -4.3,0.77 -1.2,0.13 -2.4,0.18 -3.5,0.1 -0.6,-0.1 -1.2,-0.24 -1.8,-0.43 -0.1,-0.1 -0.3,-0.17 -0.4,-0.26 -0.1,-0.1 -0.1,-0.14 -0.2,-0.21 0,0 0,-0.1 -0.1,-0.1 0,-0.39 0,-0.76 0,-1.15 0.3,-1.86 0.7,-3.71 1.1,-5.55 0.4,-2.21 0.7,-4.42 1,-6.66 0.2,-2.56 0,-5.12 -0.3,-7.67 -0.1,-0.79 -0.2,-1.45 -0.8,-2.03 -0.5,-0.54 -1.3,-0.85 -2,-0.85 z m -28.2,3.16 c -0.4,0 -0.8,0.1 -1.1,0.23 -0.2,0.1 -0.3,0.1 -0.4,0.17 0,0 0,0 0,0 -0.6,0.33 -1.2,1.03 -1.3,1.72 -0.3,2.3 -0.7,4.61 -1.1,6.89 -0.4,1.63 -0.8,3.24 -1.3,4.85 -0.1,0.45 -0.2,0.91 -0.4,1.36 -1.2,0.56 -1.9,2.07 -1.5,3.38 0.1,0.4 0.3,0.74 0.5,1.03 0,0.18 -0.1,0.36 -0.1,0.54 -0.1,0.62 -0.2,1.24 -0.2,1.86 -0.1,0.69 -0.1,1.38 -0.1,2.08 0.1,0.58 0.2,1.17 0.3,1.74 0.1,0.54 0.4,1.05 0.7,1.53 0.2,0.49 0.6,0.91 0.9,1.34 0.5,0.53 1.1,1.01 1.6,1.39 2,1.33 4.3,1.83 6.6,2.1 1,0.13 2.1,0 3.2,-0.1 1.2,-0.17 2.3,-0.47 3.4,-0.91 2.2,-0.89 4.1,-2.24 6.1,-3.4 1.4,-0.78 1.8,-2.6 1,-3.94 -0.8,-1.37 -2.5,-1.81 -3.9,-1.03 -1.7,0.98 -3.3,2.12 -5.1,2.96 -0.8,0.3 -1.6,0.52 -2.5,0.67 -0.8,0.1 -1.6,0.1 -2.3,0 -0.9,-0.15 -1.7,-0.36 -2.4,-0.64 -0.3,-0.15 -0.6,-0.31 -0.9,-0.5 -0.3,-0.2 -0.5,-0.42 -0.7,-0.65 0,-0.1 -0.1,-0.18 -0.1,-0.27 -0.1,-0.1 -0.1,-0.15 -0.1,-0.23 0,-0.75 0,-1.48 0,-2.22 0.1,-0.66 0.3,-1.32 0.4,-1.97 4,-0.93 7.9,-1.86 11.9,-2.8 1.5,-0.36 2.4,-2.07 2,-3.54 -0.4,-1.31 -1.5,-2.1 -2.8,-2.1 -0.3,0 -0.5,0 -0.7,0.1 -3,0.68 -5.9,1.37 -8.8,2.05 0.1,-0.41 0.3,-0.82 0.4,-1.24 0.2,-0.79 0.4,-1.59 0.5,-2.39 0.3,-1.14 0.5,-2.29 0.6,-3.44 5.3,-0.12 10.5,-0.22 15.8,-0.25 1.6,0 2.9,-1.3 2.9,-2.88 0,-1.55 -1.3,-2.88 -2.9,-2.88 v 0 c -2.9,0 -5.8,0.1 -8.6,0.11 -2.5,0 -5,0.1 -7.5,0.15 -0.4,-0.34 -0.8,-0.6 -1.3,-0.73 -0.2,-0.1 -0.5,-0.11 -0.7,-0.11 z m -8.4,0.28 c -0.2,0 -0.5,0 -0.7,0.11 -4.6,1.44 -9.1,2.87 -13.6,4.3 -1.2,0.38 -2.4,0.9 -3.6,1.35 -0.8,0.31 -1.6,0.62 -2.4,0.93 -1.2,0.45 -2.4,0.97 -3.5,1.48 -0.4,0.14 -0.7,0.41 -0.9,0.73 0,-0.1 0,-0.16 -0.1,-0.23 -0.4,-0.64 -1,-1.15 -1.7,-1.37 -1.2,-0.35 -2.6,-0.7 -3.8,-0.7 -0.2,0 -0.4,0 -0.6,0 v 0 c -2,0.18 -3.6,1.21 -5.1,2.45 -0.6,0.46 -1,1.08 -1.4,1.65 -0.5,0.67 -1,1.35 -1.4,2.08 -0.5,0.81 -0.9,1.71 -1.2,2.59 -0.3,0.73 -0.5,1.5 -0.6,2.28 -0.3,1.59 -0.2,3.17 0.2,4.73 0.2,0.85 0.7,1.68 1.1,2.44 0.4,0.76 1,1.48 1.5,2.15 1,1.26 2.2,2.42 3.2,3.65 0.1,0 0.1,0 0.1,0.1 0,0 -0.1,0 -0.1,0.1 -0.6,0.44 -1.3,0.84 -2.1,1.18 -1.3,0.52 -2.6,0.92 -4,1.23 -0.2,-0.34 -0.3,-0.67 -0.5,-1 -0.5,-1.04 -1.7,-1.53 -2.9,-1.39 -0.3,0.1 -0.7,0.17 -1,0.36 -0.4,0.2 -0.7,0.47 -0.9,0.77 -0.4,0.6 -0.6,1.34 -0.5,2.08 0,0.38 0.2,0.74 0.3,1.09 0.3,0.49 0.5,1 0.8,1.5 0.1,0.34 0.3,0.65 0.6,0.93 0.3,0.38 0.7,0.73 1.1,0.98 1.3,0.78 3,0.55 4.4,0.26 1.4,-0.28 2.9,-0.74 4.2,-1.28 1.6,-0.6 3,-1.34 4.3,-2.36 1.2,-1.01 2.2,-2.53 2.2,-4.19 0.1,-0.81 -0.1,-1.48 -0.4,-2.22 -0.3,-0.69 -0.8,-1.32 -1.3,-1.9 -1,-1.26 -2.2,-2.44 -3.3,-3.71 -0.4,-0.62 -0.8,-1.27 -1.1,-1.96 -0.1,-0.31 -0.2,-0.61 -0.3,-0.92 0,-0.48 0,-0.94 0,-1.42 0.2,-0.72 0.4,-1.41 0.6,-2.1 0.5,-0.95 1,-1.83 1.6,-2.68 0.3,-0.35 0.6,-0.68 1,-0.99 0.3,-0.23 0.7,-0.44 1.1,-0.63 0,0 0.1,0 0.2,-0.1 0.1,0 0.3,0 0.4,0 0.7,0.13 1.4,0.29 2,0.49 1.2,0.33 2.4,-0.14 3.1,-1.03 0,0.1 0.1,0.19 0.1,0.28 0.4,0.64 1,1.13 1.7,1.32 0.3,0 0.5,0.1 0.8,0.1 0.5,0 1,-0.13 1.5,-0.39 0.4,-0.2 0.9,-0.41 1.4,-0.61 0.4,-0.18 0.8,-0.34 1.3,-0.51 0.9,7.66 0.5,15.4 0.1,23.08 -0.1,1.56 1.4,2.87 2.9,2.87 0.7,0 1.5,-0.3 2,-0.84 0.6,-0.56 0.8,-1.26 0.9,-2.03 0.1,-1.52 0.1,-3.04 0.2,-4.56 0.1,-1.52 0.1,-3.04 0.2,-4.56 0,-1.73 0,-3.46 0,-5.19 0,-3.63 -0.3,-7.25 -0.8,-10.84 0,0 0.1,0 0.2,-0.1 4.4,-1.41 8.9,-2.81 13.3,-4.22 1.5,-0.47 2.4,-1.99 2,-3.54 -0.3,-1.22 -1.5,-2.13 -2.8,-2.13 z m -50.2,12.97 c -0.3,0 -0.6,0 -0.9,0.1 -2.4,0.5 -4.9,0.96 -7.4,1.61 -1.2,0.34 -2.5,0.68 -3.8,1.02 -2.9,0.81 -5.9,1.57 -8.9,2.26 -1.5,0.36 -2.4,2.08 -2,3.54 0.2,0.79 0.7,1.38 1.4,1.73 0,0.94 0,1.88 0,2.82 0,1.27 -0.2,2.54 -0.3,3.8 -0.2,0.1 -0.3,0.12 -0.5,0.19 -0.7,0.28 -1.3,0.62 -1.7,1.32 -0.4,0.67 -0.5,1.48 -0.3,2.22 0.2,0.72 0.7,1.34 1.3,1.72 0.1,0.1 0.3,0.13 0.4,0.18 0,0.14 0,0.27 -0.1,0.41 -0.3,2.15 -0.6,4.37 -0.3,6.54 0.2,0.97 0.5,1.81 0.9,2.7 0,0.11 0.1,0.23 0.2,0.34 0.2,0.32 0.5,0.63 0.7,0.94 0.5,0.53 1,0.96 1.6,1.39 0.5,0.33 1,0.49 1.5,0.7 0.5,0.19 1.1,0.24 1.6,0.28 1,0.1 2,0 3,-0.21 0.9,-0.17 1.9,-0.62 2.7,-1.1 0.9,-0.51 1.7,-1.22 2.5,-1.9 1.6,-1.36 2.9,-2.97 4,-4.71 1.2,-1.8 2.1,-3.83 3.1,-5.73 0.7,-1.39 0.3,-3.12 -1.1,-3.94 -1.3,-0.77 -3.2,-0.35 -3.9,1.03 -0.6,1.18 -1.2,2.38 -1.8,3.57 -0.6,1.19 -1.3,2.32 -2.1,3.39 -0.9,1.07 -1.9,2.02 -2.9,2.89 -0.4,0.26 -0.8,0.49 -1.2,0.71 -0.3,0.1 -0.6,0.18 -1,0.25 -0.3,0 -0.6,0 -0.9,0 -0.2,0 -0.3,-0.1 -0.4,-0.1 0,0 -0.1,-0.1 -0.1,-0.1 -0.1,-0.11 -0.2,-0.21 -0.3,-0.33 -0.1,-0.1 -0.2,-0.19 -0.2,-0.3 -0.1,-0.3 -0.2,-0.61 -0.3,-0.93 0,-1.18 0.1,-2.39 0.2,-3.57 0.2,-1.26 0.4,-2.52 0.6,-3.78 0.7,-0.28 1.5,-0.57 2.2,-0.84 1.2,-0.46 2.5,-0.91 3.7,-1.37 2.4,-0.85 4.8,-1.48 7.2,-2.2 1.5,-0.45 2.4,-2 2,-3.54 -0.4,-1.23 -1.5,-2.12 -2.8,-2.12 -0.1,0 -0.3,0 -0.4,0 -0.1,0 -0.2,0 -0.4,0.1 v 0 c -2.3,0.71 -4.7,1.31 -7,2.15 -1.2,0.46 -2.5,0.91 -3.7,1.37 0,0 0,0 0,0 0.1,-1.62 0.1,-3.26 0,-4.88 1.7,-0.42 3.4,-0.86 5.1,-1.32 1.3,-0.34 2.5,-0.68 3.8,-1.02 0.6,-0.17 1.2,-0.33 1.9,-0.5 1.9,-0.51 3.9,-0.8 5.8,-1.18 1.5,-0.31 2.4,-2.12 2,-3.55 -0.2,-0.72 -0.7,-1.34 -1.3,-1.72 -0.5,-0.26 -1,-0.37 -1.4,-0.37 z m -33.5,2.56 c -0.1,0 -0.2,0 -0.2,0 v 0 c -1.6,0.19 -3.2,0.42 -4.8,0.83 -1.7,0.45 -3.1,1.52 -4.4,2.75 -1.2,1.18 -2.2,2.6 -3.1,4.04 -0.9,1.53 -1.7,3.16 -2.3,4.81 -0.7,1.54 -1.2,3.11 -1.6,4.7 0,0.1 0,0.13 0,0.19 -0.4,-0.24 -0.9,-0.34 -1.3,-0.34 -0.3,0 -0.6,0 -0.8,0.1 -2.2,0.45 -4.5,0.95 -6.7,1.38 -0.2,0 -0.5,0.1 -0.7,0.14 -0.1,-0.16 -0.1,-0.33 -0.2,-0.49 -0.4,-1.47 -0.9,-2.94 -1.4,-4.4 -0.3,-1.01 -0.7,-2.01 -1.1,-3 -0.4,-1.03 -0.8,-2.04 -1.3,-3.04 -0.2,-0.45 -0.4,-0.9 -0.6,-1.34 -0.4,-0.6 -0.9,-1.15 -1.3,-1.68 -0.1,-0.1 -0.2,-0.19 -0.3,-0.29 -0.3,-0.22 -0.6,-0.46 -0.9,-0.68 -0.5,-0.24 -1,-0.54 -1.6,-0.54 -0.1,0 -0.1,0 -0.1,0 v 0 c -0.2,0 -0.3,0 -0.4,0 -0.5,0 -1,0.13 -1.4,0.39 -0.5,0.2 -0.8,0.46 -1.2,0.85 -0.1,0.19 -0.3,0.39 -0.4,0.58 -0.1,0.25 -0.2,0.49 -0.3,0.74 -0.2,0.41 -0.4,0.78 -0.5,1.2 -0.1,0.42 -0.3,0.84 -0.4,1.26 -0.4,1.51 -0.8,3.03 -1.2,4.56 -0.7,3.09 -1.4,6.18 -2.1,9.28 -0.4,1.66 -0.7,3.36 -1,5.03 -0.3,1.64 -0.5,3.32 -0.6,4.98 -0.2,2.16 -0.1,4.35 0,6.51 0,1.57 1.2,2.88 2.9,2.88 0.7,0 1.5,-0.33 2,-0.85 0.1,-0.13 0.2,-0.27 0.4,-0.42 0.1,-0.16 0.2,-0.32 0.2,-0.5 0.1,-0.17 0.2,-0.35 0.2,-0.53 0,-0.19 0,-0.38 0,-0.58 0,-1.3 0,-2.61 0,-3.91 -0.1,-1.49 0.1,-2.96 0.2,-4.43 0.2,-1.39 0.5,-2.78 0.8,-4.16 1.3,-0.15 2.6,-0.29 3.9,-0.45 1.2,-0.15 2.4,-0.27 3.7,-0.48 0,0 0,0 0,0 0,0.15 0.1,0.31 0.1,0.46 0.6,2.05 1.3,4.09 1.9,6.12 1,2.92 1.9,5.83 2.8,8.77 0.4,1.5 2,2.43 3.5,2.01 1.5,-0.41 2.4,-2.04 2,-3.54 -0.7,-2.34 -1.4,-4.66 -2.1,-6.98 -0.5,-1.44 -1,-2.88 -1.4,-4.33 -0.4,-1.16 -0.8,-2.33 -1.1,-3.49 2.3,-0.44 4.6,-0.96 6.9,-1.44 0,0.6 -0.1,1.21 -0.1,1.81 0,0.9 0.2,1.81 0.4,2.69 0.1,0.87 0.5,1.67 0.8,2.47 0.4,0.79 1,1.46 1.5,2.12 0.4,0.55 1,0.99 1.6,1.42 0.6,0.47 1.2,0.85 1.9,1.2 1.7,0.82 3.5,1.23 5.3,1.27 0.9,0 1.7,-0.14 2.5,-0.4 0.8,-0.26 1.5,-0.68 2.2,-1.16 0.6,-0.4 1.1,-0.87 1.5,-1.37 0,0.2 0,0.39 0,0.58 -0.1,0.65 -0.2,1.28 -0.2,1.93 0,0.82 0.2,1.63 0.2,2.43 0.1,0.79 0.3,1.46 0.9,2.04 0.5,0.53 1.3,0.84 2,0.84 0.2,0 0.4,0 0.6,-0.1 0.5,-0.11 1.1,-0.38 1.5,-0.78 0.1,-0.13 0.2,-0.27 0.3,-0.43 0.3,-0.47 0.5,-1.07 0.5,-1.61 -0.1,-0.63 -0.1,-1.26 -0.2,-1.88 0,-0.63 0,-1.25 0,-1.89 0.2,-1.16 0.3,-2.33 0.5,-3.5 0.1,-1.3 0.2,-2.6 0.3,-3.91 0,-0.7 0,-1.38 0,-2.07 0,-0.73 -0.2,-1.47 -0.3,-2.19 -0.2,-1.28 -0.6,-2.54 -1.5,-3.54 -0.4,-0.49 -0.9,-0.87 -1.4,-1.22 -0.4,-0.15 -0.7,-0.29 -1.1,-0.44 -0.4,0 -0.7,-0.1 -1.1,-0.15 -0.3,0 -0.6,0 -0.9,0.1 -0.3,0 -0.6,0.1 -0.9,0.1 -0.5,0.1 -1,0.13 -1.5,0.2 -0.6,0.1 -1.2,0.17 -1.8,0.26 0,0 0,0 -0.1,0 -0.5,-0.1 -0.9,-0.18 -1.4,-0.12 -0.6,0 -1.1,0.13 -1.5,0.4 -0.5,0.27 -0.9,0.7 -1.1,1.2 -0.3,0.45 -0.4,0.93 -0.4,1.45 0,0.52 0.1,1.01 0.4,1.46 0.5,0.91 1.4,1.37 2.5,1.42 0.4,0 0.8,0 1.2,0 0.4,0.1 0.8,0.22 1.2,0.36 0.2,0.1 0.4,0.2 0.6,0.3 0,0 0.1,0.1 0.1,0.16 0,0 0,0 0,0 0,0 0,0 0,0 0,0.29 0,0.57 0,0.85 -0.1,0.77 -0.4,1.52 -0.6,2.27 -0.3,0.48 -0.5,0.94 -0.8,1.38 -0.2,0.23 -0.4,0.45 -0.7,0.66 -0.2,0.18 -0.5,0.34 -0.8,0.48 -0.1,0 -0.2,0 -0.3,0.1 -0.4,0 -0.8,0 -1.2,0 -0.5,-0.1 -1,-0.24 -1.5,-0.42 -0.6,-0.27 -1.1,-0.57 -1.6,-0.93 -0.3,-0.26 -0.6,-0.52 -0.8,-0.81 -0.2,-0.31 -0.4,-0.62 -0.6,-0.95 -0.1,-0.51 -0.3,-1.02 -0.4,-1.55 0,-1.17 0,-2.33 0.2,-3.49 0.4,-2.58 1.1,-5.08 2,-7.5 0.8,-1.78 1.7,-3.54 2.8,-5.13 0.7,-0.76 1.3,-1.48 2,-2.13 0.3,-0.15 0.5,-0.29 0.7,-0.42 1.1,-0.34 2.1,-0.53 3.2,-0.71 0.1,0 0.3,0 0.5,-0.1 0.2,0 0.5,-0.1 0.7,-0.1 0.5,-0.14 0.9,-0.39 1.3,-0.74 0.5,-0.54 0.9,-1.28 0.9,-2.04 0,-0.76 -0.4,-1.5 -0.9,-2.03 -0.4,-0.45 -1.2,-0.86 -1.8,-0.86 z m -66.5,7.47 c -1.2,0 -2.5,0.26 -3.6,0.7 -0.1,0 -0.2,0.1 -0.3,0.13 -0.1,-0.12 -0.3,-0.22 -0.4,-0.32 -0.4,-0.31 -1,-0.5 -1.6,-0.5 -1.5,0 -2.9,1.31 -2.9,2.88 0,0.32 0,0.64 0,0.96 -1.4,1.27 -2.7,2.72 -3.9,4.29 -0.9,1.1 -1.5,2.34 -2,3.62 -0.5,1.37 -1,2.76 -1.4,4.17 -0.5,1.5 0.5,3.13 2,3.54 1.5,0.43 3,-0.51 3.5,-2.01 0.4,-1.31 0.9,-2.59 1.4,-3.87 0.2,-0.45 0.4,-0.88 0.6,-1.3 0.1,7.41 0.1,14.82 0.1,22.23 0,1.57 1.3,2.88 2.9,2.88 1.6,0 2.9,-1.31 2.9,-2.88 0,-3.14 0,-6.29 0,-9.43 0.3,0.1 0.7,0.2 1.1,0.31 0.9,0.23 1.9,0.42 2.7,0.71 2.5,0.81 5,1.58 7.4,2.56 1.8,0.81 3.6,1.72 5.4,2.59 0.7,0.34 1.5,0.51 2.2,0.29 0.8,-0.2 1.4,-0.68 1.8,-1.33 0.4,-0.66 0.5,-1.47 0.3,-2.21 -0.2,-0.67 -0.7,-1.42 -1.4,-1.73 -2.8,-1.34 -5.6,-2.73 -8.5,-3.82 -1.4,-0.53 -2.8,-0.98 -4.2,-1.45 -0.2,-0.1 -0.4,-0.11 -0.6,-0.17 0.9,-0.5 1.8,-1.07 2.6,-1.74 0.5,-0.39 0.9,-0.8 1.4,-1.24 0.5,-0.5 0.9,-1.09 1.3,-1.65 0.4,-0.58 0.7,-1.29 1,-1.95 0.2,-0.64 0.4,-1.25 0.5,-1.92 0.6,-2.97 -0.6,-5.91 -2.5,-8.19 -0.4,-0.47 -0.8,-0.91 -1.2,-1.34 -0.5,-0.49 -1,-0.89 -1.6,-1.29 -0.5,-0.4 -1.2,-0.66 -1.8,-0.91 -0.6,-0.21 -1.1,-0.37 -1.7,-0.48 -0.5,-0.1 -1,-0.13 -1.5,-0.13 z m -36.15,0.41 c -2.57,0 -5.14,0.1 -7.7,0.18 -1.57,0.1 -2.88,1.27 -2.88,2.88 0,1.53 1.31,2.93 2.88,2.88 3.18,-0.12 6.36,-0.22 9.54,-0.16 0.1,1.98 0.14,3.96 0.21,5.94 0,1.16 0.1,2.31 0.17,3.46 0,0.58 0.1,1.17 0.11,1.76 -1.37,-0.34 -2.73,-0.72 -4.09,-1.13 -0.25,-0.1 -0.5,-0.11 -0.76,-0.11 -1.25,0 -2.44,0.88 -2.78,2.12 -0.42,1.54 0.51,3.09 2.01,3.54 1.63,0.49 3.27,0.94 4.93,1.34 0.38,0.1 0.77,0.18 1.16,0.26 0.1,0.67 0.12,1.34 0.18,2 0.3,3.53 0.57,7.06 0.82,10.59 0,0.78 0.27,1.47 0.84,2.04 0.54,0.54 1.27,0.84 2.04,0.84 1.48,0 2.97,-1.31 2.87,-2.88 -0.2,-3.53 -0.5,-7.06 -0.8,-10.59 0,-0.38 -0.1,-0.77 -0.1,-1.16 3.3,0.28 6.5,0.22 9.8,0.25 1.6,0 2.9,-1.32 2.9,-2.88 0,-1.58 -1.3,-2.86 -2.9,-2.88 -0.9,0 -1.7,0 -2.6,0 -1.1,0 -2.2,0 -3.3,0 -1.5,0 -2.9,-0.13 -4.39,-0.27 -0.1,-0.94 -0.13,-1.88 -0.19,-2.82 -0.1,-1.15 -0.12,-2.3 -0.16,-3.46 -0.1,-1.9 -0.13,-3.81 -0.2,-5.72 4.24,0.19 8.34,0.37 12.54,0.51 1.6,0.1 2.9,-1.35 2.9,-2.88 0,-1.61 -1.3,-2.82 -2.9,-2.88 -5.4,-0.18 -10.7,-0.43 -16.13,-0.67 -1.34,-0.1 -2.68,-0.1 -4.02,-0.1 z m 68.35,3.9 c 0.5,1.39 1,2.79 1.5,4.2 0.3,0.92 0.6,1.83 0.9,2.76 0.1,0.28 0.2,0.56 0.3,0.84 -0.3,0 -0.6,0.1 -0.9,0.1 -1.3,0.16 -2.5,0.3 -3.8,0.45 0.1,-0.54 0.2,-1.08 0.4,-1.62 0.3,-1.58 0.7,-3.17 1.1,-4.74 0.1,-0.66 0.3,-1.33 0.5,-1.99 z m -32.6,1.45 c 0.3,0 0.5,0 0.7,0 0.3,0.1 0.7,0.16 1,0.28 0.3,0.15 0.6,0.31 0.8,0.49 0.5,0.44 1,0.92 1.4,1.43 0.3,0.43 0.6,0.88 0.8,1.36 0.2,0.41 0.3,0.82 0.4,1.25 0,0.21 0,0.41 0,0.61 -0.1,0.39 -0.2,0.77 -0.3,1.14 -0.2,0.37 -0.4,0.71 -0.6,1.05 -0.5,0.54 -1,1.03 -1.6,1.49 -1,0.7 -2,1.25 -3.1,1.75 -0.6,0.24 -1.2,0.47 -1.9,0.69 0,-2.17 0,-4.33 0,-6.5 -0.1,-1.35 -0.1,-2.71 -0.1,-4.06 0.3,-0.18 0.6,-0.36 0.9,-0.51 0.5,-0.2 1.1,-0.35 1.6,-0.47 z m 116.2,2.09 c 0,0 0,0 0,0 0,0.1 -0.1,0.14 -0.1,0.2 0,-0.1 0.1,-0.13 0.1,-0.2 z m -32.9,11.68 c 0,0.1 0.1,0.1 0.1,0.15 0,0 0,0 0,0 0,0 -0.1,-0.1 -0.2,-0.16 z" style="fill:#000000;fill-opacity:1;fill-rule:nonzero;stroke:none;stroke-width:1.33333" id="pProblemLabel" inkscape:connector-curvature="0" />
      <g id="gProblemIcon">
        <path d="m 393.66,114.75 c -0.74,2.33 0.12,5.3 -1.96,7.31 -3.04,4.85 -7.79,8.24 -11.19,12.78 -2.17,1.81 -2.99,4.62 -4.52,6.91 -1.27,1.71 0.48,5.46 2.36,2.99 0.5,-3.15 2.8,-5.5 4.45,-8.11 3.09,-4.32 7.58,-7.46 10.51,-11.94 1.48,-1.85 3.14,-4.09 1.5,-6.42 -0.37,-1.17 -0.77,-2.34 -1.15,-3.52 z m -19.24,4.52 c -5.42,0 -10.01,3.71 -13.12,7.85 -1.65,1.37 -1.06,5.7 1.53,3.71 0.67,-2.87 3.15,-4.74 5.31,-6.55 1.96,-1.44 4.37,-2.16 6.77,-2.27 1.41,-0.53 1,-2.72 -0.49,-2.74 z m 13.9,23.81 c -3.68,1.64 1.5,4.5 2.93,6.01 0.84,1.7 -2.82,3.9 -3.85,5.77 -2.27,2.42 -3.63,5.85 -6.69,7.41 -2,1.58 -5.94,-2.2 -6.13,1.42 1.7,2.5 5.74,2.08 8.11,0.77 3.65,-2.35 5.38,-6.6 8.44,-9.57 1.35,-1.83 2.79,-3.33 4.42,-4.51 -0.51,-3.19 -4.41,-4.41 -6.22,-6.89 l -0.46,-0.31 z m -8.15,27.32 c -2.7,0.52 -0.66,2.69 0.12,3.83 0.93,3.48 -2.52,7.18 -6.04,6.79 -2.03,-0.68 -5.34,1.94 -2.34,3.14 2.64,-0.49 5.66,0 7.82,-1.96 2.79,-2.11 4.44,-5.93 3.11,-9.32 -0.39,-1.24 -1.29,-2.36 -2.67,-2.48 z" style="opacity:0.983902;fill:#a2a2a2;fill-opacity:1;fill-rule:nonzero;stroke:none;stroke-width:0.352777" id="pProblemIconShadow" inkscape:connector-curvature="0" />
        <path d="m 379.29,103.89 c -5.74,-0.38 -10.54,3.48 -14.24,7.42 -2.79,3.27 -5.62,6.54 -8.9,9.34 -2.59,2.36 -2.78,7.29 1.51,7.52 2.97,2.39 3.97,-2.55 6.47,-3.69 2.13,-1.88 4.68,-3.65 7.63,-3.52 3.14,-0.17 6.31,2.54 4.88,5.86 -1.64,6.17 -7.44,10.25 -9.74,15.97 -1.85,3.84 -1.92,8.17 -2.56,12.3 1.73,3.86 4.91,8.13 9.51,8.33 3.42,-0.2 7.33,-0.36 10.02,-2.67 2.11,-2.75 4.54,-5.3 6.84,-7.88 1.66,-1.7 2.52,-3.24 0,-4.48 -1.85,-0.75 -4.34,-5.78 -5.4,-2.67 -2.08,1.67 -4.77,3.55 -7.35,1.84 -1.16,0.64 -0.15,-1.37 -1.15,-2.2 -0.81,-3.26 2.11,-5.5 3.46,-8.06 2.16,-2.45 3.23,-2.89 4.69,-5.18 1.93,-2.91 4.97,-4.99 7.04,-7.66 -0.17,-3.71 1.76,-7.2 1,-10.98 -1.13,-2.53 0,-4.97 -2.93,-6.7 -2.85,-2.79 -6.98,-2.95 -10.73,-2.89 z m -3.74,65.5 c -2.13,1.97 -5.74,3.33 -6.36,6.36 -0.41,2.96 2,7.5 5.44,5.83 3.39,0.37 5.6,-2.42 6.57,-5.36 1.51,-2.74 -0.5,-6.29 -3.42,-6.74 -0.74,-0.1 -1.48,-0.1 -2.23,-0.1 z" style="fill:#fdd757;fill-opacity:0.966507;fill-rule:nonzero;stroke:none;stroke-width:0.352777" id="pProblemIconBG" inkscape:connector-curvature="0" />
        <path d="m 380.64,102.79 c -6.91,0.27 -12.33,5.2 -17.35,9.43 -3.84,3.88 -7.67,7.85 -10.78,12.33 0.71,2.52 4.5,3.85 6.4,5.83 2.45,-1 3.43,-4.41 5.61,-6.13 2.12,-1.85 5.2,-3 7.7,-3.01 3.82,-0.6 4.65,4.11 3.83,6.89 -1.86,5.26 -6.89,8.51 -9.26,13.51 -2.79,4.73 -3.28,10.62 -2.09,15.9 1.03,3.33 4.48,5.18 7.55,6.32 3.47,0.77 7.82,1.16 10.47,-1.76 3.55,-3.55 6.7,-7.47 10.03,-11.22 0.32,-2.93 -4.22,-4 -5.52,-6.45 -2.46,-2.72 -3.72,3.69 -6.87,3.12 -4.33,0.61 -4.24,-5.87 -1.86,-8.04 4.4,-5.84 11.31,-9.82 14.12,-16.82 1.28,-3.74 1.84,-7.99 0.6,-11.81 -1.94,-4.1 -5.79,-8.14 -10.67,-8.05 -0.64,0 -1.28,0 -1.91,0 z m 0,1.69 c 3.38,-0.25 6.46,0.78 8.3,3.12 2.84,2.49 3.74,6.32 3.15,9.95 -0.31,5.47 -3.98,9.84 -7.77,13.44 -3.29,3.3 -7.32,6.36 -8.93,10.89 -0.79,2.95 0.46,7.47 4.14,7.42 2.81,0.54 5.25,-2.77 6.91,-3.23 1.59,2.27 6.83,3.9 2.69,6.4 -2.98,3.14 -5.43,6.85 -8.92,9.47 -3.29,1.43 -7.44,0.83 -10.42,-1.12 -3.48,-1.53 -4.25,-5.51 -3.94,-8.94 -0.31,-6.81 4,-12.56 8.34,-17.35 2.58,-2.9 4.53,-6.74 3.62,-10.72 -0.41,-3.1 -3.66,-4.91 -6.59,-4.2 -3.99,0.38 -7.75,2.57 -10.01,5.89 -1.25,1.3 -2.11,4.19 -3.79,1.59 -1.6,-1.34 -4.16,-2.38 -1.59,-4.21 5.51,-6.55 11.46,-13.1 19.22,-16.98 1.76,-0.79 3.64,-1.44 5.59,-1.42 z m -3.87,64.55 c -3.25,0 -6.55,1.84 -7.54,5.06 -1.04,2.56 -1.64,6.22 1.24,7.86 2.82,1.44 6.76,0.69 9.04,-1.46 2.07,-2.61 3.04,-6.71 1.13,-9.64 0.62,-1.9 -2.85,-1.73 -3.87,-1.82 z m -0.26,1.7 c 3.88,-0.53 4.09,4.88 2.59,7.32 -1.27,2.9 -5.81,3.86 -8.23,2.04 -1.97,-2.51 0,-6.7 2.25,-8.4 1.06,-0.49 2.21,-0.96 3.39,-0.96 z" style="fill:#000000;fill-opacity:0.966507;fill-rule:nonzero;stroke:none;stroke-width:0.352777" id="pProblemIconStroke" inkscape:connector-curvature="0" />
      </g>
    </g>
  </g>
</svg>
