<?xml version="1.0" encoding="UTF-8" standalone="no"?>
<svg xmlns:dc="http://purl.org/dc/elements/1.1/" xmlns:cc="http://creativecommons.org/ns#" xmlns:rdf="http://www.w3.org/1999/02/22-rdf-syntax-ns#" xmlns:svg="http://www.w3.org/2000/svg" xmlns="http://www.w3.org/2000/svg" xmlns:sodipodi="http://sodipodi.sourceforge.net/DTD/sodipodi-0.dtd" xmlns:inkscape="http://www.inkscape.org/namespaces/inkscape" inkscape:version="1.0rc1 (09960d6f05, 2020-04-09)" sodipodi:docname="title.svg" width="1389.4" height="231.11" viewBox="0 0 367.6 61.152" version="1.1" id="svg78">
  <sodipodi:namedview inkscape:current-layer="svg78" inkscape:cy="817.2" inkscape:cx="548" inkscape:zoom="0.36837" units="px" showgrid="false" id="namedview10" inkscape:window-height="480" inkscape:window-width="640" inkscape:pageshadow="2" inkscape:pageopacity="0" guidetolerance="10" gridtolerance="10" objecttolerance="10" borderopacity="1" bordercolor="#666666" pagecolor="#ffffff" />
  <defs id="defs72" />
  <metadata id="metadata75">
    <rdf:RDF>
      <cc:Work rdf:about="">
        <dc:format>image/svg+xml</dc:format>
        <dc:type rdf:resource="http://purl.org/dc/dcmitype/StillImage" />
        <dc:title></dc:title>
      </cc:Work>
    </rdf:RDF>
  </metadata>
  <g style="stroke-width:0.994244" transform="matrix(1.0056,0,0,1.0056,-0.5383,-0.08815)" id="layer1">
    <g style="stroke-width:0.994244" transform="matrix(0.99999,0,0,0.99999,-40.375,-13.075)" id="g14452">
      <g style="stroke-width:0.994244" id="gTitle">
        <path inkscape:connector-curvature="0" d="m 379.16,13.524 c -3.88,3.061 -14.95,-1.969 -9.91,6.969 -1.8,10.788 -17.39,3.044 -25.64,4.362 -12.96,0.128 -24.07,-3.215 -37.05,-1.708 -34.6,2.011 -69.27,-0.374 -103.77,-1.834 -34.24,0.1 -68.57,1.829 -102.71,-0.421 C 84.939,20.777 70.122,17.846 55.267,15.984 39.391,8.8106 44.405,27.012 43.225,36.735 44.092,48.461 38.651,64.763 46.323,73.07 53.285,68.957 65.536,64.4 58.519,56.486 63.53,49.09 72.73,60.313 78.894,53.313 c 11.838,-0.768 23.416,1.539 34.366,0.584 29.12,0.69 58.31,1.008 87.36,2.37 31.19,3.004 62.6,0.551 93.87,2.091 29.5,-0.128 59.29,2.057 88.55,-2.569 12.58,-0.963 23.18,-7.239 21.54,-21.302 0.42,-8.673 3.73,-23.724 -10.4,-20.11 -4.99,-0.532 -10,-0.792 -15.02,-0.853 z" style="fill:#fdd757;fill-opacity:0.966507;fill-rule:nonzero;stroke:none;stroke-width:0.350746" id="pTitleBG" />
        <path inkscape:connector-curvature="0" d="m 368.21,13.075 c -7.25,2.252 4.42,15.477 -8.75,10.197 C 317.25,21.931 274.99,23.217 232.79,21.11 187.62,20.612 142.41,21.917 97.257,20.192 79.574,19.912 62.377,14.849 44.775,14.05 38.06,26.144 43.713,43.229 41.714,57.16 c -5.857,12.802 8.887,23.816 17.626,11.579 6.742,-6.301 -2.354,-14.584 9.372,-11.934 23.442,0.281 46.828,-1.514 70.278,-1.104 28.73,-0.297 57.34,0.193 86.11,2.392 25.5,0.818 50.97,2.619 76.46,3.309 25.78,-0.388 51.61,-1.409 77.3,-3.579 12.03,-1.155 29.04,-6.499 26.91,-21.466 -2.38,-7.561 4.62,-24.664 -8.1,-22.899 -9.82,0.02 -19.66,0.387 -29.46,-0.383 z m 1.18,3.828 c 10.19,1.849 23.97,-1.614 31.86,1.832 -1.41,7.189 6.14,24.493 -6.75,16.343 -11.33,-0.608 -24.07,8.484 -23.05,-8.669 -0.71,-3.162 -1.23,-6.375 -2.06,-9.506 z M 46.114,17.807 c 22.339,2.473 44.442,7.196 67.046,6.904 55.99,0.634 112.01,-0.77 167.97,1.633 28.89,0.346 57.84,-0.706 86.69,1.329 -0.79,9.541 9.46,29.137 18.91,18.012 0.91,-6.938 -5.83,-5.227 -4.34,-0.122 -15.69,-4.675 14.99,-10.978 18.79,-3.214 -3.1,10.326 -18.61,10.87 -28.01,12.3 -35.07,1.819 -70.26,4.59 -105.34,1.448 -32.62,-1.013 -65.45,-3.632 -97.9,-4.352 -19.58,0.105 -38.68,0.407 -58.2,0.187 -19.45,1.077 -39.11,1.463 -58.485,0.75 C 39.334,61.84 48.013,40.15 45.632,32.004 45.788,27.288 45.325,22.475 46.114,17.807 Z M 382.99,45.361 c 0.1,0.07 -0.1,0.07 0,0 z M 54.106,56.676 c 6.37,3.077 5.706,10.559 1.085,3.432 -7.16,-1.507 -0.574,4.604 -2.223,4.591 -5.919,1.195 -3.875,-9.224 1.138,-8.023 z m -8.247,2.653 c -3.634,6.351 6.236,9.388 7.384,9.5 -8.081,5.508 -9.663,-3.632 -7.384,-9.5 z m 8.459,4.511 c 0.05,0 0.03,0.155 0,0 z" style="fill:#000000;fill-opacity:0.966507;fill-rule:nonzero;stroke:none;stroke-width:0.350746" id="pTitleBorder" />
      </g>
    </g>
  </g>
</svg>
